<svg viewBox="0 0 1496 400" xmlns="http://www.w3.org/2000/svg"><g><g><g><g><g><line x1="74.78125" y1="377" x2="69.78125" y2="377" style="visibility: inherit;" fill="rgb(0, 0, 0)" stroke="rgb(204, 204, 204)" stroke-width="1px"></line><line x1="74.78125" y1="345.5833333333333" x2="69.78125" y2="345.5833333333333" style="visibility: inherit;" fill="rgb(0, 0, 0)" stroke="rgb(204, 204, 204)" stroke-width="1px"></line><line x1="74.78125" y1="314.1666666666667" x2="69.78125" y2="314.1666666666667" style="visibility: inherit;" fill="rgb(0, 0, 0)" stroke="rgb(204, 204, 204)" stroke-width="1px"></line><line x1="74.78125" y1="282.75" x2="69.78125" y2="282.75" style="visibility: inherit;" fill="rgb(0, 0, 0)" stroke="rgb(204, 204, 204)" stroke-width="1px"></line><line x1="74.78125" y1="251.33333333333334" x2="69.78125" y2="251.33333333333334" style="visibility: inherit;" fill="rgb(0, 0, 0)" stroke="rgb(204, 204, 204)" stroke-width="1px"></line><line x1="74.78125" y1="219.91666666666669" x2="69.78125" y2="219.91666666666669" style="visibility: inherit;" fill="rgb(0, 0, 0)" stroke="rgb(204, 204, 204)" stroke-width="1px"></line><line x1="74.78125" y1="188.5" x2="69.78125" y2="188.5" style="visibility: inherit;" fill="rgb(0, 0, 0)" stroke="rgb(204, 204, 204)" stroke-width="1px"></line><line x1="74.78125" y1="157.08333333333337" x2="69.78125" y2="157.08333333333337" style="visibility: inherit;" fill="rgb(0, 0, 0)" stroke="rgb(204, 204, 204)" stroke-width="1px"></line><line x1="74.78125" y1="125.66666666666669" x2="69.78125" y2="125.66666666666669" style="visibility: inherit;" fill="rgb(0, 0, 0)" stroke="rgb(204, 204, 204)" stroke-width="1px"></line><line x1="74.78125" y1="94.25" x2="69.78125" y2="94.25" style="visibility: inherit;" fill="rgb(0, 0, 0)" stroke="rgb(204, 204, 204)" stroke-width="1px"></line><line x1="74.78125" y1="62.833333333333314" x2="69.78125" y2="62.833333333333314" style="visibility: inherit;" fill="rgb(0, 0, 0)" stroke="rgb(204, 204, 204)" stroke-width="1px"></line><line x1="74.78125" y1="31.41666666666663" x2="69.78125" y2="31.41666666666663" style="visibility: inherit;" fill="rgb(0, 0, 0)" stroke="rgb(204, 204, 204)" stroke-width="1px"></line><line x1="74.78125" y1="0" x2="69.78125" y2="0" style="visibility: inherit;" fill="rgb(0, 0, 0)" stroke="rgb(204, 204, 204)" stroke-width="1px"></line></g><g transform="translate(64.78125, 0)"><text x="0" y="377" dx="0em" dy="0.3em" style="text-anchor: end; visibility: hidden; font-family: &quot;Helvetica Neue&quot;, sans-serif; font-size: 12px; font-weight: 200;" fill="rgb(50, 49, 63)" stroke="none" stroke-width="1px">-2e-6</text><text x="0" y="345.5833333333333" dx="0em" dy="0.3em" style="text-anchor: end; visibility: inherit; font-family: &quot;Helvetica Neue&quot;, sans-serif; font-size: 12px; font-weight: 200;" fill="rgb(50, 49, 63)" stroke="none" stroke-width="1px">0</text><text x="0" y="314.1666666666667" dx="0em" dy="0.3em" style="text-anchor: end; visibility: inherit; font-family: &quot;Helvetica Neue&quot;, sans-serif; font-size: 12px; font-weight: 200;" fill="rgb(50, 49, 63)" stroke="none" stroke-width="1px">2e-6</text><text x="0" y="282.75" dx="0em" dy="0.3em" style="text-anchor: end; visibility: inherit; font-family: &quot;Helvetica Neue&quot;, sans-serif; font-size: 12px; font-weight: 200;" fill="rgb(50, 49, 63)" stroke="none" stroke-width="1px">4e-6</text><text x="0" y="251.33333333333334" dx="0em" dy="0.3em" style="text-anchor: end; visibility: inherit; font-family: &quot;Helvetica Neue&quot;, sans-serif; font-size: 12px; font-weight: 200;" fill="rgb(50, 49, 63)" stroke="none" stroke-width="1px">6e-6</text><text x="0" y="219.91666666666669" dx="0em" dy="0.3em" style="text-anchor: end; visibility: inherit; font-family: &quot;Helvetica Neue&quot;, sans-serif; font-size: 12px; font-weight: 200;" fill="rgb(50, 49, 63)" stroke="none" stroke-width="1px">8e-6</text><text x="0" y="188.5" dx="0em" dy="0.3em" style="text-anchor: end; visibility: inherit; font-family: &quot;Helvetica Neue&quot;, sans-serif; font-size: 12px; font-weight: 200;" fill="rgb(50, 49, 63)" stroke="none" stroke-width="1px">1e-5</text><text x="0" y="157.08333333333337" dx="0em" dy="0.3em" style="text-anchor: end; visibility: inherit; font-family: &quot;Helvetica Neue&quot;, sans-serif; font-size: 12px; font-weight: 200;" fill="rgb(50, 49, 63)" stroke="none" stroke-width="1px">1.2e-5</text><text x="0" y="125.66666666666669" dx="0em" dy="0.3em" style="text-anchor: end; visibility: inherit; font-family: &quot;Helvetica Neue&quot;, sans-serif; font-size: 12px; font-weight: 200;" fill="rgb(50, 49, 63)" stroke="none" stroke-width="1px">1.4e-5</text><text x="0" y="94.25" dx="0em" dy="0.3em" style="text-anchor: end; visibility: inherit; font-family: &quot;Helvetica Neue&quot;, sans-serif; font-size: 12px; font-weight: 200;" fill="rgb(50, 49, 63)" stroke="none" stroke-width="1px">1.6e-5</text><text x="0" y="62.833333333333314" dx="0em" dy="0.3em" style="text-anchor: end; visibility: inherit; font-family: &quot;Helvetica Neue&quot;, sans-serif; font-size: 12px; font-weight: 200;" fill="rgb(50, 49, 63)" stroke="none" stroke-width="1px">1.8e-5</text><text x="0" y="31.41666666666663" dx="0em" dy="0.3em" style="text-anchor: end; visibility: inherit; font-family: &quot;Helvetica Neue&quot;, sans-serif; font-size: 12px; font-weight: 200;" fill="rgb(50, 49, 63)" stroke="none" stroke-width="1px">2e-5</text><text x="0" y="0" dx="0em" dy="0.3em" style="text-anchor: end; visibility: hidden; font-family: &quot;Helvetica Neue&quot;, sans-serif; font-size: 12px; font-weight: 200;" fill="rgb(50, 49, 63)" stroke="none" stroke-width="1px">2.2e-5</text></g><line x1="74.78125" y1="0" x2="74.78125" y2="377" fill="rgb(0, 0, 0)" stroke="rgb(204, 204, 204)" stroke-width="1px"></line></g></g><g transform="translate(74, 0)" clip-path="url(#clip_0)"><clipPath id="clip_0"><rect width="1421" height="377"></rect></clipPath><g><g><g><line x1="0" y1="0" x2="0" y2="377" fill="rgb(0, 0, 0)" stroke="rgb(60, 60, 60)" stroke-width="1px" opacity="0.25"></line><line x1="157.91319444444443" y1="0" x2="157.91319444444443" y2="377" fill="rgb(0, 0, 0)" stroke="rgb(60, 60, 60)" stroke-width="1px" opacity="0.25"></line><line x1="315.82638888888886" y1="0" x2="315.82638888888886" y2="377" fill="rgb(0, 0, 0)" stroke="rgb(60, 60, 60)" stroke-width="1px" opacity="0.25"></line><line x1="473.7395833333333" y1="0" x2="473.7395833333333" y2="377" fill="rgb(0, 0, 0)" stroke="rgb(60, 60, 60)" stroke-width="1px" opacity="0.25"></line><line x1="631.6527777777777" y1="0" x2="631.6527777777777" y2="377" fill="rgb(0, 0, 0)" stroke="rgb(60, 60, 60)" stroke-width="1px" opacity="0.25"></line><line x1="789.5659722222223" y1="0" x2="789.5659722222223" y2="377" fill="rgb(0, 0, 0)" stroke="rgb(60, 60, 60)" stroke-width="1px" opacity="0.25"></line><line x1="947.4791666666666" y1="0" x2="947.4791666666666" y2="377" fill="rgb(0, 0, 0)" stroke="rgb(60, 60, 60)" stroke-width="1px" opacity="0.25"></line><line x1="1105.392361111111" y1="0" x2="1105.392361111111" y2="377" fill="rgb(0, 0, 0)" stroke="rgb(60, 60, 60)" stroke-width="1px" opacity="0.25"></line><line x1="1263.3055555555554" y1="0" x2="1263.3055555555554" y2="377" fill="rgb(0, 0, 0)" stroke="rgb(60, 60, 60)" stroke-width="1px" opacity="0.25"></line><line x1="1421.21875" y1="0" x2="1421.21875" y2="377" fill="rgb(0, 0, 0)" stroke="rgb(60, 60, 60)" stroke-width="1px" opacity="0.25"></line></g><g><line x1="0" y1="377" x2="1421.21875" y2="377" fill="rgb(0, 0, 0)" stroke="rgb(60, 60, 60)" stroke-width="1px" opacity="0.25"></line><line x1="0" y1="345.5833333333333" x2="1421.21875" y2="345.5833333333333" fill="rgb(0, 0, 0)" stroke="rgb(60, 60, 60)" stroke-width="1px" opacity="0.25"></line><line x1="0" y1="314.1666666666667" x2="1421.21875" y2="314.1666666666667" fill="rgb(0, 0, 0)" stroke="rgb(60, 60, 60)" stroke-width="1px" opacity="0.25"></line><line x1="0" y1="282.75" x2="1421.21875" y2="282.75" fill="rgb(0, 0, 0)" stroke="rgb(60, 60, 60)" stroke-width="1px" opacity="0.25"></line><line x1="0" y1="251.33333333333334" x2="1421.21875" y2="251.33333333333334" fill="rgb(0, 0, 0)" stroke="rgb(60, 60, 60)" stroke-width="1px" opacity="0.25"></line><line x1="0" y1="219.91666666666669" x2="1421.21875" y2="219.91666666666669" fill="rgb(0, 0, 0)" stroke="rgb(60, 60, 60)" stroke-width="1px" opacity="0.25"></line><line x1="0" y1="188.5" x2="1421.21875" y2="188.5" fill="rgb(0, 0, 0)" stroke="rgb(60, 60, 60)" stroke-width="1px" opacity="0.25"></line><line x1="0" y1="157.08333333333337" x2="1421.21875" y2="157.08333333333337" fill="rgb(0, 0, 0)" stroke="rgb(60, 60, 60)" stroke-width="1px" opacity="0.25"></line><line x1="0" y1="125.66666666666669" x2="1421.21875" y2="125.66666666666669" fill="rgb(0, 0, 0)" stroke="rgb(60, 60, 60)" stroke-width="1px" opacity="0.25"></line><line x1="0" y1="94.25" x2="1421.21875" y2="94.25" fill="rgb(0, 0, 0)" stroke="rgb(60, 60, 60)" stroke-width="1px" opacity="0.25"></line><line x1="0" y1="62.833333333333314" x2="1421.21875" y2="62.833333333333314" fill="rgb(0, 0, 0)" stroke="rgb(60, 60, 60)" stroke-width="1px" opacity="0.25"></line><line x1="0" y1="31.41666666666663" x2="1421.21875" y2="31.41666666666663" fill="rgb(0, 0, 0)" stroke="rgb(60, 60, 60)" stroke-width="1px" opacity="0.25"></line><line x1="0" y1="0" x2="1421.21875" y2="0" fill="rgb(0, 0, 0)" stroke="rgb(60, 60, 60)" stroke-width="1px" opacity="0.25"></line></g></g></g><g><g><line x1="0" y1="345.5833333333333" x2="1421.21875" y2="345.5833333333333" fill="rgb(0, 0, 0)" stroke="rgb(153, 153, 153)" stroke-width="1.5px"></line></g></g><g><g><line x1="157.91319444444443" y1="0" x2="157.91319444444443" y2="377" fill="rgb(0, 0, 0)" stroke="rgb(153, 153, 153)" stroke-width="1.5px"></line></g></g><g><g><g><g><g><path stroke="rgb(255, 112, 67)" stroke-width="2px" d="M157.95512039756943,345.5833333333333L159.21013551041665,345.5833333333333L160.1951190607639,345.5833333333333L161.20047341319446,345.5833333333333L161.80693903645832,345.583333333044L162.7725782204861,345.45609641208637L163.4628167934028,345.50845694026685L164.0904427847222,345.5389191455676L166.34473259201388,345.5568656803962L168.31185725520834,345.5675171468386L168.62349894444444,345.5738666572734L169.58984873784723,345.5776615884365L170.8784204045139,345.5799332533473L171.19511531597223,345.58129435195525L174.74958340972222,345.58211032816627L175.39939620486112,345.5825996682813L176.7224719045139,345.58289318398454L177.05369482986112,345.5830692616065L177.6916641354167,345.58317476928215L178.32481708854166,345.58323819722165L180.93551697569447,345.58327625250115L182.2261415138889,345.58329908513457L185.76039671874997,345.5833007880858L187.69491230729167,345.5833138062465L188.69789796180555,345.5833216171034L191.900772328125,345.58332630360337L192.90770581249998,345.58332911549826L193.19747652430556,345.5833308026333L193.23450716840279,345.583331814913L195.1358609861111,345.14452040608506L195.47403209201389,345.2479761197383L196.42245873784725,345.3821190158523L203.56755704687498,345.4626047466881L203.57545270659722,339.65997232430726L203.8919107482639,342.0293167686484L204.22763419965278,343.4509234091854L207.4312191753472,344.3038873841233L209.7218290173611,344.81566576570765L211.642211375,345.122732793442L212.93149365104168,345.3069730096448L213.59828211458333,345.4175171392089L214.58839784375002,345.48384361689057L216.5137544670139,345.5236395034049L218.77246584374998,345.54751703538045L219.71670778993055,345.56184355455133L220.08630362152778,345.57043946572566L221.69970272916666,345.1816230621651L226.52181899131944,345.342307170636L228.79071576909723,345.4387176357162L228.7980587326389,345.41171031771034L231.38996694965277,345.48035952395986L231.70681977430556,345.52154904770936L231.71368899826388,345.546262761959L232.04349070486109,345.5554236500202L233.31019139409722,345.56656976348273L233.9720055920139,345.57327519142297L235.26263013020832,345.5772984481871L237.23891375868055,345.5797124022456L237.55402953819444,345.5811607746807L240.76732617534722,345.5820297981418L241.08078386631945,345.58254835549394L242.38972633506944,345.5828623466297L243.6927470590278,345.5830507413112L245.28972319444443,345.58316377812L245.9716713246528,345.58323160020535L248.5196796736111,345.5832676639187L249.17438777777778,342.5141355727586L249.18528378819443,343.7418146769885L249.49589904166666,344.4784221395264L252.1054935364583,344.9203866170492L254.665345375,345.1855653022934L254.69353288020835,345.3446725147094L256.00610735243055,345.44013684215895L256.62465333506947,345.4974154386287L258.25431750173607,345.53178259651054L260.85112102777776,345.5524028912397L261.14918218229167,345.56477506807715L261.7852565295139,345.5721983741796L263.0915934305556,345.5766523578411L263.44255550520836,345.579324748038L264.0872361215278,273.09389261721367L266.6596420590278,302.08966890366156L267.97032157291665,319.4871346755303L268.61879210590274,329.9256141386515L268.9063520329861,336.18870181652426L271.84156353472224,339.94655442324785L271.8477221493055,342.20126598728206L271.85048563020837,343.55409292570255L272.8182566423611,344.36578908875487L273.77402625173613,344.85280678658626L274.07437714756946,345.1450174052851L274.1092759635417,345.3203437765044L275.7437564826389,345.42553959923595L276.6696804982639,345.4886570928749L277.33173156597223,345.52650233563054L277.33994305208336,343.8386869372014L277.9725433090278,344.5365454956542L278.94623606597224,344.95526063072583L280.26860115625,345.2064897117688L282.16355948958335,345.35722716039464L283.4913725850694,345.4476696295701L284.14513321006945,345.5019351110754L285.425493390625,345.53449439997127L285.7576637951389,345.5540299733161L287.7011014791667,345.565751317323L288.6375267222222,345.5727124581018L289.3040783159722,345.5769608081944L289.63640663368056,345.57950981824996L290.28258742534723,334.36605359172984L290.5911498072917,338.85296548837124L291.58631875868053,341.54511262635606L293.5161759079861,343.160400909147L296.4322009565972,344.12957387882153L296.44001765972223,344.71107766062624L300.6489569878472,345.0599799297066L300.9419649201389,345.2693212911556L300.95862476215274,345.3949261080072L304.2136894392361,345.4702889981377L305.14995676909723,345.51550673221595L305.16456373958334,345.54263736961934L308.70442486284725,345.5589157551049L313.8854778159722,345.5686827863963L313.89984791666666,345.57453868384994L315.83128419791666,345.5780565393719L315.85805048437504,345.5801672569565L320.68743075347226,345.58143368750723L321.0090999305556,345.5821935458376L321.35832496006947,345.5826494608359L323.63077478472223,345.5828978925026L324.247504765625,345.5830720688349L326.51055875520836,345.58317657463425L326.8252007951389,345.5832392781139L327.4922261284722,345.58327690020167L329.09701896701387,345.583298861298L332.0321515121528,345.58331265011213L332.3261069236111,345.5833209234006L332.6522766267361,345.5833258873737L332.9802623315972,345.5833288657565L333.93279472048613,345.58333065278725L334.3064962951389,345.5833317250057L335.55574757638885,345.58333236833676L336.5709715034722,345.5833327543354L336.8540309045139,345.5833329859346L339.11005775694446,345.58333312489407L340.11280654166666,345.5833332082698L341.71649398784723,345.5833332582952L342.35825321006945,345.5833332883104L347.86160699305555,345.5833333063196L350.1505587465278,345.5833333171251L352.38755705902776,345.5833333236084L356.25808841145835,345.5833333274984L358.25182144791665,345.5833333298324L362.4429165850695,345.5833333312327L363.42363647916665,345.583333332073L364.3743528663195,345.5833333325771L366.31621141840276,345.5833333328796L366.64806599652775,345.5833333330611L367.2963786163195,345.5833333233681L367.62294310243055,345.5833333273542L369.20633870312497,345.58333332974587L370.5399945868055,345.5833333311808L372.1290750625,345.58333333204183L375.3738753819444,345.5833333325584L376.04721724305557,345.58331987918865L376.98048422222223,345.5833252608445L377.30428522743057,345.58332848984L377.61482152430557,345.5833304272302L379.23287907118055,345.58333158967145L380.24810299826385,345.5833322871362L380.8721759427083,345.56556319443774L382.4926021875,345.572671249996L383.15875899826386,345.5769360833309L384.77689550173613,345.57949498333187L385.7561152204861,345.58103032333247L388.00645719791663,345.5819515273327L389.26652553298607,-200.70404566904756L389.3120045329861,17.810905931904813L391.23080775868056,148.91987689247625L391.5340800486111,227.58525946881906L391.57118964930555,274.7844890146248L394.79214507638886,303.10349403930513L396.72137057291667,320.0954297569164L398.34345490625003,330.2905911874832L399.6659779097222,336.40768804582325L400.9143606684028,340.0779461608273L402.256070125,342.2801010298297L404.4712764166667,343.60139395123116L405.14643427951387,344.39416970407206L407.0744754270833,344.8698351557566L407.3862750295139,345.1552344267873L408.7136143854167,345.32647398940105L409.35561047743056,345.429217726974L409.37621814930554,345.4908639695177L409.6666205138889,345.527851715044L410.64378736111115,345.5500443623597L410.6544465017361,345.52436129151386L413.8607160017361,345.54795010824165L414.53674238715274,345.56210339827834L416.77303009027776,126.24104683344379L421.30032241840274,213.9779614333996L426.18741996006946,266.62011017363943L426.8170198663194,298.20539943751703L427.80516168055556,317.15657299584353L429.38555693055554,328.5272771308395L430.3828577100694,335.3487075053398L430.67957660243053,339.4425578365372L431.671745203125,341.89886803525565L437.1668875,343.37231732143385L437.8038303697917,344.2567237261936L438.45569603645833,344.7872276302233L438.79899932118053,345.1056699114673L438.8191332534722,345.29673528021374L439.1337752934028,345.4113745014616L442.6686621510417,345.48015803421026L443.6255371527778,345.5214281538595L445.2777039496528,345.5461902256106L446.53816706770834,345.5610474686997L447.5389419375,345.56996181455315L447.83116030381944,345.57531042206523L451.42684374131943,345.5785195865725L451.4356868802083,345.58044508527684L451.74543361111114,345.58160038449944L454.3410527881945,345.58229356403297L455.5955941614584,345.5801351351754L455.6286769756945,345.5814144144386L458.51683034548614,345.5821819819965L460.4639789895833,345.5826425225312L465.0238014357639,345.58291884685207L465.9680433819444,345.58308464144454L466.2804746371528,345.58318411820005L466.5978012013889,345.58324380425336L466.95594832638886,345.5832796158854L467.9181923767361,345.58330110286454L468.24562538541664,345.5833139950521L468.2555739166667,345.58332173036456L468.56366255902776,345.58332637155206L470.5154696423611,345.5833291562646L472.09989167881946,345.5833308270921L473.75190056250005,345.5833318295886L474.6974058142361,345.5833324310865L476.01227002777773,345.58333279198524L477.32381806423615,345.58333300852445L481.803815390625,336.1477678304048L486.68775466840276,339.9219940315762L490.8947990381945,342.18652975227906L494.4652953211805,343.54525118470076L495.438988078125,344.3604840441538L496.3814929791667,344.8496237598256L497.6661168159722,345.1431075892287L498.00436687847224,345.31919788687054L498.63886209375005,345.4248520654557L498.675103171875,345.48824457260673L499.3263371857639,345.52628007689736L500.2695526961806,345.5491013794718L500.92465558333333,345.56279416101637L501.88200432465277,345.57100982994314L503.156205890625,345.5759392311158L504.7801851822917,345.5788968720018L506.41869248784724,345.43360562730123L507.041817953125,345.49349670971407L507.738215140625,345.5294313591618L508.0568050104166,345.5509921488303L508.98280798263886,345.5639234421347L508.9939408628472,345.5716873986142L509.32879579166666,345.5763457725018L509.6294625138888,345.5791407968344L513.5562109635416,345.580817811434L514.178073123264,345.5818240201937L514.8319916614583,345.5824277454496L516.1459873524306,345.5827899806031L516.4584975642362,345.58300732169516L519.3475984131944,345.58313772635046L519.6581347100695,345.5832159691436L519.7004554461805,345.5832629148195L521.9439281996528,345.58329108222506L522.5815027222222,345.5833079826684L522.9467559409723,345.5833181229344L523.2471068368055,345.58332420709394L524.2178781996528,345.5833278575897L524.88024509375,345.58333004788716L528.0745131909722,345.5833313620656L528.1244137604167,345.5833321505727L530.0143188715277,345.58333262367694L531.00285546875,345.5833199451499L531.9977875503472,345.58332530042327L532.6477582586805,345.58332851358387L533.26543571875,345.58333044148367L533.6017118663194,345.58333159822354L535.1948980850694,345.58333229226747L535.8504747118055,178.03689817094366L536.2095693159722,245.05547223589951L538.1330309809027,285.2666166748731L538.4584900746528,309.39330333825717L540.7363879045139,323.8693153362876L542.653611998264,332.5549225351059L545.23636125,337.76627749118336L545.2473362170139,340.8930998280434L548.7865656875,342.7691932301594L549.4455374479166,343.89484927142894L551.3790266006945,344.5702428961907L552.0409987118056,344.97547907104774L555.5879659288195,345.218620775962L555.9417704409723,345.3645057989105L557.2409222916666,345.45203681267964L557.8860766475694,345.50455542094113L559.1384861927083,345.536066585898L559.7856144635417,345.5549732848721L560.7785726302084,345.5663173042566L561.0998470243055,345.5731237158873L562.4125794097222,345.5772075423648L562.7271424930556,345.5796578587522L563.0638134236111,345.5811280485824L564.6686062621527,345.5820101624828L566.6123597725694,345.58253822870364L568.2077567760416,345.5828562705555L573.3820984184027,345.58304709566664L573.6979248072917,345.5831615907333L575.6536007638889,345.58323028777335L576.6469537135416,345.583271505935L576.6582445069445,345.58329623689434L576.9557529652778,345.5833110754699L581.4727019791667,345.5833199786153L581.7841067986111,345.5833253205025L582.1579662864583,345.58332852563484L582.4561853541667,345.58333044871426L582.7811707083333,345.5833316025618L583.7682071302083,345.58333223373035L585.0389346059028,345.58333267357153L585.3812904114583,345.58333293747626L588.2598110763889,345.5833330958191L593.7589801597222,345.58333319082476L594.10781040625,345.5833332478282L603.8199456041667,345.58333328203025L604.1529055746528,345.58333330255147L605.0897256006945,345.5833333148642L606.4206969600694,345.58333332225186L607.3482790642361,345.58333332668445L609.646705609375,345.583333329344L610.2853855243055,345.58333333093975L610.286254046875,345.58333333189717L614.1678393229166,345.5833333324716L614.178972203125,345.58333333281587L618.0218687465278,345.5833333330229L618.7180290642361,345.58333333314704L619.6579283975694,345.58333333322156L620.9491056319445,345.5833333332663L621.921377170139,345.5833333332931L622.8863847013889,345.5833333333092L623.2135018836806,345.5833333333189L623.5700698767362,345.5833333333246L627.1122996979167,345.5833333333273L627.4514182829861,345.58333333332973L628.0842554097222,345.58333333333115L628.4140571163194,345.583333333332L629.0693968732638,345.5833333333326L630.3698120295139,345.58333333333286L633.2369629444445,345.58333333333303L633.8854334774305,345.58333333333314L635.5353894895834,345.58333333333326L637.468483859375,345.58333333333326L638.110874734375,345.5833333333333L638.752555,345.5833333333333L639.3865764756944,345.5833333333333L641.9749316458334,345.5833333333333L642.3175243211806,345.5833333333333L642.6245075711805,345.5833333333333L642.9370967395834,345.5833333333333L645.8730978072916,345.5833333333333L646.1975304652777,345.5833333333333L648.7832800677083,345.5833333333333L650.7089525173611,345.5833333333333L651.06457303125,345.5833333333333L653.3115988315973,345.5833333333333L654.2851336753472,345.5833333333333L656.5256060781251,345.5833166442197L657.1899468871527,345.58332331986514L659.7828815399306,345.5833273252524L660.1271323038195,345.5833297284848L662.3958711684028,345.58333117042423L668.8403875902778,345.5833320355879L670.1258009930556,345.58333255465567L670.1329070868056,345.58333286302457L672.4154633559028,345.5833330511481L673.7185630364584,345.5833331640222L673.9999643489583,345.5833332317466L674.01014975,345.5833332723813L674.6918610104167,345.58333329676213L675.3295144895833,345.5833333113906L675.6243384236111,345.58234063536827L676.2933376718751,345.5827377145543L677.2773737430556,345.5829265825815L679.1831491302083,345.5830892828822L679.5328478993056,345.58318690306265L679.8538064670139,345.58324547517094L680.5059090034723,345.5832805988045L681.482207328125,345.23020214858263L681.8170622569445,345.37145462248293L684.0779054618056,345.4562061068231L684.081616421875,345.5070569974272L687.2853593107639,345.53756753178965L687.6153189305555,345.5558738524071L688.8839935347222,345.5668576447776L689.531990328125,345.5734479201999L696.0125899149306,345.5774020854533L696.3489450190972,345.5797745846053L699.8913327534723,345.5811980840965L701.1925374756945,345.5820521837883L701.20232809375,345.5825646436062L701.5352091076388,345.58287211949704L701.8245850364583,345.5830566050316L703.4742252222222,345.58316729635226L703.7751288142362,345.5832337111447L703.8026057100694,345.58327356002013L704.7764563802083,345.5832951211894L708.6596997447916,345.58331040604696L709.6274707569444,345.5833195769615L710.244832390625,345.58332507951025L712.1845591145834,345.5833283810395L712.224905935764,-953.7624763059346L713.8198291996528,-122.18115813680305L714.1309181927082,64.9246384512515L714.1508942118055,177.18811640408427L715.7487388697916,244.5462031757839L717.0738674409722,284.9610552388037L719.3234988090278,309.20996647661514L719.659696,323.75931321930244L719.9679425555555,332.4889212649148L720.921422423611,337.7266860922822L722.2168633142362,340.86934498870266L722.2212848836806,342.7549403265549L722.2493144756944,343.8862975292663L722.2583155277778,344.5651118501708L722.5816427934028,344.97240044343584L723.5307010920138,345.2167735993948L724.159985171875,345.36339749297025L724.1998582534721,345.4513718291155L724.4834703506945,345.504156430764L724.4901816614582,345.53582718998365L725.1471005503472,345.5548296473235L725.4642692013889,345.5662311217274L726.4310137777777,345.5730720063698L728.0425968836805,345.5771765371552L728.7041742118056,345.57963925562643L728.7180705729166,345.5811168867092L729.0515832395834,345.58200346535887L729.671076701389,345.5825354125486L729.9812182152777,345.58285458086254L733.5804546996528,345.58304608185085L735.4865459131945,345.58316098244387L735.5228659479167,345.58322992279966L736.1398327986111,345.58327128701313L736.4476845711805,345.5832961055412L736.8154644010417,345.58331099665804L738.4157567135417,345.58331993132816L738.7329253645833,345.5833252921302L739.3773691111112,345.5833285086115L740.6875748854167,345.58333043850024L741.3438621215279,345.5833315964335L743.2475056805556,345.5833322911934L744.8753538454861,345.5833327080494L745.1928383229167,345.58333295816294L745.5070066232639,345.5833331082311L747.8066964739583,345.583333198272L748.1242599079861,345.58333325229654L751.9859481215277,345.58320375301423L751.9962914357639,345.5832555851338L754.5677498940971,345.5832866844136L755.5491803975694,345.5833053439815L755.8687177465279,345.58331653972226L757.4997241753472,345.5833232571667L758.8160885642361,345.5833272876333L763.9548997378473,345.58332970591334L764.9389358090278,345.5833307302379L766.5416757760418,345.5833317714761L766.5899972135417,345.58333239621896L769.4525686458334,345.5833327710647L769.4963895572916,344.0579349509396L769.8192430833333,344.66809430389713L770.098038828125,345.0341899156716L773.3448130625001,345.2538472827363L773.3459974114584,345.38564170297514L775.3233074756945,345.46467143397433L775.9354579739584,345.51213619371794L776.2699181197918,344.620247084494L777.2312146909723,345.0054815840297L777.8808695729167,345.23662228375116L778.547184296875,345.37530670358404L778.8354548333333,345.45851735548376L779.1741786354166,345.5084437466236L779.4986112934029,345.53839958130743L779.8419935347223,345.5563730821178L780.1400546892362,345.56715718260403L780.1578199236111,345.57362764289576L782.4095831197917,345.5775099177594L782.4119518177084,345.579839283989L783.0710814913194,345.58123690372673L784.6802958993056,345.58207547556935L785.0016492499999,345.582578618675L786.9424024097223,345.5828805045383L787.8983299322916,345.5830616360563L788.8845767881944,345.5831703149671L792.7568451857638,345.5832355223136L796.6614068315972,345.5832746467202L796.9603365086805,345.58329812136543L800.2067159600695,345.5833122061526L802.461005767361,345.5833206570249L803.7588153559028,345.5833257275483L803.7615788368055,345.5833287698623L804.1083562118055,345.5833305952507L805.376951859375,345.5831432295768L805.7368360295139,345.58321927107943L809.5814696180556,345.58326489598096L813.4756879496529,345.5832922709219L813.8024103489583,345.5833086958865L816.4113731909722,345.5833185508652L817.6806794479166,96.09087181175585L817.6896805,195.88785642038684L817.6985236388889,255.76604718556544L818.0001378402778,291.6929616446726L819.6156687760416,313.2491103201369L822.2204469184028,326.1827995254155L824.7844044999999,333.9429865680911L827.7272747916666,338.599125274188L828.0633140694445,341.39280849784615L829.0106353229166,343.06901843204105L832.9098279201389,344.07474439255793L833.2350501440973,344.6781799688681L834.8208144427083,345.04024131465417L836.7732531788195,345.25747812212586L837.0774729479166,345.38782020660886L837.7655796927083,345.46602545729866L839.0370967343749,345.5129458276631L839.3627137413195,345.54110082993117L842.5907752621529,345.5579932819472L845.5355405121528,345.56812930250163L846.1457960520834,345.57421091483434L846.1816423472222,345.5778598822179L847.7543788072917,345.5800492626641L848.7492319322918,345.58136289093176L849.7298728697916,345.5821510678924L851.9874788541666,345.5826239740688L852.6258429427083,345.5829077177746L853.5954299565972,345.5830779639981L853.6269336388888,345.5831801117322L853.9080980815971,345.58324140037263L855.2180669861111,345.58270301607234L855.8769597899305,345.5703596062002L856.8206490399306,345.57554909705345L858.1420666510417,345.5786627915654L859.7557815850695,345.5805310082726L860.0716869305555,345.5816519382969L861.7116154548611,345.58232449631146L863.2969849704862,345.5827280311202L863.9398495850694,345.5829701520055L864.5808192413194,345.58311542453663L864.9220696545138,345.5832025880553L866.2162472395833,345.5832548861665L867.1840972083334,345.5832862650332L867.5150043072917,345.5833050923532L867.8632029010416,345.5833163887442L868.4703001770835,345.5715686640012L869.1323512447916,345.57627453173404L869.4560732934028,345.57909805237375L869.8007188402777,345.5807921647576L871.385456703125,345.58180863218786L871.4234348263889,345.58241851264603L873.9625210798611,345.58278444092093L876.5802481041667,-63627.34214242292L889.8442458281249,-50.102720116014495L890.1466495954862,108.17170126372463L890.817464845486,203.0202307823775L893.0649643854167,260.04547180275983L893.1005738107639,294.2606164149892L894.3672745,314.7897031823269L895.0144817274306,327.10715524272945L895.3453098697917,334.49762647897103L896.6594634739583,338.93187088993113L896.6623059114582,341.592455867292L898.2364635902778,343.1684963662833L898.8835918611112,344.1344311531033L899.5723302586806,344.7139920251953L901.1448298489582,345.0617285484505L904.0933850156249,345.27037046240366L906.9870653472223,345.39555561077555L909.5644455503472,345.47066669979864L909.9066434427084,345.51573335321007L909.926382592014,345.5427733452594L912.5044734045139,345.558997340489L912.8203787499999,345.5687317376267L914.1357956597222,345.5745723759094L914.4119858368056,345.578076758879L914.7421033697917,345.5801793886607L916.3601609166667,345.5814409665298L918.3054146024306,345.5821979132512L918.3336021076389,345.58265208128404L918.6325317847222,345.57758449719154L920.597998359375,345.57988403164825L921.8635936562499,345.5812637523223L922.2147926006944,345.5820915847267L922.8379970225694,345.58258828416933L924.1174886805555,345.5828863038349L925.7625493836806,345.583065099832L926.0632161059027,345.58317239323253L926.4288641076389,345.58323676927284L928.0223661527779,345.58327539489704L928.0404472135416,345.4343981906009L929.3341510590278,345.4939722476939L929.9557763489584,345.52971668194965L933.4970586909722,345.5497381376946L935.165490546875,345.5631549820653L937.418122265625,345.5712263225725L938.3603902968749,345.57606912687686L938.6750323368055,345.57897480945945L942.2521609739583,345.580718219009L943.8694289548611,345.575018445369L944.8220403003472,345.5783444005547L945.1786872499999,344.7011506760646L945.5011459930555,345.01243981628164L947.1209405850694,345.24079722310233L948.0662879236112,345.3778116671947L949.3883371875,345.46002033365016L949.7186915902778,345.50934553352346L950.3513708038193,345.5389406534474L950.987918890625,345.55669772540176L951.9630328663195,345.5673404643975L953.56956275,345.57373761197186L953.5829853715279,345.5775759005164L954.2340614722223,345.5718936451851L954.2342983420139,345.5764695204444L954.2431414809029,286.2247387326291L955.8675945121528,309.9681765729108L957.1283734565972,324.21423927707974L958.4249197395834,332.7618768995812L958.7506157031249,337.89045947308205L959.0594939114584,340.96760901718255L961.6819583315972,342.8138987436429L962.6586514392361,343.92167257951905L963.3004106614584,344.57475595493594L963.6073149548611,344.9781869062949L964.915862640625,345.22024547711027L965.5580166458334,345.3654806195995L965.8655525920138,345.45262170508755L967.1520713871528,345.5049063553518L968.7849727743055,345.5362771465444L970.3964769236111,37.80161338988307L971.0341304027778,160.91430136726316L972.0161136024307,234.78191415369125L972.6726377083332,279.1024818255481L974.59649415625,305.6948224286622L974.9295330833334,321.6502267900707L975.9255705572917,331.2234694073757L977.8452423055556,336.9674149777588L980.4231752048612,340.41378231998857L980.7506871701389,342.4816027253257L981.3847086458334,343.72229496852873L982.0631826857639,344.4667103144503L982.3833516875001,344.91335952200353L983.3263303281251,345.18134904653544L983.6706600486111,345.3421427612546L984.9878929600694,345.4386189900861L985.9435836128473,345.496504727385L985.9566114513889,345.52897308308053L986.9276196840278,345.5507170888905L988.5121206770834,345.5637635866676L990.1642874739583,345.5715914853339L990.4812192552083,345.5762882212605L991.4334358177084,345.57910626608964L992.741904546875,345.5807970929871L995.6250046944444,345.5818115891256L996.3106637847222,345.5824202868087L997.2799349722222,345.58278550541854L997.2814351475695,345.58300463658446L1000.4785456822916,345.583136115284L1000.5241825954861,345.5831832799167L1003.7602187326389,345.58324330128335L1005.0262088124999,345.5832793141033L1006.0171141076388,345.58330092179534L1006.6346336545139,345.5833138864105L1007.6380140920138,345.58332166517965L1008.892634421875,345.5833263324411L1010.8292028819444,345.58332913279804L1012.8178037395833,345.58333081301214L1015.6817174340277,345.58333182114063L1016.3811149722222,345.5833324260177L1021.2157063767361,345.58333278894395L1021.5526931336806,345.5833330066997L1022.5219643211806,345.5833331373532L1024.449610685764,345.58333321574526L1024.7819390034722,345.58333326278046L1025.116162279514,345.5833332910016L1026.062693967014,345.5833333079343L1026.3620973836805,345.58333331809393L1026.3879161909722,345.5833333241897L1027.0322020243057,345.58333332784713L1028.67102515625,345.5833333300416L1030.899180329861,345.5833333313583L1032.8548562864582,345.5833333321483L1034.4742560954862,338.248447156024L1034.773422642361,341.11824943567L1035.4631874756944,-5726.671500724263L1045.1561362204861,-126.59522198561115L1046.472184782986,62.276200141966626L1047.7287000711806,165.95547883157244L1048.3680905954861,237.8066206322768L1048.6941023854167,280.91730571269943L1049.6753749756945,306.783716760953L1054.2393821215278,322.3035633899051L1056.1408148958333,331.6154713672764L1056.7956019565972,337.2026161536992L1057.7504240868057,340.55490302555285L1058.108018515625,342.56627514866506L1059.6971779479165,343.77309842253237L1061.3282633333333,344.49719238685276L1061.973338732639,343.2068187865712L1062.6379164114583,344.0890660515252L1064.8935484809026,344.68677296424687L1066.1916738958332,345.04539711188147L1066.2062019097223,345.26057160046224L1066.5243180399304,345.38967629361065L1066.8156678836806,345.4671391094997L1067.1737360520833,345.5136167990332L1068.7696067951388,345.54150341275323L1068.7821608940972,345.55823538098525L1069.0967239774304,345.5682745619245L1072.6804060121528,345.57429807048806L1073.3078740902777,345.5779121756261L1073.6482559809028,345.58008063870903L1074.5782067829862,345.5813817165588L1074.5903660989584,345.5821623632686L1075.5616112013888,345.58263075129406L1076.1931850225694,341.61789143318674L1076.550463625,343.2040681932454L1078.5011653159722,344.15577424928057L1081.7373593663194,344.7267978829017L1082.0579231510417,345.06941206307437L1082.3413773350694,345.27498057117714L1082.669126170139,345.3983216760396L1083.023799204861,345.4723263389571L1083.9989131805555,345.51672913670757L1085.2780890121528,345.5433708153579L1086.5634234583333,345.55935582254807L1087.880735326389,345.5689468268622L1088.8564809548611,345.57470142945067L1091.411437484375,345.5781541910037L1091.7725849600695,345.5802258479356L1094.3090656458332,345.5814688420947L1094.3111185173611,345.58221463859013L1094.64115709375,-1367.1949965208153L1096.2928501510416,-24.42280507737314L1096.9306615434027,123.57965028142712L1097.587738345486,212.3811235021896L1098.525426894097,265.6620074346471L1099.529833767361,297.6305377941216L1100.1560385399305,294.7655526344706L1102.1077666666665,315.0926649140157L1102.7537105885417,327.28893228174275L1103.072537328125,334.60663426608187L1106.0075119600695,338.99731389298245L1107.9434487673611,341.631719224067L1108.881058359375,343.21236486777354L1109.2137025034722,344.16075225399743L1109.8397493628472,344.72978468573183L1110.5169600972224,345.0712041447724L1113.0926822118056,345.2760558201968L1113.4376435850695,345.3989668254514L1114.7097922795137,345.47271342860415L1114.7221095086804,345.51696139049585L1120.2161464131943,345.5435101675201L1123.458499078125,345.5594394338454L1123.7533230121528,345.56899699364055L1125.4037527638889,345.5747315295177L1128.9669060833335,345.57817225104395L1129.9502315451389,345.5802366839597L1132.490739017361,345.58147534370914L1134.1177186597222,345.5822185395588L1135.450742890625,345.58266445706863L1137.0562463385418,345.5829320075745L1137.7071645260417,345.5830925378779L1139.967060251736,345.5831885649248L1142.5200428663195,345.5832464722882L1143.1730139253473,345.58328121670627L1145.775818152778,345.5833020633571L1146.449870623264,345.5833145713476L1148.39449265625,345.5833220761419L1150.2845556805555,345.5820851251191L1150.6297539236111,345.5825844084048L1151.9189572430555,345.5828839783762L1152.2651029652777,345.58306372035906L1152.8814381631944,345.58317156554875L1154.522393123264,345.5832362726626L1154.83545603125,345.58327441971204L1156.435037734375,345.5832979851605L1156.7771566701388,345.58331212442965L1156.7811045,345.583320607991L1157.7491123819445,345.58332569812796L1157.7778525833332,345.5833287522101L1159.3621167065971,345.5833305846594L1159.681496142361,345.58333168412895L1164.2003401145835,-460.5041596027171L1164.2366601493056,-138.11199822949936L1164.861048920139,55.366134395633765L1165.5064401458335,171.45301397071364L1165.5073086684029,241.1051417157615L1167.162002076389,282.89641836279026L1168.7426341961805,307.9711843510075L1170.0679996371528,323.0160439439378L1174.8770091041667,332.04295969925744L1175.5284010312498,337.4591091528878L1176.535018689236,340.708798825066L1176.8630833506943,342.0430049836309L1177.1757514756944,343.45913632351187L1178.1459701423612,344.3088151272159L1178.761357861111,344.81862240966285L1179.4463063420137,345.124506779131L1180.100777576389,345.30803740081194L1181.0325443802085,345.4181557738205L1181.3563453854167,345.48422679762564L1181.7084128524307,345.5238694119087L1182.3279852708333,345.54765498047857L1182.3316172743055,345.5619263216205L1182.9804036336807,345.57048912630563L1183.661009501736,345.50539128028674L1184.9397905503472,345.5365681015054L1184.954555434028,345.55527419423146L1185.6030259670138,345.56649784987223L1185.8770843159723,345.57323204325667L1187.1778942552085,345.5772117077097L1187.1822368680555,345.57966035795914L1187.843972109375,345.3659122098765L1187.8461828940972,345.4528806592592L1188.7966624114583,345.5050617288889L1189.4875326371528,345.53637037066665L1190.0914716493055,345.55515555573334L1190.7416002708335,345.56642666677334L1190.7579442864583,345.57318933339735L1191.4045988177083,345.5772469333717L1192.3601315572917,345.57968149335636L1193.045316907986,345.58114222934717L1195.2881580086805,345.58201867094164L1195.922179484375,345.5825445358983L1196.9231122673611,345.58286000616505L1197.2330958680557,345.5830493370324L1199.149372482639,345.58316293555276L1199.5172312690972,345.58323109466295L1201.1261298506945,345.0797334393051L1201.4469305052082,345.2811733969164L1201.7838383055555,344.9730688620582L1203.351205717014,345.21717465056827L1203.3731556510418,345.36363812367426L1203.7238018993055,345.4515162075379L1204.009229998264,345.50424305785606L1205.6434736475694,345.5358786043535L1210.1637388385416,345.55486049594543L1210.1927159097222,345.5662496309006L1210.802655623264,345.5730831118737L1211.4581532934028,345.57718320045757L1214.0423237638888,345.406039789796L1214.0588256927083,345.47695720721094L1214.7144812760416,345.5195076576599L1216.6450490347222,345.5450379279293L1218.5602202569444,345.5603560900909L1219.5670747847223,345.56954698738787L1220.8402499149306,345.5750614821889L1221.1876589427084,345.5783702226467L1223.7384307725695,345.58035546692133L1224.095314592014,345.5815466134861L1225.0430306284723,345.58226130142504L1226.9874947482638,345.58269011418827L1229.9069149305556,345.5829474018463L1232.185681282986,345.5831017744411L1233.7675767083333,345.583194397998L1235.1002851128474,345.58324997213214L1236.6915763732638,336.0576149899528L1237.3424156041667,339.28397085535886L1239.304802871528,341.80371584654864L1240.2792062378473,343.31556284126253L1241.868365670139,344.2226710380909L1242.846164170139,344.7669359561878L1243.5023724496527,345.093494907046L1245.127615046875,345.28943027756094L1247.6849402743055,345.4069914998699L1247.703179248264,344.9167785408865L1248.0422978333334,345.1834004578653L1249.0035154479167,342.65736416344083L1249.6397477083333,343.82775183139785L1250.9178181475695,344.52998443217206L1251.8974326493055,344.95132399263656L1252.2478420277778,345.2030492557892L1253.5471517916667,345.35516288680685L1257.0887499600694,345.4464310654174L1257.39060103125,345.50049902892346L1257.4146038368056,345.53363275068745L1261.2908200642362,342.0577657348593L1263.5410830850694,343.4679927742489L1264.5495167447916,344.3141289978827L1266.7768033958334,344.82181073206294L1269.0720716770832,345.1264197725711L1271.335994189236,345.309185196876L1274.5602657934028,345.41884445145894L1275.828387701389,345.4846400042087L1276.200115361111,345.52411733585853L1277.8091718559028,345.54780373484846L1277.814225078125,345.5620155742424L1281.0535773923611,345.57054181590183L1281.3657717777778,345.5756584228744L1282.6248136770835,345.578728387058L1282.9628268697916,345.58057036556505L1282.995672814236,345.5816755526724L1288.7836651302084,345.5823386649362L1289.4558226423612,345.58273653229503L1290.0797376736111,345.58297525271036L1291.6944000868057,345.5831184849595L1291.7347469079862,345.58320442430903L1292.0340713680555,345.58325598791873L1292.6904375607637,345.5832869260846L1295.6019620833333,345.5833054889841L1296.211901796875,345.58331662534823L1296.561837435764,345.5833233085423L1296.8714262534722,345.5833273184587L1301.0659954809028,345.58332972440854L1303.3622901979168,345.58326450286995L1304.6724959722221,345.5832920350553L1306.2586550538194,345.583308554365L1306.2674192361112,345.5833184659523L1307.252323829861,345.58332441290474L1308.1854328958334,345.5833279810762L1308.2018558680554,345.58333012197903L1308.8639858923611,-914.7289812544509L1312.4003729253473,-108.1290999261808L1313.4047797986111,73.3558733776249L1313.7243171475695,182.2468573599083L1315.9980302777778,247.5814477492783L1318.5724101302083,286.78220198290035L1318.882156861111,310.30265452307356L1319.5402600989582,324.41492604717746L1319.5566830711807,332.8822889616398L1320.8070397447916,337.9627067103172L1320.8453336944444,341.0109573595237L1321.5023315399305,342.83990774904754L1322.4253341614583,343.9372779827618L1322.7517407343748,344.5957001229904L1323.419318763889,344.9907534071276L1324.064552076389,345.2277853776099L1326.9722866822917,345.37000455989926L1327.2930873368055,345.4553360692729L1329.221444310764,345.5065349748971L1329.2461577256945,345.5372543182716L1329.2600540868057,345.55568592429626L1330.2196136128473,345.5667448879111L1333.1496929357638,345.57338026608L1333.4305415520835,345.5773614929813L1333.4352789479167,345.5797498759481L1335.7074919027777,345.5811832589022L1340.2632875625,345.58204328867464L1340.540109392361,345.58255930653814L1342.8082166041665,345.5828689172562L1342.8582750868054,-12318.374941920656L1352.8739194444445,-8.926449040816749L1354.181677564236,132.8774639088433L1355.8006036336806,217.9598112856893L1356.1028494878474,269.00922010474665L1360.6355898211805,-15593.048081697476L1367.0959765190971,-100.59637461516604L1367.3963274149305,77.87550856423371L1367.4319368402778,184.9586384718736L1368.4091826440972,181.36908678634535L1368.7388264375,247.05478540514054L1370.6449176510416,286.4662045764177L1374.2252045520834,310.11305607918393L1374.5341617170138,324.3011669742523L1374.5681920104166,332.8140335178847" style="fill: none;" fill="none"></path></g></g></g></g><g opacity="0.2"><g><g><g><path stroke="rgb(255, 112, 67)" stroke-width="2px" d="M157.95512039756943,345.5833333333333L159.21013551041665,345.5833333333333L160.1951190607639,345.5833333333333L161.20047341319446,345.5833333333333L161.80693903645832,345.58333333266614L162.7725782204861,345.2800819451105L163.4628167934028,345.5833333333333L164.0904427847222,345.5833333333333L166.34473259201388,345.5833333333333L168.31185725520834,345.5833333331412L168.62349894444444,345.5833333333333L169.58984873784723,345.5833333333333L170.8784204045139,345.5833333333333L171.19511531597223,345.5833333333333L174.74958340972222,345.5833333333333L175.39939620486112,345.5833333333333L176.7224719045139,345.5833333333333L177.05369482986112,345.5833333333333L177.6916641354167,345.5833330147226L178.32481708854166,345.5833333333333L180.93551697569447,345.5833333333333L182.2261415138889,345.5833333333333L185.76039671874997,345.58330334247904L187.69491230729167,345.5833333333333L188.69789796180555,345.5833333333333L191.900772328125,345.5833333333333L192.90770581249998,345.5833333333333L193.19747652430556,345.5833333333333L193.23450716840279,345.5833333333316L195.1358609861111,344.4863035353675L195.47403209201389,345.4031596559113L196.42245873784725,345.5833333333333L203.56755704687498,345.5833333333333L203.57545270659722,330.95602410636667L203.8919107482639,345.5833333333333L204.22763419965278,345.5833333333333L207.4312191753472,345.5833333333333L209.7218290173611,345.5833333333333L211.642211375,345.5833333333333L212.93149365104168,345.5833333333333L213.59828211458333,345.5833333333333L214.58839784375002,345.5833333333333L216.5137544670139,345.58333333314766L218.77246584374998,345.5833333333333L219.71670778993055,345.583333333304L220.08630362152778,345.58333333248584L221.69970272916666,344.59839845686065L226.52181899131944,345.5833333333333L228.79071576909723,345.5833333333333L228.7980587326389,345.3711993407021L231.38996694965277,345.5833333333333L231.70681977430556,345.5833333333333L231.71368899826388,345.5833333333333L232.04349070486109,345.56916498211194L233.31019139409722,345.5832889336765L233.9720055920139,345.5833333333333L235.26263013020832,345.5833333333333L237.23891375868055,345.5833333333333L237.55402953819444,345.5833333333333L240.76732617534722,345.5833333333333L241.08078386631945,345.5833261915223L242.38972633506944,345.5833333333333L243.6927470590278,345.5833333333333L245.28972319444443,345.5833333333333L245.9716713246528,345.5833333333333L248.5196796736111,345.58332175948874L249.17438777777778,337.9104374360184L249.18528378819443,345.5833333333333L249.49589904166666,345.5833333333333L252.1054935364583,345.5833333333333L254.665345375,345.5833333301597L254.69353288020835,345.5833333333333L256.00610735243055,345.5833333333333L256.62465333506947,345.5833333333333L258.25431750173607,345.5833333333333L260.85112102777776,345.5833333333333L261.14918218229167,345.5833333333333L261.7852565295139,345.5833333333333L263.0915934305556,345.5833333333333L263.44255550520836,345.5833333333333L264.0872361215278,164.36574442097725L266.6596420590278,345.5833333333333L267.97032157291665,345.5833333333333L268.61879210590274,345.5833333333333L268.9063520329861,345.5833333333333L271.84156353472224,345.5833333333333L271.8477221493055,345.5833333333333L271.85048563020837,345.5833333333333L272.8182566423611,345.5833333333333L273.77402625173613,345.5833333333333L274.07437714756946,345.5833333333333L274.1092759635417,345.5833333333333L275.7437564826389,345.5833333333333L276.6696804982639,345.5833333333333L277.33173156597223,345.583270199764L277.33994305208336,341.3069638395577L277.9725433090278,345.5833333333333L278.94623606597224,345.5833333333333L280.26860115625,345.5833333333333L282.16355948958335,345.5833333333333L283.4913725850694,345.5833333333333L284.14513321006945,345.5833333333333L285.425493390625,345.58333333331507L285.7576637951389,345.5833333333333L287.7011014791667,345.5833333333333L288.6375267222222,345.5831541692701L289.3040783159722,345.5833333333333L289.63640663368056,345.5833333333333L290.28258742534723,317.5458692519496L290.5911498072917,345.5833333333333L291.58631875868053,345.5833333333333L293.5161759079861,345.5833333333333L296.4322009565972,345.5833333333333L296.44001765972223,345.5833333333333L300.6489569878472,345.5833333333271L300.9419649201389,345.5833333333291L300.95862476215274,345.58333333328466L304.2136894392361,345.5833333333333L305.14995676909723,345.5833333333333L305.16456373958334,345.5833333257245L308.70442486284725,345.5833333333333L313.8854778159722,345.5833333333333L313.89984791666666,345.58332253003033L315.83128419791666,345.58333332265494L315.85805048437504,345.5833333333333L320.68743075347226,345.5833333333333L321.0090999305556,345.58333333333314L321.35832496006947,345.5833333333333L323.63077478472223,345.5832705400027L324.247504765625,345.5833333333333L326.51055875520836,345.5833333333333L326.8252007951389,345.5833333333333L327.4922261284722,345.5833333333333L329.09701896701387,345.5833318029425L332.0321515121528,345.5833333333333L332.3261069236111,345.5833333333333L332.6522766267361,345.5833333333333L332.9802623315972,345.58333333333076L333.93279472048613,345.5833333333333L334.3064962951389,345.5833333333333L335.55574757638885,345.5833333333333L336.5709715034722,345.5833333333333L336.8540309045139,345.5833333333333L339.11005775694446,345.5833333333333L340.11280654166666,345.5833333333333L341.71649398784723,345.5833333333333L342.35825321006945,345.5833333333333L347.86160699305555,345.5833333333333L350.1505587465278,345.5833333333333L352.38755705902776,345.5833333333333L356.25808841145835,345.5833333333333L358.25182144791665,345.5833333333333L362.4429165850695,345.5833333333333L363.42363647916665,345.5833333333333L364.3743528663195,345.5833333333333L366.31621141840276,345.5833333333333L366.64806599652775,345.5833333333333L367.2963786163195,345.5833333088286L367.62294310243055,345.5833333333333L369.20633870312497,345.5833333333333L370.5399945868055,345.5833333333333L372.1290750625,345.5833333333333L375.3738753819444,345.5833333333333L376.04721724305557,345.58329969913405L376.98048422222223,345.58333333332826L377.30428522743057,345.5833333333333L377.61482152430557,345.58333333331535L379.23287907118055,345.5833333333333L380.24810299826385,345.5833333333333L380.8721759427083,345.5389095553901L382.4926021875,345.5833333333333L383.15875899826386,345.5833333333333L384.77689550173613,345.5833333333333L385.7561152204861,345.5833333333333L388.00645719791663,345.58333333333303L389.26652553298607,-1020.1330414636175L389.3120045329861,345.5833333333333L391.23080775868056,345.5833333333333L391.5340800486111,345.5833333333333L391.57118964930555,345.5833333333333L394.79214507638886,345.5820015763257L396.72137057291667,345.5833333333333L398.34345490625003,345.5833333333333L399.6659779097222,345.5833333333333L400.9143606684028,345.5833333333333L402.256070125,345.5833333333333L404.4712764166667,345.5833333333333L405.14643427951387,345.5833333333333L407.0744754270833,345.58333333328346L407.3862750295139,345.5833333333333L408.7136143854167,345.5833333333217L409.35561047743056,345.5833333333333L409.37621814930554,345.5833333333333L409.6666205138889,345.5833333333333L410.64378736111115,345.5833333333333L410.6544465017361,345.4858366852451L413.8607160017361,345.5833333333333L414.53674238715274,345.5833333333333L416.77303009027776,-202.74053801380796L421.30032241840274,345.5833333333333L426.18741996006946,345.5833332839992L426.8170198663194,345.5833333333333L427.80516168055556,345.5833333333333L429.38555693055554,345.5833333333333L430.3828577100694,345.58085306709035L430.67957660243053,345.5833333333333L431.671745203125,345.5833333333333L437.1668875,345.58249125070114L437.8038303697917,345.5833333333333L438.45569603645833,345.58298348626784L438.79899932118053,345.5833333333333L438.8191332534722,345.5833333333333L439.1337752934028,345.5833333333333L442.6686621510417,345.5833333333333L443.6255371527778,345.5833333333333L445.2777039496528,345.58333333323725L446.53816706770834,345.5833333333333L447.5389419375,345.5833333333333L447.83116030381944,345.5833333333333L451.42684374131943,345.5833333333333L451.4356868802083,345.5833333333333L451.74543361111114,345.5833333333333L454.3410527881945,345.5833333333333L455.5955941614584,345.57689749188904L455.6286769756945,345.5833333333333L458.51683034548614,345.5833333333333L460.4639789895833,345.5833333333333L465.0238014357639,345.5833333333333L465.9680433819444,345.5833333333333L466.2804746371528,345.5833333333333L466.5978012013889,345.5833333333333L466.95594832638886,345.5833333333333L467.9181923767361,345.5833333333333L468.24562538541664,345.5833333333333L468.2555739166667,345.5833333333333L468.56366255902776,345.5833333333333L470.5154696423611,345.5833333333333L472.09989167881946,345.5833333333333L473.75190056250005,345.5833333333333L474.6974058142361,345.5833333333333L476.01227002777773,345.5833333333333L477.32381806423615,345.5833333333333L481.803815390625,321.99442006322533L486.68775466840276,345.5833333333333L490.8947990381945,345.5833333333333L494.4652953211805,345.5833333333333L495.438988078125,345.5833333333333L496.3814929791667,345.5833333333333L497.6661168159722,345.5833333333333L498.00436687847224,345.5833333333333L498.63886209375005,345.5833333333333L498.675103171875,345.5833333333333L499.3263371857639,345.5833333333333L500.2695526961806,345.5833333333333L500.92465558333333,345.5833333333333L501.88200432465277,345.5833333333333L503.156205890625,345.5833333328747L504.7801851822917,345.5833333333307L506.41869248784724,345.2156687602505L507.041817953125,345.5833333333333L507.738215140625,345.5833333333333L508.0568050104166,345.58333333333303L508.98280798263886,345.58332038209136L508.9939408628472,345.5833333333333L509.32879579166666,345.58333333333314L509.6294625138888,345.5833333333333L513.5562109635416,345.5833333333333L514.178073123264,345.5833333333333L514.8319916614583,345.5833333333333L516.1459873524306,345.5833333333333L516.4584975642362,345.5833333333333L519.3475984131944,345.5833333333333L519.6581347100695,345.5833333333333L519.7004554461805,345.5833333333333L521.9439281996528,345.5833333333333L522.5815027222222,345.5833333333333L522.9467559409723,345.5833333333333L523.2471068368055,345.5833333333333L524.2178781996528,345.5833333333333L524.88024509375,345.5833333333333L528.0745131909722,345.5833333333333L528.1244137604167,345.5833333333333L530.0143188715277,345.5833333333333L531.00285546875,345.58330092735935L531.9977875503472,345.5833333333333L532.6477582586805,345.5833333333248L533.26543571875,345.5833333333333L533.6017118663194,345.5833333333333L535.1948980850694,345.5833333333333L535.8504747118055,-73.28275301104202L536.2095693159722,345.5833333333333L538.1330309809027,345.5833333333333L538.4584900746528,345.5833333333333L540.7363879045139,345.5833333333333L542.653611998264,345.5833333333333L545.23636125,345.58330992529955L545.2473362170139,345.5833333333333L548.7865656875,345.5833333333333L549.4455374479166,345.5833333333333L551.3790266006945,345.5833333333333L552.0409987118056,345.5833333333333L555.5879659288195,345.5833333333333L555.9417704409723,345.5833333333333L557.2409222916666,345.5833333333333L557.8860766475694,345.5833333333333L559.1384861927083,345.5833333333333L559.7856144635417,345.5833333333333L560.7785726302084,345.5833333333333L561.0998470243055,345.5833333333333L562.4125794097222,345.5833332820811L562.7271424930556,345.5833333333333L563.0638134236111,345.58333333332763L564.6686062621527,345.5833333333333L566.6123597725694,345.5833303280349L568.2077567760416,345.5833333333333L573.3820984184027,345.5833333333333L573.6979248072917,345.5833333333333L575.6536007638889,345.5833333333333L576.6469537135416,345.5833333331775L576.6582445069445,345.5833333333333L576.9557529652778,345.5833333333333L581.4727019791667,345.5833333333333L581.7841067986111,345.5833333333333L582.1579662864583,345.5833333333333L582.4561853541667,345.5833333333333L582.7811707083333,345.5833333333332L583.7682071302083,345.5833331804831L585.0389346059028,345.5833333333333L585.3812904114583,345.5833333333333L588.2598110763889,345.5833333333333L593.7589801597222,345.5833333333333L594.10781040625,345.5833333333333L603.8199456041667,345.5833333333333L604.1529055746528,345.5833333333333L605.0897256006945,345.5833333333333L606.4206969600694,345.5833333333333L607.3482790642361,345.5833333333333L609.646705609375,345.5833333333333L610.2853855243055,345.5833333333333L610.286254046875,345.5833333333333L614.1678393229166,345.5833333333333L614.178972203125,345.58333333333223L618.0218687465278,345.5833333333333L618.7180290642361,345.5833333333333L619.6579283975694,345.5833333333333L620.9491056319445,345.5833333333333L621.921377170139,345.5833333333333L622.8863847013889,345.5833333333333L623.2135018836806,345.5833333333333L623.5700698767362,345.5833333333333L627.1122996979167,345.58333333333127L627.4514182829861,345.5833333333333L628.0842554097222,345.5833333333333L628.4140571163194,345.5833333333333L629.0693968732638,345.5833333333333L630.3698120295139,345.5833333333333L633.2369629444445,345.5833333333333L633.8854334774305,345.5833333333333L635.5353894895834,345.5833333333333L637.468483859375,345.5833333333333L638.110874734375,345.5833333333333L638.752555,345.5833333333333L639.3865764756944,345.5833333333333L641.9749316458334,345.5833333333333L642.3175243211806,345.5833333333333L642.6245075711805,345.5833333333333L642.9370967395834,345.5833333333333L645.8730978072916,345.5833333333333L646.1975304652777,345.5833333333333L648.7832800677083,345.5833333333333L650.7089525173611,345.5833333333333L651.06457303125,345.5833333333333L653.3115988315973,345.5833333333333L654.2851336753472,345.5833333333333L656.5256060781251,345.58329161054917L657.1899468871527,345.5833333333333L659.7828815399306,345.5833333333333L660.1271323038195,345.5833333333333L662.3958711684028,345.5833333333333L668.8403875902778,345.5833333333333L670.1258009930556,345.58333333325737L670.1329070868056,345.583333325578L672.4154633559028,345.5833333333333L673.7185630364584,345.5833333333333L673.9999643489583,345.5833333333333L674.01014975,345.5833333333333L674.6918610104167,345.5833333333333L675.3295144895833,345.5833333333333L675.6243384236111,345.58085162133483L676.2933376718751,345.5833333333333L677.2773737430556,345.5832098846223L679.1831491302083,345.5833333333333L679.5328478993056,345.5833333333333L679.8538064670139,345.5833333333333L680.5059090034723,345.5833332842548L681.482207328125,344.70058447324993L681.8170622569445,345.5833333333333L684.0779054618056,345.5833333333333L684.081616421875,345.5833333333333L687.2853593107639,345.5833333333333L687.6153189305555,345.5833333333333L688.8839935347222,345.5833333333333L689.531990328125,345.5833333333333L696.0125899149306,345.5833333333333L696.3489450190972,345.5833333333333L699.8913327534723,345.5833333333333L701.1925374756945,345.583333333326L701.20232809375,345.583333333333L701.5352091076388,345.5833333333333L701.8245850364583,345.5833333333333L703.4742252222222,345.5833333333333L703.7751288142362,345.5833333333333L703.8026057100694,345.5833333333333L704.7764563802083,345.5833274629433L708.6596997447916,345.5833333333333L709.6274707569444,345.5833333333333L710.244832390625,345.5833333333333L712.1845591145834,345.5833333333333L712.224905935764,-2902.7811833363958L712.8609802829861,345.5833333333333L713.8198291996528,345.5833333333333L714.1309181927082,345.5833333333333L714.1508942118055,345.5833333333333L715.7487388697916,345.5833333333333L717.0738674409722,345.5833333333333L719.3234988090278,345.5833333333324L719.659696,345.5833333333333L719.9679425555555,345.5833333333333L720.921422423611,345.5833333333333L722.2168633142362,345.5833333333333L722.2212848836806,345.5833333333333L722.2493144756944,345.5833333333333L722.2583155277778,345.58333333152757L722.5816427934028,345.5833333333333L723.5307010920138,345.5833333333333L724.159985171875,345.5833333333333L724.1998582534721,345.5833333333333L724.4834703506945,345.58333333323674L724.4901816614582,345.5833333288131L725.1471005503472,345.5833333333333L725.4642692013889,345.58333333333326L726.4310137777777,345.5833333333333L728.0425968836805,345.5833333333333L728.7041742118056,345.5833333333333L728.7180705729166,345.5833333333333L729.0515832395834,345.5833333333333L729.671076701389,345.5833333333333L729.9812182152777,345.5833333333333L733.5804546996528,345.5833333333333L735.4865459131945,345.5833333333333L735.5228659479167,345.5833333333333L736.1398327986111,345.5833333333333L736.4476845711805,345.5833333333333L736.8154644010417,345.5833333333333L738.4157567135417,345.5833333333333L738.7329253645833,345.5833333333333L739.3773691111112,345.5833333333333L740.6875748854167,345.5833333333333L741.3438621215279,345.5833333333333L743.2475056805556,345.5833333333333L744.8753538454861,345.5833333333333L745.1928383229167,345.5833333333333L745.5070066232639,345.5833333333333L747.8066964739583,345.5833333333333L748.1242599079861,345.5833333333333L751.9859481215277,345.58300950409085L751.9962914357639,345.5833333333132L754.5677498940971,345.5833333333333L755.5491803975694,345.5833333333333L755.8687177465279,345.5833333333333L757.4997241753472,345.5833333333333L758.8160885642361,345.5833333333333L763.9548997378473,345.5833333333333L764.9389358090278,345.58333226672477L766.5416757760418,345.5833333333333L766.5899972135417,345.5833333333333L769.4525686458334,345.58333333333326L769.4963895572916,341.7698382207521L769.8192430833333,345.5833333333333L770.098038828125,345.5833333333333L773.3448130625001,345.5833333333333L773.3459974114584,345.5833333333333L775.3233074756945,345.5832160304731L775.9354579739584,345.5833333333333L776.2699181197918,343.28241342065814L777.2312146909723,345.5833333333333L777.8808695729167,345.5833333333333L778.547184296875,345.5833333333333L778.8354548333333,345.5833333333333L779.1741786354166,345.5833333333333L779.4986112934029,345.58333333333314L779.8419935347223,345.5833333333333L780.1400546892362,345.5833333333333L780.1578199236111,345.5833333333333L782.4095831197917,345.5833333300549L782.4119518177084,345.5833333333333L783.0710814913194,345.5833333333333L784.6802958993056,345.5833333333333L785.0016492499999,345.5833333333333L786.9424024097223,345.5833333333333L787.8983299322916,345.5833333333333L788.8845767881944,345.5833333333333L792.7568451857638,345.5833333333333L796.6614068315972,345.5833333333301L796.9603365086805,345.5833333333333L800.2067159600695,345.5833333333333L802.461005767361,345.5833333333333L803.7588153559028,345.5833333333333L803.7615788368055,345.5833333333333L804.1083562118055,345.5833333333333L805.376951859375,345.58286218106593L805.7368360295139,345.5833333333333L809.5814696180556,345.5833333333333L813.4756879496529,345.5833333333333L813.8024103489583,345.5833333333333L816.4113731909722,345.5833333333333L817.6806794479166,-278.14779829690815L817.6896805,345.5833333333333L817.6985236388889,345.5833333333333L818.0001378402778,345.5833333333333L819.6156687760416,345.5833333333333L822.2204469184028,345.5833333333333L824.7844044999999,345.5832671321046L827.7272747916666,345.5833333333333L828.0633140694445,345.5833333333333L829.0106353229166,345.5833333333333L832.9098279201389,345.5833333333333L833.2350501440973,345.5833333333333L834.8208144427083,345.5833333333333L836.7732531788195,345.5833333333333L837.0774729479166,345.5833333333333L837.7655796927083,345.5833333333333L839.0370967343749,345.58332638320974L839.3627137413195,345.5833333333333L842.5907752621529,345.5833319599712L845.5355405121528,345.5833333333333L846.1457960520834,345.5833333333333L846.1816423472222,345.58333333329335L847.7543788072917,345.5833333333333L848.7492319322918,345.5833333333333L849.7298728697916,345.5833333333333L851.9874788541666,345.5833333333333L852.6258429427083,345.5833333333333L853.5954299565972,345.5833333333333L853.6269336388888,345.5833333333333L853.9080980815971,345.5833333333333L855.2180669861111,345.5818954396218L855.8769597899305,345.551844491392L856.8206490399306,345.5833333333333L858.1420666510417,345.5833333333333L859.7557815850695,345.5833333333333L860.0716869305555,345.5833333333333L861.7116154548611,345.5833333333333L863.2969849704862,345.5833333333333L863.9398495850694,345.5833333333333L864.5808192413194,345.5833333333333L864.9220696545138,345.5833333333333L866.2162472395833,345.5833333333333L867.1840972083334,345.5833333333333L867.5150043072917,345.58333333333314L867.8632029010416,345.58333333333064L868.4703001770835,345.5539470768866L869.1323512447916,345.5833333333333L869.4560732934028,345.5833333333333L869.8007188402777,345.5833333333333L871.385456703125,345.5833333333333L871.4234348263889,345.5833333333333L873.9625210798611,345.5833333333333L876.5802481041667,-159586.72953271866L877.5220423958333,345.5833333333333L879.1634710954861,345.5833333333333L879.4675329513889,345.58288497948325L880.1482177760416,345.5833333333333L881.732323986111,345.5833333333333L881.74827321875,345.5833333333333L884.9863622274305,345.5833333333333L885.3227962881945,284.0122824740526L888.2508227395834,345.5833333333333L889.8442458281249,345.5833333333333L890.1466495954862,345.5833333333333L890.817464845486,345.29302506035674L893.0649643854167,345.5833333333333L893.1005738107639,345.5833333333333L894.3672745,345.5833333333333L895.0144817274306,345.5833333333333L895.3453098697917,345.5833333333333L896.6594634739583,345.5832375063713L896.6623059114582,345.5833333333333L898.2364635902778,345.53255711477027L898.8835918611112,345.5833333333333L899.5723302586806,345.5833333333333L901.1448298489582,345.5833333333333L904.0933850156249,345.5833333333333L906.9870653472223,345.5833333333333L909.5644455503472,345.5833333333333L909.9066434427084,345.58333333332723L909.926382592014,345.5833333333333L912.5044734045139,345.5833333333333L912.8203787499999,345.5833333333333L914.1357956597222,345.5833333333333L914.4119858368056,345.5833333333333L914.7421033697917,345.5833333333333L916.3601609166667,345.5833333333333L918.3054146024306,345.5833333333333L918.3336021076389,345.5833333333333L918.6325317847222,345.56998312105276L920.597998359375,345.5833333333333L921.8635936562499,345.5833333333333L922.2147926006944,345.5833333333333L922.8379970225694,345.5833333333333L924.1174886805555,345.5833333333333L925.7625493836806,345.5833332938276L926.0632161059027,345.5833333333333L926.4288641076389,345.5833333333333L928.0223661527779,345.5833333333333L928.0404472135416,345.2110823841567L929.3341510590278,345.5833333333333L929.9557763489584,345.5833333333333L933.4970586909722,345.5797703213119L935.165490546875,345.5832802486214L937.418122265625,345.5833333333333L938.3603902968749,345.5833333333333L938.6750323368055,345.5833333333333L942.2521609739583,345.5833333333333L943.8694289548611,345.5664687849089L944.8220403003472,345.5833333333333L945.1786872499999,343.38536008932937L945.5011459930555,345.4793735266072L947.1209405850694,345.5833333333333L948.0662879236112,345.5833333333333L949.3883371875,345.5833333333333L949.7186915902778,345.5833333333333L950.3513708038193,345.5833333333333L950.987918890625,345.5833333333333L951.9630328663195,345.5833045728911L953.56956275,345.5833333333333L953.5829853715279,345.5833333333333L954.2340614722223,345.5633702621881L954.2342983420139,345.5833333333333L954.2431414809029,197.1971425509061L955.8675945121528,345.5833333333333L957.1283734565972,345.58333333333326L958.4249197395834,345.5833333333333L958.7506157031249,345.5833333333333L959.0594939114584,345.5833333333333L961.6819583315972,345.5833333333333L962.6586514392361,345.5833333333333L963.3004106614584,345.55438101806124L963.6073149548611,345.5833333333333L964.915862640625,345.5833333333333L965.5580166458334,345.5833333333333L965.8655525920138,345.5833333333196L967.1520713871528,345.58333333074825L968.7849727743055,345.5833333333333L970.3964769236111,-423.80038224510895L971.0341304027778,345.5833333333333L972.0161136024307,345.5833333333333L972.6726377083332,345.5833333333333L974.59649415625,345.5833333333333L974.9295330833334,345.5833333321834L975.9255705572917,345.5833333333333L977.8452423055556,345.5833333333333L980.4231752048612,345.5833333333333L980.7506871701389,345.58333333333127L981.3847086458334,345.5833333333333L982.0631826857639,345.58333333333275L982.3833516875001,345.5833333333333L983.3263303281251,345.5833333333333L983.6706600486111,345.5833333333333L984.9878929600694,345.5833333333333L985.9435836128473,345.5833333333333L985.9566114513889,345.5776756166239L986.9276196840278,345.58333309760553L988.5121206770834,345.5833333333333L990.1642874739583,345.5833333333333L990.4812192552083,345.58333332515036L991.4334358177084,345.5833333333333L992.741904546875,345.5833333333333L995.6250046944444,345.5833333333333L996.3106637847222,345.5833333333333L997.2799349722222,345.5833333333333L997.2814351475695,345.5833333333333L1000.4785456822916,345.5833333333333L1000.5241825954861,345.5832540268657L1003.7602187326389,345.5833333333333L1005.0262088124999,345.5833333333333L1006.0171141076388,345.5833333333333L1006.6346336545139,345.5833333333333L1007.6380140920138,345.5833333333333L1008.892634421875,345.5833333333333L1010.8292028819444,345.5833333333333L1012.8178037395833,345.5833333333333L1015.6817174340277,345.5833333333333L1016.3811149722222,345.5833333333333L1021.2157063767361,345.5833333333333L1021.5526931336806,345.5833333333333L1022.5219643211806,345.5833333333333L1024.449610685764,345.5833333333333L1024.7819390034722,345.5833333333333L1025.116162279514,345.5833333333333L1026.062693967014,345.5833333333333L1026.3620973836805,345.5833333333333L1026.3879161909722,345.5833333333333L1027.0322020243057,345.5833333333333L1028.67102515625,345.5833333333333L1030.899180329861,345.5833333333333L1032.8548562864582,345.5833333333333L1034.4742560954862,327.24611789183746L1034.773422642361,345.42295285513904L1035.4631874756944,-14828.356125964161L1035.7918837899306,345.5833333333333L1036.714412671875,345.5831085344222L1038.0089060833334,345.5833333333333L1042.5875201996528,345.5833333333333L1045.1561362204861,345.5833333333333L1046.472184782986,345.5833333333333L1047.7287000711806,321.4743968659811L1048.3680905954861,345.5833333333333L1048.6941023854167,345.5833333333333L1049.6753749756945,345.5833333333333L1054.2393821215278,345.5833333333333L1056.1408148958333,345.5833333333333L1056.7956019565972,345.5833333333333L1057.7504240868057,345.5833333333333L1058.108018515625,345.5833333333333L1059.6971779479165,345.5833333333333L1061.3282633333333,345.5833333333333L1061.973338732639,341.27125838614893L1062.6379164114583,345.41243694895616L1064.8935484809026,345.58333333332945L1066.1916738958332,345.5833333333333L1066.2062019097223,345.5833333333333L1066.5243180399304,345.5833333333333L1066.8156678836806,345.5833333333333L1067.1737360520833,345.5833333333333L1068.7696067951388,345.5833333333333L1068.7821608940972,345.5833333333333L1069.0967239774304,345.5833333333333L1072.6804060121528,345.5833333333333L1073.3078740902777,345.5833333333333L1073.6482559809028,345.5833333333333L1074.5782067829862,345.5833333333333L1074.5903660989584,345.5833333333333L1075.5616112013888,345.58333333333235L1076.1931850225694,335.6707824560258L1076.550463625,345.5833333333333L1078.5011653159722,345.5833333333333L1081.7373593663194,345.5833333333333L1082.0579231510417,345.5833333333333L1082.3413773350694,345.5833333333313L1082.669126170139,345.5833333333333L1083.023799204861,345.5833333333333L1083.9989131805555,345.5833333333333L1085.2780890121528,345.5833333333333L1086.5634234583333,345.5833333333333L1087.880735326389,345.5833333333333L1088.8564809548611,345.5833333333333L1091.411437484375,345.5833333333333L1091.7725849600695,345.5833333333333L1094.3090656458332,345.5833333333333L1094.3111185173611,345.5833333333333L1094.64115709375,-3936.360813259923L1094.99646178125,345.2637560199802L1095.6412213541666,345.58333321213496L1096.2928501510416,345.5833333333333L1096.9306615434027,345.5833333196275L1097.587738345486,345.5833333333333L1098.525426894097,345.5833333333333L1099.529833767361,345.5833333333333L1100.1560385399305,290.46807489499406L1102.1077666666665,345.5833333333333L1102.7537105885417,345.5833333333333L1103.072537328125,345.58318724259055L1106.0075119600695,345.5833333333333L1107.9434487673611,345.58332722069383L1108.881058359375,345.5833333333333L1109.2137025034722,345.5833333333333L1109.8397493628472,345.5833333333333L1110.5169600972224,345.5833333333333L1113.0926822118056,345.5833333333333L1113.4376435850695,345.5833333333333L1114.7097922795137,345.5833333333333L1114.7221095086804,345.5833333333333L1120.2161464131943,345.5833333330565L1123.458499078125,345.5833333333333L1123.7533230121528,345.5833333333333L1125.4037527638889,345.5833333333333L1128.9669060833335,345.5833333333333L1129.9502315451389,345.5833333333333L1132.490739017361,345.5833333333333L1134.1177186597222,345.5833333333333L1135.450742890625,345.5833333333333L1137.0562463385418,345.5833333333333L1137.7071645260417,345.58333333333303L1139.967060251736,345.5833326054952L1142.5200428663195,345.58333333333326L1143.1730139253473,345.5833333333333L1145.775818152778,345.5833333333333L1146.449870623264,345.5833333333333L1148.39449265625,345.5833333333333L1150.2845556805555,345.58022969858484L1150.6297539236111,345.5833333333333L1151.9189572430555,345.5833333333333L1152.2651029652777,345.5833333333333L1152.8814381631944,345.5833333333333L1154.522393123264,345.5833333333333L1154.83545603125,345.58333164028613L1156.435037734375,345.5833333333333L1156.7771566701388,345.5833333333333L1156.7811045,345.58333333333314L1157.7491123819445,345.5833333333333L1157.7778525833332,345.5833333333333L1159.3621167065971,345.5833333333333L1159.681496142361,345.5833333333333L1164.2003401145835,-1669.6353965329859L1164.2366601493056,345.4762438303273L1164.861048920139,345.5833333333333L1165.5064401458335,345.5833333333333L1165.5073086684029,345.5833333333333L1167.162002076389,345.5833333333333L1168.7426341961805,345.5833333333333L1170.0679996371528,345.5833333333333L1174.8770091041667,345.5833333322368L1175.5284010312498,345.5833333333333L1176.535018689236,345.5833333333333L1176.8630833506943,344.04431422147826L1177.1757514756944,345.5833333333333L1178.1459701423612,345.58333333277193L1178.761357861111,345.5833333333333L1179.4463063420137,345.5833333333333L1180.100777576389,345.5833333333333L1181.0325443802085,345.5833333333333L1181.3563453854167,345.5833333333333L1181.7084128524307,345.5833333333333L1182.3279852708333,345.5833333333333L1182.3316172743055,345.5833333333333L1182.9804036336807,345.5833333333333L1183.661009501736,345.4077445112585L1184.9397905503472,345.5833333333333L1184.954555434028,345.5833333333206L1185.6030259670138,345.5833333333333L1185.8770843159723,345.5833333333333L1187.1778942552085,345.5831812043893L1187.1822368680555,345.5833333333333L1187.843972109375,345.0452899877526L1187.8461828940972,345.5833333333333L1188.7966624114583,345.5833333333333L1189.4875326371528,345.5833333333333L1190.0914716493055,345.5833333333333L1190.7416002708335,345.5833333333333L1190.7579442864583,345.5833333333333L1191.4045988177083,345.5833333333333L1192.3601315572917,345.5833333333333L1193.045316907986,345.5833333333333L1195.2881580086805,345.5833333333333L1195.922179484375,345.5833333333333L1196.9231122673611,345.58333321156516L1197.2330958680557,345.5833333333333L1199.149372482639,345.5833333333333L1199.5172312690972,345.5833333333282L1201.1261298506945,344.32448695626834L1201.4469305052082,345.5833333333333L1201.7838383055555,344.5109120597709L1203.351205717014,345.5833333333333L1203.3731556510418,345.5833333333333L1203.7238018993055,345.5833333333333L1204.009229998264,345.5833333333333L1205.6434736475694,345.5833319240997L1210.1637388385416,345.5833333333333L1210.1927159097222,345.5833333333333L1210.802655623264,345.5833333333333L1211.4581532934028,345.5833333333333L1214.0423237638888,345.1493246738037L1214.0588256927083,345.5833333333333L1214.7144812760416,345.5833333333333L1216.6450490347222,345.5833333333333L1218.5602202569444,345.5833333333333L1219.5670747847223,345.5833333333333L1220.8402499149306,345.5833332243905L1221.1876589427084,345.5833333333333L1223.7384307725695,345.5833333333333L1224.095314592014,345.5833333333333L1225.0430306284723,345.5833333333333L1226.9874947482638,345.5833333333331L1229.9069149305556,345.5833333333333L1232.185681282986,345.5833333333333L1233.7675767083333,345.5833333333333L1235.1002851128474,345.5833333333333L1236.6915763732638,321.7691625166839L1237.3424156041667,344.12350465346793L1239.304802871528,345.5833333333333L1240.2792062378473,345.5833333333333L1241.868365670139,345.5833333333333L1242.846164170139,345.5833333333333L1243.5023724496527,345.5833333333333L1245.127615046875,345.5833333333333L1247.6849402743055,345.5833333333333L1247.703179248264,344.18145910241145L1248.0422978333334,345.5833333333333L1249.0035154479167,338.8683097218042L1249.6397477083333,345.5833333333333L1250.9178181475695,345.5833333333333L1251.8974326493055,345.5833333333333L1252.2478420277778,345.58063715051816L1253.5471517916667,345.5833333333333L1257.0887499600694,345.5833333333333L1257.39060103125,345.58160097418255L1257.4146038368056,345.5833333333333L1261.2908200642362,336.8439652111171L1263.5410830850694,345.5833333333333L1264.5495167447916,345.5833333333333L1266.7768033958334,345.5833333333333L1269.0720716770832,345.5833333333333L1271.335994189236,345.5833333333333L1274.5602657934028,345.5833333333333L1275.828387701389,345.5833333333333L1276.200115361111,345.5833333333333L1277.8091718559028,345.5833333333333L1277.814225078125,345.5833333333333L1281.0535773923611,345.583331178391L1281.3657717777778,345.5833333333333L1282.6248136770835,345.5833333333333L1282.9628268697916,345.58333333332564L1282.995672814236,345.5833333333333L1288.7836651302084,345.58333333333195L1289.4558226423612,345.5833333333333L1290.0797376736111,345.5833333333333L1291.6944000868057,345.5833333333333L1291.7347469079862,345.5833333333333L1292.0340713680555,345.5833333333333L1292.6904375607637,345.5833333333333L1295.6019620833333,345.5833333333333L1296.211901796875,345.5833333298944L1296.561837435764,345.5833333333333L1296.8714262534722,345.5833333333333L1301.0659954809028,345.5833333333333L1303.3622901979168,345.5831666705621L1304.6724959722221,345.5833333333333L1306.2586550538194,345.58333333332945L1306.2674192361112,345.5833333333333L1307.252323829861,345.5833333333333L1308.1854328958334,345.5833333333333L1308.2018558680554,345.5833333333333L1308.8639858923611,-2805.197448319095L1309.8420212621527,345.58333330036766L1312.4003729253473,345.5833333333333L1313.4047797986111,345.5833333333333L1313.7243171475695,345.5833333333333L1315.9980302777778,345.5833333333333L1318.5724101302083,345.5833333333333L1318.882156861111,345.5833333333333L1319.5402600989582,345.5833333333333L1319.5566830711807,345.5833333333333L1320.8070397447916,345.5833333333333L1320.8453336944444,345.5833333333333L1321.5023315399305,345.5833333333333L1322.4253341614583,345.5833333333333L1322.7517407343748,345.5833333333333L1323.419318763889,345.5833333333333L1324.064552076389,345.5833333333333L1326.9722866822917,345.5833333333333L1327.2930873368055,345.5833333333333L1329.221444310764,345.5833333333333L1329.2461577256945,345.5833333333333L1329.2600540868057,345.5833333333333L1330.2196136128473,345.5833333333333L1333.1496929357638,345.5833333333333L1333.4305415520835,345.5833333333333L1333.4352789479167,345.5833324503982L1335.7074919027777,345.5833333333333L1340.2632875625,345.5833333333333L1340.540109392361,345.5833333333333L1342.8082166041665,345.5833333333333L1342.8582750868054,-31314.31165817752L1346.0553066649304,345.5833333333333L1349.2952116753472,345.5833333333333L1349.9608947465279,345.5833333333333L1350.596258484375,345.5833333333333L1350.607628234375,345.5833333333333L1351.8808033645832,345.5833333333333L1352.8739194444445,345.5833333333333L1354.181677564236,345.5833333333333L1355.8006036336806,345.58333235095836L1356.1028494878474,345.58333333333263L1360.6355898211805,-39386.1340344008L1363.2282876041668,345.5833333333333L1363.517347706597,345.5833333333333L1363.545298342014,345.5833333333333L1363.5479828663194,345.5833333333333L1364.83189609375,345.58308632852055L1365.8021147604168,345.5833333333333L1367.0959765190971,345.5833333333333L1367.3963274149305,345.5833333333333L1367.4319368402778,345.5833333333333L1368.4091826440972,175.98475925805303L1368.7388264375,345.5833333333333L1370.6449176510416,345.5833333333333L1374.2252045520834,345.5833333333333L1374.5341617170138,345.58333331685475L1374.5681920104166,345.5833333333333" style="fill: none;" fill="none"></path></g></g></g></g></g></g><g transform="translate(74, 377)" clip-path="url(#clip_1)"><clipPath id="clip_1"><rect width="1421" height="23"></rect></clipPath><g><g><line x1="0" y1="0" x2="0" y2="5" style="visibility: inherit;" fill="rgb(0, 0, 0)" stroke="rgb(204, 204, 204)" stroke-width="1px"></line><line x1="157.91319444444443" y1="0" x2="157.91319444444443" y2="5" style="visibility: inherit;" fill="rgb(0, 0, 0)" stroke="rgb(204, 204, 204)" stroke-width="1px"></line><line x1="315.82638888888886" y1="0" x2="315.82638888888886" y2="5" style="visibility: inherit;" fill="rgb(0, 0, 0)" stroke="rgb(204, 204, 204)" stroke-width="1px"></line><line x1="473.7395833333333" y1="0" x2="473.7395833333333" y2="5" style="visibility: inherit;" fill="rgb(0, 0, 0)" stroke="rgb(204, 204, 204)" stroke-width="1px"></line><line x1="631.6527777777777" y1="0" x2="631.6527777777777" y2="5" style="visibility: inherit;" fill="rgb(0, 0, 0)" stroke="rgb(204, 204, 204)" stroke-width="1px"></line><line x1="789.5659722222223" y1="0" x2="789.5659722222223" y2="5" style="visibility: inherit;" fill="rgb(0, 0, 0)" stroke="rgb(204, 204, 204)" stroke-width="1px"></line><line x1="947.4791666666666" y1="0" x2="947.4791666666666" y2="5" style="visibility: inherit;" fill="rgb(0, 0, 0)" stroke="rgb(204, 204, 204)" stroke-width="1px"></line><line x1="1105.392361111111" y1="0" x2="1105.392361111111" y2="5" style="visibility: inherit;" fill="rgb(0, 0, 0)" stroke="rgb(204, 204, 204)" stroke-width="1px"></line><line x1="1263.3055555555554" y1="0" x2="1263.3055555555554" y2="5" style="visibility: inherit;" fill="rgb(0, 0, 0)" stroke="rgb(204, 204, 204)" stroke-width="1px"></line><line x1="1421.21875" y1="0" x2="1421.21875" y2="5" style="visibility: inherit;" fill="rgb(0, 0, 0)" stroke="rgb(204, 204, 204)" stroke-width="1px"></line></g><g transform="translate(0, 8)"><text x="0" y="0" dx="0em" dy="0.95em" style="text-anchor: middle; visibility: hidden; font-family: &quot;Helvetica Neue&quot;, sans-serif; font-size: 12px; font-weight: 200;" fill="rgb(50, 49, 63)" stroke="none" stroke-width="1px">-2M</text><text x="157.91319444444443" y="0" dx="0em" dy="0.95em" style="text-anchor: middle; visibility: inherit; font-family: &quot;Helvetica Neue&quot;, sans-serif; font-size: 12px; font-weight: 200;" fill="rgb(50, 49, 63)" stroke="none" stroke-width="1px">0</text><text x="315.82638888888886" y="0" dx="0em" dy="0.95em" style="text-anchor: middle; visibility: inherit; font-family: &quot;Helvetica Neue&quot;, sans-serif; font-size: 12px; font-weight: 200;" fill="rgb(50, 49, 63)" stroke="none" stroke-width="1px">2M</text><text x="473.7395833333333" y="0" dx="0em" dy="0.95em" style="text-anchor: middle; visibility: inherit; font-family: &quot;Helvetica Neue&quot;, sans-serif; font-size: 12px; font-weight: 200;" fill="rgb(50, 49, 63)" stroke="none" stroke-width="1px">4M</text><text x="631.6527777777777" y="0" dx="0em" dy="0.95em" style="text-anchor: middle; visibility: inherit; font-family: &quot;Helvetica Neue&quot;, sans-serif; font-size: 12px; font-weight: 200;" fill="rgb(50, 49, 63)" stroke="none" stroke-width="1px">6M</text><text x="789.5659722222223" y="0" dx="0em" dy="0.95em" style="text-anchor: middle; visibility: inherit; font-family: &quot;Helvetica Neue&quot;, sans-serif; font-size: 12px; font-weight: 200;" fill="rgb(50, 49, 63)" stroke="none" stroke-width="1px">8M</text><text x="947.4791666666666" y="0" dx="0em" dy="0.95em" style="text-anchor: middle; visibility: inherit; font-family: &quot;Helvetica Neue&quot;, sans-serif; font-size: 12px; font-weight: 200;" fill="rgb(50, 49, 63)" stroke="none" stroke-width="1px">10M</text><text x="1105.392361111111" y="0" dx="0em" dy="0.95em" style="text-anchor: middle; visibility: inherit; font-family: &quot;Helvetica Neue&quot;, sans-serif; font-size: 12px; font-weight: 200;" fill="rgb(50, 49, 63)" stroke="none" stroke-width="1px">12M</text><text x="1263.3055555555554" y="0" dx="0em" dy="0.95em" style="text-anchor: middle; visibility: inherit; font-family: &quot;Helvetica Neue&quot;, sans-serif; font-size: 12px; font-weight: 200;" fill="rgb(50, 49, 63)" stroke="none" stroke-width="1px">14M</text><text x="1421.21875" y="0" dx="0em" dy="0.95em" style="text-anchor: middle; visibility: hidden; font-family: &quot;Helvetica Neue&quot;, sans-serif; font-size: 12px; font-weight: 200;" fill="rgb(50, 49, 63)" stroke="none" stroke-width="1px">16M</text></g><line x1="0" y1="0" x2="1421.21875" y2="0" fill="rgb(0, 0, 0)" stroke="rgb(204, 204, 204)" stroke-width="1px"></line></g></g></g></g></svg>