<svg viewBox="0 0 1496 400" xmlns="http://www.w3.org/2000/svg"><g><g><g><g><g><line x1="74.78125" y1="370.0080332100118" x2="69.78125" y2="370.0080332100118" style="visibility: inherit;" fill="rgb(0, 0, 0)" stroke="rgb(204, 204, 204)" stroke-width="1px"></line><line x1="74.78125" y1="339.84803321001175" x2="69.78125" y2="339.84803321001175" style="visibility: inherit;" fill="rgb(0, 0, 0)" stroke="rgb(204, 204, 204)" stroke-width="1px"></line><line x1="74.78125" y1="309.6880332100118" x2="69.78125" y2="309.6880332100118" style="visibility: inherit;" fill="rgb(0, 0, 0)" stroke="rgb(204, 204, 204)" stroke-width="1px"></line><line x1="74.78125" y1="279.5280332100117" x2="69.78125" y2="279.5280332100117" style="visibility: inherit;" fill="rgb(0, 0, 0)" stroke="rgb(204, 204, 204)" stroke-width="1px"></line><line x1="74.78125" y1="249.36803321001173" x2="69.78125" y2="249.36803321001173" style="visibility: inherit;" fill="rgb(0, 0, 0)" stroke="rgb(204, 204, 204)" stroke-width="1px"></line><line x1="74.78125" y1="219.2080332100117" x2="69.78125" y2="219.2080332100117" style="visibility: inherit;" fill="rgb(0, 0, 0)" stroke="rgb(204, 204, 204)" stroke-width="1px"></line><line x1="74.78125" y1="189.04803321001174" x2="69.78125" y2="189.04803321001174" style="visibility: inherit;" fill="rgb(0, 0, 0)" stroke="rgb(204, 204, 204)" stroke-width="1px"></line><line x1="74.78125" y1="158.88803321001166" x2="69.78125" y2="158.88803321001166" style="visibility: inherit;" fill="rgb(0, 0, 0)" stroke="rgb(204, 204, 204)" stroke-width="1px"></line><line x1="74.78125" y1="128.7280332100117" x2="69.78125" y2="128.7280332100117" style="visibility: inherit;" fill="rgb(0, 0, 0)" stroke="rgb(204, 204, 204)" stroke-width="1px"></line><line x1="74.78125" y1="98.56803321001166" x2="69.78125" y2="98.56803321001166" style="visibility: inherit;" fill="rgb(0, 0, 0)" stroke="rgb(204, 204, 204)" stroke-width="1px"></line><line x1="74.78125" y1="68.40803321001164" x2="69.78125" y2="68.40803321001164" style="visibility: inherit;" fill="rgb(0, 0, 0)" stroke="rgb(204, 204, 204)" stroke-width="1px"></line><line x1="74.78125" y1="38.24803321001161" x2="69.78125" y2="38.24803321001161" style="visibility: inherit;" fill="rgb(0, 0, 0)" stroke="rgb(204, 204, 204)" stroke-width="1px"></line><line x1="74.78125" y1="8.088033210011645" x2="69.78125" y2="8.088033210011645" style="visibility: inherit;" fill="rgb(0, 0, 0)" stroke="rgb(204, 204, 204)" stroke-width="1px"></line></g><g transform="translate(64.78125, 0)"><text x="0" y="370.0080332100118" dx="0em" dy="0.3em" style="text-anchor: end; visibility: inherit; font-family: &quot;Helvetica Neue&quot;, sans-serif; font-size: 12px; font-weight: 200;" fill="rgb(50, 49, 63)" stroke="none" stroke-width="1px">2e-5</text><text x="0" y="339.84803321001175" dx="0em" dy="0.3em" style="text-anchor: end; visibility: inherit; font-family: &quot;Helvetica Neue&quot;, sans-serif; font-size: 12px; font-weight: 200;" fill="rgb(50, 49, 63)" stroke="none" stroke-width="1px">4e-5</text><text x="0" y="309.6880332100118" dx="0em" dy="0.3em" style="text-anchor: end; visibility: inherit; font-family: &quot;Helvetica Neue&quot;, sans-serif; font-size: 12px; font-weight: 200;" fill="rgb(50, 49, 63)" stroke="none" stroke-width="1px">6e-5</text><text x="0" y="279.5280332100117" dx="0em" dy="0.3em" style="text-anchor: end; visibility: inherit; font-family: &quot;Helvetica Neue&quot;, sans-serif; font-size: 12px; font-weight: 200;" fill="rgb(50, 49, 63)" stroke="none" stroke-width="1px">8e-5</text><text x="0" y="249.36803321001173" dx="0em" dy="0.3em" style="text-anchor: end; visibility: inherit; font-family: &quot;Helvetica Neue&quot;, sans-serif; font-size: 12px; font-weight: 200;" fill="rgb(50, 49, 63)" stroke="none" stroke-width="1px">1e-4</text><text x="0" y="219.2080332100117" dx="0em" dy="0.3em" style="text-anchor: end; visibility: inherit; font-family: &quot;Helvetica Neue&quot;, sans-serif; font-size: 12px; font-weight: 200;" fill="rgb(50, 49, 63)" stroke="none" stroke-width="1px">1.2e-4</text><text x="0" y="189.04803321001174" dx="0em" dy="0.3em" style="text-anchor: end; visibility: inherit; font-family: &quot;Helvetica Neue&quot;, sans-serif; font-size: 12px; font-weight: 200;" fill="rgb(50, 49, 63)" stroke="none" stroke-width="1px">1.4e-4</text><text x="0" y="158.88803321001166" dx="0em" dy="0.3em" style="text-anchor: end; visibility: inherit; font-family: &quot;Helvetica Neue&quot;, sans-serif; font-size: 12px; font-weight: 200;" fill="rgb(50, 49, 63)" stroke="none" stroke-width="1px">1.6e-4</text><text x="0" y="128.7280332100117" dx="0em" dy="0.3em" style="text-anchor: end; visibility: inherit; font-family: &quot;Helvetica Neue&quot;, sans-serif; font-size: 12px; font-weight: 200;" fill="rgb(50, 49, 63)" stroke="none" stroke-width="1px">1.8e-4</text><text x="0" y="98.56803321001166" dx="0em" dy="0.3em" style="text-anchor: end; visibility: inherit; font-family: &quot;Helvetica Neue&quot;, sans-serif; font-size: 12px; font-weight: 200;" fill="rgb(50, 49, 63)" stroke="none" stroke-width="1px">2e-4</text><text x="0" y="68.40803321001164" dx="0em" dy="0.3em" style="text-anchor: end; visibility: inherit; font-family: &quot;Helvetica Neue&quot;, sans-serif; font-size: 12px; font-weight: 200;" fill="rgb(50, 49, 63)" stroke="none" stroke-width="1px">2.2e-4</text><text x="0" y="38.24803321001161" dx="0em" dy="0.3em" style="text-anchor: end; visibility: inherit; font-family: &quot;Helvetica Neue&quot;, sans-serif; font-size: 12px; font-weight: 200;" fill="rgb(50, 49, 63)" stroke="none" stroke-width="1px">2.4e-4</text><text x="0" y="8.088033210011645" dx="0em" dy="0.3em" style="text-anchor: end; visibility: inherit; font-family: &quot;Helvetica Neue&quot;, sans-serif; font-size: 12px; font-weight: 200;" fill="rgb(50, 49, 63)" stroke="none" stroke-width="1px">2.6e-4</text></g><line x1="74.78125" y1="0" x2="74.78125" y2="377" fill="rgb(0, 0, 0)" stroke="rgb(204, 204, 204)" stroke-width="1px"></line></g></g><g transform="translate(74, 0)" clip-path="url(#clip_0)"><clipPath id="clip_0"><rect width="1421" height="377"></rect></clipPath><g><g><g><line x1="55.02540763034861" y1="0" x2="55.02540763034861" y2="377" fill="rgb(0, 0, 0)" stroke="rgb(60, 60, 60)" stroke-width="1px" opacity="0.25"></line><line x1="212.938602074793" y1="0" x2="212.938602074793" y2="377" fill="rgb(0, 0, 0)" stroke="rgb(60, 60, 60)" stroke-width="1px" opacity="0.25"></line><line x1="370.8517965192374" y1="0" x2="370.8517965192374" y2="377" fill="rgb(0, 0, 0)" stroke="rgb(60, 60, 60)" stroke-width="1px" opacity="0.25"></line><line x1="528.7649909636818" y1="0" x2="528.7649909636818" y2="377" fill="rgb(0, 0, 0)" stroke="rgb(60, 60, 60)" stroke-width="1px" opacity="0.25"></line><line x1="686.6781854081263" y1="0" x2="686.6781854081263" y2="377" fill="rgb(0, 0, 0)" stroke="rgb(60, 60, 60)" stroke-width="1px" opacity="0.25"></line><line x1="844.5913798525708" y1="0" x2="844.5913798525708" y2="377" fill="rgb(0, 0, 0)" stroke="rgb(60, 60, 60)" stroke-width="1px" opacity="0.25"></line><line x1="1002.5045742970151" y1="0" x2="1002.5045742970151" y2="377" fill="rgb(0, 0, 0)" stroke="rgb(60, 60, 60)" stroke-width="1px" opacity="0.25"></line><line x1="1160.4177687414597" y1="0" x2="1160.4177687414597" y2="377" fill="rgb(0, 0, 0)" stroke="rgb(60, 60, 60)" stroke-width="1px" opacity="0.25"></line><line x1="1318.330963185904" y1="0" x2="1318.330963185904" y2="377" fill="rgb(0, 0, 0)" stroke="rgb(60, 60, 60)" stroke-width="1px" opacity="0.25"></line></g><g><line x1="0" y1="370.0080332100118" x2="1421.21875" y2="370.0080332100118" fill="rgb(0, 0, 0)" stroke="rgb(60, 60, 60)" stroke-width="1px" opacity="0.25"></line><line x1="0" y1="339.84803321001175" x2="1421.21875" y2="339.84803321001175" fill="rgb(0, 0, 0)" stroke="rgb(60, 60, 60)" stroke-width="1px" opacity="0.25"></line><line x1="0" y1="309.6880332100118" x2="1421.21875" y2="309.6880332100118" fill="rgb(0, 0, 0)" stroke="rgb(60, 60, 60)" stroke-width="1px" opacity="0.25"></line><line x1="0" y1="279.5280332100117" x2="1421.21875" y2="279.5280332100117" fill="rgb(0, 0, 0)" stroke="rgb(60, 60, 60)" stroke-width="1px" opacity="0.25"></line><line x1="0" y1="249.36803321001173" x2="1421.21875" y2="249.36803321001173" fill="rgb(0, 0, 0)" stroke="rgb(60, 60, 60)" stroke-width="1px" opacity="0.25"></line><line x1="0" y1="219.2080332100117" x2="1421.21875" y2="219.2080332100117" fill="rgb(0, 0, 0)" stroke="rgb(60, 60, 60)" stroke-width="1px" opacity="0.25"></line><line x1="0" y1="189.04803321001174" x2="1421.21875" y2="189.04803321001174" fill="rgb(0, 0, 0)" stroke="rgb(60, 60, 60)" stroke-width="1px" opacity="0.25"></line><line x1="0" y1="158.88803321001166" x2="1421.21875" y2="158.88803321001166" fill="rgb(0, 0, 0)" stroke="rgb(60, 60, 60)" stroke-width="1px" opacity="0.25"></line><line x1="0" y1="128.7280332100117" x2="1421.21875" y2="128.7280332100117" fill="rgb(0, 0, 0)" stroke="rgb(60, 60, 60)" stroke-width="1px" opacity="0.25"></line><line x1="0" y1="98.56803321001166" x2="1421.21875" y2="98.56803321001166" fill="rgb(0, 0, 0)" stroke="rgb(60, 60, 60)" stroke-width="1px" opacity="0.25"></line><line x1="0" y1="68.40803321001164" x2="1421.21875" y2="68.40803321001164" fill="rgb(0, 0, 0)" stroke="rgb(60, 60, 60)" stroke-width="1px" opacity="0.25"></line><line x1="0" y1="38.24803321001161" x2="1421.21875" y2="38.24803321001161" fill="rgb(0, 0, 0)" stroke="rgb(60, 60, 60)" stroke-width="1px" opacity="0.25"></line><line x1="0" y1="8.088033210011645" x2="1421.21875" y2="8.088033210011645" fill="rgb(0, 0, 0)" stroke="rgb(60, 60, 60)" stroke-width="1px" opacity="0.25"></line></g></g></g><g><g><line x1="0" y1="400.1680332100118" x2="1421.21875" y2="400.1680332100118" fill="rgb(0, 0, 0)" stroke="rgb(153, 153, 153)" stroke-width="1.5px"></line></g></g><g><g><line x1="55.02540763034861" y1="0" x2="55.02540763034861" y2="377" fill="rgb(0, 0, 0)" stroke="rgb(153, 153, 153)" stroke-width="1.5px"></line></g></g><g><g><g><g><g><path stroke="rgb(255, 112, 67)" stroke-width="2px" d="M57.63255447062639,739.8797882133549L58.91496752270972,240.91498184975407L62.14713478659861,321.3740402218519L64.73912196020972,4.951299704692985L64.74749135951528,-69.26331808344406L68.62015454007083,406.11315926751485L75.10154369284861,96.3027779808391L77.69353086645972,110.75440918951233L79.63144158868194,166.28320861047072L80.26498932479305,105.92808401959365L82.21158527270973,329.8625885560791L82.85523945326528,323.5455950962756L85.45559602618195,378.4010013650966L86.09088080743196,399.5610715662246L88.6844471129875,279.26531527463067L89.33504947409861,284.345811216542L89.34515591854306,390.1677561487213L98.3981614428486,405.77663657052915L100.97309399145972,233.82137186279726L102.28093106784863,129.36084471979012L105.51830946715417,233.36385030560987L109.38576151229306,281.58692492485517L111.34420094979305,251.4854805282888L111.34925417201528,197.20417029103814L111.99464539770972,294.17901725425077L112.62313991159861,251.1827699820445L114.56957794632083,416.3391126658944L120.3989435192375,393.51501067737246L121.69146301576527,323.93144476781606L122.98903573451528,376.27355454052895L127.52240772062639,346.3247499581201L129.4603184428486,233.23195935127094L129.46552957826526,1400.5883502221393L135.9197576615986,448.5172582119634L137.23106882826525,323.2069767852675L138.52532536993195,327.9139484036673L142.40635794979303,258.805097102152L144.99487103312637,213.13681436488727L148.87937770326528,273.356421592738L149.52129483868194,262.04149578744796L150.81902547062637,167.8655702568217L152.11501905743194,320.9654433637704L154.05640386993193,416.5883167071577L157.9255929602097,656.5419327720651L159.87029394979302,91.36559340206827L160.52089631090416,213.32176808210724L160.52421248798748,437.1213281245978L161.81846902965415,405.6195610837132L161.82020607479302,306.63078348154806L162.46228112340415,675.1922597216283L190.94097826229302,504.7684841533996L194.16635525882083,202.97637151341505L194.81522057479305,240.37140594403616L194.81695761993194,135.48351481337141L197.40199661298746,378.5209467818482L205.1591664636819,342.7816059868908L210.98837412340413,-123.62408250405264L210.9916903004875,109.17246721333595L212.94160242548747,225.57069361200632L216.17045351229305,231.59510841742596L219.40277868937636,188.19350985728863L219.4146221789597,267.7466516727726L223.94783625187637,342.4150550261825L225.2387766164597,347.21335271640066L229.10449161645968,261.9890393706804L231.6964787900708,288.83810521130783L235.59282894979302,328.61923073781924L236.88882253659858,319.13410165114885L237.51889618243192,339.9693323985374L240.7715921615986,330.15013877732207L240.7749083386819,253.73334733483676L244.64236038382083,498.20299224026894L249.17904854701524,392.51681352046273L250.45814542201524,258.38361311167654L255.65885856784857,331.71615156143383L256.2873530817375,358.30809216404816L256.3009336164597,370.9008313823029L261.4643792484041,418.545706063597L262.1097704740986,409.4794064864333L263.41760755048745,105.25792077264964L265.99601418937635,306.0875917167288L269.23497172062633,273.1538017507427L272.4774033421541,750.5394977040501L309.3671888699319,417.91319248653184L313.23795709215415,357.00357794869257L313.8936126754875,439.5920374019607L319.05532126229303,331.7617667957011L319.072375887293,335.01982896986556L322.29775288382075,351.4620922107502L322.9415649775708,428.7430859319871L322.95167142201524,273.67827154115264L326.1789433768763,316.15424591813746L326.8396521824319,101.7131491197789L330.05650186645966,311.53045481588464L335.8959738838208,265.0217528925266L338.4743805227096,277.6375990495677L339.7669000192374,378.6670532080739L361.1357134914597,394.3501483805305L361.7709982727096,316.69623546696556L363.7055928178485,366.14899311967116L367.5916786199319,424.565765928488L370.1869819706263,389.74082724076817L372.1334200053485,335.98678537311685L373.4158330574319,279.66803308950773L376.0179266754874,265.9849825152908L376.65652763382076,320.63593411828987L376.6617387692374,399.5827654709426L377.30886704007077,365.5017026146918L378.6081768039596,222.50247533295956L386.37703223104296,293.08073915461426L390.8900334150708,354.1627635907154L390.9069301268763,376.08959372539965L392.83141822757074,215.88401148714303L399.3162814706263,307.86980272831806L402.55192282479294,311.5182646150039L407.71868463382077,518.4083205167034L415.4894350192374,425.3361925402006L415.497804418543,354.90684118723715L416.13482624493184,341.2227738839962L420.02264909215404,657.5516382944671L425.840013262293,-23.095651346181057L427.1410600713207,145.81948769623727L429.729573154654,306.6632566464937L437.50016562687625,62.10053333211306L438.7876319011818,224.02600320102815L438.79284303659847,270.03932717206453L440.0717819984041,-57.30483114733994L440.08362548798743,111.40879367787414L442.66882239423734,204.0938070257254L445.26065165465405,254.4455021006596L454.3119201338207,302.00222043463407L456.89364294979293,318.10620236055433L458.1913735817374,293.58929840211295L462.0690899845152,298.03667320456657L463.36839974840404,308.90291578718666L466.6108313699318,386.26525540222934L466.62267485951514,433.60616698322224L467.2664869532652,300.70078839519283L471.1492565782651,325.7356517691907L472.4315117171541,295.901290516045L473.08385112340403,362.0712913184012L479.5466065192374,393.55524585383716L512.5484112865985,418.1257570120341L513.8444048734041,365.65892598727123L514.4932701893763,283.6556588486176L517.0765721372929,308.6854979663026L519.0196939949318,380.50620012811936L519.0214310400708,360.9874922379291L519.6804028004873,487.222212569982L522.907516842154,425.5079448178576L524.8609030574319,369.21259574014215L525.4876605261818,285.7961819744121L526.7954976025707,275.0660960813322L528.0777527414596,324.3009255986993L528.0880170990985,391.3925772642304L528.0913332761818,418.79179012376596L530.0344551338208,349.53244727001976L533.9036442240985,407.7778490297507L534.557562762293,451.02906766959L535.1945845886818,319.5435668407969L537.7966782067374,581.643217139343L549.4517773490985,422.80649562463066L550.7289792657651,215.98393664768668L552.0249728525707,98.4659282105385L552.0402904324318,165.1335733191541L552.6907348803485,198.53727725406364L553.9628835747928,273.4771648808987L557.2105263317374,301.2192250430614L559.1383306095152,402.1696148576459L561.7505306720151,356.76365275209764L566.9174503942373,260.6600754427986L570.8103264636818,390.02733715029547L571.4405580227096,320.10443442979545L572.7449210088207,207.13637809385204L574.0409145956262,253.2249054351468L578.5572319567374,320.433534985675L579.2229939845151,298.28879173140615L580.5003538143762,364.23806767945734L582.4365274914596,348.9558836623466L585.031830842154,383.6127872055146L610.2733074949318,429.5235335962548L612.8651367553485,267.3004488953435L616.1059892449318,240.22478283001777L616.7564336928484,439.01991585335566L619.3449467761818,-18.420586157744083L619.9920750470152,129.61991379718773L625.8077021720152,498.6569276587604L639.3838153247929,511.08783139489276L641.3354644949318,300.10541136177085L642.6178775470152,393.31034020462926L644.5829493386818,396.0534174067823L645.2097068074319,374.3066701002785L649.0992666997929,569.0995406522117L653.6342178178485,380.7380371002115L662.0486223838207,367.06217326103774L668.5045875122929,404.19541079191555L671.1152084428485,384.93211294237847L672.402674717154,137.96607348538765L673.0548562102097,406.5113611433238L678.2132486199318,-212.40690034633155L685.9873151824319,44.71392599687027L685.9974216268763,197.65686017427367L687.291678168543,237.60731870629525L687.9286999949319,298.4205049353603L688.5673009532652,396.61821220269536L692.453544668543,366.05332239107133L692.4687043352096,407.97362105192957L693.7478012102097,458.5787979527139L696.3431045609041,259.41107518137323L696.9970230990984,274.53393138506783L706.0364480886818,327.9123161359426L707.9794120331263,310.79386693247335L709.9192177136819,344.5267222440607L713.1734928247929,358.41125437109656L715.7585318178485,470.69049601954765L722.2282353942373,443.006680365717L722.2315515713207,365.9387108787952L723.5292822032652,350.2861514584049L724.8251178768763,384.68750735802763L733.8713331338207,347.87825238568473L734.5337789845153,301.37105471416066L735.1708008109041,370.02174008909265L737.7507865817373,411.06806292353576L759.7616751025707,432.5949114266472L760.4121195504874,366.0439152765872L762.3552414081263,483.0785900643792L766.8748749463207,376.6572234805758L770.1190436129875,375.2608002500839L773.3564220122929,334.1445093144654L775.2824892449319,288.33393669985577L779.822651498404,321.06187061018915L779.8242306303484,388.84062038261084L805.7025711963207,450.9337384149134L807.0121453178485,225.5289765330264L807.6507462761818,289.59901505964274L811.5319367692374,290.266894315752L812.1773279949318,218.74013511353235L813.4698474914596,216.74405895122388L813.4834280261819,301.56017996960753L814.7759475227095,753.4610340986077L830.3037098456264,453.89009529352575L830.9405737588207,135.1254395616861L832.231514123404,238.110623171919L833.5342979775708,323.0169646043331L834.1762151129873,362.2832295301923L836.7715184636819,402.1835755439287L842.5956729011818,389.22812181382176L845.1740795400707,359.80899166105735L850.994759887293,375.95260828063914L850.9964969324318,330.1554764419336L856.8291786824318,409.05154171974846L872.3703636268763,438.1564650626808L874.9369267761817,349.6711637130392L875.5958985365984,339.4601950521386L876.2531332518763,287.6682589860369L879.4769311164597,336.4620132439081L881.4318964636819,337.38283342774946L884.0170933699318,366.7070533990759L885.9567411372929,389.9357506460722L902.7702326893763,399.3208227920081L906.0091902206264,316.26130878430524L906.0194545782651,318.7644217507695L909.895433935904,298.65390872475706L911.177689074793,388.78000912812945L913.7832567831263,396.303235029888L915.0639327900708,367.42289843225836L916.3632425539595,388.1247924760111L917.6473926511817,374.3731195950903L918.9585459046541,416.79797274738155L919.6107273977096,520.0193361169936L920.2426960018763,320.18851022299566L920.2477492240985,375.4349361393354L923.4851276234041,409.08905958366427L931.2590362727096,398.8054102256427L931.8993742761818,313.27994038557085L933.847549356043,270.27124743582004L936.4310092171539,300.3104201548825L938.3723940296541,354.15158842680995L940.3069885747929,227.23866614709075L940.9508006685429,568.9247831026344L954.5420734879873,385.11935253948167L960.3611747032652,371.9917772500585L964.2489975504873,413.40899380007943L969.4413412970151,397.10440120033456L970.7237543490985,374.49590807513266L974.5962596164596,150.74203876260825L974.6014707518763,264.758672806741L974.6098401511817,321.50680812883013L977.8319009706262,400.6210464819941L981.7198817310428,396.5503532577439L983.0292979393762,235.78129715570503L990.1358654289596,378.48060093633455L992.0739340643763,395.3552173117286L995.3027851511818,372.22639626375525L995.9685471789596,422.0185422019838L1050.3255848838207,462.8621473079215L1050.3323751511819,370.7471766422901L1052.9107817900706,344.55265123966143L1053.549382748404,387.83450210730564L1054.8504295574319,426.60669375407736L1055.489030515765,321.79186145628955L1056.154792543543,290.30343462035364L1058.096177356043,288.6967106333917L1059.3785904081262,312.8755309319991L1061.3302395782653,395.86696358388303L1070.378033967154,468.79082105069654L1072.3262090470153,316.4496081330103L1076.1938190053486,361.3236487522102L1076.2124527622927,382.9163643374777L1080.1002756095152,416.87054093343176L1082.6837354706263,333.5589863596503L1087.216949543543,467.8504774667374L1094.9824887935429,410.25347793327995L1096.2751662032651,92.73130993658532L1100.1527246928483,208.4090055460998L1102.0993206407652,284.8807493883814L1102.1026368178484,353.79795958206506L1104.032178140765,351.29205744470386L1105.3145911928484,411.1098039798418L1107.9217380331263,334.49663772752774L1114.3777031615984,357.0000215647269L1116.9730065122928,-19.004893910201588L1120.869356672015,150.0181839711464L1121.504641453265,167.28963625931368L1129.2599163456262,196.3239763823221L1130.5593840227095,146.24078569614952L1133.7932883317374,264.64242815807023L1135.102862453265,341.1884598050783L1138.978841810904,645.5889155617708L1155.1518374463208,503.14149241862094L1155.798965717154,312.12377709704964L1159.041397338682,213.8691475331201L1162.9191137414596,153.29069303896898L1168.1064042657651,229.03324046563006L1170.0307344532653,187.48238964814877L1173.2646387622929,266.5729987212093L1178.4484551963205,146.1341812552891L1179.105847824793,303.4374405998222L1180.3915770539595,157.1717006320981L1182.9851433595152,311.9115410394956L1182.986880404654,314.4702821265474L1183.6322716303484,152.6288552664L1188.8145089324319,267.32778332224586L1189.454846935904,307.7303666418626L1193.9762175192373,372.2592937339541L1196.576574092154,413.73060329311795L1212.1025993699318,441.3775107089254L1212.1059155470152,362.2194151108832L1216.625706998404,408.73039032871645L1225.6922930574317,367.3483420215892L1225.7023995018762,370.51967911251955L1226.3343681060428,384.66585477098556L1226.341158373404,399.525312455189L1226.3427375053484,371.7311488623237L1231.5113942727096,364.06631183404704L1241.228424779654,378.50700038443296L1245.746479185904,360.2096977216602L1245.7633758977095,360.311168258568L1246.3969236338207,366.46057781742854L1247.0492630400706,340.4804399623834L1251.5723706685428,363.33039626572054L1255.4483500261817,373.0261641607622L1259.332698783126,309.99951306505534L1259.336172873404,308.24921017067027L1260.633745592154,310.93817713837433L1261.286084998404,304.7483396131919L1273.5780480539595,365.1864283674009L1274.8655143282651,427.85305510863594L1307.2389824949316,472.4857281200971L1308.5247117240983,304.07409229739466L1309.1735770400705,432.67563132186757L1309.8154941754874,444.38637887914706L1314.3556564289595,372.39647317001084L1316.9474856893762,374.2994507456244L1326.0039653039594,371.9226133217078L1326.6375130400706,385.297606675792L1326.6528306199316,333.3113818793594L1329.224289078265,308.0530796899708L1329.2293423004874,356.17887397517006L1329.8867349289596,408.14192405467236L1331.182728515765,333.6196984470489L1332.4581933872928,470.2809124476117L1338.2840848699318,341.5597994006182L1341.5299905817374,376.3446877504565L1341.5315697136818,447.7893741600175L1373.8761397657652,407.08861734837336L1375.1874509324316,361.2400681636599L1379.698557158126,371.68613002194206L1380.344106297015,368.0319507482424L1380.9962877900707,390.5716324660991L1409.4835122414595,503.80398831982785L1411.4113165192373,253.77337813225398L1422.4090230331262,311.4046057703577" style="fill: none;" fill="none"></path></g></g></g></g><g opacity="0.2"><g><g><g><path stroke="rgb(255, 112, 67)" stroke-width="2px" d="M56.96679244284861,1362.9487477107077L57.63255447062639,323.55358883311095L58.91496752270972,-345.8676304338404L66.67876972757084,-176.12000320999846L67.98155358173749,196.56859845659747L67.98486975882082,1460.3340752752604L68.62015454007083,155.851564263376L75.10154369284861,-367.40120930093303L77.69353086645972,132.40354375253477L79.63144158868194,249.51113572266007L80.26498932479305,15.437964243265299L82.21158527270973,665.6695837834019L82.85523945326528,314.0717087905254L85.45559602618195,460.6757540993026L86.09088080743196,431.2992427536851L88.6844471129875,98.82827814240989L89.33504947409861,291.96638795352595L89.34515591854306,548.8985842772859L90.63609628312638,468.836099733981L96.46025072062639,332.37564801917L98.3981614428486,435.5445518255333L105.51830946715417,389.3682628828724L109.38576151229306,353.9215102015628L111.34420094979305,206.3333239154057L111.34925417201528,115.78221573532608L111.99464539770972,439.64127612222046L112.62313991159861,186.68840215346827L114.56957794632083,664.0736195937831L114.58157934909862,1076.8352564288405L116.52122711645971,115.56575727687266L117.81548365812638,290.8758884974854L120.3989435192375,400.1680332100118L121.69146301576527,219.55609613602104L122.98903573451528,454.78671909464583L127.52240772062639,301.4015431205375L129.4603184428486,63.59277352263268L129.46552957826526,3151.6229360228517L133.99874365118194,282.38286745423505L135.2794196581264,253.2316910316335L135.9197576615986,111.37858959651601L137.23106882826525,135.24155465225735L138.52532536993195,334.97440583110847L142.40635794979303,155.14182015127554L144.99487103312637,144.63439025954395L148.87937770326528,363.685832434076L149.52129483868194,245.06910707956234L150.81902547062637,26.601681961128918L152.11501905743194,550.6152530239528L161.15444404701526,416.4946809820872L161.81846902965415,370.7428988078941L161.82020607479302,158.14761707830294L162.46228112340415,1228.0344740817427L170.86136810951527,641.4979723146284L172.81964963382083,254.6593644753197L182.5300477865986,784.5130238080499L185.75889887340415,781.6188355306265L185.76395209562637,155.28450191292032L190.94097826229302,559.7785404048959L194.16635525882083,-249.7117974465616L194.81522057479305,296.4639575899677L194.81695761993194,-21.848321882625612L197.40199661298746,743.0770947345633L205.1591664636819,289.1725947944546L210.98837412340413,-823.2326152404676L212.94160242548747,400.1680332100118L216.17045351229305,240.63173062555546L219.40277868937636,123.09111201708251L219.4146221789597,387.07636439599855L223.94783625187637,454.41766005629734L225.2387766164597,354.4107992517279L229.10449161645968,134.15256935210013L231.6964787900708,329.11170397224896L235.59282894979302,388.29091902758637L236.88882253659858,304.90640802114325L237.51889618243192,371.22217851962023L240.7715921615986,315.4213483454991L240.7749083386819,139.10816017110884L244.64236038382083,864.9074595984173L248.52860409909857,458.1854559316166L249.17904854701524,257.9980672259448L250.45814542201524,57.18381249849733L255.65885856784857,441.7149592360697L265.99601418937635,607.3320981328476L269.23497172062633,223.7531168017635L272.4774033421541,1466.6180416340114L272.4808774324319,319.536456469596L275.0591261581264,301.2972967796126L276.35006652270965,679.7165834674712L285.4114414463208,446.34889342220094L286.0569905852097,349.3514311509539L288.64708280048745,506.73905327372313L308.06266797062636,425.19663222143254L309.3671888699319,361.8422269525222L313.23795709215415,265.6391561419336L313.8936126754875,563.4747265818628L319.05532126229303,170.01636088631167L319.072375887293,339.9069222311123L322.29775288382075,376.12548707207725L322.9415649775708,544.6645765138423L322.95167142201524,41.081049954901005L326.1789433768763,379.8682074836147L330.05650186645966,626.2564133600432L335.8959738838208,195.25870000748947L338.4743805227096,296.5613682851294L339.7669000192374,530.2112344458333L343.65977608868184,705.6728361155007L344.30185113729294,362.6696171365079L350.13958610951516,264.7848430594062L355.3030317414596,377.7031675551011L356.5904980157652,621.5107196573268L361.1357134914597,269.22071632967385L361.7709982727096,200.21536609661817L363.7055928178485,440.32812959872945L367.5916786199319,512.1909251417133L370.1869819706263,337.50341920918845L372.1334200053485,255.3557225716399L373.4158330574319,195.18990466409414L376.0179266754874,245.46040665396544L376.65652763382076,402.61236152278843L376.6617387692374,518.0030124999216L377.30886704007077,314.3801083303155L378.6081768039596,8.003634410361258L386.37703223104296,398.94813488709633L399.3162814706263,445.8484895900806L402.55192282479294,316.9909574450325L407.71868463382077,828.7434043692526L409.65327917895956,454.21430233787805L415.4894350192374,324.24441148274167L415.497804418543,249.26281415779198L416.13482624493184,320.69667292913476L420.02264909215404,1132.0449349101737L421.95219041507073,657.0846929777514L425.840013262293,1.0059520233519947L427.1410600713207,399.1921962598649L438.7876319011818,466.91420800440073L438.79284303659847,339.0593131286191L440.0717819984041,-548.3210686264463L440.08362548798743,364.4792309156951L442.66882239423734,343.1213270475023L445.26065165465405,329.9730447130609L454.3119201338207,373.33729793559587L456.89364294979293,342.2621752494347L458.1913735817374,256.8139424644509L462.0690899845152,304.70773540824706L463.36839974840404,325.20227966111673L466.6108313699318,502.30876482479334L466.62267485951514,504.61753435471155L467.2664869532652,101.34272051314872L471.1492565782651,363.2879468301876L472.4315117171541,251.14974863632636L473.08385112340403,461.32629252193556L506.7361003386818,485.21903049064395L508.67416897409845,359.72283662946256L512.5484112865985,377.7571793058637L513.8444048734041,286.9586794501269L514.4932701893763,160.65075814063712L517.0765721372929,346.2302566428302L519.0196939949318,488.2372533708444L519.0214310400708,331.7094304026436L519.6804028004873,676.5742930680614L522.2706529289596,475.89315239261896L522.907516842154,339.7339792960888L524.8609030574319,284.76957212356905L525.4876605261818,160.67156132581695L526.7954976025707,258.97096724171246L528.0777527414596,398.1531698747499L528.0913332761818,459.89060941306934L530.0344551338208,245.64343298940042L533.9036442240985,495.14595166934714L534.557562762293,515.9058956293488L535.1945845886818,122.31531559760728L537.7966782067374,974.7926925871623L540.388507467154,394.19724338828064L547.4968120018763,314.2210561297001L549.4517773490985,424.0184900214995L552.0249728525707,-77.81108444518367L552.0402904324318,265.13504098207744L552.6907348803485,248.6428331564279L553.9628835747928,385.8869963211514L557.2105263317374,342.8323152863054L559.1383306095152,553.5951995795226L561.7505306720151,288.6547095937753L566.9174503942373,116.50470947885003L570.8103264636818,584.0782297115408L571.4405580227096,215.22008034904542L572.7449210088207,37.684293589937056L574.0409145956262,322.3576964470889L578.5572319567374,421.2464793114673L579.2229939845151,265.0716768500028L580.5003538143762,463.1619816015341L582.4365274914596,326.03260763668044L585.031830842154,435.5981425202667L592.1554529567373,439.0258101581462L601.2203019706262,367.4850799604069L602.5110844220151,448.50816748899933L610.2733074949318,409.57825417959657L612.8651367553485,23.965821843976585L616.1059892449318,199.6112837320292L616.7564336928484,737.2126153883625L618.0456370122929,329.7149798842479L619.3245759740985,360.34288620672714L619.3449467761818,-618.0253444375376L619.9920750470152,351.6806637295854L625.8077021720152,1052.2124484511194L644.5829493386818,400.1680332100118L645.2097068074319,341.68654914052286L649.0992666997929,861.2888464801115L650.4003135088207,399.23929993156935L652.3248016095151,270.7985435651248L653.6342178178485,338.3260666838946L662.0486223838207,346.54837750227716L668.5045875122929,459.89526708823223L671.1033649532652,448.6156999870768L671.1152084428485,329.3849926509761L672.402674717154,-232.48298570009842L685.9974216268763,427.07126144037875L687.291678168543,297.5330065043276L687.9286999949319,389.640284278958L688.5673009532652,543.9147731036978L692.453544668543,320.2059876736352L692.4687043352096,470.8540690432169L696.3431045609041,-39.34050897563765L696.9970230990984,297.2182156906096L706.0364480886818,407.9798932622548L707.9794120331263,285.11619312726947L709.9192177136819,395.1260052114417L722.2282353942373,401.48095688497096L722.2315515713207,250.33675664841252L723.5292822032652,326.8073123278195L724.8251178768763,436.28954120746175L733.8713331338207,292.6643699271703L734.5337789845153,231.61025820687468L735.1708008109041,472.9977681514906L759.7616751025707,422.1954600531358L760.4121195504874,266.2174210514972L762.3552414081263,658.6306022460673L766.8748749463207,217.02517360487076L770.1190436129875,373.166165404346L773.3564220122929,272.4700729110377L775.2824892449319,219.61807777794132L779.822651498404,370.15377147568915L779.8242306303484,490.5087450412434L783.7070002553486,407.1416872872401L790.828885324793,363.986869665187L792.1248789115986,368.6122071764298L794.0474720539596,408.7991976618109L807.6507462761818,385.7040728495672L811.5319367692374,291.2687131999159L812.1773279949318,111.44999631020289L813.4698474914596,213.7499447077611L813.4834280261819,428.784361497183L814.7759475227095,1431.3123152921082L819.2957389740985,357.3109810628562L829.0127694810429,406.5114391020511L830.3037098456264,355.3174631767074L830.9405737588207,-343.02154403607335L836.7715184636819,462.03409456453346L842.5956729011818,369.7949412186613L845.1740795400707,315.6802964319108L850.994759887293,400.1680332100118L850.9964969324318,261.4597786838753L856.8291786824318,527.3956396364706L862.0079418942373,371.2996308846964L862.6414896303485,449.47255860703126L872.3703636268763,471.9945850180561L874.9369267761817,216.9432116885768L875.5958985365984,324.1437420607876L876.2531332518763,209.98035488688438L879.4769311164597,409.6526446307148L881.4318964636819,338.7640637035115L884.0170933699318,410.6933833560656L902.1246835504874,442.87997600864446L902.7702326893763,355.2639575160906L906.0091902206264,191.672037772751L906.0194545782651,322.5190912004659L909.895433935904,268.48813918573836L911.177689074793,523.969159733188L913.7832567831263,407.5880738825258L915.0639327900708,324.10239353581386L916.3632425539595,419.17763354164026L917.6473926511817,353.7456102737092L918.9585459046541,480.4352524758183L919.6107273977096,674.8513811714116L920.2426960018763,20.442271381998864L920.2477492240985,458.3045750138449L923.4867067553486,526.5648837472877L925.4315656581263,348.1932445380703L926.7275592449319,503.35487098587737L928.6518894324319,427.55037931297966L931.2590362727096,300.25866264864857L931.8993742761818,184.99173562546312L933.847549356043,205.75820801119372L936.4310092171539,345.3691792334762L938.3723940296541,434.9133408347011L940.3069885747929,36.869282727512086L940.9508006685429,1081.4539585359496L951.3099062240984,377.00579865000736L951.3116432692374,319.57264260077903L953.2580813039596,400.1680332100118L954.5420734879873,369.4709776924906L960.3611747032652,352.3004143159237L964.2489975504873,475.5348186251108L966.8443009011819,408.8495241436799L969.4413412970151,375.383194094557L970.7237543490985,340.5831683873298L974.5962596164596,-184.88876520617828L978.4842403768762,529.4306761158264L981.7198817310428,313.15853564106914L983.0292979393762,-5.372286997353228L992.0739340643763,420.66714187481966L995.3027851511818,337.53316469179526L995.9685471789596,496.70676110932664L997.257750498404,413.52486994461333L1004.3641600747928,282.1849738635687L1014.7166332761818,478.856717537074L1017.9691713421539,405.30000398817765L1019.2601117067373,345.9784349639999L1024.426873515765,370.54496407168745L1025.7296573699318,551.7426956891181L1027.0357574011819,279.1010772149643L1031.5419683178484,487.9370609948278L1036.7358911963208,372.455282932297L1039.9715325504874,400.2899577216151L1043.8543021754874,367.1017927942198L1043.8593553977096,578.1933092609148L1050.3255848838207,460.66720679906257L1050.3323751511819,232.57472064384314L1052.9107817900706,305.26086313571835L1053.549382748404,452.757278408772L1054.8504295574319,484.7649812242348L1055.489030515765,164.56961300960793L1056.154792543543,243.07079436644966L1058.096177356043,286.2866246529488L1059.3785904081262,349.1437613799103L1061.3302395782653,520.3541125617089L1062.614231762293,567.0983320257261L1063.2681503004874,308.788945093202L1065.213009203265,488.16197349029653L1070.378033967154,517.1617123802757L1072.3262090470153,87.93778875648093L1076.1938190053486,428.63470968101L1076.2124527622927,415.30543771537896L1077.4896546789596,371.67091452525756L1080.1002756095152,474.54907571469494L1082.6837354706263,208.5916544989781L1087.216949543543,669.2877141273681L1093.6730725852096,398.1611841688032L1094.9824887935429,365.6715546118544L1096.2751662032651,-383.5519420584567L1102.1026368178484,457.17377487259046L1104.032178140765,347.53320423866217L1105.3145911928484,500.83642378254854L1107.9217380331263,219.5768883490568L1114.3777031615984,390.7550973205257L1120.869356672015,403.55280079316844L1121.504641453265,193.19681469156458L1129.2599163456262,239.8754865668347L1130.5593840227095,71.11599966689062L1133.7932883317374,442.24489185095126L1138.978841810904,1102.1895991968095L1142.2110090747929,287.24868419036324L1143.4967383039595,1699.0286809256406L1155.1518374463208,473.0208974312159L1155.798965717154,25.597204114692715L1159.041397338682,66.48720318722587L1162.9191137414596,62.42301129774239L1168.1064042657651,342.64706160562173L1170.0307344532653,125.15611342192673L1173.2646387622929,385.2089123308001L1182.9851433595152,544.0213016505918L1182.986880404654,318.308393757125L1183.6322716303484,-90.13328502382109L1188.8145089324319,439.3761754060147L1189.454846935904,368.3342416212877L1193.9762175192373,469.05268437209133L1212.1025993699318,441.9138842082798L1212.1059155470152,243.4822717138199L1216.625706998404,478.4968531554664L1225.6922930574317,305.27526956089827L1225.7023995018762,375.27668474891516L1226.3343681060428,405.88511825868454L1226.341158373404,421.8144989814941L1226.3427375053484,330.03990347302573L1231.5113942727096,352.569056291632L1241.228424779654,400.1680332100118L1245.746479185904,332.7637437275011L1245.7633758977095,360.4633740639297L1246.3969236338207,375.6846921557194L1247.0492630400706,301.51023317981566L1251.5723706685428,397.6053307207262L1255.4483500261817,387.56981600332483L1259.332698783126,215.4595364214951L1259.336172873404,305.62375582909266L1260.633745592154,314.9716275899304L1261.286084998404,295.46358332541826L1273.5780480539595,455.8435614987143L1281.999242887293,426.9349654665898L1285.8853286893761,300.16355610374416L1287.1780060990984,632.5151218431171L1306.5850639567373,453.340672795694L1307.2389824949316,371.77680394475874L1308.5247117240983,51.456638563341016L1309.1735770400705,625.577939858577L1309.8154941754874,461.95250021506627L1314.3556564289595,264.4116146063065L1316.9474856893762,377.15391710904487L1326.0039653039594,368.3573571858328L1326.6375130400706,405.3600967069183L1326.6528306199316,255.33204468471052L1329.224289078265,270.16562640588785L1329.2293423004874,428.3675654029689L1329.8867349289596,486.08649917392586L1331.182728515765,221.83636003561372L1332.4581933872928,675.2727334484558L1338.2840848699318,148.4781298301281L1341.5299905817374,428.5220202752139L1349.2903186963206,430.91077673549125L1350.5777849706262,363.54426160201956L1352.5209068282652,337.94451585950856L1353.1680350990982,912.6103920959038L1356.4155199428485,527.9275911258633L1358.353588578265,225.8612606771389L1359.6410548525707,332.17911497436984L1360.9539451511816,364.42408766257404L1362.8920137865985,489.78314069487215L1368.7109570886817,651.1677228942614L1369.344504824793,356.13703845107057L1369.351295092154,315.1317331163777L1373.8761397657652,422.1246184048691L1375.1874509324316,292.4672443865897L1379.698557158126,387.3552228093654L1380.344106297015,362.550681837693L1380.9962877900707,424.3811550428841" style="fill: none;" fill="none"></path></g></g></g></g></g></g><g transform="translate(74, 377)" clip-path="url(#clip_1)"><clipPath id="clip_1"><rect width="1421" height="23"></rect></clipPath><g><g><line x1="55.02540763034861" y1="0" x2="55.02540763034861" y2="5" style="visibility: inherit;" fill="rgb(0, 0, 0)" stroke="rgb(204, 204, 204)" stroke-width="1px"></line><line x1="212.938602074793" y1="0" x2="212.938602074793" y2="5" style="visibility: inherit;" fill="rgb(0, 0, 0)" stroke="rgb(204, 204, 204)" stroke-width="1px"></line><line x1="370.8517965192374" y1="0" x2="370.8517965192374" y2="5" style="visibility: inherit;" fill="rgb(0, 0, 0)" stroke="rgb(204, 204, 204)" stroke-width="1px"></line><line x1="528.7649909636818" y1="0" x2="528.7649909636818" y2="5" style="visibility: inherit;" fill="rgb(0, 0, 0)" stroke="rgb(204, 204, 204)" stroke-width="1px"></line><line x1="686.6781854081263" y1="0" x2="686.6781854081263" y2="5" style="visibility: inherit;" fill="rgb(0, 0, 0)" stroke="rgb(204, 204, 204)" stroke-width="1px"></line><line x1="844.5913798525708" y1="0" x2="844.5913798525708" y2="5" style="visibility: inherit;" fill="rgb(0, 0, 0)" stroke="rgb(204, 204, 204)" stroke-width="1px"></line><line x1="1002.5045742970151" y1="0" x2="1002.5045742970151" y2="5" style="visibility: inherit;" fill="rgb(0, 0, 0)" stroke="rgb(204, 204, 204)" stroke-width="1px"></line><line x1="1160.4177687414597" y1="0" x2="1160.4177687414597" y2="5" style="visibility: inherit;" fill="rgb(0, 0, 0)" stroke="rgb(204, 204, 204)" stroke-width="1px"></line><line x1="1318.330963185904" y1="0" x2="1318.330963185904" y2="5" style="visibility: inherit;" fill="rgb(0, 0, 0)" stroke="rgb(204, 204, 204)" stroke-width="1px"></line></g><g transform="translate(0, 8)"><text x="55.02540763034861" y="0" dx="0em" dy="0.95em" style="text-anchor: middle; visibility: inherit; font-family: &quot;Helvetica Neue&quot;, sans-serif; font-size: 12px; font-weight: 200;" fill="rgb(50, 49, 63)" stroke="none" stroke-width="1px">0</text><text x="212.938602074793" y="0" dx="0em" dy="0.95em" style="text-anchor: middle; visibility: inherit; font-family: &quot;Helvetica Neue&quot;, sans-serif; font-size: 12px; font-weight: 200;" fill="rgb(50, 49, 63)" stroke="none" stroke-width="1px">1M</text><text x="370.8517965192374" y="0" dx="0em" dy="0.95em" style="text-anchor: middle; visibility: inherit; font-family: &quot;Helvetica Neue&quot;, sans-serif; font-size: 12px; font-weight: 200;" fill="rgb(50, 49, 63)" stroke="none" stroke-width="1px">2M</text><text x="528.7649909636818" y="0" dx="0em" dy="0.95em" style="text-anchor: middle; visibility: inherit; font-family: &quot;Helvetica Neue&quot;, sans-serif; font-size: 12px; font-weight: 200;" fill="rgb(50, 49, 63)" stroke="none" stroke-width="1px">3M</text><text x="686.6781854081263" y="0" dx="0em" dy="0.95em" style="text-anchor: middle; visibility: inherit; font-family: &quot;Helvetica Neue&quot;, sans-serif; font-size: 12px; font-weight: 200;" fill="rgb(50, 49, 63)" stroke="none" stroke-width="1px">4M</text><text x="844.5913798525708" y="0" dx="0em" dy="0.95em" style="text-anchor: middle; visibility: inherit; font-family: &quot;Helvetica Neue&quot;, sans-serif; font-size: 12px; font-weight: 200;" fill="rgb(50, 49, 63)" stroke="none" stroke-width="1px">5M</text><text x="1002.5045742970151" y="0" dx="0em" dy="0.95em" style="text-anchor: middle; visibility: inherit; font-family: &quot;Helvetica Neue&quot;, sans-serif; font-size: 12px; font-weight: 200;" fill="rgb(50, 49, 63)" stroke="none" stroke-width="1px">6M</text><text x="1160.4177687414597" y="0" dx="0em" dy="0.95em" style="text-anchor: middle; visibility: inherit; font-family: &quot;Helvetica Neue&quot;, sans-serif; font-size: 12px; font-weight: 200;" fill="rgb(50, 49, 63)" stroke="none" stroke-width="1px">7M</text><text x="1318.330963185904" y="0" dx="0em" dy="0.95em" style="text-anchor: middle; visibility: inherit; font-family: &quot;Helvetica Neue&quot;, sans-serif; font-size: 12px; font-weight: 200;" fill="rgb(50, 49, 63)" stroke="none" stroke-width="1px">8M</text></g><line x1="0" y1="0" x2="1421.21875" y2="0" fill="rgb(0, 0, 0)" stroke="rgb(204, 204, 204)" stroke-width="1px"></line></g></g></g></g></svg>