<svg viewBox="0 0 330 200" xmlns="http://www.w3.org/2000/svg"><g><g><g><g><g><line x1="63.984375" y1="177" x2="58.984375" y2="177" style="visibility: inherit;" fill="rgb(0, 0, 0)" stroke="rgb(204, 204, 204)" stroke-width="1px"></line><line x1="63.984375" y1="154.875" x2="58.984375" y2="154.875" style="visibility: inherit;" fill="rgb(0, 0, 0)" stroke="rgb(204, 204, 204)" stroke-width="1px"></line><line x1="63.984375" y1="132.75" x2="58.984375" y2="132.75" style="visibility: inherit;" fill="rgb(0, 0, 0)" stroke="rgb(204, 204, 204)" stroke-width="1px"></line><line x1="63.984375" y1="110.62499999999999" x2="58.984375" y2="110.62499999999999" style="visibility: inherit;" fill="rgb(0, 0, 0)" stroke="rgb(204, 204, 204)" stroke-width="1px"></line><line x1="63.984375" y1="88.5" x2="58.984375" y2="88.5" style="visibility: inherit;" fill="rgb(0, 0, 0)" stroke="rgb(204, 204, 204)" stroke-width="1px"></line><line x1="63.984375" y1="66.375" x2="58.984375" y2="66.375" style="visibility: inherit;" fill="rgb(0, 0, 0)" stroke="rgb(204, 204, 204)" stroke-width="1px"></line><line x1="63.984375" y1="44.24999999999997" x2="58.984375" y2="44.24999999999997" style="visibility: inherit;" fill="rgb(0, 0, 0)" stroke="rgb(204, 204, 204)" stroke-width="1px"></line><line x1="63.984375" y1="22.12500000000003" x2="58.984375" y2="22.12500000000003" style="visibility: inherit;" fill="rgb(0, 0, 0)" stroke="rgb(204, 204, 204)" stroke-width="1px"></line><line x1="63.984375" y1="0" x2="58.984375" y2="0" style="visibility: inherit;" fill="rgb(0, 0, 0)" stroke="rgb(204, 204, 204)" stroke-width="1px"></line></g><g transform="translate(53.984375, 0)"><text x="0" y="177" dx="0em" dy="0.3em" style="text-anchor: end; visibility: hidden; font-family: &quot;Helvetica Neue&quot;, sans-serif; font-size: 12px; font-weight: 200;" fill="rgb(50, 49, 63)" stroke="none" stroke-width="1px">-0.2</text><text x="0" y="154.875" dx="0em" dy="0.3em" style="text-anchor: end; visibility: inherit; font-family: &quot;Helvetica Neue&quot;, sans-serif; font-size: 12px; font-weight: 200;" fill="rgb(50, 49, 63)" stroke="none" stroke-width="1px">-0.15</text><text x="0" y="132.75" dx="0em" dy="0.3em" style="text-anchor: end; visibility: hidden; font-family: &quot;Helvetica Neue&quot;, sans-serif; font-size: 12px; font-weight: 200;" fill="rgb(50, 49, 63)" stroke="none" stroke-width="1px">-0.1</text><text x="0" y="110.62499999999999" dx="0em" dy="0.3em" style="text-anchor: end; visibility: inherit; font-family: &quot;Helvetica Neue&quot;, sans-serif; font-size: 12px; font-weight: 200;" fill="rgb(50, 49, 63)" stroke="none" stroke-width="1px">-0.05</text><text x="0" y="88.5" dx="0em" dy="0.3em" style="text-anchor: end; visibility: hidden; font-family: &quot;Helvetica Neue&quot;, sans-serif; font-size: 12px; font-weight: 200;" fill="rgb(50, 49, 63)" stroke="none" stroke-width="1px">0</text><text x="0" y="66.375" dx="0em" dy="0.3em" style="text-anchor: end; visibility: inherit; font-family: &quot;Helvetica Neue&quot;, sans-serif; font-size: 12px; font-weight: 200;" fill="rgb(50, 49, 63)" stroke="none" stroke-width="1px">0.05</text><text x="0" y="44.24999999999997" dx="0em" dy="0.3em" style="text-anchor: end; visibility: hidden; font-family: &quot;Helvetica Neue&quot;, sans-serif; font-size: 12px; font-weight: 200;" fill="rgb(50, 49, 63)" stroke="none" stroke-width="1px">0.1</text><text x="0" y="22.12500000000003" dx="0em" dy="0.3em" style="text-anchor: end; visibility: inherit; font-family: &quot;Helvetica Neue&quot;, sans-serif; font-size: 12px; font-weight: 200;" fill="rgb(50, 49, 63)" stroke="none" stroke-width="1px">0.15</text><text x="0" y="0" dx="0em" dy="0.3em" style="text-anchor: end; visibility: hidden; font-family: &quot;Helvetica Neue&quot;, sans-serif; font-size: 12px; font-weight: 200;" fill="rgb(50, 49, 63)" stroke="none" stroke-width="1px">0.2</text></g><line x1="63.984375" y1="0" x2="63.984375" y2="177" fill="rgb(0, 0, 0)" stroke="rgb(204, 204, 204)" stroke-width="1px"></line></g></g><g transform="translate(63, 0)" clip-path="url(#clip_0)"><clipPath id="clip_0"><rect width="266" height="177"></rect></clipPath><g><g><g><line x1="0" y1="0" x2="0" y2="177" fill="rgb(0, 0, 0)" stroke="rgb(60, 60, 60)" stroke-width="1px" opacity="0.25"></line><line x1="29.557291666666664" y1="0" x2="29.557291666666664" y2="177" fill="rgb(0, 0, 0)" stroke="rgb(60, 60, 60)" stroke-width="1px" opacity="0.25"></line><line x1="59.11458333333333" y1="0" x2="59.11458333333333" y2="177" fill="rgb(0, 0, 0)" stroke="rgb(60, 60, 60)" stroke-width="1px" opacity="0.25"></line><line x1="88.671875" y1="0" x2="88.671875" y2="177" fill="rgb(0, 0, 0)" stroke="rgb(60, 60, 60)" stroke-width="1px" opacity="0.25"></line><line x1="118.22916666666666" y1="0" x2="118.22916666666666" y2="177" fill="rgb(0, 0, 0)" stroke="rgb(60, 60, 60)" stroke-width="1px" opacity="0.25"></line><line x1="147.78645833333334" y1="0" x2="147.78645833333334" y2="177" fill="rgb(0, 0, 0)" stroke="rgb(60, 60, 60)" stroke-width="1px" opacity="0.25"></line><line x1="177.34375" y1="0" x2="177.34375" y2="177" fill="rgb(0, 0, 0)" stroke="rgb(60, 60, 60)" stroke-width="1px" opacity="0.25"></line><line x1="206.90104166666666" y1="0" x2="206.90104166666666" y2="177" fill="rgb(0, 0, 0)" stroke="rgb(60, 60, 60)" stroke-width="1px" opacity="0.25"></line><line x1="236.45833333333331" y1="0" x2="236.45833333333331" y2="177" fill="rgb(0, 0, 0)" stroke="rgb(60, 60, 60)" stroke-width="1px" opacity="0.25"></line><line x1="266.015625" y1="0" x2="266.015625" y2="177" fill="rgb(0, 0, 0)" stroke="rgb(60, 60, 60)" stroke-width="1px" opacity="0.25"></line></g><g><line x1="0" y1="177" x2="266.015625" y2="177" fill="rgb(0, 0, 0)" stroke="rgb(60, 60, 60)" stroke-width="1px" opacity="0.25"></line><line x1="0" y1="154.875" x2="266.015625" y2="154.875" fill="rgb(0, 0, 0)" stroke="rgb(60, 60, 60)" stroke-width="1px" opacity="0.25"></line><line x1="0" y1="132.75" x2="266.015625" y2="132.75" fill="rgb(0, 0, 0)" stroke="rgb(60, 60, 60)" stroke-width="1px" opacity="0.25"></line><line x1="0" y1="110.62499999999999" x2="266.015625" y2="110.62499999999999" fill="rgb(0, 0, 0)" stroke="rgb(60, 60, 60)" stroke-width="1px" opacity="0.25"></line><line x1="0" y1="88.5" x2="266.015625" y2="88.5" fill="rgb(0, 0, 0)" stroke="rgb(60, 60, 60)" stroke-width="1px" opacity="0.25"></line><line x1="0" y1="66.375" x2="266.015625" y2="66.375" fill="rgb(0, 0, 0)" stroke="rgb(60, 60, 60)" stroke-width="1px" opacity="0.25"></line><line x1="0" y1="44.24999999999997" x2="266.015625" y2="44.24999999999997" fill="rgb(0, 0, 0)" stroke="rgb(60, 60, 60)" stroke-width="1px" opacity="0.25"></line><line x1="0" y1="22.12500000000003" x2="266.015625" y2="22.12500000000003" fill="rgb(0, 0, 0)" stroke="rgb(60, 60, 60)" stroke-width="1px" opacity="0.25"></line><line x1="0" y1="0" x2="266.015625" y2="0" fill="rgb(0, 0, 0)" stroke="rgb(60, 60, 60)" stroke-width="1px" opacity="0.25"></line></g></g></g><g><g><line x1="0" y1="88.5" x2="266.015625" y2="88.5" fill="rgb(0, 0, 0)" stroke="rgb(153, 153, 153)" stroke-width="1.5px"></line></g></g><g><g><line x1="29.557291666666664" y1="0" x2="29.557291666666664" y2="177" fill="rgb(0, 0, 0)" stroke="rgb(153, 153, 153)" stroke-width="1.5px"></line></g></g><g><g><g><g><g><path stroke="rgb(255, 112, 67)" stroke-width="2px" d="M29.680323893229165,110.98304829932749L29.738980338541666,53.769082164159045L29.801287109375,69.45750259492091L29.9213044921875,43.500210810565704L30.223793815104166,51.108193427089674L30.466370507812503,-22.44463836189439L30.46715377604167,32.015872101423554L30.586860807291664,0.4396227327463862L30.647896614583335,102.909640185337L30.769820442708337,106.93670777493104L30.770130794270834,119.75372441576124L30.829585286458336,109.99826499584056L31.436160026041666,96.2375702244112L31.67873671875,81.68872288653986L31.860100260416665,108.96087955680788L31.919392187499998,106.19630731542087L32.1015685546875,134.85520162014174L32.161806315104165,125.70883104535848L32.40516627604167,170.41211057336216L32.46462076822917,151.11282129128023L32.707345247395835,183.15475002206037L32.76823326822917,136.14004546332285L32.7691791015625,134.05744821486473L32.889994531250004,152.69909075901325L33.435060546875,137.50193894878913L33.61642408854166,84.07316742401062L33.8574046875,88.42369110254518L33.979801432291666,125.1303235690346L34.28277845052084,131.1920293716815L34.644722265625,112.97502729008134L34.828007031249996,113.6166013985106L34.82847994791667,110.58926945951632L34.8888802734375,81.79887788369805L34.94769928385417,85.60015921158681L35.12986087239583,71.86362361905122L35.13098404947917,130.17455405534898L35.31251015625,113.4373843007173L35.4336359375,116.17020126599863L35.67541458333333,108.5064206741256L35.79637779947917,107.63226299970734L35.917813932291665,103.01126733268845L36.342079296875,91.21023991193037L36.52344283854167,96.4377837009066L36.52393053385416,112.56332248143572L36.94818111979167,95.91199261487623L37.0680359375,89.5417381016877L37.127963346354164,117.56551293170811L37.25068522135417,115.89620104658647L37.37181100260417,129.2988532051941L37.735025781249995,86.76382833181215L37.977277343749996,81.32680085273962L38.34081725260416,74.25324908476429L38.40089244791667,20.178789320978638L38.52234335937499,73.31309454946906L38.64363170572917,101.34313324875919L38.825320377604164,109.94151158653398L39.1874267578125,167.00610016301192L39.36942578125,193.99075304577073L39.43031380208333,132.35730865811394L39.43062415364583,46.797200400915045L39.48960572916666,41.55422826813822L39.55174993489583,36.06198687378853L39.5519125,51.883531702082266L39.61200247395833,156.47674860508562L39.6127857421875,91.40515027017163L39.733763736979164,76.92848089528539L40.39804908854167,85.42549020613706L40.58131907552083,98.84473166206763L41.49008756510416,102.48134877362422L41.792266536458335,98.15546107525272L41.792739453124994,70.70086879274037L42.277242578125,69.76258977050057L42.57909641927083,126.38552539226097L42.639821875,134.43074531362464L42.639984440104165,101.70307955745463L42.881910872395835,114.31425007047417L43.60788229166667,149.16775906599858L44.15342122395833,115.16964867572366L44.15373157552083,98.71416641465055L44.336218294270836,80.1855617594196L44.638397265624995,85.09773992636643L44.9409013671875,70.35870224767234L44.942009765625,89.34378248920027L45.3662603515625,98.02766198796023L45.48707578125,77.71408905912631L45.84885703125,97.7487908412766L46.09143372395833,92.39297641871879L46.45608203125,100.11681966518466L46.57737037760416,76.16749306193057L46.636337174479166,91.19077569199243L46.940747721354164,88.17476587621205L46.94105807291667,120.09225553946396L47.30300188802083,140.85874633894383L47.66670436197917,103.83760092947496L47.72757760416666,119.75223076220519L47.84728463541666,109.61027180832575L48.33400455729167,122.96814250756472L48.392823567708334,129.71321723943453L48.39409453125,154.79032539478243L48.87732669270833,142.99277771056475L48.93772701822917,151.77121588612067L49.06012376302083,120.27922045752089L49.3014294921875,75.31300238111425L49.604554296874994,89.19407165252451L49.90800423177083,81.9410215628343L49.90832936197917,23.320605648290922L50.149620312500005,75.64045973582974L50.270435742187495,46.04975224711842L51.118463997395835,61.61820745108781L51.1788791015625,77.98686147638116L51.42127845052083,74.70703839455815L51.90721510416667,116.96020451602203L52.45148307291667,110.70285584877051L52.63302395833333,117.60755072742771L52.99560325520834,105.02306574875902L53.17903580729167,90.58836647224302L53.238327734375,33.34664611430094L53.360414127604166,123.61337958223298L53.72266829427084,128.2644063901703L53.78402923177083,120.06981193702224L54.267098828125,109.43170787818464L54.268694921875,204.24846408323782L54.57054876302083,149.29587645266258L54.63080130208333,167.0653515871394L54.63174713541667,120.92193140632082L54.9337783203125,95.93100245622497L54.99561217447917,46.704118369982865L55.29666796875,39.00626996693981L55.84316751302084,-32.47330979384202L56.0844732421875,32.52402907236092L56.20543645833333,62.078601846090976L56.56928671875,91.65240219622375L56.569759635416666,89.4358409191416L56.629849609375,85.04476495580354L57.17618658854167,22.434744995811457L57.65941875,69.25595723210505L57.779909049479166,71.15652048807581L58.2052828125,75.21863168162847L58.2647373046875,104.48356152881827L58.445790494791666,99.81294910142361L58.809478190104166,106.31562714445316L59.052365234375,103.81492930601671L59.23452682291666,130.25608990759034L59.35454420572916,89.46996584934222L59.59806673177083,77.46981412561075L59.65783157552083,83.0140859415797L59.65831927083333,71.38088967237876L59.71888216145833,71.36539889773134L59.840480859375006,49.24413371026756L60.5675458984375,46.80639765823031L60.989904817708336,81.07283152588693L60.9914861328125,91.79063489033871L61.17159348958333,89.85649412061291L61.778493359375,51.10261572411966L62.0813078125,72.21818320534415L62.56485032552083,76.47065653384053L62.745903515625,84.3426490585078L63.292092708333335,76.60209492057976L63.2928759765625,81.0971530352921L63.35249303385417,38.104890523844404L63.716343294270835,145.76707552581635L63.83715872395833,110.44033067500357L63.89692356770833,82.97449792817692L64.26077382812501,106.64465305593883L64.38253509114583,90.62958442129062L64.62478665364583,90.70496415628784L65.3520142578125,70.78739817907687L65.47250455729167,64.60038711112902L65.47299225260417,75.595666298909L65.59268450520833,67.31110645511329L65.59379290364583,84.71572389262069L65.83573411458333,74.52088263068885L66.07829602864584,76.35309776922638L66.92537845052084,80.98061831066633L67.16699453125,71.97075374585167L67.28844544270834,103.72911309696302L67.65134986979166,78.56813670395054L67.77294856770834,79.74139903417671L68.07639850260416,91.22781038094426L68.07750690104166,123.4213044572405L68.13775944010416,47.741098179133644L68.50113678385418,95.34372340960022L68.62113938802082,128.92452168657013L68.68218997395833,97.31720323678034L69.28702083333333,75.25658244232045L69.52990787760417,102.13121605419937L70.13569934895834,107.29571340756908L70.2561896484375,95.14747072064753L71.04301953125,89.88367405714915L71.04414270833334,100.00191908661918L71.52801035156249,86.74267444362876L71.83160807291667,112.60050244540356L72.01298639322917,93.24261608442892L72.37556569010415,87.4929511444791L72.49685403645833,100.371580663146L72.5575794921875,96.89477664325918L72.79934335937499,74.26660174783638L72.98119459635417,69.90436175409896L72.98135716145833,64.91646207388607L73.04302845052084,95.59440272907236L73.285442578125,60.468918736933574L73.34504485677083,56.48047714451489L73.52785670572916,65.07300351683519L73.58651315104167,44.355481884623885L73.70890989583333,52.58813805833181L73.8289125,105.75728582712841L73.82987311197915,93.45588792002398L73.83018346354167,109.25719732872366L74.01203470052083,88.95245233971904L74.37414108072917,126.92014832078833L74.43533945312501,108.55302266384315L74.49495651041667,149.59641642037124L74.73847903645834,131.33059526630097L74.73878938802083,33.38351550190362L74.98104095052084,67.84434802972503L75.6462869140625,41.36781773950591L75.82924654947917,75.47353151283225L75.94877623697917,35.03902618194559L76.07006458333333,64.69101967278084L76.07149811197917,89.20953760065414L76.13237135416666,126.27542256425488L76.251428125,12.153485793534912L76.55536575520834,21.83641870687245L76.73578346354167,42.16502329406049L76.98025182291667,52.465780666154046L77.46380911458334,77.51628160070267L77.82813229166666,33.10503955835631L77.8871138671875,59.488825866010956L78.00918548177083,152.1498223593397L78.130473828125,95.79605790081996L78.55314309895833,139.68350947560893L78.61544986979168,115.83195530235486L78.7349943359375,112.81751009067723L78.9161953125,98.17152724782126L79.15908235677084,101.00118210237919L79.64280221354166,138.72563235057413L79.82576184895834,133.87097363080395L80.674115234375,111.27730037625618L80.79491588541667,142.5256375661849L81.52136022135416,126.96207299255485L81.76392213541666,95.78740943773481L82.06722428385416,113.05053930463727L82.12809752604166,123.77753084887468L82.248750390625,100.81342194595575L82.36844264322916,90.346299301795L82.37034908854166,65.44157185030689L82.43091197916667,59.96045546604819L82.97517994791667,98.97023331149593L83.64106139322917,64.73836722984419L83.641696875,70.58549020336274L84.0645287109375,72.36211962153735L84.2457296875,77.67720555622265L84.42837897135418,108.56111673628618L84.54839635416666,113.58009890237648L84.73230182291667,100.022690982486L84.79095826822916,80.4466107448132L85.15497109374999,103.069698466968L85.27673235677084,105.30873986355154L85.45683971354165,80.10323381436878L85.57938424479165,107.96626831598886L86.36686438802083,59.418326255725674L86.971059765625,82.77661871287039L87.21427194010417,61.48673771543989L87.21538033854168,43.432111592433955L87.33587063802084,53.56321301167735L87.39690644531251,35.283086687955404L87.63901022135417,50.732373114307634L87.87966569010418,55.81316748239392L88.60721842447917,52.29150243388294L88.60816425781249,95.97400515846417L88.7292900390625,143.6695526157141L88.78890709635417,81.59198591198448L88.84867194010415,80.91905725351525L89.2123744140625,92.86687824935646L89.21379316406251,91.79397845732976L89.33350019531251,101.0502660965491L89.57638723958334,58.71719483110718L89.63758561197916,21.41874699338325L90.48355963541667,105.66524402823477L90.66539609374999,84.6345587925698L90.84693697916667,86.35696958312437L91.1514953125,59.82477609699396L91.39342174479167,99.3967670553054L91.99890286458333,105.96249604988846L91.99921321614583,92.44193102058026L92.12066412760417,104.25875457606466L92.2419376953125,104.13830948759168L93.08854720052084,96.79903166423544L93.15054361979166,83.77996405396047L93.21016067708334,87.08851088804414L93.45161419270833,82.00208806602603L94.11780598958333,159.93123821978836L94.54127330729166,136.30425075815657L94.60278203125,121.86880170778358L95.14753769531251,127.20152472541287L95.449864453125,117.17101505412492L95.51155052083334,121.77024789162775L95.57242376302082,101.46218202044547L95.754275,119.94235396701086L96.17725462239584,45.7722099084734L96.48086712239582,58.348671791126094L96.78384414062499,93.67535676787482L96.96409928385417,81.02275193619839L97.38900013020833,91.2813398533351L97.38914791666666,75.54036610235494L97.57132428385417,2.0106997603757577L97.75252526041668,21.379442366336775L98.4190421875,50.654637676775465L98.54033053385416,47.06618738311528L98.72026054687501,51.468848205435265L99.1446884765625,48.03121468086718L99.26628717447917,14.254493949769028L99.32732298177083,39.01305138868577L99.32764811197917,55.56890546561769L99.44781328125,67.62117992667626L99.44797584635417,24.02338620917959L99.44844876302083,68.14297023950195L99.50964713541666,95.63947068177568L99.6897544921875,118.12442674054448L99.81102805989583,117.71868176945296L99.93358736979167,98.2012081470385L99.99335221354167,95.35014989085762L100.35658177083333,122.1797710723148L100.41698209635418,107.42623812551966L100.5379453125,101.05239215755118L100.53921627604167,97.71388787449094L100.6601794921875,7.786512210492418L101.08317389322917,58.26053186477671L101.9925630859375,83.19342647177845L102.113378515625,69.44046962668223L102.17298079427084,42.54598352259231L102.29379622395834,67.49223983702561L102.41572005208333,93.5995681310743L102.47579524739582,121.37370777875483L102.71868229166667,117.43722336664973L103.26374830729166,93.4057765151571L103.50505403645833,122.42682363662188L104.049794921875,106.56420885908194L104.04995748697917,119.58740564964765L104.59582154947917,94.53992886413666L105.08048723958333,100.89234445732554L105.13977916666666,103.32291592354608L105.62506555989583,104.59105970752258L106.0502767578125,82.93471234316837L106.29047408854166,84.30954282373317L106.35214537760416,78.87101957658008L106.41365410156251,56.415171524638396L106.71536015625,92.00883444592621L106.89831979166667,45.359093728335296L107.14026100260416,70.17982210080123L107.321787109375,114.38978154576002L108.35119368489583,122.0418599433671L108.410323046875,113.81977311481361L108.83489876302083,102.74296116832613L108.8953138671875,121.0257818162663L109.19843867187501,131.74558374346634L109.19939928385416,112.1334715887835L109.56214114583332,108.36434256165805L109.68214375,97.8144751655211L109.92599140625,112.66713295532166L110.04584622395834,55.05186929197848L110.16744492187499,130.74459515745485L110.28762486979166,99.19810676118757L110.41033196614583,94.65482694272656L110.4713677734375,72.33502998271261L110.5305119140625,62.08371404301329L110.53098483072917,72.94376855303413L110.83396184895834,87.97081308713297L110.83410963541667,67.67708241135324L111.0161234375,98.22509980613258L111.13741178385418,71.63972568758885L111.25804986979168,99.34588669239616L111.25853756510416,121.49314628540954L111.31750436197916,136.52257219254662L111.5614998046875,98.31579538017326L111.62142721354166,38.48990542191157L111.8037513671875,85.05004485844306L112.04553001302082,77.80309842913586L112.22721868489585,75.74832009681607L112.408271875,77.13396463265148L112.4685244140625,96.18668821436242L112.46867220052083,100.0347897468929L112.53035826822916,74.7136952778056L112.5910689453125,59.88156450243919L113.07415332031249,88.14799761147576L113.13566204427084,65.16147525233792L113.4375306640625,80.75162599681478L113.43800358072917,77.71373628347314L113.43816614583334,126.6817326412749L113.62032773437501,127.70642495698641L113.74049290364583,124.30511594889705L114.28508600260417,107.2283280710691L114.64893626302083,83.80434156032287L114.89182330729167,99.76643741620708L115.13487291666667,104.64253319870312L115.25489029947917,114.95460864943789L115.61730703125001,113.73901087294534L115.6177947265625,95.75346433967658L115.61857799479166,130.7490056177992L115.92012148437499,98.23624363964906L115.98117207031251,107.77779939279621L116.28398652343749,92.67034001800815L116.40653105468749,79.7342673862183L117.07161445312501,82.50401310971851L117.2529927734375,53.80906879515334L117.55517174479166,62.80505412175289L117.61747851562501,96.50042600842733L117.73717076822918,107.01746954120647L117.73813138020833,108.75338212086231L118.4032,91.16596764733475L119.37205846354166,99.85805565363218L119.3741126953125,96.44924215951443L119.55405748697916,127.18740222739505L119.67645423177083,122.17469716824488L119.79726966145833,147.600848235234L120.28081217447917,104.89092063012383L120.40273600260416,99.97512615067609L120.52497018229167,79.38288784976511L120.94669361979166,71.85582183871095L121.43277805989584,89.08009788512244L121.73559251302083,105.1726697541419L122.09896985677084,51.86706024748942L122.0994427734375,79.34263149555242L122.70459876302083,56.718742869232386L122.70523424479165,86.4317452308144L122.94653997395834,100.98895538876091L123.00630481770833,74.23371786194824L123.12806608072917,88.55951175581086L123.18783092447916,89.09925391756956L123.2501376953125,82.36858991598166L123.4318263671875,54.83390029856609L123.55184375,80.63283997380167L123.73449303385416,92.7471766343917L123.854658203125,93.09192274301981L123.91585657552083,133.50999939912398L124.09787037760417,117.22971615831608L124.58125032552083,111.3938970067534L124.76357447916666,122.52864902308185L125.12553307291667,79.61967510933042L125.127276953125,94.4095277455709L125.246806640625,80.70123169972072L125.49112721354166,86.48947624320431L125.73290585937501,67.60122280987883L126.1571564453125,37.08213766320222L126.7613666015625,89.72914632501406L126.8839111328125,75.82639330084444L127.00488912760416,75.1652353999336L127.36777877604166,77.2928118141633L127.54995514322917,69.78649820131906L127.55026549479166,121.26224441375047L127.73084576822917,110.84141931784576L127.85086315104166,106.584387095138L128.09485859375,106.63731362602982L128.69905397135418,106.44699487571044L128.941941015625,109.01414713626578L129.30658932291666,88.64729579010888L129.36604381510415,109.98239149730972L130.09183789062502,98.80381800245685L130.2134513671875,16.91331965632105L130.51610325520832,4.917385246794595L130.63866256510417,48.1947675683744L131.00140442708332,84.94778750769181L131.30389375000001,116.87188817520072L131.424221484375,118.76663766031939L131.42629049479166,109.80127608090923L131.48590755208332,96.72791777698866L131.78935748697916,105.95067127882643L132.031446484375,83.26323442661287L132.51498899739582,91.4262072228105L132.57555188802084,91.30414110700927L132.87900182291668,99.00843008625891L133.24190625,190.4700211779379L133.72736998697917,152.41653030715005L133.90746256510414,149.3001410788394L134.21011445312502,136.12010489112717L134.69525305989583,134.21348172698367L134.7567765625,89.0866409824726L134.877104296875,90.64645120513809L135.1198287760417,124.70333774693233L135.11999134114583,91.70116450671806L135.18039166666668,94.93352605572018L135.66538248697915,104.73637955737516L135.72530989583333,96.65433178251179L136.14845208333335,123.53313135448212L136.39181204427084,109.06450231452092L137.23811119791665,101.91423361460451L137.72372272135416,103.96768563738515L137.7238852864583,92.37818044946223L137.84484850260415,92.92049273919689L137.84515885416667,82.69770902214424L138.26815325520832,82.24281964193568L139.11666920572915,85.67291006915366L139.11761503906249,88.06311116658581L139.17675917968748,81.82430582146604L139.17739466145832,47.47377251625511L139.17754244791666,70.28267851272497L139.66126230468748,52.33393308400676L140.57065149739583,75.68744265067318L140.99348333333333,113.02813447730385L140.9950646484375,161.66354433427242L141.05435657552084,120.18187486219398L141.11540716145834,116.9679167134344L141.5387119140625,183.3645808793771L141.90145377604165,121.76093053803847L142.26497890624998,94.27515791944268L142.26530403645833,98.0980158103502L142.38674016927084,85.39882309901691L142.44779075520833,100.35203326742635L143.59816054687502,113.41730992794504L143.71865084635417,86.0557705897121L143.900176953125,106.9464893274324L144.3260236328125,55.926854061056204L144.386276171875,71.9374421999419L144.7499638671875,101.53504618499065L144.87094186197916,111.80930023636452L145.05166992187497,149.7421359970929L146.50501673177084,101.84088569013845L146.62550703125,101.21616898739975L146.68719309895832,103.62230336823846L146.74839147135415,129.29820321594946L146.86871920572918,132.60338074174683L146.92944466145835,114.98971667160882L146.98951985677084,87.78125744474109L147.414420703125,126.65542346484766L147.6569826171875,114.04226951951418L148.50455273437498,135.2308495620169L148.56384466145835,86.12460000391471L148.56527819010415,78.49185873687665L148.80593365885414,66.84925571751833L148.80640657552084,65.35219851313379L148.867930078125,35.002743316759734L148.98921842447916,93.5242119300783L149.10858554687502,59.94421894958141L149.6538141276042,55.64131721622063L149.95758919270833,78.86240422362873L149.95773697916667,89.05014210870736L150.07949824218753,148.63955857116505L150.68307291666665,122.4764798226343L150.68385618489583,135.7751565600864L150.804346484375,74.38747391554308L150.9861977213542,104.26004309625979L151.04676061197918,101.76631833454402L151.35068346354169,109.45560497397442L151.53206178385418,100.8037044188634L151.65255208333332,94.46958985440467L151.77542174479166,68.91360992498716L151.95680006510418,82.61866510395718L152.50137838541667,83.24623895967461L152.5606703125,99.46004509052311L152.56130579427082,72.6677615977566L152.98477311197917,70.80884171648266L153.10749498697916,52.897403550883794L153.5296765625,63.55670533306339L153.59009166666667,60.58834029422367L153.65112747395833,111.24863670579293L154.92278561197915,26.9842622894746L155.10574524739584,11.342091090601798L156.317165625,47.88775109030135L156.49758333333332,-17.001561273471566L157.52682734375,72.16547238270282L157.58914889322918,57.772652530311575L157.77003951822917,99.76074857332648L157.95189075520832,187.54968849908317L158.1949255859375,119.46038321906929L158.25421751302085,121.93664162757756L158.2554884765625,124.59846038909413L158.49583359374998,104.69443017157408L158.4972671223958,76.9564711103588L158.73935611979167,125.51261217592655L158.79960865885417,89.51651856421527L159.40634596354167,96.17044684883415L159.58612819010418,100.44028127027427L159.70916041666666,77.75401733269021L160.01039355468748,75.53722379550175L160.49504446614583,87.5550870974054L160.85905729166666,87.26613050803371L160.91930983072916,71.01582918378607L161.221163671875,99.47793930210409L161.40301490885417,78.27341618947827L161.5853390625,98.95406896211291L161.82695514322916,74.11649767063608L162.31336471354166,96.40720994026988L162.37281920572917,65.85366485864836L162.79596139322916,75.44720018053975L162.79786783854166,120.88695884135322L162.9174123046875,157.07355591289374L163.40159029947918,116.87715087313757L163.46405963541667,121.44764409499945L163.52255351562502,108.28485578752432L163.885930859375,62.99473555062339L164.129778515625,57.66866334631517L164.25043138020834,106.15768787178084L164.30972330729168,73.86565642602852L164.3723404296875,81.72410642235046L164.91756901041668,97.48172764705757L165.33944023437502,85.7181657774874L165.34056341145833,78.29105613819529L165.70394075520832,71.95695367271763L165.76354303385418,90.6035012874905L165.76544947916668,95.94410778724573L165.88483138020834,99.42250191803826L165.94570462239582,73.00558620623383L166.12882682291666,60.48946136493463L166.188916796875,72.36525735199216L166.30924453125002,96.94424935394383L166.43147871093748,130.17377598413145L166.85527115885418,95.61206238614507L166.97463828125,79.31275333402745L166.97576145833332,82.87786994347529L167.15759791666667,74.44807660859558L167.398578515625,108.31568884123405L167.3990662109375,108.84615806501532L167.52097526041666,107.3313277580525L168.0652580078125,83.96495683599625L168.24805507812502,75.9648114039547L168.24821764322917,46.403381093981665L168.36790989583332,86.80291831770111L168.5511798828125,88.58332850121226L168.91408430989583,86.88070962962668L168.914246875,71.085163930876L169.0948271484375,56.65108401019749L169.21673619791665,70.46878148160131L169.27635325520833,149.94423623705956L169.822690234375,138.22214196518095L169.94412636718752,114.59152103041131L170.36648528645833,114.7415518921585L171.15474869791666,139.6073102838976L171.33501861979167,132.7413032747616L171.57758053385416,100.64306676818785L171.8807201171875,90.2549088693938L172.18417005208332,108.49103024436721L172.24567877604167,8.738659768305354L172.30513326822918,58.840187885762546L172.36537102864582,64.32851610758976L172.36569615885418,55.505107371086325L172.36664199218748,63.975493019044094L172.789473828125,78.61314088938813L172.78979895833334,83.22985399650817L173.15268860677085,87.28635180599858L173.15317630208332,92.96557774458748L173.2738143880208,135.82572152802004L173.940966796875,135.8207747315684L174.00025872395832,109.80820806326383L174.24345611979166,170.2882782250757L174.24425416666668,124.61261554241867L174.6680318359375,103.29018463674599L174.78710338541666,105.99382305284388L175.03046334635417,139.68652119123965L175.09182428385418,102.26983395298737L175.51607486979168,77.38531960445891L175.817618359375,34.688048645247505L175.87818125,38.023389659458104L175.93890670572918,87.01607686110358L175.99914446614585,108.97874626265776L176.12106829427083,78.71631925849208L176.24155859375,94.87382413922602L177.15127291666667,17.68658573018817L177.39352447916667,5.253001234455752L177.51465026041666,26.9828627535843L177.63403216145832,62.05760785514968L177.99724694010416,37.694170624463936L178.11980624999998,40.08874032077142L178.17862526041665,32.366162611108734L178.18004401041668,50.42847669344347L178.30133235677084,58.803593171216264L178.54311100260415,19.83285331283639L179.14810442708333,42.51169324326298L179.57378854166666,98.8584232742058L179.75357076822917,81.18229265895287L180.17814648437502,72.8796195008564L180.238709375,75.7115898064946L180.78282955729168,42.423058744202535L180.90459082031248,70.5804195729974L181.99550611979168,60.59010457265872L182.17688444010415,54.1065211461097L182.47873828125,29.907280460960266L183.327416796875,43.587957059423104L183.75072154947918,67.39175453414319L183.93400631510417,67.45526311847448L183.99456920572916,83.68957431347896L184.296423046875,86.61927906561927L184.41818430989585,82.3000412472429L184.72083619791667,62.513986777564426L184.78156165364584,74.54149081877651L184.84148906250002,63.144309467505124L184.96325032552082,20.860608659047273L185.3250463541667,52.020608323057516L185.567445703125,50.323704489910625L185.56760826822918,57.04758317327145L185.80954947916666,75.72663610834266L185.8708956380208,78.38957115711054L186.05227395833333,110.68236588657666L186.35539876302082,129.28112854493122L186.90142539062498,162.6427600022105L187.02144277343749,126.16537726363228L187.02159055989583,84.47489775979928L187.566819140625,63.06584538080939L187.93115709635416,86.41917511855749L188.17324609375,100.7892116995763L188.23317350260416,101.6771930973L189.383705859375,140.08521678568522L189.80860670572918,120.75782045278534L189.92940735677084,114.93635044502369L190.170225390625,91.9231179058978L190.53472591145834,73.24519190045768L190.65599947916667,88.98363656537279L190.65679752604166,113.62078786335316L190.775854296875,52.10320335293963L190.95850358072917,66.42266558099726L191.13908385416667,58.76530473225675L191.92782018229167,55.47543670262911L192.23016171875,53.75657981351624L192.654101953125,58.80157663876183L193.01700638020833,80.48092219802359L193.07709635416666,93.53714931054483L193.1985324869792,80.47557241942629L193.3193479166667,84.34455103412952L193.62406881510418,77.10417819089108L193.68383365885418,127.63736168185717L193.6847794921875,107.32053070263471L193.74359850260416,115.30796561686043L193.86488684895832,133.31182232825662L193.86519720052084,130.179801644854L193.9256123046875,148.0195485514237L193.92655813802082,113.2224548562964L194.22906223958336,107.73022496578692L195.25736041666667,118.52453521119118L195.56222910156248,106.78268567188641L195.68271940104165,81.54085896589793L196.04609674479167,115.84144575106166L196.166749609375,105.38387414386979L196.468766015625,105.84558352423377L196.71228854166668,143.92844068165223L197.07439492187498,118.20372068825722L197.2565712890625,104.06746503509349L197.31728196614586,77.05082960902016L197.50040416666667,91.13251300217725L197.61978606770833,103.94537023044835L198.16628561197916,82.78506450556046L198.22572532552084,102.88849500091268L198.46861236979166,92.24289074180362L198.589265234375,51.49826217375896L199.13433125,64.13830486048879L199.1354396484375,51.015717647133L199.254658984375,79.08700591424568L199.62010533854166,85.77658231429436L199.74028528645835,87.020691189025L199.80005013020832,97.74437506816038L199.86045045572916,86.96687576217205L200.1030271484375,91.72912375691682L200.46718776041666,112.36662232466429L200.95027213541667,105.43647531565512L201.01130794270833,176.5498394840746L201.0128892578125,125.99144016050036L201.13259628906252,181.60599338020523L201.55717200520834,142.18109234556192L201.85918841145832,153.68884483507057L202.22383671875,106.18510553110112L202.70786692708333,90.84531747769395L202.88843242187502,82.71970965696026L203.0100458984375,106.22196855236679L203.070919140625,135.50210096591465L203.25166197916667,104.43614377620072L204.28170403645834,86.98136464084537L205.06918417968748,92.39187889330299L205.25071028645834,97.03146985267229L205.37263411458335,56.86757125016821L205.49375989583334,83.10963985506758L205.61392506510418,79.6893916871194L205.7353759765625,96.85293967253232L206.03770273437502,32.55345638827242L206.1001720703125,47.636613526855456L206.15899108072918,56.92363933856163L206.21955397135415,78.89263723125977L206.2818607421875,75.51751369807675L206.40171555989582,66.18286927684281L206.52332903645834,58.296735512579275L207.06886796875,27.61099198005485L207.12768697916667,62.742428008716644L207.12974121093748,78.43893241785545L207.49153723958335,77.84982290656912L207.49217272135417,92.20978598768441L207.61424433593749,98.66521359592633L207.97714876302084,65.02763769096113L208.03644069010417,83.81868980119214L208.217966796875,83.57216709764054L208.40092643229167,80.60015069193393L208.58166927083334,68.88629469720573L208.8240833984375,123.71832595734625L209.188569140625,83.13727624993818L209.3691494140625,64.20486425925077L209.5509858723958,64.96930599700678L209.5511484375,62.65514828706543L209.79323743489584,68.79937868979431L210.09748541666667,65.30358187506708L210.21766536458333,68.97466004952858L210.39998951822918,48.927051157147105L210.46038984375,60.762585426727185L211.06569361979166,127.76483512840227L211.18681940104167,90.32851146710846L211.42892317708333,50.02279756100734L211.61155768229168,63.437330198887054L212.45880266927082,81.73490916198674L212.51841972656248,81.34653499204626L212.70137936197918,73.92011373551912L213.24644537760418,77.28469483945355L213.42670052083332,87.3141941541051L213.850315625,39.15451809845061L213.8522220703125,71.4038159345489L214.335616796875,94.18036359816203L214.5791393229167,69.22311220925694L214.7592466796875,26.926709701786308L215.3648755859375,97.55702354322068L215.3662943359375,81.86933542376872L215.48694720052086,99.77437618575165L215.60807298177082,99.24745357976357L215.72983424479168,119.60395825473071L215.91152291666668,119.75459255467413L215.97097740885417,91.60587529355622L216.09177805989583,84.75264426850877L216.5169892578125,89.42031307054222L216.57771471354167,106.71193185915148L216.87846015625,84.48775412869212L216.93934817708333,93.5712618267939L217.24390651041668,91.58281586750115L217.30352356770834,95.48873915111282L218.08971796875,91.36589113822734L218.27252981770835,109.9139375042984L219.42369765625,118.86697096091922L219.54338990885418,67.76696097232352L220.08941653645834,37.83535488174826L220.270780078125,47.017486284532964L220.45373971354167,95.77697645447184L220.513031640625,146.32749459041077L220.574392578125,143.44155929918836L220.69488287760416,116.15470227896125L221.05826022135417,85.88554735510914L221.24105729166666,70.9669835017882L221.48330885416667,108.27778056542647L221.54260078124997,114.07792019415243L221.66356399739584,96.45768080468979L221.8465236328125,85.36515073592071L221.90534264322918,61.41189884015682L221.96559518229168,50.912916212491766L221.96781197916667,52.168327585883475L222.08799192708332,80.29309777529691L222.14806712239584,5.646601033876266L222.26951803385415,63.04201047281619L222.27062643229166,73.44609051030153L222.3310267578125,89.21035115394756L222.814421484375,75.07854573263982L222.87434889322918,47.49710580011762L222.87530950520835,71.27910973087283L223.0563626953125,107.9980411109646L223.05699817708333,121.76735451831341L223.11739850260417,84.59698534020137L223.23741588541668,65.7240551189086L223.66150390625,36.19595291468508L223.78469869791667,105.74056646974688L223.9662248046875,103.89706000016214L224.08544414062501,141.48165558770944L224.14616959635418,71.10074427125245L224.26729537760417,93.2101649218642L225.054450390625,101.49345331334135L225.2361390625,171.62024430598652L225.41831542968748,167.3524771104207L225.41958639322917,136.01429890252354L225.90218307291667,161.02348001096965L225.96352923177085,131.1644613439065L226.75069902343748,132.7868422549499L227.29623795572917,43.45609173664647L228.44773092447917,34.441177737648474L228.689021875,52.01071063283693L228.809349609375,9.493691704294747L229.29481334635418,49.584976462496314L229.5985736328125,9.394535671456453L229.83908131510418,-0.021680628786185707L229.84098776041668,27.400224632454098L229.96036966145832,47.34186843644511L230.20245865885417,39.57736977702933L230.6281427734375,41.41427041004036L230.98977623697917,92.96787600165568L231.41514999999998,181.4186834957955L231.65580546875,158.04643485347972L231.77805442708333,88.97509582281438L232.0196705078125,65.73901946211058L232.08038118489586,65.32377856292844L232.2015069661458,64.49810432683539L232.50401106770835,58.107223458833175L232.92938483072916,46.65728542968432L233.29243704427083,79.19913521566869L233.59414309895834,88.74289552962112L233.71526888020833,77.62240361553627L233.89648463541667,86.21592784155725L233.9576830078125,96.2794023125131L233.957993359375,104.98514844588989L233.95895397135416,106.09495193950865L234.68601901041666,122.40251904840787L235.35141276041668,109.72260534599361L235.53168268229166,31.88952850601038L235.95720423177082,59.01258360438622L235.95783971354166,7.4084318285767665L236.37987350260414,50.98386213216688L236.56315826822916,73.42768131738013L236.80540983072916,84.08638247799936L237.2277539713542,121.091638478351L238.016505078125,181.81029326481365L238.49926432291667,122.55267072923625L238.62260690104168,83.52752896075037L238.68142591145835,145.67849857166163L238.682696875,117.22684297147246L238.80286204427082,132.97360430468828L239.28800065104167,99.94897321945257L239.470014453125,70.45143173686161L239.77139537760416,76.05403666620104L239.7717205078125,63.40004210278181L240.19597109375,52.19240466418735L240.43838522135417,63.81536732748371L240.67983873697915,124.94111710569396L240.80065416666667,100.32939690519055L240.92225286458333,74.18851121317554L240.98424928385418,94.3480980131102L241.04401412760416,94.96652157466546L241.52804433593752,143.54771015263162L241.52899016927083,135.5786167381201L241.5900259765625,114.65354123029074L241.89284042968748,96.21091035642004L242.07342070312498,118.58210379861461L242.19550709635416,97.94906952743331L242.25447389322918,125.97012284555792L242.61959511718752,133.15278695320342L242.73897701822918,118.86670443032835L243.10315240885416,43.87712259062914L243.1627546875,109.40226663928505L243.2843681640625,61.86361808348461L243.52725520833332,61.91998985197404L243.58702005208335,89.0869578691498L243.89046998697916,89.71390110563416L243.95103287760415,87.7068772999491L244.07326705729167,85.99831854946437L244.25304928385415,89.71142984157517L245.161330078125,58.17752297655176L245.16260104166665,52.06883823833125L245.40470481770834,67.17986376933013L245.46510514322918,61.81490666926953L246.13145950520834,58.54892810440688L246.3733859375,64.2120372422435L246.3744943359375,73.32884569591421L246.43331334635417,93.84638166353784L246.433948828125,106.03096103623916L246.8575787109375,108.83188542697077L246.97997545572917,122.52448161526469L247.15975768229166,75.8169485574004L247.16150156249998,47.76849072247964L247.64553177083332,54.98438817304503L247.82785592447917,66.40091010524858L247.88841881510416,55.7227361058833L248.0081110677083,67.18147671349445L248.00858398437498,70.38235591055513L248.06867395833333,80.35425611705519L248.31092552083334,65.21628623378835L248.55285195312499,68.64247234045006L248.79559121093752,49.5991914592894L249.03847825520833,-11.584162919359642L249.4612953125,27.865532437173783L249.9462861328125,50.71547565804168L250.06835774739582,56.16454463867095L250.18821256510418,50.569368180142334L250.36973867187498,95.60249584407L250.37180768229166,129.77817551189892L250.43237057291665,111.9499816515698L250.79543756510418,107.30856670513177L250.79574791666664,110.94393139376893L251.03705364583334,116.4871442201415L251.33970553385416,129.46150629417178L251.52139420572917,117.25135862012849L251.70371835937502,81.886129711152L252.36943723958333,65.00610173438841L252.79352526041666,72.40760394283296L252.79401295572916,67.41754591374495L252.91450325520833,42.85524103885231L253.03577682291666,100.04244668987596L253.21762805989582,112.77676630888702L253.641730859375,110.90354066565229L253.76238372395832,82.97084251329059L253.7631669921875,88.6556433448777L253.822621484375,91.92523794752867L253.943747265625,76.576660171941L254.4883403645833,143.97708865153496L254.6713,131.91596507220092L254.79226321614584,131.0182044621624L255.09507766927084,125.04915367015107L255.4589279296875,95.38270909010114L255.51758437499998,88.19347764130679L256.002885546875,89.25922073106092L256.85123893229166,115.18462555813862L256.9728524088542,90.21580262457177L257.15405338541666,122.95232091829088L257.275504296875,105.21228409959319L257.2759772135417,105.31536349224118" style="fill: none;" fill="none"></path></g></g></g></g><g opacity="0.2"><g><g><g><path stroke="rgb(255, 112, 67)" stroke-width="2px" d="M29.680323893229165,110.98304829932749L29.738980338541666,19.440702483057976L29.801287109375,84.51838620845228L29.9213044921875,12.974435672163963L30.223793815104166,61.041175531223416L30.466370507812503,-124.19468374550337L30.46715377604167,109.89527343213558L30.586860807291664,-45.59885197877881L30.647896614583335,254.03301215171814L30.769820442708337,112.91643381491303L30.770130794270834,138.8629999794066L30.829585286458336,95.41816464532167L31.436160026041666,75.64145912323147L31.67873671875,59.89395458623767L31.860100260416665,149.83705716580153L31.919392187499998,102.05139874387532L32.1015685546875,177.83141559362411L32.161806315104165,111.99159744568169L32.40516627604167,237.46021977066994L32.46462076822917,122.16565139964223L32.707345247395835,231.2158858627081L32.76823326822917,65.61953566409647L32.7691791015625,130.93359345942736L32.889994531250004,180.66133374720812L33.435060546875,114.70631924830377L33.61642408854166,3.9302379861474037L33.8574046875,94.94946548854932L33.979801432291666,180.1902159154415L34.28277845052084,140.2845824919641L34.644722265625,85.64953423594125L34.828007031249996,114.57896234840155L34.82847994791667,106.04827215336263L34.8888802734375,38.61329395696521L34.94769928385417,91.30208093114197L35.12986087239583,51.258820820599794L35.13098404947917,217.6409482061863L35.31251015625,88.33162992772122L35.4336359375,120.2694266885519L35.67541458333333,97.01074982900172L35.79637779947917,106.32102649100125L35.917813932291665,96.07977384142578L36.342079296875,73.50869879499078L36.52344283854167,104.27909938059747L36.52393053385416,136.7516306452453L36.94818111979167,70.93499781936407L37.0680359375,79.98635633289814L37.127963346354164,159.6011751741171L37.25068522135417,113.39223321899772L37.37181100260417,149.40283144265413L37.735025781249995,22.961291022598743L37.977277343749996,73.17125963419676L38.34081725260416,63.642921432852745L38.40089244791667,-60.932900324463816L38.52234335937499,153.01455239206553L38.64363170572917,143.38819129765034L38.825320377604164,122.83907909318805L39.1874267578125,252.6029830276966L39.36942578125,234.46773236989975L39.43031380208333,39.90714207664132L39.43062415364583,-81.54296198487276L39.48960572916666,33.6897700689733L39.55174993489583,27.823624782264233L39.5519125,75.61584894452244L39.61200247395833,313.366573959589L39.6127857421875,-6.202247232198715L39.733763736979164,55.213476832956076L40.39804908854167,98.17100417241454L40.58131907552083,118.97359384596348L41.49008756510416,107.9362744409591L41.792266536458335,91.66662952769548L41.792739453124994,29.518980368971825L42.277242578125,68.3551712371409L42.57909641927083,211.31992882490158L42.639821875,146.49857519567013L42.639984440104165,52.611580923199654L42.881910872395835,133.2310058400035L43.60788229166667,201.44802255928516L44.15342122395833,64.17248309031129L44.15373157552083,74.03094302304089L44.336218294270836,52.39265477657318L44.638397265624995,92.46600717678666L44.9409013671875,48.250145729631186L44.942009765625,117.82140285149217L45.3662603515625,111.0534812361002L45.48707578125,47.243729665875435L45.84885703125,127.80084351450205L46.09143372395833,84.35925478488207L46.45608203125,111.7025845348835L46.57737037760416,40.24350315704942L46.636337174479166,113.7256996370852L46.940747721354164,83.65075115254149L46.94105807291667,167.9684900343418L47.30300188802083,172.00848253816366L47.66670436197917,48.305882815271616L47.72757760416666,143.62417551130056L47.84728463541666,94.39733337750658L48.33400455729167,143.0049485564232L48.392823567708334,139.83082933723927L48.39409453125,192.40598762780428L48.87732669270833,125.2964561842382L48.93772701822917,164.9388731494546L49.06012376302083,73.04122731462121L49.3014294921875,7.863675266504288L49.604554296874994,110.01567555963993L49.90800423177083,71.06144642829895L49.90832936197917,-64.61001822352407L50.149620312500005,154.1202408671379L50.270435742187495,1.6636910140514374L51.118463997395835,84.9708902570419L51.1788791015625,102.53984251432121L51.42127845052083,69.78730377182364L51.90721510416667,180.33995369821787L52.45148307291667,101.31683284789324L52.63302395833333,127.9645930454135L52.99560325520834,86.14633828075603L53.17903580729167,68.93631755746901L53.238327734375,-52.51593442261216L53.360414127604166,259.01347978413105L53.72266829427084,135.2409466020763L53.78402923177083,107.77792025730014L54.267098828125,93.47455178992823L54.268694921875,346.47359839081764L54.57054876302083,66.8669950067997L54.63080130208333,193.7195642888546L54.63174713541667,51.706801135092974L54.9337783203125,58.4446090310812L54.99561217447917,-27.13620775938034L55.29666796875,27.45949736237526L55.84316751302084,-139.69267943501467L56.0844732421875,130.02003737166524L56.20543645833333,106.41046100668609L56.56928671875,136.0131027214229L56.569759635416666,86.11099900351837L56.629849609375,78.45815101079643L57.17618658854167,-71.48028494417665L57.65941875,139.48777558654547L57.779909049479166,74.00736537203193L58.2052828125,81.31179847195745L58.2647373046875,148.38095629960299L58.445790494791666,92.80703046033159L58.809478190104166,116.06964420899749L59.052365234375,100.06388254836202L59.23452682291666,169.91783080995083L59.35454420572916,28.290779761970043L59.59806673177083,59.46958654001355L59.65783157552083,91.33049366553314L59.65831927083333,53.93109526857734L59.71888216145833,71.34216273576021L59.840480859375006,16.062235929071903L60.5675458984375,43.149793580174446L60.989904817708336,132.47248232737184L60.9914861328125,107.86733993701637L61.17159348958333,86.95528296602424L61.778493359375,-7.028201870620251L62.0813078125,103.89153442718089L62.56485032552083,82.84936652658507L62.745903515625,96.15063784550875L63.292092708333335,64.99126371368766L63.2928759765625,87.83974020736059L63.35249303385417,-26.38350324332714L63.716343294270835,307.26035302877426L63.83715872395833,57.4502133987844L63.89692356770833,41.77574880793691L64.26077382812501,142.14988574758172L64.38253509114583,66.60698146931827L64.62478665364583,90.81803375878371L65.3520142578125,40.91104921326041L65.47250455729167,55.31987050920725L65.47299225260417,92.08858508057892L65.59268450520833,54.884266689419746L65.59379290364583,110.82265004888177L65.83573411458333,59.22862073779106L66.07829602864584,79.10142047703266L66.92537845052084,87.92189912282629L67.16699453125,58.455956898629665L67.28844544270834,151.36665212363005L67.65134986979166,40.82667211443186L67.77294856770834,81.50129252951592L68.07639850260416,108.45742740109563L68.07750690104166,171.71154557168484L68.13775944010416,-65.77921123802659L68.50113678385418,166.74766125530005L68.62113938802082,179.29571910202503L68.68218997395833,49.90622556209564L69.28702083333333,42.16565125063062L69.52990787760417,142.44316647201777L70.13569934895834,115.04245943762362L70.2561896484375,76.92510669026524L71.04301953125,81.98797906190157L71.04414270833334,115.17928663082421L71.52801035156249,66.85380747914314L71.83160807291667,151.38724444806576L72.01298639322917,64.20578654296696L72.37556569010415,78.86845373455435L72.49685403645833,119.68952494114637L72.5575794921875,91.67957061342895L72.79934335937499,40.32433940470219L72.98119459635417,63.36100176349282L72.98135716145833,57.434612553566694L73.04302845052084,141.61131371185184L73.285442578125,7.780692748725414L73.34504485677083,50.49781475588679L73.52785670572916,77.96179307531565L73.58651315104167,13.279199436306953L73.70890989583333,64.93712231889367L73.8289125,185.51100748032331L73.82987311197915,75.00379105936736L73.83018346354167,132.95916144177318L74.01203470052083,58.49533485621214L74.37414108072917,183.87169229239225L74.43533945312501,81.00233417842537L74.49495651041667,211.16150705516338L74.73847903645834,103.93186353519559L74.73878938802083,-113.53710414469236L74.98104095052084,119.53559682145715L75.6462869140625,1.6530223041772842L75.82924654947917,126.63210217282176L75.94877623697917,-25.61273181438446L76.07006458333333,109.16900990903378L76.07149811197917,125.98731449246407L76.13237135416666,181.87425000965595L76.251428125,-159.02941936254496L76.55536575520834,36.360818076878786L76.73578346354167,72.65793017484248L76.98025182291667,67.91691672429442L77.46380911458334,115.09203300252557L77.82813229166666,-33.51182350516319L77.8871138671875,99.06450532749295L78.00918548177083,291.1413170993328L78.130473828125,11.265411213040352L78.55314309895833,205.5146868377924L78.61544986979168,80.05462404247373L78.7349943359375,108.29584227316082L78.9161953125,76.20255298353732L79.15908235677084,105.24566438421607L79.64280221354166,195.31230772286654L79.82576184895834,126.58898555114865L80.674115234375,77.38679049443454L80.79491588541667,189.39814335107803L81.52136022135416,103.61672613210976L81.76392213541666,49.02541410550475L82.06722428385416,138.94523410499096L82.12809752604166,139.86801816523075L82.248750390625,66.36725859157741L82.36844264322916,74.64561533555388L82.37034908854166,28.084480673074722L82.43091197916667,51.73878088966012L82.97517994791667,157.48490007966757L83.64106139322917,13.390568107366562L83.641696875,79.35617466364056L84.0645287109375,75.02706374879926L84.2457296875,85.64983445825055L84.42837897135418,154.8869835063815L84.54839635416666,121.10857215151191L84.73230182291667,79.68657910265028L84.79095826822916,51.082490388303995L85.15497109374999,137.00433005020022L85.27673235677084,108.66730195842683L85.45683971354165,42.294974740594625L85.57938424479165,149.76082006841898L86.36686438802083,-13.403586834669113L86.971059765625,117.81405739858747L87.21427194010417,29.55191621929407L87.21538033854168,16.35017240792513L87.33587063802084,68.75986514054239L87.39690644531251,7.862897202372551L87.63901022135417,73.90630275383592L87.87966569010418,63.43435903452337L88.60721842447917,47.00900486111641L88.60816425781249,161.49775924533606L88.7292900390625,215.212873801589L88.78890709635417,-11.52436414361L88.84867194010415,79.90966426581144L89.2123744140625,110.78860974311829L89.21379316406251,90.1846287692897L89.33350019531251,114.93469755537808L89.57638723958334,-4.782412067055702L90.48355963541667,232.03498958051205L90.66539609374999,53.08853093907237L90.84693697916667,88.94058576895623L91.1514953125,20.02648586779833L91.39342174479167,158.75475349277258L91.99890286458333,115.81108954176307L91.99921321614583,72.16108347661793L92.12066412760417,121.98398990929127L92.2419376953125,103.95764185488224L93.08854720052084,85.79011492920108L93.15054361979166,64.25136263854802L93.21016067708334,92.05133113916963L93.45161419270833,74.37245383299887L94.11780598958333,276.8249634504318L94.54127330729166,100.86376956570894L94.60278203125,100.21562813222408L95.14753769531251,135.2006092518568L95.449864453125,102.12525054719299L95.51155052083334,128.66909714788198L95.57242376302082,71.00008321367204L95.754275,147.66261188685894L96.17725462239584,-65.4830061793327L96.48086712239582,77.21336461510509L96.78384414062499,146.6653842329979L96.96409928385417,62.04384468868375L97.38900013020833,106.66922172904015L97.38914791666666,51.928905475884676L97.57132428385417,-108.28379975259298L97.75252526041668,50.43255627527833L98.4190421875,94.56743064243346L98.54033053385416,41.683511942625046L98.72026054687501,58.07283943891525L99.1446884765625,42.874764394015074L99.26628717447917,-36.41058714687824L99.32732298177083,76.15088754706085L99.32764811197917,80.40268658101559L99.44781328125,85.6995916182641L99.44797584635417,-41.37330436706543L99.44844876302083,134.32234628498554L99.50964713541666,136.88422134518623L99.6897544921875,151.85186082869768L99.81102805989583,117.11006431281567L99.93358736979167,68.92499771341681L99.99335221354167,91.07356250658631L100.35658177083333,162.42420284450054L100.41698209635418,85.29593870532699L100.5379453125,91.49162320559844L100.53921627604167,92.70613144990057L100.6601794921875,-127.10455128550524L101.08317389322917,133.9715613462031L101.9925630859375,120.59276838228106L102.113378515625,48.811034359037876L102.17298079427084,2.2042543664574623L102.29379622395834,104.91162430867553L102.41572005208333,132.76056057214737L102.47579524739582,163.0349172502756L102.71868229166667,111.53249674849212L103.26374830729166,57.35860623791814L103.50505403645833,165.95839431881905L104.049794921875,82.77028669277206L104.04995748697917,139.1222008354962L104.59582154947917,56.96871368587017L105.08048723958333,110.42096784710884L105.13977916666666,106.96877312287688L105.62506555989583,106.49327538348734L106.0502767578125,50.45019129663706L106.29047408854166,86.37178854458034L106.35214537760416,70.71323470585048L106.41365410156251,22.731399446725845L106.71536015625,145.39932882785797L106.89831979166667,-24.61551734805107L107.14026100260416,107.41091465950012L107.321787109375,180.70472071319818L108.35119368489583,133.51997753977776L108.410323046875,101.48664287198335L108.83489876302083,86.12774324859492L108.8953138671875,148.45001278817654L109.19843867187501,147.82528663426638L109.19939928385416,82.71530335675925L109.56214114583332,102.71064902096987L109.68214375,81.98967407131568L109.92599140625,134.94611964002252L110.04584622395834,-31.37102620303631L110.16744492187499,244.2836839556694L110.28762486979166,51.87837416678667L110.41033196614583,87.83990721503505L110.4713677734375,38.85533454269171L110.5305119140625,46.706740133464336L110.53098483072917,89.23385031806538L110.83396184895834,110.51137988828123L110.83410963541667,37.23648639768362L111.0161234375,144.0471258983016L111.13741178385418,31.761664509773254L111.25804986979168,140.90512819960713L111.25853756510416,154.71403567492962L111.31750436197916,159.06671105325222L111.5614998046875,41.005630161613226L111.62142721354166,-51.24892951548097L111.8037513671875,154.89025401324034L112.04553001302082,66.93267878517509L112.22721868489585,72.66615259833634L112.408271875,79.21243143640459L112.4685244140625,124.76577358692884L112.46867220052083,105.80694204568863L112.53035826822916,36.73205357417464L112.5910689453125,37.63336833938956L113.07415332031249,130.5476472750306L113.13566204427084,30.681691713631153L113.4375306640625,104.13685211353004L113.43800358072917,73.15690171346068L113.43816614583334,200.13372717797756L113.62032773437501,129.24346343055367L113.74049290364583,119.20315243676305L114.28508600260417,81.61314625432715L114.64893626302083,48.66836179420352L114.89182330729167,123.70958120003343L115.13487291666667,111.95667687244713L115.25489029947917,130.42272182554007L115.61730703125001,111.91561420820653L115.6177947265625,68.77514453977346L115.61857799479166,183.24231753498316L115.92012148437499,49.46710067242384L115.98117207031251,122.09013302251697L116.28398652343749,70.00915095582604L116.40653105468749,60.330158438533545L117.07161445312501,86.65863169496879L117.2529927734375,10.766652323305607L117.55517174479166,76.2990321116522L117.61747851562501,147.043483838439L117.73717076822918,122.79303484037519L117.73813138020833,111.35725099034607L118.4032,64.78484593704343L119.37205846354166,112.89618766307831L119.3741126953125,91.33602191833779L119.55405748697916,173.294642329216L119.67645423177083,114.65563957951963L119.79726966145833,185.74007483571768L120.28081217447917,40.8260292224586L120.40273600260416,92.60143443150446L120.52497018229167,48.49453039839864L120.94669361979166,60.565222822129726L121.43277805989584,114.91651195473969L121.73559251302083,129.31152755767107L122.09896985677084,-28.09135401248932L122.0994427734375,120.55598836764693L122.70459876302083,22.78290992975235L122.70523424479165,131.0012487731874L122.94653997395834,122.82477062568069L123.00630481770833,34.10086157172918L123.12806608072917,110.04820259660482L123.18783092447916,89.90886716020759L123.2501376953125,72.27259391359985L123.4318263671875,13.531865872442722L123.55184375,119.331249486655L123.73449303385416,110.9186816252768L123.854658203125,93.60904190596193L123.91585657552083,194.13711438328028L124.09787037760417,92.80929129710421L124.58125032552083,102.64016827940941L124.76357447916666,139.23077704757452L125.12553307291667,15.25621423870325L125.127276953125,116.59430669993162L125.246806640625,60.138787630945444L125.49112721354166,95.17184305842966L125.73290585937501,39.26884265989065L126.1571564453125,-8.696490056812763L126.7613666015625,168.69965931773186L126.8839111328125,54.972263764590025L127.00488912760416,74.1734985485673L127.36777877604166,80.48417643550783L127.54995514322917,58.527027782052755L127.55026549479166,198.47586373239756L127.73084576822917,95.2101816739887L127.85086315104166,100.19883876107633L128.09485859375,106.71670342236757L128.69905397135418,106.16151675023139L128.941941015625,112.86487552709877L129.30658932291666,58.09701877087355L129.36604381510415,141.98503505811095L130.09183789062502,82.03595776017755L130.2134513671875,-105.92242786288256L130.51610325520832,-13.07651636749506L130.63866256510417,113.11084105074406L131.00140442708332,140.07731741666794L131.30389375000001,164.75803917646408L131.424221484375,121.60876188799739L131.42629049479166,96.35323371179402L131.48590755208332,77.1178803211078L131.78935748697916,119.78480153158307L132.031446484375,49.23207914829254L132.51498899739582,103.67066641710699L132.57555188802084,91.12104193330742L132.87900182291668,110.56486355513334L133.24190625,327.6624078154564L133.72736998697917,95.33629400096834L133.90746256510414,144.62555723637342L134.21011445312502,116.35005060955882L134.69525305989583,131.35354698076844L134.7567765625,21.396379865705967L134.877104296875,92.98616653913632L135.1198287760417,175.78866755962372L135.11999134114583,42.19790464639664L135.18039166666668,99.78206837922335L135.66538248697915,119.4406598098576L135.72530989583333,84.53126012021676L136.14845208333335,163.85133071243763L136.39181204427084,87.36155875457916L137.23811119791665,91.18883056472987L137.72372272135416,107.04786367155612L137.7238852864583,74.99392266757786L137.84484850260415,93.73396117379889L137.84515885416667,67.36353344656527L138.26815325520832,81.56048557162285L139.11666920572915,90.81804570998065L139.11761503906249,91.64841281273402L139.17675917968748,72.4660978037864L139.17739466145832,-4.052027441561222L139.17754244791666,104.49603750742972L139.66126230468748,25.410814940929413L140.57065149739583,110.71770700067282L140.99348333333333,169.03917221724987L140.9950646484375,234.61665911972523L141.05435657552084,57.95937065407634L141.11540716145834,112.14697949029505L141.5387119140625,282.95957712829113L141.90145377604165,29.35545502603054L142.26497890624998,53.046498991549015L142.26530403645833,103.83230264671147L142.38674016927084,66.35003403201699L142.44779075520833,122.78184852004051L143.59816054687502,133.0152249187231L143.71865084635417,45.01346158236265L143.900176953125,138.2825674340129L144.3260236328125,-20.60259883850813L144.386276171875,95.95332440827042L144.7499638671875,145.9314521625638L144.87094186197916,127.2206813134253L145.05166992187497,206.6413896381855L146.50501673177084,29.989010229706764L146.62550703125,100.27909393329173L146.68719309895832,107.23150493949652L146.74839147135415,167.81205298751593L146.86871920572918,137.56114703044295L146.92944466145835,88.56922056640178L146.98951985677084,46.9685686044395L147.414420703125,184.96667249500751L147.6569826171875,95.12253860151395L148.50455273437498,167.01371962577105L148.56384466145835,12.465225666761398L148.56527819010415,67.04274683631957L148.80593365885414,49.385351188480854L148.80640657552084,63.106612706556916L148.867930078125,-10.521439477801323L148.98921842447916,181.30641485005617L149.10858554687502,9.57422947883606L149.6538141276042,49.186964616179466L149.95758919270833,113.69403473474085L149.95773697916667,104.33174893632531L150.07949824218753,238.02368326485157L150.68307291666665,83.23186169983819L150.68385618489583,155.72317166626453L150.804346484375,-17.694050051271915L150.9861977213542,149.06889686733484L151.04676061197918,98.02573119197041L151.35068346354169,120.98953493312001L151.53206178385418,87.8258535861969L151.65255208333332,84.96841800771654L151.77542174479166,30.5796400308609L151.95680006510418,103.1762478724122L152.50137838541667,84.18759974325076L152.5606703125,123.78075428679585L152.56130579427082,32.479336358606815L152.98477311197917,68.02046189457178L153.10749498697916,26.030246302485466L153.5296765625,79.54565800633281L153.59009166666667,56.13579273596406L153.65112747395833,187.23908132314682L155.10574524739584,-12.121165707707405L156.317165625,102.70624108985066L156.49758333333332,-114.33552981913084L157.52682734375,205.91602286696434L157.58914889322918,36.18342275172472L157.77003951822917,162.74289263784885L157.95189075520832,319.2330983877182L158.1949255859375,17.326425299048424L158.25421751302085,125.65102924034L158.2554884765625,128.59118853136897L158.49583359374998,74.83838484529406L158.4972671223958,35.34953251853585L158.73935611979167,198.34682377427816L158.79960865885417,35.52237814664841L159.40634596354167,106.15133927576244L159.58612819010418,106.84503290243447L159.70916041666666,43.724621426314116L160.01039355468748,72.21203348971903L160.49504446614583,105.5818820502609L160.85905729166666,86.83269562397618L160.91930983072916,46.64037719741464L161.221163671875,142.17110447958112L161.40301490885417,46.46663152053952L161.5853390625,129.9750481210649L161.82695514322916,36.86014073342085L162.31336471354166,129.8432783447206L162.37281920572917,20.02334723621607L162.79596139322916,89.83750316337682L162.79786783854166,189.0465968325734L162.9174123046875,211.35345152020454L163.40159029947918,56.582543313503265L163.46405963541667,128.3033839277923L163.52255351562502,88.54067332631166L163.885930859375,-4.940444804728031L164.129778515625,49.67955503985286L164.25043138020834,178.89122465997934L164.30972330729168,25.427609257400036L164.3723404296875,93.5117814168334L164.91756901041668,121.11815948411822L165.33944023437502,68.07282297313213L165.34056341145833,67.15039167925715L165.70394075520832,62.45579997450113L165.76354303385418,118.5733227096498L165.76544947916668,103.95501753687859L165.88483138020834,104.64009311422706L165.94570462239582,33.380212638527155L166.12882682291666,41.71527410298586L166.188916796875,90.17895133257844L166.30924453125002,133.81273735687137L166.43147871093748,180.01806592941284L166.85527115885418,43.769491989165545L166.97463828125,54.86378975585103L166.97576145833332,88.22554485764704L167.15759791666667,61.803386606276035L167.398578515625,159.11710719019175L167.3990662109375,109.64186190068722L167.52097526041666,105.05908229760826L168.0652580078125,48.915400452911854L168.24805507812502,63.964593255892396L168.24821764322917,2.0612356290221214L168.36790989583332,147.40222415328026L168.5511798828125,91.25394377647899L168.91408430989583,84.32678132224828L168.914246875,47.391845382750034L169.0948271484375,34.999964129179716L169.21673619791665,91.19532768870704L169.27635325520833,269.1574183702469L169.822690234375,120.63900055736303L169.94412636718752,79.14558962825686L170.36648528645833,114.96659818477929L171.15474869791666,176.9059478715062L171.33501861979167,122.44229276105762L171.57758053385416,52.495712008327246L171.8807201171875,74.67267202120274L172.18417005208332,135.8452123068273L172.24567877604167,-140.88989594578737L172.30513326822918,133.9924800619483L172.36537102864582,72.56100844033062L172.36569615885418,42.269994266331196L172.36664199218748,76.68107149098068L172.789473828125,100.56961269490421L172.78979895833334,90.15492365718819L173.15268860677085,93.37109852023423L173.15317630208332,101.48441665247083L173.2738143880208,200.11593720316887L173.940966796875,135.81335453689098L174.00025872395832,70.78935806080699L174.24345611979166,261.00838346779346L174.24425416666668,56.099121518433094L174.6680318359375,71.30653827823699L174.78710338541666,110.04928067699075L175.03046334635417,190.22556839883327L175.09182428385418,46.14480309560895L175.51607486979168,40.05854808166623L175.817618359375,-29.357857793569565L175.87818125,43.02640118077397L175.93890670572918,160.50510766357183L175.99914446614585,141.92275036498904L176.12106829427083,33.32267875224352L176.24155859375,119.11008146032691L177.15127291666667,-98.09427188336844L177.39352447916667,-13.397375509142876L177.51465026041666,59.57765503227711L177.63403216145832,114.66972550749779L177.99724694010416,1.1490147784352303L178.11980624999998,43.680594865232706L178.17862526041665,20.782296046614647L178.18004401041668,77.52194781694561L178.30133235677084,71.36626788787544L178.54311100260415,-38.62325647473335L179.14810442708333,76.52995313890278L179.57378854166666,183.37851832062006L179.75357076822917,54.668096736073494L180.17814648437502,60.42560976371169L180.238709375,79.95954526495188L180.78282955729168,-7.509737849235535L180.90459082031248,112.81646081618965L181.99550611979168,45.60463207215071L182.17688444010415,44.381146006286144L182.47873828125,-6.391580566763878L183.327416796875,64.10897195711732L183.75072154947918,103.09745074622333L183.93400631510417,67.5505259949714L183.99456920572916,108.04104110598564L184.296423046875,91.01383619382977L184.41818430989585,75.82118451967835L184.72083619791667,32.834905073046684L184.78156165364584,92.58274688059464L184.84148906250002,46.04853744059801L184.96325032552082,-42.56494255363941L185.3250463541667,98.7606078190729L185.567445703125,47.77834874019027L185.56760826822918,67.13340119831264L185.80954947916666,103.74521551094949L185.8708956380208,82.38397373026237L186.05227395833333,159.12155798077583L186.35539876302082,157.17927253246307L186.90142539062498,212.68520718812943L187.02144277343749,71.44930315576494L187.02159055989583,21.939178504049778L187.566819140625,30.952266812324524L187.93115709635416,121.44916972517967L188.17324609375,122.34426657110453L188.23317350260416,103.00916519388556L189.383705859375,197.69725231826305L189.80860670572918,91.76672595343553L189.92940735677084,106.2041454333812L190.170225390625,57.40326909720898L190.53472591145834,45.228302892297506L190.65599947916667,112.59130356274545L190.65679752604166,150.57651481032372L190.775854296875,-40.173173412680626L190.95850358072917,87.90185892308364L191.13908385416667,47.27926345914602L191.92782018229167,50.54063465818763L192.23016171875,51.178294479846954L192.654101953125,66.36907187663019L193.01700638020833,112.99994053691626L193.07709635416666,113.12148997932673L193.1985324869792,60.88320708274841L193.3193479166667,90.14801895618439L193.62406881510418,66.24361892603338L193.68383365885418,203.43713691830635L193.6847794921875,76.84528423380107L193.74359850260416,127.289117988199L193.86488684895832,160.31760739535093L193.86519720052084,125.48177061975002L193.9256123046875,174.77916891127825L193.92655813802082,61.02681431360543L194.22906223958336,99.49188013002276L195.25736041666667,134.71600057929754L195.56222910156248,89.16991136292927L195.68271940104165,43.67811890691519L196.04609674479167,167.29232592880726L196.166749609375,89.69751673308201L196.468766015625,106.53814759477973L196.71228854166668,201.05272641777992L197.07439492187498,79.6166406981647L197.2565712890625,82.86308155534789L197.31728196614586,36.525876469910145L197.50040416666667,112.25503809191287L197.61978606770833,123.164656072855L198.16628561197916,51.044605918228626L198.22572532552084,133.04364074394107L198.46861236979166,76.27448435314L198.589265234375,-9.61868067830801L199.13433125,83.09836889058352L199.1354396484375,31.331836827099323L199.254658984375,121.1939383149147L199.62010533854166,95.81094691436738L199.74028528645835,88.88685450112098L199.80005013020832,113.82990088686347L199.86045045572916,70.80062680318952L200.1030271484375,98.87249574903399L200.46718776041666,143.3228701762855L200.95027213541667,95.04125480214134L201.01130794270833,283.2198857367039L201.0128892578125,50.15384117513895L201.13259628906252,265.0278232097626L201.55717200520834,83.04374079359695L201.85918841145832,170.95047356933355L202.22383671875,34.92949657514691L202.70786692708333,67.83563539758325L202.88843242187502,70.53129792585969L203.0100458984375,141.47535689547658L203.070919140625,179.42229958623648L203.25166197916667,57.83720799162984L204.28170403645834,60.79919593781233L205.06918417968748,100.5076502719894L205.25071028645834,103.99085629172623L205.37263411458335,-3.378276653587818L205.49375989583334,122.4727427624166L205.61392506510418,74.55901943519711L205.7353759765625,122.5982616506517L206.03770273437502,-63.89576853811738L206.1001720703125,70.26134923473L206.15899108072918,70.85417805612087L206.21955397135415,111.84613407030702L206.2818607421875,70.4548283983022L206.40171555989582,52.180902644991875L206.52332903645834,46.467534866183996L207.06886796875,-18.417623318731785L207.12768697916667,115.4395820517093L207.12974121093748,101.9836890315637L207.49153723958335,76.96615863963962L207.49217272135417,113.74973060935736L207.61424433593749,108.34835500828922L207.97714876302084,14.57127383351326L208.03644069010417,112.00526796653867L208.217966796875,83.20238304231316L208.40092643229167,76.14212608337402L208.58166927083334,51.31551070511341L208.8240833984375,205.96637284755707L209.188569140625,22.265701688826084L209.3691494140625,35.806246273219585L209.5509858723958,66.1159686036408L209.5511484375,59.183911722153425L209.79323743489584,78.01572429388762L210.09748541666667,60.059886652976274L210.21766536458333,74.48127731122077L210.39998951822918,18.855637818574905L210.46038984375,78.5158868310973L211.06569361979166,228.26820968091488L211.18681940104167,34.17402597516775L211.42892317708333,-10.43577329814434L211.61155768229168,83.55912915570661L212.45880266927082,109.18127760663629L212.51841972656248,80.76397373713553L212.70137936197918,62.78048185072839L213.24644537760418,82.33156649535522L213.42670052083332,102.35844312608242L213.850315625,-33.08499598503113L213.8522220703125,119.77776268869638L214.335616796875,128.34518509358168L214.5791393229167,31.787235125899315L214.7592466796875,-36.51789405941963L215.3648755859375,203.50249430537224L215.3662943359375,58.33780324459076L215.48694720052086,126.63193732872605L215.60807298177082,98.4570696707815L215.72983424479168,150.1387152671814L215.91152291666668,119.98054400458932L215.97097740885417,49.38279940187931L216.09177805989583,74.4727977309376L216.5169892578125,96.42181627359241L216.57771471354167,132.64936004206538L216.87846015625,51.15148753300309L216.93934817708333,107.19652337394655L217.24390651041668,88.60014692856203L217.30352356770834,101.34762407653034L218.08971796875,85.1816191188991L218.27252981770835,137.73600705340505L219.42369765625,132.29652114585042L219.54338990885418,-8.88305401057005L220.08941653645834,-7.062054254114628L220.270780078125,60.79068338871002L220.45373971354167,168.91621170938015L220.513031640625,222.15327179431915L220.574392578125,139.11265636235476L220.69488287760416,75.22441674862057L221.05826022135417,40.481814969331026L221.24105729166666,48.589137721806765L221.48330885416667,164.2439761608839L221.54260078124997,122.77812963724136L221.66356399739584,70.02732172049582L221.8465236328125,68.72635563276708L221.90534264322918,25.482020996510983L221.96559518229168,35.164442270994186L221.96781197916667,54.05144464597106L222.08799192708332,122.48025305941701L222.14806712239584,-106.32314407825464L222.26951803385415,149.13512463122606L222.27062643229166,89.05221056652954L222.3310267578125,112.8567421194166L222.814421484375,53.880837600678205L222.87434889322918,6.124945901334286L222.87530950520835,106.9521156270057L223.0563626953125,163.07643818110228L223.05699817708333,142.4213246293366L223.11739850260417,28.841431573033333L223.23741588541668,37.41465978696942L223.66150390625,-8.0962003916502L223.78469869791667,210.05748680233955L223.9662248046875,101.13180029578507L224.08544414062501,197.85854896903038L224.14616959635418,-34.47062270343304L224.26729537760417,126.37429589778185L225.054450390625,113.91838590055704L225.2361390625,276.8104307949543L225.41831542968748,160.95082631707191L225.41958639322917,89.0070315906778L225.90218307291667,198.53725167363882L225.96352923177085,86.37593334331177L226.75069902343748,135.22041362151504L227.29623795572917,-90.54003404080862L228.44773092447917,20.918806739151478L228.689021875,78.36500997561961L228.809349609375,-54.281836688518496L229.29481334635418,109.72190359979868L229.5985736328125,-50.89112551510331L229.83908131510418,-14.1460050791502L229.84098776041668,68.53308252431452L229.96036966145832,77.25433414243162L230.20245865885417,27.930621787905693L230.6281427734375,44.16962135955691L230.98977623697917,170.29828438907862L231.41514999999998,314.09489473700523L231.65580546875,122.98806189000607L231.77805442708333,-14.631912723183632L232.0196705078125,30.88490492105484L232.08038118489586,64.7009172141552L232.2015069661458,63.25959297269583L232.50401106770835,48.520902156829834L232.92938483072916,29.482378385961056L233.29243704427083,128.0119098946452L233.59414309895834,103.0585360005498L233.71526888020833,60.941665744408965L233.89648463541667,99.10621418058872L233.9576830078125,111.37461401894689L233.957993359375,118.04376764595509L233.95895397135416,107.75965717993677L234.68601901041666,146.8638697117567L235.35141276041668,90.70273479237221L235.53168268229166,-84.86008675396437L235.95720423177082,99.69716625194997L235.95783971354166,-69.99779583513734L236.37987350260414,116.34700758755207L236.56315826822916,107.09341009519994L236.80540983072916,100.07443421892822L237.2277539713542,176.5995224788785L238.016505078125,272.8882754445076L238.49926432291667,33.66623692587018L238.62260690104168,24.989816308021545L238.68142591145835,238.90495298802853L238.682696875,74.54935957118869L238.80286204427082,156.59374630451202L239.28800065104167,50.41202659159899L239.470014453125,26.205119512975216L239.77139537760416,84.45794406021014L239.7717205078125,44.419050257653L240.19597109375,35.38094850629568L240.43838522135417,81.24981132242829L240.67983873697915,216.6297417730093L240.80065416666667,63.411816604435444L240.92225286458333,34.97718267515302L240.98424928385418,124.58747821301222L241.04401412760416,95.89415691699833L241.52804433593752,216.41949301958084L241.52899016927083,123.6249766163528L241.5900259765625,83.26592796854675L241.89284042968748,68.546964045614L242.07342070312498,152.13889396190643L242.19550709635416,66.99951812066138L242.25447389322918,168.00170282274485L242.61959511718752,143.9267831146717L242.73897701822918,97.4375806460157L243.10315240885416,-68.60725016891953L243.2843681640625,-9.444354750216007L243.52725520833332,62.00454750470817L243.58702005208335,129.83740989491343L243.89046998697916,90.65431596036069L243.95103287760415,84.69634159142151L244.07326705729167,83.43548042373732L244.25304928385415,95.28109677974135L245.161330078125,10.87666267901659L245.16260104166665,42.90581113100052L245.40470481770834,89.84640206582844L245.46510514322918,53.76747101917863L246.13145950520834,53.64996025711298L246.3733859375,72.70670094899833L246.3744943359375,87.00405837642029L246.43331334635417,124.6226856149733L246.433948828125,124.30783009529114L246.8575787109375,113.0332720130682L246.97997545572917,143.06337589770555L247.15975768229166,5.755648970603943L247.16150156249998,5.6958039700984955L247.64553177083332,65.80823434889317L247.82785592447917,83.5256930035539L247.88841881510416,39.705475106835365L248.0081110677083,84.36958762491122L248.00858398437498,75.18367470614612L248.06867395833333,95.31210642680526L248.31092552083334,42.5093314088881L248.55285195312499,73.78175150044262L248.79559121093752,21.034270137548447L249.03847825520833,-103.35919448733324L249.4612953125,87.04007547197398L249.9462861328125,84.99039048934355L250.06835774739582,64.33814810961485L250.18821256510418,42.176603492349386L250.36973867187498,163.15218733996153L250.37180768229166,181.0416950136423L250.43237057291665,85.20769086107612L250.79543756510418,100.34644428547472L250.79574791666664,116.39697842672467L251.03705364583334,124.80196345970035L251.33970553385416,148.92304940521717L251.52139420572917,98.93613710906357L251.70371835937502,28.838286347687244L252.36943723958333,39.686059769243L252.79352526041666,83.50985725549981L252.79401295572916,59.932458870112896L252.91450325520833,6.011783726513386L253.03577682291666,185.8232551664114L253.21762805989582,131.87824573740363L253.641730859375,108.09370220080018L253.76238372395832,41.07179528474808L253.7631669921875,97.18284459225833L253.822621484375,96.82962985150516L253.943747265625,53.553793508559465L254.4883403645833,245.0777313709259L254.6713,113.82427970319986L254.79226321614584,129.6715635471046L255.09507766927084,116.0955774821341L255.4589279296875,50.883042220026255L255.51758437499998,77.40963046811521L256.002885546875,90.85783536569215L256.85123893229166,154.07273279875517L256.9728524088542,52.76256822422147L257.15405338541666,172.05709835886955L257.275504296875,78.60222887154669L257.2759772135417,105.46998258121312" style="fill: none;" fill="none"></path></g></g></g></g></g></g><g transform="translate(63, 177)" clip-path="url(#clip_1)"><clipPath id="clip_1"><rect width="266" height="23"></rect></clipPath><g><g><line x1="0" y1="0" x2="0" y2="5" style="visibility: inherit;" fill="rgb(0, 0, 0)" stroke="rgb(204, 204, 204)" stroke-width="1px"></line><line x1="29.557291666666664" y1="0" x2="29.557291666666664" y2="5" style="visibility: inherit;" fill="rgb(0, 0, 0)" stroke="rgb(204, 204, 204)" stroke-width="1px"></line><line x1="59.11458333333333" y1="0" x2="59.11458333333333" y2="5" style="visibility: inherit;" fill="rgb(0, 0, 0)" stroke="rgb(204, 204, 204)" stroke-width="1px"></line><line x1="88.671875" y1="0" x2="88.671875" y2="5" style="visibility: inherit;" fill="rgb(0, 0, 0)" stroke="rgb(204, 204, 204)" stroke-width="1px"></line><line x1="118.22916666666666" y1="0" x2="118.22916666666666" y2="5" style="visibility: inherit;" fill="rgb(0, 0, 0)" stroke="rgb(204, 204, 204)" stroke-width="1px"></line><line x1="147.78645833333334" y1="0" x2="147.78645833333334" y2="5" style="visibility: inherit;" fill="rgb(0, 0, 0)" stroke="rgb(204, 204, 204)" stroke-width="1px"></line><line x1="177.34375" y1="0" x2="177.34375" y2="5" style="visibility: inherit;" fill="rgb(0, 0, 0)" stroke="rgb(204, 204, 204)" stroke-width="1px"></line><line x1="206.90104166666666" y1="0" x2="206.90104166666666" y2="5" style="visibility: inherit;" fill="rgb(0, 0, 0)" stroke="rgb(204, 204, 204)" stroke-width="1px"></line><line x1="236.45833333333331" y1="0" x2="236.45833333333331" y2="5" style="visibility: inherit;" fill="rgb(0, 0, 0)" stroke="rgb(204, 204, 204)" stroke-width="1px"></line><line x1="266.015625" y1="0" x2="266.015625" y2="5" style="visibility: inherit;" fill="rgb(0, 0, 0)" stroke="rgb(204, 204, 204)" stroke-width="1px"></line></g><g transform="translate(0, 8)"><text x="0" y="0" dx="0em" dy="0.95em" style="text-anchor: middle; visibility: hidden; font-family: &quot;Helvetica Neue&quot;, sans-serif; font-size: 12px; font-weight: 200;" fill="rgb(50, 49, 63)" stroke="none" stroke-width="1px">-2M</text><text x="29.557291666666664" y="0" dx="0em" dy="0.95em" style="text-anchor: middle; visibility: inherit; font-family: &quot;Helvetica Neue&quot;, sans-serif; font-size: 12px; font-weight: 200;" fill="rgb(50, 49, 63)" stroke="none" stroke-width="1px">0</text><text x="59.11458333333333" y="0" dx="0em" dy="0.95em" style="text-anchor: middle; visibility: inherit; font-family: &quot;Helvetica Neue&quot;, sans-serif; font-size: 12px; font-weight: 200;" fill="rgb(50, 49, 63)" stroke="none" stroke-width="1px">2M</text><text x="88.671875" y="0" dx="0em" dy="0.95em" style="text-anchor: middle; visibility: inherit; font-family: &quot;Helvetica Neue&quot;, sans-serif; font-size: 12px; font-weight: 200;" fill="rgb(50, 49, 63)" stroke="none" stroke-width="1px">4M</text><text x="118.22916666666666" y="0" dx="0em" dy="0.95em" style="text-anchor: middle; visibility: inherit; font-family: &quot;Helvetica Neue&quot;, sans-serif; font-size: 12px; font-weight: 200;" fill="rgb(50, 49, 63)" stroke="none" stroke-width="1px">6M</text><text x="147.78645833333334" y="0" dx="0em" dy="0.95em" style="text-anchor: middle; visibility: inherit; font-family: &quot;Helvetica Neue&quot;, sans-serif; font-size: 12px; font-weight: 200;" fill="rgb(50, 49, 63)" stroke="none" stroke-width="1px">8M</text><text x="177.34375" y="0" dx="0em" dy="0.95em" style="text-anchor: middle; visibility: inherit; font-family: &quot;Helvetica Neue&quot;, sans-serif; font-size: 12px; font-weight: 200;" fill="rgb(50, 49, 63)" stroke="none" stroke-width="1px">10M</text><text x="206.90104166666666" y="0" dx="0em" dy="0.95em" style="text-anchor: middle; visibility: inherit; font-family: &quot;Helvetica Neue&quot;, sans-serif; font-size: 12px; font-weight: 200;" fill="rgb(50, 49, 63)" stroke="none" stroke-width="1px">12M</text><text x="236.45833333333331" y="0" dx="0em" dy="0.95em" style="text-anchor: middle; visibility: inherit; font-family: &quot;Helvetica Neue&quot;, sans-serif; font-size: 12px; font-weight: 200;" fill="rgb(50, 49, 63)" stroke="none" stroke-width="1px">14M</text><text x="266.015625" y="0" dx="0em" dy="0.95em" style="text-anchor: middle; visibility: hidden; font-family: &quot;Helvetica Neue&quot;, sans-serif; font-size: 12px; font-weight: 200;" fill="rgb(50, 49, 63)" stroke="none" stroke-width="1px">16M</text></g><line x1="0" y1="0" x2="266.015625" y2="0" fill="rgb(0, 0, 0)" stroke="rgb(204, 204, 204)" stroke-width="1px"></line></g></g></g></g></svg>