<svg viewBox="0 0 330 200" xmlns="http://www.w3.org/2000/svg"><g><g><g><g><g><line x1="63.984375" y1="177" x2="58.984375" y2="177" style="visibility: inherit;" fill="rgb(0, 0, 0)" stroke="rgb(204, 204, 204)" stroke-width="1px"></line><line x1="63.984375" y1="151.71428571428572" x2="58.984375" y2="151.71428571428572" style="visibility: inherit;" fill="rgb(0, 0, 0)" stroke="rgb(204, 204, 204)" stroke-width="1px"></line><line x1="63.984375" y1="126.42857142857143" x2="58.984375" y2="126.42857142857143" style="visibility: inherit;" fill="rgb(0, 0, 0)" stroke="rgb(204, 204, 204)" stroke-width="1px"></line><line x1="63.984375" y1="101.14285714285714" x2="58.984375" y2="101.14285714285714" style="visibility: inherit;" fill="rgb(0, 0, 0)" stroke="rgb(204, 204, 204)" stroke-width="1px"></line><line x1="63.984375" y1="75.85714285714285" x2="58.984375" y2="75.85714285714285" style="visibility: inherit;" fill="rgb(0, 0, 0)" stroke="rgb(204, 204, 204)" stroke-width="1px"></line><line x1="63.984375" y1="50.57142857142857" x2="58.984375" y2="50.57142857142857" style="visibility: inherit;" fill="rgb(0, 0, 0)" stroke="rgb(204, 204, 204)" stroke-width="1px"></line><line x1="63.984375" y1="25.285714285714278" x2="58.984375" y2="25.285714285714278" style="visibility: inherit;" fill="rgb(0, 0, 0)" stroke="rgb(204, 204, 204)" stroke-width="1px"></line><line x1="63.984375" y1="0" x2="58.984375" y2="0" style="visibility: inherit;" fill="rgb(0, 0, 0)" stroke="rgb(204, 204, 204)" stroke-width="1px"></line></g><g transform="translate(53.984375, 0)"><text x="0" y="177" dx="0em" dy="0.3em" style="text-anchor: end; visibility: hidden; font-family: &quot;Helvetica Neue&quot;, sans-serif; font-size: 12px; font-weight: 200;" fill="rgb(50, 49, 63)" stroke="none" stroke-width="1px">-0.15</text><text x="0" y="151.71428571428572" dx="0em" dy="0.3em" style="text-anchor: end; visibility: inherit; font-family: &quot;Helvetica Neue&quot;, sans-serif; font-size: 12px; font-weight: 200;" fill="rgb(50, 49, 63)" stroke="none" stroke-width="1px">-0.1</text><text x="0" y="126.42857142857143" dx="0em" dy="0.3em" style="text-anchor: end; visibility: inherit; font-family: &quot;Helvetica Neue&quot;, sans-serif; font-size: 12px; font-weight: 200;" fill="rgb(50, 49, 63)" stroke="none" stroke-width="1px">-0.05</text><text x="0" y="101.14285714285714" dx="0em" dy="0.3em" style="text-anchor: end; visibility: inherit; font-family: &quot;Helvetica Neue&quot;, sans-serif; font-size: 12px; font-weight: 200;" fill="rgb(50, 49, 63)" stroke="none" stroke-width="1px">0</text><text x="0" y="75.85714285714285" dx="0em" dy="0.3em" style="text-anchor: end; visibility: inherit; font-family: &quot;Helvetica Neue&quot;, sans-serif; font-size: 12px; font-weight: 200;" fill="rgb(50, 49, 63)" stroke="none" stroke-width="1px">0.05</text><text x="0" y="50.57142857142857" dx="0em" dy="0.3em" style="text-anchor: end; visibility: inherit; font-family: &quot;Helvetica Neue&quot;, sans-serif; font-size: 12px; font-weight: 200;" fill="rgb(50, 49, 63)" stroke="none" stroke-width="1px">0.1</text><text x="0" y="25.285714285714278" dx="0em" dy="0.3em" style="text-anchor: end; visibility: inherit; font-family: &quot;Helvetica Neue&quot;, sans-serif; font-size: 12px; font-weight: 200;" fill="rgb(50, 49, 63)" stroke="none" stroke-width="1px">0.15</text><text x="0" y="0" dx="0em" dy="0.3em" style="text-anchor: end; visibility: hidden; font-family: &quot;Helvetica Neue&quot;, sans-serif; font-size: 12px; font-weight: 200;" fill="rgb(50, 49, 63)" stroke="none" stroke-width="1px">0.2</text></g><line x1="63.984375" y1="0" x2="63.984375" y2="177" fill="rgb(0, 0, 0)" stroke="rgb(204, 204, 204)" stroke-width="1px"></line></g></g><g transform="translate(63, 0)" clip-path="url(#clip_0)"><clipPath id="clip_0"><rect width="266" height="177"></rect></clipPath><g><g><g><line x1="0" y1="0" x2="0" y2="177" fill="rgb(0, 0, 0)" stroke="rgb(60, 60, 60)" stroke-width="1px" opacity="0.25"></line><line x1="29.557291666666664" y1="0" x2="29.557291666666664" y2="177" fill="rgb(0, 0, 0)" stroke="rgb(60, 60, 60)" stroke-width="1px" opacity="0.25"></line><line x1="59.11458333333333" y1="0" x2="59.11458333333333" y2="177" fill="rgb(0, 0, 0)" stroke="rgb(60, 60, 60)" stroke-width="1px" opacity="0.25"></line><line x1="88.671875" y1="0" x2="88.671875" y2="177" fill="rgb(0, 0, 0)" stroke="rgb(60, 60, 60)" stroke-width="1px" opacity="0.25"></line><line x1="118.22916666666666" y1="0" x2="118.22916666666666" y2="177" fill="rgb(0, 0, 0)" stroke="rgb(60, 60, 60)" stroke-width="1px" opacity="0.25"></line><line x1="147.78645833333334" y1="0" x2="147.78645833333334" y2="177" fill="rgb(0, 0, 0)" stroke="rgb(60, 60, 60)" stroke-width="1px" opacity="0.25"></line><line x1="177.34375" y1="0" x2="177.34375" y2="177" fill="rgb(0, 0, 0)" stroke="rgb(60, 60, 60)" stroke-width="1px" opacity="0.25"></line><line x1="206.90104166666666" y1="0" x2="206.90104166666666" y2="177" fill="rgb(0, 0, 0)" stroke="rgb(60, 60, 60)" stroke-width="1px" opacity="0.25"></line><line x1="236.45833333333331" y1="0" x2="236.45833333333331" y2="177" fill="rgb(0, 0, 0)" stroke="rgb(60, 60, 60)" stroke-width="1px" opacity="0.25"></line><line x1="266.015625" y1="0" x2="266.015625" y2="177" fill="rgb(0, 0, 0)" stroke="rgb(60, 60, 60)" stroke-width="1px" opacity="0.25"></line></g><g><line x1="0" y1="177" x2="266.015625" y2="177" fill="rgb(0, 0, 0)" stroke="rgb(60, 60, 60)" stroke-width="1px" opacity="0.25"></line><line x1="0" y1="151.71428571428572" x2="266.015625" y2="151.71428571428572" fill="rgb(0, 0, 0)" stroke="rgb(60, 60, 60)" stroke-width="1px" opacity="0.25"></line><line x1="0" y1="126.42857142857143" x2="266.015625" y2="126.42857142857143" fill="rgb(0, 0, 0)" stroke="rgb(60, 60, 60)" stroke-width="1px" opacity="0.25"></line><line x1="0" y1="101.14285714285714" x2="266.015625" y2="101.14285714285714" fill="rgb(0, 0, 0)" stroke="rgb(60, 60, 60)" stroke-width="1px" opacity="0.25"></line><line x1="0" y1="75.85714285714285" x2="266.015625" y2="75.85714285714285" fill="rgb(0, 0, 0)" stroke="rgb(60, 60, 60)" stroke-width="1px" opacity="0.25"></line><line x1="0" y1="50.57142857142857" x2="266.015625" y2="50.57142857142857" fill="rgb(0, 0, 0)" stroke="rgb(60, 60, 60)" stroke-width="1px" opacity="0.25"></line><line x1="0" y1="25.285714285714278" x2="266.015625" y2="25.285714285714278" fill="rgb(0, 0, 0)" stroke="rgb(60, 60, 60)" stroke-width="1px" opacity="0.25"></line><line x1="0" y1="0" x2="266.015625" y2="0" fill="rgb(0, 0, 0)" stroke="rgb(60, 60, 60)" stroke-width="1px" opacity="0.25"></line></g></g></g><g><g><line x1="0" y1="101.14285714285714" x2="266.015625" y2="101.14285714285714" fill="rgb(0, 0, 0)" stroke="rgb(153, 153, 153)" stroke-width="1.5px"></line></g></g><g><g><line x1="29.557291666666664" y1="0" x2="29.557291666666664" y2="177" fill="rgb(0, 0, 0)" stroke="rgb(153, 153, 153)" stroke-width="1.5px"></line></g></g><g><g><g><g><g><path stroke="rgb(255, 112, 67)" stroke-width="2px" d="M29.680323893229165,66.40921899676323L29.738980338541666,137.44581249303053L29.801287109375,109.73023177726797L29.9213044921875,117.76461288860428L30.223793815104166,120.44245270111165L30.466370507812503,238.42378256294478L30.46715377604167,171.8185720404898L30.586860807291664,205.4149078461992L30.647896614583335,98.61549259001369L30.769820442708337,89.91223399395173L30.770130794270834,68.9367573768896L30.829585286458336,80.91919545020798L31.436160026041666,90.84869117751603L31.67873671875,107.16720392954252L31.860100260416665,83.17164986293251L31.919392187499998,84.1572871964189L32.1015685546875,-17.009854449101653L32.40516627604167,-16.176829711531184L32.46462076822917,16.607994818100366L32.707345247395835,-7.5761196372692154L32.76823326822917,51.66709774906168L32.7691791015625,51.35237558593988L32.889994531250004,36.330151527279554L33.435060546875,43.84269036035889L33.61642408854166,103.97002658383875L33.8574046875,100.43861050603455L33.979801432291666,55.8808068475559L34.28277845052084,52.37311861946179L34.644722265625,72.64561238344649L34.828007031249996,71.94150823312904L34.82847994791667,74.68762161423147L34.8888802734375,106.31367465446642L34.94769928385417,105.02655480350565L35.12986087239583,121.31255153171864L35.13098404947917,59.9431098461843L35.31251015625,78.47877620604697L35.4336359375,73.27941166669649L35.67541458333333,77.85597307354051L35.79637779947917,70.80915253590359L35.917813932291665,78.19594092460493L36.342079296875,91.1373302322269L36.52344283854167,89.61476418818621L36.52393053385416,73.11689012626452L36.94818111979167,91.13167572264726L37.0680359375,99.29156312372997L37.127963346354164,55.47129214939153L37.25068522135417,65.31977141347649L37.37181100260417,57.079310215370555L37.735025781249995,104.84790555941474L37.977277343749996,110.0434480932623L38.34081725260416,107.59189856097146L38.40089244791667,183.81392999757324L38.52234335937499,54.19821526469798L38.64363170572917,47.18398681115161L38.825320377604164,53.281428752473445L39.1874267578125,-56.694418508101535L39.36942578125,-46.09753328629955L39.43031380208333,37.91227233880559L39.43062415364583,139.5977469847223L39.48960572916666,149.27189615930303L39.55174993489583,156.95220220510996L39.5519125,141.12541497688096L39.61200247395833,41.90728233421143L39.6127857421875,109.5973682532569L39.733763736979164,118.56616423904066L40.39804908854167,107.17581092174916L40.58131907552083,60.13906518390556L41.49008756510416,68.26260959284262L41.792266536458335,83.14991954563966L41.792739453124994,115.14933149916136L42.277242578125,101.21574421722158L42.57909641927083,42.93587808267495L42.639821875,40.2525573655482L42.639984440104165,61.94621171156521L42.881910872395835,54.86847065278434L43.60788229166667,21.74484350742597L44.15342122395833,65.46425863353855L44.15373157552083,89.61538984242434L44.336218294270836,109.7799307525528L44.638397265624995,104.82559115188555L44.9409013671875,121.27797081255969L44.942009765625,102.30220182562589L45.3662603515625,90.94882681861353L45.48707578125,107.18038998013209L45.84885703125,85.84121889366277L46.09143372395833,94.75386897364257L46.45608203125,54.87089701164874L46.57737037760416,92.85868577930228L46.636337174479166,85.19984676702556L46.940747721354164,104.07875403919064L46.94105807291667,67.14024830554868L47.30300188802083,42.65227868971198L47.66670436197917,63.39832774610926L47.72757760416666,43.96044614883937L47.84728463541666,64.1374867167292L48.33400455729167,54.30018330679218L48.392823567708334,49.332822593162035L48.39409453125,7.068580401349664L48.87732669270833,29.02751129072567L48.93772701822917,29.64381904296502L49.06012376302083,56.047989938511975L49.3014294921875,103.95480377478106L49.604554296874994,91.21236562560192L49.90800423177083,107.95243864469131L49.90832936197917,184.9339870286727L50.149620312500005,116.25938739869602L50.270435742187495,135.04435785110957L51.118463997395835,119.303395421993L51.1788791015625,104.32221345150802L51.42127845052083,111.089529762362L51.90721510416667,77.2657071954746L52.45148307291667,80.63986795116467L52.63302395833333,74.491295798151L52.99560325520834,90.08560012746693L53.17903580729167,103.06620537705243L53.238327734375,143.85150121643642L53.360414127604166,44.075891052792315L53.72266829427084,51.121582128811625L53.78402923177083,65.42651656589007L54.267098828125,78.04821729361812L54.268694921875,-12.765350963474503L54.57054876302083,38.78922654385153L54.63080130208333,24.092937456167988L54.63174713541667,74.05315184986429L54.9337783203125,98.3452887728988L54.99561217447917,148.2548919146934L55.29666796875,155.99523550254747L55.84316751302084,236.38866682893766L56.0844732421875,168.68306608909123L56.20543645833333,121.99956344314666L56.56928671875,92.89422035152381L56.569759635416666,98.03966236352294L56.629849609375,101.91008152295487L57.17618658854167,149.95745482113136L57.65941875,111.34100859204632L57.779909049479166,114.31416651681315L58.2052828125,118.40217103236637L58.2647373046875,74.98365839865893L58.445790494791666,83.47840968590091L58.809478190104166,77.0356283602951L59.052365234375,82.24438249915724L59.23452682291666,53.85326979070834L59.35454420572916,95.20515103388642L59.59806673177083,101.68088992726949L59.65783157552083,85.9498873813195L59.65831927083333,113.53373698202799L59.71888216145833,116.32620146841339L59.840480859375006,139.48343325410036L60.5675458984375,139.18738669436L60.989904817708336,82.13153901778436L60.9914861328125,81.352893593975L61.17159348958333,57.774549050116235L61.778493359375,100.85422326674512L62.0813078125,96.11239576454942L62.56485032552083,101.86068979400557L62.745903515625,96.10277870679509L63.292092708333335,107.59540739458993L63.2928759765625,104.21255028864347L63.35249303385417,170.75749067608308L63.716343294270835,56.71131299990117L63.83715872395833,94.69680244701583L63.89692356770833,126.74086039138041L64.26077382812501,88.20142669857009L64.38253509114583,101.37984100040644L64.62478665364583,99.60976065026686L65.3520142578125,121.76365160753792L65.47250455729167,121.63403854086847L65.47299225260417,112.75900579655082L65.59268450520833,115.78207029797977L65.59379290364583,107.4687068924635L65.83573411458333,116.90300993457271L66.07829602864584,106.84494348793696L66.92537845052084,104.96886539986627L67.16699453125,117.23099584385011L67.28844544270834,87.7475154630029L67.65134986979166,114.89917345406145L67.77294856770834,112.55044435703816L68.07639850260416,99.13167342433624L68.07750690104166,66.6060437698237L68.13775944010416,95.24240628117751L68.50113678385418,56.24014576728089L68.62113938802082,25.08630765777366L68.68218997395833,74.7242720426072L69.28702083333333,103.6710850060552L69.52990787760417,80.46735510505938L70.13569934895834,74.2197880310194L70.2561896484375,65.7977839140946L71.04301953125,81.18109552297831L71.04414270833334,73.04887650663248L71.52801035156249,94.28718740580946L71.83160807291667,58.26976217190648L72.01298639322917,84.51120515680446L72.37556569010415,98.2262813552047L72.49685403645833,84.73098074305717L72.5575794921875,89.81252856029839L72.79934335937499,118.0189488281662L72.98119459635417,124.87840391779784L72.98135716145833,129.0361941670468L73.04302845052084,91.40261426061932L73.285442578125,116.6494814612472L73.34504485677083,126.9498620936362L73.52785670572916,124.275692771704L73.58651315104167,149.40921020642494L73.70890989583333,141.20084388081432L73.8289125,79.89992631603089L73.82987311197915,92.73941955515456L73.83018346354167,74.14305162671718L74.01203470052083,88.99557191789542L74.37414108072917,50.827498829895035L74.43533945312501,73.6449980136102L74.49495651041667,28.57030986866289L74.73847903645834,48.999681707660244L74.73878938802083,141.38420288691174L74.98104095052084,114.1707068822254L75.6462869140625,141.9119069933064L75.82924654947917,108.05094924070299L75.94877623697917,152.42990752414724L76.07006458333333,123.6013157576246L76.07149811197917,67.76768945855295L76.13237135416666,50.12186688560821L76.251428125,171.7417615896038L76.55536575520834,165.0688805828691L76.73578346354167,146.74056026979346L76.98025182291667,140.89059833331484L77.46380911458334,116.44911578510919L77.82813229166666,145.70660285481642L77.8871138671875,123.9659314503004L78.00918548177083,43.87627025372731L78.130473828125,92.44496571292933L78.55314309895833,48.31248132066486L78.61544986979168,71.94285804947438L78.7349943359375,75.92372433325355L78.9161953125,91.74746028130815L79.15908235677084,88.16066950799649L79.64280221354166,44.525061031487496L79.82576184895834,47.963383434682925L80.674115234375,78.02885147412239L80.79491588541667,52.58755746854828L81.52136022135416,65.15286151904242L81.76392213541666,96.07202710625839L82.06722428385416,75.40552228299309L82.12809752604166,62.70860913757997L82.248750390625,89.28007770908869L82.36844264322916,100.36655006011127L82.37034908854166,125.38859167473537L82.43091197916667,125.78450100629598L82.97517994791667,91.45940171059837L83.64106139322917,97.00080473966946L83.641696875,105.51409638373583L84.0645287109375,106.30529150016794L84.2457296875,104.60094358240075L84.42837897135418,74.70697654315536L84.54839635416666,70.3745529423449L84.73230182291667,80.96757515236355L84.79095826822916,108.2187962104187L85.15497109374999,86.79586339154532L85.27673235677084,77.45746300825974L85.45683971354165,108.05391792354116L85.57938424479165,83.08142575134542L86.36686438802083,141.10460804153166L86.971059765625,110.78292045060292L87.21427194010417,137.0519829336613L87.21538033854168,144.11835744556927L87.33587063802084,141.1843570079463L87.39690644531251,142.33125497820038L87.63901022135417,123.22249766243732L87.87966569010418,126.3162583575697L88.60721842447917,132.38333756976772L88.60816425781249,69.1773909660528L88.7292900390625,37.794236877360106L88.78890709635417,94.28622738732498L88.84867194010415,100.94363756732874L89.2123744140625,90.13248480753994L89.21379316406251,89.39791653094825L89.33350019531251,80.62819571730661L89.57638723958334,120.42269539156996L89.63758561197916,148.73928459306794L90.48355963541667,64.0847183761781L90.66539609374999,101.31042137899144L90.84693697916667,101.04198504730059L91.1514953125,110.24086536399632L91.39342174479167,73.03475916558057L91.99890286458333,65.61700769255404L91.99921321614583,91.8296494721761L92.12066412760417,80.56918224841982L92.2419376953125,79.51223712738445L93.08854720052084,89.92763365531194L93.15054361979166,109.26558301156724L93.21016067708334,104.34474633135264L93.45161419270833,110.77448487621125L94.11780598958333,25.69730989796011L94.54127330729166,50.22351985159483L94.60278203125,68.47557857579908L95.14753769531251,59.27658993570162L95.449864453125,73.56031284117451L95.51155052083334,66.75250163221891L95.57242376302082,84.89215165445782L95.754275,67.21817042358181L96.17725462239584,135.68665870044254L96.48086712239582,122.33022886671793L96.78384414062499,68.77194297237668L96.96409928385417,94.62570459115872L97.38900013020833,86.53102331525818L97.38914791666666,106.41056431546139L97.57132428385417,98.94415875162422L97.75252526041668,109.6794710382395L98.4190421875,103.4544798782639L98.54033053385416,100.31849509207868L98.72026054687501,114.7382149543926L99.1446884765625,126.39746782886942L99.26628717447917,168.3668251854656L99.32732298177083,148.62558782404955L99.32764811197917,128.82700324624273L99.44781328125,106.60283878103873L99.44797584635417,167.09364590865533L99.44844876302083,125.22225665769842L99.50964713541666,93.25491690299602L99.6897544921875,62.880419609914355L99.81102805989583,64.89408338459825L99.93358736979167,91.24758041564691L99.99335221354167,91.97534366049807L100.35658177083333,56.25748271362191L100.41698209635418,75.74498570013341L100.5379453125,81.57134757453889L100.53921627604167,88.3140404504136L100.6601794921875,213.3010407138822L101.08317389322917,154.46310549244458L101.9925630859375,120.89141535065532L102.113378515625,120.41555658247958L102.17298079427084,148.98030137919378L102.29379622395834,121.15079197570336L102.41572005208333,76.68710630705743L102.47579524739582,57.18808247616933L102.71868229166667,66.06114274671869L103.26374830729166,94.44611326871463L103.50505403645833,60.70956169207355L104.049794921875,80.62239437016098L104.04995748697917,65.15294327308939L104.59582154947917,77.00539927699006L105.08048723958333,76.2010332168212L105.13977916666666,77.73489507392041L105.62506555989583,83.57996364660345L106.0502767578125,108.671821426997L106.29047408854166,106.63313237867575L106.35214537760416,110.68612517909727L106.41365410156251,129.12830663236178L106.71536015625,85.0287977283217L106.89831979166667,151.1859009195662L107.14026100260416,115.07859598657978L107.321787109375,74.65488259232933L108.35119368489583,57.59110352112417L108.410323046875,69.72615948489305L108.83489876302083,81.67468576442725L108.8953138671875,77.30137711651042L109.19843867187501,58.54452190502066L109.19939928385416,75.97743196997264L109.56214114583332,79.79042495190461L109.68214375,96.75222503823512L109.92599140625,77.64678425088721L110.04584622395834,138.473339947178L110.16744492187499,53.94076391839967L110.28762486979166,89.56291587479447L110.41033196614583,79.99926037557869L110.4713677734375,89.64508108009238L110.5305119140625,114.28158025568331L110.53098483072917,118.97417785557613L110.83396184895834,97.13349296776528L110.83410963541667,123.36977241796811L111.0161234375,88.68735214687918L111.13741178385418,118.23941325828241L111.25804986979168,88.23860909410345L111.25853756510416,66.6449307314636L111.31750436197916,49.23975225503591L111.5614998046875,93.38769697760465L111.62142721354166,151.4638645626004L111.8037513671875,89.83703999381633L112.04553001302082,102.17214203104768L112.22721868489585,106.95001221816689L112.408271875,113.06710609525157L112.4685244140625,91.16501759895937L112.46867220052083,87.28545635671682L112.53035826822916,108.96872672022997L112.5910689453125,110.99667430355832L113.07415332031249,86.05243920006308L113.13566204427084,114.30013012292187L113.4375306640625,94.87617792556576L113.43800358072917,105.96740789080452L113.43816614583334,60.31609848571975L113.62032773437501,58.95790238042569L113.74049290364583,62.90526621173049L114.28508600260417,77.26747499707476L114.64893626302083,100.27519237111461L114.89182330729167,84.39491657680543L115.13487291666667,81.41431638161104L115.25489029947917,39.54391281257216L115.61730703125001,54.84008876779333L115.6177947265625,80.5253159958044L115.61857799479166,56.905294323865306L115.92012148437499,90.13067695705602L115.98117207031251,82.64041038875884L116.28398652343749,92.41766853815805L116.40653105468749,107.73132408329883L117.07161445312501,106.01764036688061L117.2529927734375,141.90595715923817L117.55517174479166,131.17830247307333L117.61747851562501,78.01601170333078L117.73717076822918,71.51164073077521L117.73813138020833,76.32308020787049L118.4032,93.18859736338365L119.37205846354166,85.2177583434801L119.3741126953125,91.29273540961185L119.55405748697916,49.61127218375211L119.67645423177083,59.269081953923376L119.79726966145833,27.566283102233314L120.28081217447917,84.22476550577316L120.40273600260416,90.67253427957755L120.52497018229167,101.91756719588112L120.94669361979166,114.37786702741224L121.43277805989584,101.14457052350322L121.73559251302083,85.7249796065279L122.09896985677084,142.34086846375567L122.0994427734375,115.02047325666351L122.70459876302083,134.67530757228752L122.70523424479165,109.82841311802314L122.94653997395834,91.8423745584223L123.00630481770833,121.05013092979478L123.12806608072917,102.40342500922748L123.18783092447916,99.79578946217784L123.2501376953125,106.90485607410687L123.4318263671875,142.34473501595133L123.55184375,115.71586483433069L123.73449303385416,94.97000958919486L123.854658203125,90.78663020202069L123.91585657552083,53.866144004957874L124.09787037760417,71.55177962445609L124.58125032552083,76.95677170467695L124.76357447916666,47.00463853323993L125.12553307291667,102.14279946796532L125.127276953125,101.04169877557842L125.246806640625,114.23994323808995L125.49112721354166,118.63781927772362L125.73290585937501,129.664491460354L126.1571564453125,103.78135055639198L126.7613666015625,73.64558584721169L126.8839111328125,101.64898837687201L127.00488912760416,101.94366611333523L127.36777877604166,107.00112662829912L127.54995514322917,118.3714806155015L127.55026549479166,70.17632384819254L127.73084576822917,76.41193968062507L127.85086315104166,80.95626608902586L128.09485859375,80.12891893439686L128.69905397135418,81.44992301376578L128.941941015625,77.18270169290766L129.30658932291666,96.78091797075105L129.36604381510415,78.37017930566415L130.09183789062502,90.25696953376192L130.2134513671875,132.772011564187L130.51610325520832,169.2953593528341L130.63866256510417,134.68406611827862L131.00140442708332,98.62260961620719L131.30389375000001,44.195954970479846L131.424221484375,53.53276083501116L131.42629049479166,65.72680262107812L131.48590755208332,89.56784791916961L131.78935748697916,84.73988563434777L132.031446484375,112.96875941439654L132.51498899739582,91.75900471703434L132.57555188802084,73.96691070239338L132.87900182291668,64.37904808834973L133.24190625,-4.648464092688528L133.72736998697917,38.42496674312761L133.90746256510414,40.12167035628664L134.21011445312502,50.84680556026967L134.69525305989583,55.32458177070539L134.7567765625,90.22146880458514L134.877104296875,94.55537187397428L135.1198287760417,63.82147794398209L135.11999134114583,75.72880396249276L135.18039166666668,82.56549273006972L135.66538248697915,74.03697240396056L135.72530989583333,88.51688689062085L136.14845208333335,59.66727171155691L136.39181204427084,75.57928598427573L137.23811119791665,84.57553476097465L137.72372272135416,80.90077855928962L137.7238852864583,87.1928840221759L137.84484850260415,90.30862453552292L137.84515885416667,101.32477016773007L138.26815325520832,103.82361636965042L139.11666920572915,96.5726526587009L139.11761503906249,60.53675327353474L139.17675917968748,84.21237417422837L139.17739466145832,123.927035562091L139.17754244791666,112.5634431152046L139.66126230468748,136.8117441310159L140.57065149739583,114.52040994776745L140.99348333333333,72.35208137060421L140.9950646484375,26.683244666522313L141.05435657552084,69.52224769315201L141.11540716145834,71.73395066078011L141.5387119140625,-5.118072788793256L141.90145377604165,64.4238054576815L142.26497890624998,95.29357756855748L142.26530403645833,80.91856078742114L142.38674016927084,85.06051756830486L142.44779075520833,77.76811726369203L143.59816054687502,68.08225411546589L143.71865084635417,92.83635829227866L143.900176953125,73.99813900024883L144.3260236328125,110.44897225875373L144.386276171875,100.77594184547748L144.7499638671875,73.16239254618593L144.87094186197916,66.50558675239287L145.05166992187497,34.54478722501534L146.50501673177084,58.809919033792326L146.62550703125,71.32679472995034L146.68719309895832,71.18345030412131L146.74839147135415,52.95830078623581L146.86871920572918,47.508576014989785L146.92944466145835,70.30446548359558L146.98951985677084,96.60688340295957L147.414420703125,60.233357812172386L147.6569826171875,57.699680598841695L148.50455273437498,38.71336705564312L148.56384466145835,97.85396284848618L148.56527819010415,100.94621041815722L148.80593365885414,122.27121051533624L148.80640657552084,122.36896806673086L148.867930078125,154.147261847778L148.98921842447916,40.3145393310331L149.10858554687502,80.03557257352898L149.6538141276042,106.65736215411799L149.95758919270833,93.4947796606117L149.95773697916667,90.23027313438189L150.07949824218753,0.39049380235155695L150.68307291666665,43.099730932913474L150.68385618489583,38.29635475272926L150.804346484375,111.7402365134145L150.9861977213542,79.83828576532343L151.04676061197918,82.85623295766233L151.35068346354169,73.78685953586002L151.53206178385418,91.49851674997883L151.65255208333332,97.24174438365743L151.77542174479166,128.18675918335498L151.95680006510418,110.83035870763528L152.50137838541667,89.21225400704151L152.5606703125,77.79196410993683L152.56130579427082,109.26495501768558L152.98477311197917,111.04898206898466L153.10749498697916,135.65254667789787L153.5296765625,126.53228084337485L153.59009166666667,131.17157754101277L153.65112747395833,76.27488545825263L154.92278561197915,188.1105103814187L155.10574524739584,103.20544237975626L156.317165625,96.28341334853039L156.49758333333332,196.58818200362944L157.52682734375,97.17841090298768L157.58914889322918,127.09826927760628L157.77003951822917,87.5382187039986L157.95189075520832,-4.249243313079717L158.1949255859375,44.65877682413037L158.25421751302085,50.697788983683594L158.2554884765625,53.370467471285025L158.49583359374998,78.6808804508127L158.4972671223958,95.08036608825873L158.73935611979167,44.16058632247382L158.79960865885417,66.09614211019802L159.40634596354167,61.56408066909525L159.58612819010418,68.52071219642426L159.70916041666666,73.75243030251458L160.01039355468748,95.61187256900733L160.49504446614583,88.94992840179192L160.85905729166666,92.57096424557797L160.91930983072916,117.39535617488302L161.221163671875,87.85749554259753L161.40301490885417,115.62486041389383L161.5853390625,65.88798563277494L161.82695514322916,78.56462332759192L162.31336471354166,77.81560173552143L162.37281920572917,133.8246367049612L162.79596139322916,120.55310309585636L162.79786783854166,79.18445932575372L162.9174123046875,31.46869416403615L163.40159029947918,76.71140783988994L163.46405963541667,70.49199273734854L163.52255351562502,82.60210614916477L163.885930859375,130.3604944796371L164.129778515625,116.59119599595286L164.25043138020834,69.18120444395059L164.30972330729168,110.79895843441605L164.3723404296875,103.30877299191886L164.91756901041668,87.42088726382283L165.33944023437502,101.94335622493352L165.34056341145833,113.01259800989925L165.70394075520832,106.36101723857989L165.76354303385418,90.21465053731875L165.76544947916668,88.3150422283775L165.88483138020834,88.12057655761382L165.94570462239582,121.68563328808392L166.12882682291666,135.4825154971914L166.188916796875,123.58510051814875L166.30924453125002,100.28334695487118L166.43147871093748,60.606492128306L166.85527115885418,86.82833547118166L166.97463828125,105.22247807899545L166.97576145833332,104.73697589255742L167.15759791666667,121.23727329026086L167.398578515625,81.30808006367766L167.3990662109375,61.970554459513735L167.52097526041666,72.98778803637629L168.0652580078125,101.1903855991679L168.24805507812502,103.95222120303104L168.24821764322917,141.60948276666858L168.36790989583332,95.8427498111013L168.5511798828125,86.08213249940687L168.91408430989583,92.57406310849368L168.914246875,102.25653661854852L169.0948271484375,123.51948514748855L169.21673619791665,113.11360072456063L169.27635325520833,37.30002836800969L169.822690234375,46.68085298105777L169.94412636718752,69.28951067756576L170.36648528645833,69.23162572146887L171.15474869791666,41.18661614820792L171.33501861979167,49.6526358552984L171.57758053385416,90.0953340564241L171.8807201171875,100.9364680557463L172.18417005208332,81.16334399975275L172.24567877604167,202.08186265551922L172.30513326822918,141.59976905504902L172.36537102864582,124.09968858824482L172.36569615885418,133.61456730796965L172.36664199218748,120.23368543939483L172.789473828125,109.00580255295282L172.78979895833334,105.9012648256095L173.15268860677085,101.07292243617178L173.15317630208332,89.24847546938642L173.2738143880208,50.08180483585177L173.940966796875,49.27343359405572L174.00025872395832,79.39461508197736L174.24345611979166,17.690214143158755L174.24425416666668,62.144478108349205L174.6680318359375,85.84459488230426L174.78710338541666,82.11280004847251L175.03046334635417,40.92366994166153L175.09182428385418,88.2622326333237L175.51607486979168,116.3378191899605L175.817618359375,118.01975845932478L175.87818125,131.26409616596067L175.93890670572918,79.41320051268676L175.99914446614585,66.56985763022864L176.12106829427083,105.01146177323116L176.24155859375,89.44959509466389L177.15127291666667,95.04795753841749L177.39352447916667,127.89217533315596L177.51465026041666,126.72850529510433L177.63403216145832,105.43191106669441L177.99724694010416,131.48676609385552L178.11980624999998,143.3028951199734L178.17862526041665,157.39554459353164L178.18004401041668,139.24959787172855L178.30133235677084,131.5501123888999L178.54311100260415,166.84096263788402L179.14810442708333,148.83881339481542L179.57378854166666,89.58598281260684L179.75357076822917,107.07534209252638L180.17814648437502,121.64307628318983L180.238709375,117.33506511085136L180.78282955729168,154.74834779758993L180.90459082031248,116.64670051933885L181.99550611979168,131.01576209460916L182.17688444010415,123.37530601430497L182.47873828125,159.2571629378284L183.327416796875,154.63955289339674L183.75072154947918,126.68488662626876L183.93400631510417,126.83724018957423L183.99456920572916,104.9897539642738L184.296423046875,102.23859281585477L184.41818430989585,102.15449538143281L184.72083619791667,122.47685665418643L184.78156165364584,110.74690986421243L184.84148906250002,123.5750185278703L184.96325032552082,165.47616923701375L185.3250463541667,135.05228082491777L185.567445703125,143.60803589061052L185.56760826822918,137.1141512954627L185.80954947916666,115.75639225798643L185.8708956380208,110.3490445199222L186.05227395833333,72.91744366269685L186.35539876302082,50.47769926008978L186.90142539062498,25.092767703636866L187.02144277343749,62.748968704830816L187.02159055989583,109.75130941612709L187.566819140625,133.09026290263645L187.93115709635416,88.24080981271725L188.17324609375,82.95896063038352L188.23317350260416,83.96794963140188L189.383705859375,41.41566783173789L189.80860670572918,67.05273951112149L189.92940735677084,70.66836801352878L190.170225390625,97.59168854975653L190.53472591145834,95.2250744537521L190.65599947916667,85.3370776104251L190.65679752604166,64.38246697605709L190.775854296875,137.52828974804487L190.95850358072917,123.8671096702503L191.13908385416667,133.62117393511198L191.92782018229167,139.09341531811754L192.23016171875,139.91423125499503L192.654101953125,138.70120424035457L193.01700638020833,111.87200255310778L193.07709635416666,96.32480611274389L193.1985324869792,109.6072723065855L193.3193479166667,105.46812614683844L193.62406881510418,118.18801007798038L193.68383365885418,61.640562812698775L193.6847794921875,74.14298862188971L193.74359850260416,67.54148537924411L193.86488684895832,27.12742054213254L193.86519720052084,39.529731374335455L193.9256123046875,32.46410196418978L193.92655813802082,74.7311464716434L194.22906223958336,77.02704366689134L195.25736041666667,65.54605450674164L195.56222910156248,78.9301145951534L195.68271940104165,91.36582721228338L196.04609674479167,5.339991428753763L196.166749609375,41.391902182196475L196.468766015625,56.72675888162547L196.71228854166668,-2.1387804959911705L197.07439492187498,43.79755777586453L197.2565712890625,69.19540350078061L197.31728196614586,89.70690536334651L197.50040416666667,70.9388059861675L197.61978606770833,68.50171357913106L198.16628561197916,99.02156083555141L198.22572532552084,77.88775333625745L198.46861236979166,92.93184183668978L198.589265234375,118.60441976821696L199.13433125,110.11566581811559L199.1354396484375,133.15014111093313L199.254658984375,104.81330561777644L199.62010533854166,96.55966623679642L199.74028528645835,98.3908171728578L199.80005013020832,90.91327151338787L199.86045045572916,103.01556198236237L200.1030271484375,99.68645499204587L200.46718776041666,71.25833592617933L200.95027213541667,80.22185650330013L201.01130794270833,16.831749268964842L201.0128892578125,56.94815919145273L201.13259628906252,4.583079022518461L201.55717200520834,49.30619920462043L201.85918841145832,36.209985859213305L202.22383671875,90.59518494343129L202.70786692708333,100.76751186715498L202.88843242187502,108.95378946991353L203.0100458984375,80.01290954021141L203.070919140625,51.495232777998L203.25166197916667,85.37155887062515L204.28170403645834,100.36842606836231L205.06918417968748,96.33729204630485L205.25071028645834,91.19163324804767L205.37263411458335,107.78737656951091L205.49375989583334,84.46681090828434L205.61392506510418,98.50049451202716L205.7353759765625,89.21871252866639L206.03770273437502,160.91870545326333L206.1001720703125,145.78121442015734L206.15899108072918,128.79108212061044L206.21955397135415,106.60991961928029L206.2818607421875,115.13774683492757L206.40171555989582,123.56580875168667L206.52332903645834,146.10958639634762L207.06886796875,149.54178623554688L207.12768697916667,117.86697708911817L207.12974121093748,112.66595098519312L207.49153723958335,113.79375519412577L207.49217272135417,97.78285959056849L207.61424433593749,76.50295861520328L207.97714876302084,114.27073779081081L208.03644069010417,94.98247665049641L208.217966796875,100.51603231487448L208.40092643229167,106.96790474023516L208.58166927083334,124.24180267841703L208.8240833984375,24.067369786447784L209.188569140625,85.90874286488341L209.3691494140625,115.37605603760441L209.5509858723958,119.61295918360925L209.5511484375,125.65525026163803L209.79323743489584,120.53826618134073L210.09748541666667,126.88029605795114L210.21766536458333,121.78792788304958L210.39998951822918,152.3926995890707L210.46038984375,136.808731552376L211.06569361979166,23.824263359384474L211.18681940104167,79.53698088756096L211.42892317708333,119.27087959410142L211.61155768229168,116.04001765747559L212.45880266927082,97.59640647607006L212.51841972656248,102.370775459033L212.70137936197918,112.23882105050362L213.24644537760418,106.41874232595319L213.42670052083332,96.48659883476672L213.850315625,153.74220432703976L213.8522220703125,115.7475294173249L214.335616796875,79.69406553424612L214.5791393229167,80.93185644509154L214.7592466796875,125.78146214155836L215.3648755859375,56.64628982210105L215.3662943359375,82.48587835656544L215.48694720052086,73.9032256209753L215.60807298177082,31.040331231077346L215.72983424479168,29.796141051023227L215.91152291666668,51.31644109397132L215.97097740885417,85.17656344052978L216.09177805989583,95.16197342075432L216.5169892578125,85.40461321880365L216.57771471354167,72.11630109673705L216.87846015625,101.16055173369966L216.93934817708333,92.11324358484494L217.24390651041668,94.37832687561804L217.30352356770834,72.35108459153827L218.08971796875,86.01705485783593L218.27252981770835,69.15969223756281L219.42369765625,49.89108828889542L219.54338990885418,115.40002592062142L220.08941653645834,130.58914567367205L220.270780078125,133.94240190246427L220.45373971354167,94.30918172394468L220.513031640625,-10.285472222935653L220.574392578125,-6.299406419600814L220.69488287760416,48.52310001911093L221.05826022135417,87.88153837615218L221.24105729166666,102.40019070289624L221.48330885416667,74.25801692883853L221.54260078124997,73.35544607585226L221.66356399739584,88.72614059730842L221.8465236328125,80.74417165278648L221.90534264322918,118.14188372366326L221.96559518229168,135.72424233888634L221.96781197916667,136.38548499221915L222.08799192708332,107.11362565681524L222.14806712239584,210.50425300247016L222.26951803385415,137.95963235985022L222.27062643229166,86.12723147020634L222.3310267578125,68.87115318266092L222.814421484375,99.27576086590355L222.87434889322918,138.53155163670237L222.87530950520835,115.15784494894964L223.0563626953125,87.23941361199749L223.05699817708333,65.43937194265342L223.11739850260417,99.16745300584343L223.23741588541668,123.31091304374861L223.66150390625,158.81602873995635L223.78469869791667,48.48580292817789L223.9662248046875,62.3838423453892L224.08544414062501,27.351705896359448L224.14616959635418,103.2366741378403L224.26729537760417,90.16769885978592L225.054450390625,82.18907373013705L225.2361390625,-1.0150480695807573L225.41831542968748,-0.664625046914864L225.41958639322917,20.248063783316752L225.90218307291667,2.303237504897993L225.96352923177085,43.162551630711505L226.75069902343748,47.42684899774892L227.29623795572917,166.70674866016753L228.44773092447917,153.38884721571407L228.689021875,128.01405343806692L228.809349609375,183.1522535816019L229.29481334635418,142.5998089521808L229.5985736328125,180.86701525848065L229.83908131510418,196.24960780757382L229.84098776041668,164.4416209598303L229.96036966145832,132.44871702347007L230.20245865885417,151.799804515393L230.6281427734375,126.6804313955358L230.98977623697917,78.76291422574484L231.41514999999998,6.882002414721541L231.65580546875,28.749158999767303L231.77805442708333,77.23309998598482L232.0196705078125,117.10850351725944L232.08038118489586,119.11889303388298L232.2015069661458,123.3856452087289L232.50401106770835,132.80831183074272L232.92938483072916,142.45531823596656L233.29243704427083,106.01766891694844L233.59414309895834,97.78370642144122L233.71526888020833,112.00869956727578L233.89648463541667,102.81380754352492L233.9576830078125,90.11898844028045L233.957993359375,49.658592506895474L233.95895397135416,56.59223521373531L234.68601901041666,47.3590893782488L235.35141276041668,60.94858036604252L235.53168268229166,156.27661645000924L235.95720423177082,131.70006645819993L235.95783971354166,154.2285667689444L236.37987350260414,119.96049772009346L236.56315826822916,101.05539560244394L236.80540983072916,85.59851672945821L237.2277539713542,55.37742296192377L238.016505078125,2.8250482315108343L238.49926432291667,67.21903491565158L238.62260690104168,100.72011774935041L238.68142591145835,-11.210655472019766L238.682696875,34.59882282077194L238.80286204427082,28.74610896792788L239.28800065104167,70.86860286611102L239.470014453125,102.43341650615801L239.77139537760416,105.58885968953768L239.7717205078125,110.84527597053801L240.19597109375,132.59078241124126L240.43838522135417,122.96923564939891L240.67983873697915,46.35659248614684L240.80065416666667,79.7399821868033L240.92225286458333,118.34639549368993L240.98424928385418,94.8433389091497L241.04401412760416,104.08203480046167L241.52804433593752,55.389214799922044L241.52899016927083,57.637608863868806L241.5900259765625,72.46498130438239L241.89284042968748,87.80386583144542L242.07342070312498,61.116380355141445L242.19550709635416,87.23496535417635L242.25447389322918,57.36937838365384L242.61959511718752,49.904677633718265L242.73897701822918,66.20351197420949L243.10315240885416,140.08434347314136L243.1627546875,16.190611495305347L243.2843681640625,103.79714561667653L243.52725520833332,107.96191985408433L243.58702005208335,86.19756958910378L243.89046998697916,91.27342721975263L243.95103287760415,96.5268214159522L244.07326705729167,92.23685263942987L244.25304928385415,90.80320028105733L245.161330078125,130.8166317816083L245.16260104166665,137.88515315676187L245.40470481770834,122.7213276499158L245.46510514322918,130.50371511251177L246.13145950520834,134.2705238685379L246.3733859375,128.35547836318688L246.3744943359375,105.57440729129785L246.43331334635417,87.29708092580465L246.433948828125,70.58651757426907L246.8575787109375,69.94933151118666L246.97997545572917,62.54498241832337L247.15975768229166,115.81012135014652L247.16150156249998,123.03173588757858L247.64553177083332,118.74025971235208L247.82785592447917,114.82224899491209L247.88841881510416,131.31917559055242L248.0081110677083,123.73305267319873L248.00858398437498,118.68871323600885L248.06867395833333,108.95106585928231L248.31092552083334,116.87436238932524L248.55285195312499,115.81095562156217L248.79559121093752,139.85883749590027L249.03847825520833,198.58143964108396L249.4612953125,157.28798385102917L249.9462861328125,134.0745196038383L250.06835774739582,110.86468037330495L250.18821256510418,127.033990746348L250.36973867187498,83.41357677317195L250.37180768229166,53.73697275430452L250.43237057291665,75.43857833834497L250.79543756510418,82.0103700583697L250.79574791666664,73.73902434603355L251.03705364583334,69.10659387577589L251.33970553385416,58.00524347687032L251.52139420572917,76.37178124925909L251.70371835937502,107.9026266384039L252.36943723958333,128.49281351341006L252.79352526041666,125.08341264385187L252.79401295572916,122.49486647640587L252.91450325520833,160.40411914260426L253.03577682291666,83.27280118303526L253.21762805989582,75.80933530982834L253.641730859375,72.47248483640425L253.76238372395832,88.19474178773787L253.7631669921875,78.67558859038216L253.822621484375,84.4920994428524L253.943747265625,108.29661047726105L254.4883403645833,32.33618215653263L254.6713,47.52189817473783L254.79226321614584,53.2741758730739L255.09507766927084,56.375928323159116L255.4589279296875,38.52980824239137L255.51758437499998,68.90612504353658L256.002885546875,80.61890615771391L256.85123893229166,58.24991960887505L256.9728524088542,87.42556076301058L257.15405338541666,53.71360383661343L257.275504296875,75.91387454962924L257.2759772135417,77.52483757655396" style="fill: none;" fill="none"></path></g></g></g></g><g opacity="0.2"><g><g><g><path stroke="rgb(255, 112, 67)" stroke-width="2px" d="M29.680323893229165,66.40921899676323L29.738980338541666,180.06776859079088L29.801287109375,83.12327429013592L29.9213044921875,127.21304507553577L30.223793815104166,123.93864036032132L30.466370507812503,401.6344350406102L30.46715377604167,76.57205531001091L30.586860807291664,254.39868797574724L30.647896614583335,-58.892900194440585L30.769820442708337,76.98890929136957L30.770130794270834,37.66378848041805L30.829585286458336,98.827644661335L31.436160026041666,105.71051324212125L31.67873671875,131.61300339230468L31.860100260416665,47.206524636064245L31.919392187499998,85.63504804883684L32.1015685546875,-168.71775637354176L32.161806315104165,13.410124080521683L32.40516627604167,-33.17940662588393L32.46462076822917,65.78223494972501L32.707345247395835,-43.85096500601088L32.76823326822917,140.52997440525465L32.7691791015625,50.88029855489731L32.889994531250004,13.796993391854386L33.435060546875,55.11144521406719L33.61642408854166,194.16077450343542L33.8574046875,95.1414954252541L33.979801432291666,-10.955830233437695L34.28277845052084,47.11158950839723L34.644722265625,103.05434182512441L34.828007031249996,70.88535224114145L34.82847994791667,78.80679113950048L34.8888802734375,153.75275043930327L34.94769928385417,103.09587511925825L35.12986087239583,145.74154592411858L35.13098404947917,-32.111051099641L35.31251015625,106.2822754590639L35.4336359375,65.48036490593637L35.67541458333333,84.72081515831607L35.79637779947917,60.2389217529978L35.917813932291665,89.27612349284546L36.342079296875,110.54941417809044L36.52344283854167,87.33091512322426L36.52393053385416,48.370079040527315L36.94818111979167,118.15385411253997L37.0680359375,111.53139422408172L37.127963346354164,-10.259114308016649L37.25068522135417,80.0924903090511L37.37181100260417,44.71861841848917L37.735025781249995,176.50079857451576L37.977277343749996,117.83676189397062L38.34081725260416,103.91457426255302L38.40089244791667,298.1469771521432L38.52234335937499,-140.22535683427543L38.64363170572917,36.662644130843006L38.825320377604164,62.4275916644505L39.1874267578125,-221.6581893989018L39.36942578125,-30.202205453600214L39.43031380208333,163.92698077644621L39.43062415364583,292.1259589535849L39.48960572916666,163.78311992117338L39.55174993489583,168.47266127382005L39.5519125,117.38523413453782L39.61200247395833,-106.91991662979132L39.6127857421875,211.1324971318245L39.733763736979164,132.01935821771622L40.39804908854167,90.09028094581194L40.58131907552083,-10.416053422859761L41.49008756510416,80.44792620624814L41.792266536458335,105.48088447483522L41.792739453124994,163.1484494294439L42.277242578125,80.31536329431194L42.57909641927083,-44.48392111914501L42.639821875,36.22757628985812L42.639984440104165,94.48669323059065L42.881910872395835,44.25185906461306L43.60788229166667,-27.940597210611628L44.15342122395833,131.04338132270743L44.15373157552083,125.84208665575301L44.336218294270836,140.02674211774553L44.638397265624995,97.39408175088465L44.9409013671875,145.95654030357088L44.942009765625,73.83854834522519L45.3662603515625,73.91876430809498L45.48707578125,131.52773472240995L45.84885703125,53.83246226395879L46.09143372395833,108.12284409361226L46.45608203125,-4.953560931341997L46.57737037760416,149.8403689307826L46.636337174479166,73.7115882486105L46.940747721354164,132.39711494743824L46.94105807291667,11.732489705085726L47.30300188802083,5.92032426595685L47.66670436197917,94.5174013307052L47.72757760416666,14.803623752934556L47.84728463541666,94.40304756856389L48.33400455729167,39.54422819188662L48.392823567708334,41.88178152271678L48.39409453125,-56.32778288636891L48.87732669270833,61.96590762478964L48.93772701822917,30.568280671324032L49.06012376302083,95.65424628183246L49.3014294921875,175.81502452918463L49.604554296874994,72.09870840183326L49.90800423177083,133.0625481733254L49.90832936197917,300.4063096046448L50.149620312500005,13.247487953730968L50.270435742187495,163.22181352972984L51.118463997395835,95.6919517783182L51.1788791015625,81.85044049578053L51.42127845052083,121.240504228643L51.90721510416667,26.529973345143446L52.45148307291667,85.70110908469984L52.63302395833333,65.26843756863049L52.99560325520834,113.47705662144082L53.17903580729167,122.53711325143064L53.238327734375,205.02944497551238L53.360414127604166,-105.58752419267387L53.72266829427084,61.690118742840625L53.78402923177083,86.88391822150776L54.267098828125,96.9807683852102L54.268694921875,-148.98570334911352L54.57054876302083,116.12109280484063L54.63080130208333,2.048503824642694L54.63174713541667,148.9934734404087L54.9337783203125,134.78349415745055L54.99561217447917,223.11929662738527L55.29666796875,167.6057508843286L55.84316751302084,356.9788138185229L56.0844732421875,67.12466497932161L56.20543645833333,51.97430947422981L56.56928671875,49.23620571408952L56.569759635416666,105.75782538152167L56.629849609375,107.71571026210273L57.17618658854167,222.02851476839612L57.65941875,53.41633924841881L57.779909049479166,118.77390340396336L58.2052828125,124.53417780569622L58.2647373046875,9.855889448097741L58.445790494791666,96.2205366167639L58.809478190104166,67.37145637188638L59.052365234375,90.05751370745045L59.23452682291666,11.266600728034945L59.35454420572916,157.23297289865357L59.59806673177083,111.39449826734406L59.65783157552083,62.35338356239454L59.65831927083333,154.90951138309072L59.71888216145833,120.5148981979915L59.840480859375006,174.21928093263082L60.5675458984375,138.74331685474942L60.989904817708336,-3.452232497079052L60.9914861328125,80.18492545826095L61.17159348958333,22.407032234328113L61.778493359375,165.47373459168844L62.0813078125,88.99965451125587L62.56485032552083,110.48313083818981L62.745903515625,87.46591207597936L63.292092708333335,124.8343504262822L63.2928759765625,99.13826462972378L63.35249303385417,270.57490125724246L63.716343294270835,-114.35795351437162L63.83715872395833,151.67503661768777L63.89692356770833,174.80694730792726L64.26077382812501,30.392276159354594L64.38253509114583,121.14746245316097L64.62478665364583,96.95464012505752L65.3520142578125,154.9944880434445L65.47250455729167,121.43961894086429L65.47299225260417,99.44645668007433L65.59268450520833,120.31666705012321L65.59379290364583,94.9986617841891L65.83573411458333,131.05446449773652L66.07829602864584,91.75784381798334L66.92537845052084,102.15474826776023L67.16699453125,135.62419150982583L67.28844544270834,43.52229489173206L67.65134986979166,155.62666044064932L67.77294856770834,109.02735071150319L68.07639850260416,79.0035170252834L68.07750690104166,17.81759928805485L68.13775944010416,138.19695004820824L68.50113678385418,-2.2632450035640375L68.62113938802082,-21.644449506487177L68.68218997395833,149.18121861985753L69.28702083333333,147.0913044512272L69.52990787760417,45.66176025356563L70.13569934895834,64.84843741995947L70.2561896484375,53.1647777387074L71.04301953125,104.25606293630386L71.04414270833334,60.850547982113696L71.52801035156249,126.1446537545749L71.83160807291667,4.243624321051982L72.01298639322917,123.87336963415146L72.37556569010415,118.79889565280506L72.49685403645833,64.4880298248359L72.5575794921875,97.43485028616018L72.79934335937499,160.32857922996794L72.98119459635417,135.16758655224527L72.98135716145833,135.27287954092026L73.04302845052084,34.95224440097806L73.285442578125,154.51978226218904L73.34504485677083,142.4004330422197L73.52785670572916,120.26443878880569L73.58651315104167,187.10948635850633L73.70890989583333,128.88829439239842L73.8289125,-12.051450031144299L73.82987311197915,111.99865941384009L73.83018346354167,46.248499734061085L74.01203470052083,111.27435235466277L74.37414108072917,-6.424610802105519L74.43533945312501,107.87124678918293L74.49495651041667,-39.04172234875816L74.73847903645834,79.64373946615628L74.73878938802083,279.960984655789L74.98104095052084,73.35046287519592L75.6462869140625,183.5237071599279L75.82924654947917,57.259512611797874L75.94877623697917,218.99834494931358L76.07006458333333,80.35842810784067L76.07149811197917,-15.982749990054543L76.13237135416666,23.653133026191142L76.251428125,354.1716036455972L76.55536575520834,155.059559072767L76.73578346354167,119.24807980018002L76.98025182291667,132.1156554285969L77.46380911458334,79.78689196280071L77.82813229166666,189.5928334593773L77.8871138671875,91.35492434352636L78.00918548177083,-76.25822154113226L78.130473828125,165.29800890173232L78.55314309895833,-17.886245267731823L78.61544986979168,107.38842314268862L78.7349943359375,81.8950237589223L78.9161953125,115.48306420339006L79.15908235677084,82.780483348029L79.64280221354166,-20.92835168327605L79.82576184895834,53.120867039476124L80.674115234375,123.1270535332816L80.79491588541667,14.425616460187058L81.52136022135416,84.00081759478364L81.76392213541666,142.45077548708235L82.06722428385416,44.405765048095134L82.12809752604166,43.66323941946027L82.248750390625,129.13728056635176L82.36844264322916,116.99625858664513L82.37034908854166,162.92165409667152L82.43091197916667,126.3783650036369L82.97517994791667,39.97175276705195L83.64106139322917,105.31290928327611L83.641696875,118.2840338498354L84.0645287109375,107.4920841748161L84.2457296875,102.04442170574994L84.42837897135418,29.866025984287234L84.54839635416666,63.87591754112924L84.73230182291667,96.85710846739155L84.79095826822916,149.09562779750144L85.15497109374999,54.66146416323525L85.27673235677084,63.44986243333135L85.45683971354165,153.9486002964633L85.57938424479165,45.622687493051785L86.36686438802083,228.139381476811L86.971059765625,65.3003890642098L87.21427194010417,176.4555766582489L87.21538033854168,154.71791921343123L87.33587063802084,136.78335635151183L87.39690644531251,144.05160193358148L87.63901022135417,94.5593616887927L87.87966569010418,130.9568994002683L88.60721842447917,141.4839563880648L88.60816425781249,-25.631528939519626L88.78890709635417,179.02421315227235L88.84867194010415,110.92975283733436L89.2123744140625,73.91575566785676L89.21379316406251,88.29606411606073L89.33350019531251,67.47361449684415L89.57638723958334,180.114444902965L90.48355963541667,-62.89713094915663L90.66539609374999,157.14897588321142L90.84693697916667,100.63933054976431L91.1514953125,124.03918583903993L91.39342174479167,17.22559986795696L91.99890286458333,54.490380483014235L91.99921321614583,131.1486121416092L92.12066412760417,63.67848141278539L92.2419376953125,77.92681944583143L93.08854720052084,105.55072844720313L93.15054361979166,138.27250704595022L93.21016067708334,96.96349131103074L93.45161419270833,120.41909269349915L94.11780598958333,-101.91845256941662L94.54127330729166,87.01283478204692L94.60278203125,95.85366666210548L95.14753769531251,45.47810697555539L95.449864453125,94.9858971993838L95.51155052083334,56.540784818785525L95.57242376302082,112.1016266878162L95.754275,40.707198577267775L96.17725462239584,238.38939111573356L96.48086712239582,102.29558411613107L96.78384414062499,-11.565485869135188L96.96409928385417,133.4063470193318L97.38900013020833,74.38900140140737L97.38914791666666,136.2298758157662L97.57132428385417,87.74455040586847L97.75252526041668,125.78243946816241L98.4190421875,94.11699313830053L98.54033053385416,95.61451791280082L98.72026054687501,136.36779474786348L99.1446884765625,143.8863471405847L99.26628717447917,231.3208612203598L99.32732298177083,119.01373178192547L99.32764811197917,99.12912637953247L99.44781328125,73.26659208323274L99.44797584635417,257.82985660008023L99.44844876302083,62.41517278126308L99.50964713541666,45.3039072709424L99.6897544921875,17.318673670291872L99.81102805989583,67.91457904662404L99.93358736979167,130.77782596221994L99.99335221354167,93.06698852777481L100.35658177083333,2.6806912933076887L100.41698209635418,104.97624017990061L100.5379453125,90.31089038614715L100.53921627604167,98.42807976422564L100.6601794921875,400.7815411090851L101.08317389322917,66.20620266028813L101.9925630859375,70.53388013797147L102.113378515625,119.70176843021596L102.17298079427084,191.82741857426507L102.29379622395834,79.40652787046773L102.41572005208333,9.991577804088564L102.47579524739582,27.939546729837133L102.71868229166667,79.3707331525428L103.26374830729166,137.0235690517085L103.50505403645833,10.104734327111913L104.049794921875,110.49164338729211L104.04995748697917,41.94876662748197L104.59582154947917,94.7840832828411L105.08048723958333,74.99448412656784L105.13977916666666,80.03568785956928L105.62506555989583,92.34756650562798L106.0502767578125,146.30960809758733L106.29047408854166,103.57509880619389L106.35214537760416,116.76561437972954L106.41365410156251,156.7915788122586L106.71536015625,18.87953437226156L106.89831979166667,250.4215557064329L107.14026100260416,60.91763858710016L107.321787109375,14.019312500953646L108.35119368489583,31.995434914316434L108.410323046875,87.92874343054635L108.83489876302083,99.59747518372855L108.8953138671875,70.7414141446352L109.19843867187501,30.409239087785977L109.19939928385416,102.1267970674006L109.56214114583332,85.50991442480257L109.68214375,122.19492516773087L109.92599140625,48.988623069865355L110.04584622395834,229.7131734916142L110.16744492187499,-72.85810012476787L110.28762486979166,142.99614380938667L110.41033196614583,65.65377712675503L110.4713677734375,104.11381213686296L110.5305119140625,151.23632901906967L110.53098483072917,126.01307425541538L110.83396184895834,64.372465636049L110.83410963541667,162.72419159327234L111.0161234375,36.66372174024579L111.13741178385418,162.56750492538725L111.25804986979168,43.23740284783497L111.25853756510416,34.254413187503786L111.31750436197916,23.131984540394342L111.5614998046875,159.60961406145776L111.62142721354166,238.578115940094L111.8037513671875,-2.6031968593597696L112.04553001302082,120.67479508689472L112.22721868489585,114.1168174988457L112.408271875,122.2427469108786L112.4685244140625,58.31188485452107L112.46867220052083,81.46611449335302L112.53035826822916,141.49363226549966L112.5910689453125,114.03859567855085L113.07415332031249,48.636086544820216L113.13566204427084,156.67166650721006L113.4375306640625,65.74024962953159L113.43800358072917,122.60425283866269L113.43816614583334,-8.16086562190739L113.62032773437501,56.92060822248459L113.74049290364583,68.82631195868764L114.28508600260417,98.81078817509115L114.64893626302083,134.7867684321744L114.89182330729167,60.574502885341644L115.13487291666667,76.9434160888195L115.25489029947917,-23.261692540986218L115.61730703125001,77.78435270062515L115.6177947265625,119.053156837821L115.61857799479166,21.475261815956628L115.92012148437499,139.9687509068421L115.98117207031251,71.40501053631306L116.28398652343749,107.08355576225689L116.40653105468749,130.70180740100997L117.07161445312501,103.44711479225329L117.2529927734375,195.7384323477745L117.55517174479166,115.08682044382607L117.61747851562501,-1.7274244512830705L117.73717076822918,61.75508427194187L117.73813138020833,83.54023942351341L118.4032,118.4868730966534L119.37205846354166,73.2614998136248L119.3741126953125,100.40520100880946L119.55405748697916,-12.910922655037496L119.67645423177083,73.75579660918031L119.79726966145833,-19.98791517530171L120.28081217447917,169.2124891110829L120.40273600260416,100.34418744028413L120.52497018229167,118.78511657033647L120.94669361979166,133.06831677470888L121.43277805989584,81.2946257676397L121.73559251302083,62.595593231064925L122.09896985677084,227.2647017495973L122.0994427734375,74.03988044602531L122.70459876302083,164.1575590457235L122.70523424479165,72.55807143662656L122.94653997395834,64.86331671902111L123.00630481770833,164.86176548685347L123.12806608072917,74.43336612837655L123.18783092447916,95.88433614160334L123.2501376953125,117.56845599200045L123.4318263671875,195.50455342871803L123.55184375,75.77255956189973L123.73449303385416,63.85122672149113L123.854658203125,84.51156112125942L123.91585657552083,-1.5145852906363473L124.09787037760417,98.08023305370338L124.58125032552083,85.06425982500825L124.76357447916666,2.0764387760843306L125.12553307291667,184.85004087005342L125.127276953125,99.39004773699811L125.246806640625,134.03730993185724L125.49112721354166,125.23463333717415L125.73290585937501,146.20449973429953L126.1571564453125,64.95663920044899L126.7613666015625,28.44193878344126L126.8839111328125,143.65409217136246L127.00488912760416,102.38568271803004L127.36777877604166,114.58731740074498L127.54995514322917,135.42701159630502L127.55026549479166,-2.1164113027708993L127.73084576822917,85.76536342927388L127.85086315104166,87.77275570162705L128.09485859375,78.88789820245334L128.69905397135418,83.43142913281918L128.941941015625,70.78186971162046L129.30658932291666,126.17824238751615L129.36604381510415,50.7540713080338L130.09183789062502,108.08715487590858L130.2134513671875,196.5445746098246L130.51610325520832,224.08038103580475L130.63866256510417,82.76712626644543L131.00140442708332,44.53042486310002L131.30389375000001,-37.444026998111184L131.424221484375,67.53796963180814L131.42629049479166,84.01786530017853L131.48590755208332,125.32941586630685L131.78935748697916,77.49794220711503L132.031446484375,155.31207008446967L132.51498899739582,59.94437267099107L132.57555188802084,47.27876968043188L132.87900182291668,49.99725416728427L133.24190625,-108.18973236424586L133.72736998697917,103.03511299685175L133.90746256510414,42.6667257760252L134.21011445312502,66.93450836624417L134.69525305989583,62.041246086359024L134.7567765625,142.56679935540473L134.877104296875,101.05622647805804L135.1198287760417,17.72063704899378L135.11999134114583,93.58979299025876L135.18039166666668,92.82052588143519L135.66538248697915,61.24419191479683L135.72530989583333,110.23675862061125L136.14845208333335,16.392848942960995L136.39181204427084,99.44730739335395L137.23811119791665,98.069907926023L137.72372272135416,75.38864425676209L137.7238852864583,96.63104221650532L137.84484850260415,94.98223530554345L137.84515885416667,117.84898861604077L138.26815325520832,107.57188567253095L139.11666920572915,85.69620709227664L139.11761503906249,6.482904195785494L139.17675917968748,119.72580552526883L139.17739466145832,183.49902764388494L139.17754244791666,95.51805444487503L139.66126230468748,173.18419565473283L140.57065149739583,81.08340867289475L140.99348333333333,9.099588504859355L140.9950646484375,-41.8200103896005L141.05435657552084,133.78075223309654L141.11540716145834,75.05150511222226L141.5387119140625,-120.39610796315333L141.90145377604165,168.73662282739366L142.26497890624998,141.59823573487145L142.26530403645833,59.356035615716664L142.38674016927084,91.27345273963041L142.44779075520833,66.82951680677277L143.59816054687502,53.553459393126616L143.71865084635417,129.96751455749785L143.900176953125,45.740810062204076L144.3260236328125,165.12522214651108L144.386276171875,86.26639622556311L144.7499638671875,31.74206859724859L144.87094186197916,56.52037806170327L145.05166992187497,-13.396412066050942L146.50501673177084,95.20761674695781L146.62550703125,90.10210827418736L146.68719309895832,70.96843366537775L146.74839147135415,25.620576509407556L146.86871920572918,39.33398885812076L146.92944466145835,104.49829968650425L146.98951985677084,136.0605102820056L147.414420703125,5.673069425991571L147.6569826171875,53.899164778845645L148.50455273437498,10.233896740845239L148.56384466145835,186.56485653775079L148.56527819010415,105.58458177266375L148.80593365885414,154.25871066110474L148.80640657552084,122.5156043938228L148.867930078125,201.81470251934869L148.98921842447916,-130.43454444408422L149.10858554687502,139.61712243727277L149.6538141276042,146.59004652500153L149.95758919270833,73.75090592035225L149.95773697916667,85.33351334503719L150.07949824218753,-134.36917519569403L150.68307291666665,107.16358662875635L150.68385618489583,31.091290482452905L150.804346484375,221.90605915444237L150.9861977213542,31.985359643186825L151.04676061197918,87.38315374617065L151.35068346354169,60.18279940315655L151.53206178385418,118.06600257115704L151.65255208333332,105.85658583417535L151.77542174479166,174.60428138290132L151.95680006510418,84.79575799405575L152.50137838541667,56.785096956150866L152.5606703125,60.661529264279764L152.56130579427082,156.4744413793087L152.98477311197917,113.72502264593328L153.10749498697916,172.5578935912677L153.5296765625,112.85188209159033L153.59009166666667,138.13052258746964L153.65112747395833,-6.070152665887576L155.10574524739584,-24.152159622737344L156.317165625,85.9003698016916L156.49758333333332,347.045334986278L157.52682734375,-51.936245747974965L157.58914889322918,171.97805683953422L157.77003951822917,28.19814284358705L157.95189075520832,-141.93043633869718L158.1949255859375,118.0208070299455L158.25421751302085,59.756307223013465L158.2554884765625,57.37948520268712L158.49583359374998,116.64649992010423L158.4972671223958,119.67959454442774L158.73935611979167,-32.2190833262035L158.79960865885417,98.99947579178428L159.40634596354167,54.76598850744111L159.58612819010418,78.95565948741776L159.70916041666666,81.60000746165002L160.01039355468748,128.40103596874644L160.49504446614583,78.95701215096882L160.85905729166666,98.00251801125705L160.91930983072916,154.63194406884057L161.221163671875,43.55070459416933L161.40301490885417,157.2759077208383L161.5853390625,-8.717326538903393L161.82695514322916,97.57957986981741L162.31336471354166,76.69206934741565L162.37281920572917,217.83818915912084L162.79596139322916,100.64580268219912L162.79786783854166,17.13149367059978L162.9174123046875,-40.10495357854026L163.40159029947918,144.57547835367066L163.46405963541667,61.16287008353642L163.52255351562502,100.76727626688911L163.885930859375,201.9980769753456L164.129778515625,95.93724827042647L164.25043138020834,-1.933782884052846L164.30972330729168,173.22558942011426L164.3723404296875,92.07349482817308L164.91756901041668,63.58905867167881L165.33944023437502,123.72705966659954L165.34056341145833,129.61646068734782L165.70394075520832,96.38364608160086L165.76354303385418,65.99510048542703L165.76544947916668,85.4656297649656L165.88483138020834,87.82887805146831L165.94570462239582,172.03321838378906L166.12882682291666,156.1778388108526L166.188916796875,105.73897804958479L166.30924453125002,65.33071660995483L166.43147871093748,1.0912098884582235L166.85527115885418,126.16110048549515L166.97463828125,132.8136919907161L166.97576145833332,104.00872261290039L167.15759791666667,145.98771938681602L167.398578515625,21.414290223802823L167.3990662109375,32.96426605326786L167.52097526041666,89.51363840167011L168.0652580078125,143.4942819433553L168.24805507812502,108.0949746088258L168.24821764322917,198.09537511212486L168.36790989583332,27.19265037775037L168.5511798828125,71.44120653186525L168.91408430989583,102.3119590221239L168.914246875,116.78024688363075L169.0948271484375,155.41390794089864L169.21673619791665,97.50477409016872L169.27635325520833,-76.42033016681674L169.822690234375,60.752089900629855L169.94412636718752,103.20249722232775L170.36648528645833,69.14479828732354L171.15474869791666,-0.880898211683558L171.33501861979167,62.35166541593415L171.57758053385416,150.75938135811262L171.8807201171875,117.19816905472959L172.18417005208332,51.50365791576249L172.24567877604167,383.45964063916887L172.30513326822918,50.87662865434373L172.36537102864582,97.84956788803851L172.36569615885418,147.8868853875569L172.36664199218748,100.16236263653263L172.789473828125,92.16397822328976L172.78979895833334,101.24445823459453L173.15268860677085,93.83040885201521L173.15317630208332,71.51180501920837L173.2738143880208,-8.668201114450198L173.940966796875,48.060876731361645L174.00025872395832,124.57638731385981L174.24345611979166,-74.86638726506916L174.24425416666668,128.82587405613492L174.6680318359375,121.39477004323686L174.78710338541666,76.51510779772485L175.03046334635417,-20.86002521855491L175.09182428385418,159.27007667081696L175.51607486979168,158.4511990249157L175.817618359375,120.54266736337117L175.87818125,151.13060272591454L175.93890670572918,1.6368570327758505L175.99914446614585,47.304843306541414L176.12106829427083,162.67386798773492L176.24155859375,66.10679507681301L177.15127291666667,103.44550120404789L177.39352447916667,177.15850202526366L177.51465026041666,124.98300023802689L177.63403216145832,73.48701972407954L177.99724694010416,170.56904863459724L178.11980624999998,161.02708865915025L178.17862526041665,178.534518803869L178.18004401041668,112.03067778902394L178.30133235677084,120.00088416465691L178.54311100260415,219.77723801136017L179.14810442708333,121.83558953021253L179.57378854166666,0.7067369392939611L179.75357076822917,133.30938101240568L180.17814648437502,143.494677569185L180.238709375,110.87304835234369L180.78282955729168,210.86827182769775L180.90459082031248,59.49422960196222L181.99550611979168,152.56935445751463L182.17688444010415,111.91462189384869L182.47873828125,213.07994832311357L183.327416796875,147.71313782674926L183.75072154947918,84.75288722557681L183.93400631510417,127.06577053453242L183.99456920572916,72.21852462632316L184.296423046875,98.11185109322624L184.41818430989585,102.02834922979986L184.72083619791667,152.9603985633169L184.78156165364584,93.15198967925139L184.84148906250002,142.81718152335714L184.96325032552082,228.32789530072893L185.3250463541667,89.41644820677382L185.567445703125,156.44166848914963L185.56760826822918,127.37332440274102L185.80954947916666,83.719753701772L185.8708956380208,102.23802291282585L186.05227395833333,16.77004237685881L186.35539876302082,16.818082656179143L186.90142539062498,-12.984629631042509L187.02144277343749,119.23327020662171L187.02159055989583,180.25482048307146L187.566819140625,168.0986931324005L187.93115709635416,20.966630177838425L188.17324609375,75.0361868568829L188.23317350260416,85.48143313292945L189.383705859375,-22.412754867758082L189.80860670572918,105.50834703019687L189.92940735677084,76.0918107671397L190.170225390625,137.9766693540982L190.53472591145834,91.67515330974544L190.65599947916667,70.5050823454346L190.65679752604166,32.950551024505046L190.775854296875,247.24702390602658L190.95850358072917,103.37533955355839L191.13908385416667,148.25227033240455L191.92782018229167,147.3017773926258L192.23016171875,141.1454551603113L192.654101953125,136.88166371839387L193.01700638020833,71.62820002223764L193.07709635416666,73.00401145219803L193.1985324869792,129.53097159734796L193.3193479166667,99.25940690721785L193.62406881510418,137.2678359746933L193.68383365885418,-23.18060808522361L193.6847794921875,92.89662733567611L193.74359850260416,57.639230515275685L193.86488684895832,-33.49367671353477L193.86519720052084,58.133197622639784L193.9256123046875,21.86565784897121L193.92655813802082,138.13171323282378L194.22906223958336,80.47088945976326L195.25736041666667,48.32457076651707L195.56222910156248,99.00620472777103L195.68271940104165,110.01939613797835L196.04609674479167,-123.69876224654064L196.166749609375,95.46976831236056L196.468766015625,79.72904393076897L196.71228854166668,-90.43708956241613L197.07439492187498,112.70206518364803L197.2565712890625,107.29217208815471L197.31728196614586,120.47415815719536L197.50040416666667,42.78665692039897L197.61978606770833,64.84607496857643L198.16628561197916,144.80133172018188L198.22572532552084,46.187042087316485L198.46861236979166,115.49797458733832L198.589265234375,157.11328666550773L199.13433125,97.38253489296352L199.1354396484375,167.70185405015945L199.254658984375,62.308052378041396L199.62010533854166,84.17920716532639L199.74028528645835,101.13754357694987L199.80005013020832,79.696953024183L199.86045045572916,121.16899768582412L200.1030271484375,94.69279450657112L200.46718776041666,28.616157327379483L200.95027213541667,93.66713736898132L201.01130794270833,-78.25341158253809L201.0128892578125,117.12277407518455L201.13259628906252,-73.96454123088293L201.55717200520834,116.3908794777734L201.85918841145832,16.56566584110257L202.22383671875,172.1729835697583L202.70786692708333,116.02600225274051L202.88843242187502,121.23320587405136L203.0100458984375,36.60158964565821L203.070919140625,8.718717634677859L203.25166197916667,136.1860480095659L204.28170403645834,122.86372686496803L205.06918417968748,90.29059101321867L205.25071028645834,83.4731450506619L205.37263411458335,132.68099155170577L205.49375989583334,49.485962416444494L205.61392506510418,119.55101991764137L205.7353759765625,75.29603955362523L206.03770273437502,268.4686948401587L206.1001720703125,123.07497787049839L206.15899108072918,103.3058836712901L206.21955397135415,73.33817586728505L206.2818607421875,127.9294876583985L206.40171555989582,136.20790162682533L206.52332903645834,179.925252863339L207.06886796875,154.6900859943458L207.12768697916667,70.3547633694751L207.12974121093748,104.86441182930554L207.49153723958335,115.48546150752476L207.49217272135417,73.76651618523258L207.61424433593749,44.583107152155435L207.97714876302084,170.9224065542221L208.03644069010417,66.05008494002477L208.217966796875,108.81636581144163L208.40092643229167,116.64571337827614L208.58166927083334,150.15264958568983L208.8240833984375,-126.1942795515061L209.188569140625,178.67080248253686L209.3691494140625,159.57702579668592L209.5509858723958,125.9683139026165L209.5511484375,134.71868687868118L209.79323743489584,112.86279006089484L210.09748541666667,136.39334087286676L210.21766536458333,114.14937562069723L210.39998951822918,198.29985714810235L210.46038984375,113.43277949733394L211.06569361979166,-145.6524389301028L211.18681940104167,163.10605717982565L211.42892317708333,178.87172765391213L211.61155768229168,111.19372475253684L212.45880266927082,69.93098970396179L212.51841972656248,109.5323289334774L212.70137936197918,127.04088943770954L213.24644537760418,97.68862423912755L213.42670052083332,81.58838359798703L213.850315625,239.6256125654493L213.8522220703125,58.75551705275262L214.335616796875,25.61386970962795L214.5791393229167,82.78854281135968L214.7592466796875,193.0558706862586L215.3648755859375,-47.056468657084906L215.3662943359375,121.24526115826198L215.48694720052086,61.02924651759011L215.60807298177082,-33.25401035376959L215.72983424479168,27.92985578094209L215.91152291666668,83.59689115839345L215.97097740885417,135.9667469603675L216.09177805989583,110.14008839109114L216.5169892578125,70.76857291587761L216.57771471354167,52.18383291363716L216.87846015625,144.7269276891436L216.93934817708333,78.54228136156286L217.24390651041668,97.7759518117777L217.30352356770834,39.3102211654186L218.08971796875,106.51601025728242L218.27252981770835,43.87364830715313L219.42369765625,20.98818236589429L219.54338990885418,213.66343236821038L220.08941653645834,153.372825303248L220.270780078125,138.9722862456526L220.45373971354167,34.859351456165285L220.513031640625,-167.17745314325612L220.574392578125,-0.3203077145985276L220.69488287760416,130.7568596771785L221.05826022135417,146.919195911714L221.24105729166666,124.17816919301237L221.48330885416667,32.04475626775195L221.54260078124997,72.00158979637283L221.66356399739584,111.78218237949268L221.8465236328125,68.7712182360036L221.90534264322918,174.2384518299784L221.96559518229168,162.09778026172094L221.96781197916667,137.37734897221839L222.08799192708332,63.20583665370941L222.14806712239584,365.5901940209525L222.26951803385415,29.142701395920312L222.27062643229166,8.378630135740536L222.3310267578125,42.987035751342745L222.814421484375,144.8826723907675L222.87434889322918,197.41523779290063L222.87530950520835,80.09728491732052L223.0563626953125,45.36176660656926L223.05699817708333,32.73930943863729L223.11739850260417,149.75957460062844L223.23741588541668,159.52610310060638L223.66150390625,212.07370228426797L223.78469869791667,-117.0095357894898L223.9662248046875,83.23090147120612L224.08544414062501,-25.196498777185184L224.14616959635418,217.06412650006158L224.26729537760417,70.56423594270433L225.054450390625,70.22113603566373L225.2361390625,-125.82123076915747L225.41831542968748,-0.13899051291602404L225.41958639322917,51.617097028664176L225.90218307291667,-24.61400191273009L225.96352923177085,104.45152281943177L226.75069902343748,53.823295048304956L227.29623795572917,345.6265981537955L228.44773092447917,133.41199504903383L228.689021875,89.95186277159623L228.809349609375,265.85955379690444L229.29481334635418,81.77114200804914L229.5985736328125,238.26782471793038L229.83908131510418,219.3234966312136L229.84098776041668,116.72964068821499L229.96036966145832,84.45936111892972L230.20245865885417,180.82643575327737L230.6281427734375,89.00137171575001L230.98977623697917,6.886638471058404L231.41514999999998,-100.93936530181344L231.65580546875,61.54989387733595L231.77805442708333,149.95901146531105L232.0196705078125,176.92160881417138L232.08038118489586,122.13447730881828L232.2015069661458,129.7857734709978L232.50401106770835,146.94231176376343L232.92938483072916,156.92582784380232L233.29243704427083,51.36119493842125L233.59414309895834,85.43276267818042L233.71526888020833,133.34618928602762L233.89648463541667,89.0214695078986L233.9576830078125,71.07675978541374L233.957993359375,-11.032001393181957L233.95895397135416,66.99269927399499L234.68601901041666,33.509370625019045L235.35141276041668,81.33281684773308L235.53168268229166,299.26867057595933L235.95720423177082,94.83524147048593L235.95783971354166,188.0213172350611L236.37987350260414,68.55839414681707L236.56315826822916,72.69774242596966L236.80540983072916,62.413198419979636L237.2277539713542,10.045782310622059L238.016505078125,-76.00351386410853L238.49926432291667,163.81001494186265L238.62260690104168,150.97174199989865L238.68142591145835,-179.10681530407498L238.682696875,103.31304025995945L238.80286204427082,19.96703818866183L239.28800065104167,134.0523437133857L239.470014453125,149.78063696622849L239.77139537760416,110.32202446460724L239.7717205078125,118.72990039203847L240.19597109375,165.20904207229614L240.43838522135417,108.5369155066354L240.67983873697915,-68.56237225873133L240.80065416666667,129.81506673778807L240.92225286458333,176.25601545401983L240.98424928385418,59.58875403233937L241.04401412760416,117.94007863742965L241.52804433593752,-17.650015200887424L241.52899016927083,61.010199959789006L241.5900259765625,94.70603996515274L241.89284042968748,110.81219262204L242.07342070312498,21.085152140685466L242.19550709635416,126.41284285272872L242.25447389322918,12.570997927870053L242.61959511718752,38.70762650881494L242.73897701822918,90.65176348494631L243.10315240885416,250.9055907215391L243.2843681640625,235.2069467987333L243.52725520833332,114.20908121019602L243.58702005208335,53.551044191632954L243.89046998697916,98.88721366572594L243.95103287760415,104.40691271025156L244.07326705729167,85.80189947464636L244.25304928385415,88.65272174349852L245.161330078125,190.83677903243475L245.16260104166665,148.48793521949224L245.40470481770834,99.9755893896467L245.46510514322918,142.17729630640576L246.13145950520834,139.9207370025771L246.3733859375,119.4829101051603L246.3744943359375,71.40280068346432L246.43331334635417,59.88109137756483L246.433948828125,45.52067254696573L246.8575787109375,68.99355241656303L246.97997545572917,51.43845877902848L247.15975768229166,195.70782974788122L247.16150156249998,133.86415769372667L247.64553177083332,112.30304544951235L247.82785592447917,108.94523291875208L247.88841881510416,156.0645654840129L248.0081110677083,112.35386829716818L248.00858398437498,111.12220408022404L248.06867395833333,94.34459479419247L248.31092552083334,128.75930718438966L248.55285195312499,114.21584546991757L248.79559121093752,175.93066030740738L249.03847825520833,286.6653428588595L249.4612953125,95.34780016594699L249.9462861328125,99.25432323305202L250.06835774739582,76.04992152750492L250.18821256510418,151.28795630591256L250.36973867187498,17.98295581340787L250.37180768229166,9.222066726003362L250.43237057291665,107.99098671440566L250.79543756510418,91.86805763840675L250.79574791666664,61.332005777529304L251.03705364583334,62.157948170389446L251.33970553385416,41.35321787851194L251.52139420572917,103.92158790784222L251.70371835937502,155.1988947221211L252.36943723958333,159.37809382591928L252.79352526041666,119.9693113395146L252.79401295572916,118.61204722523689L252.91450325520833,217.26799814190184L253.03577682291666,-32.42417575631825L253.21762805989582,64.61413650001798L253.641730859375,67.46720912626812L253.76238372395832,111.77812721473829L253.7631669921875,64.39685879434857L253.822621484375,93.21686572155781L253.943747265625,144.00337702887398L254.4883403645833,-81.60446032455991L254.6713,70.30047220204557L254.79226321614584,61.902592420578L255.09507766927084,61.02855699828693L255.4589279296875,11.760628121239762L255.51758437499998,114.47060024525439L256.002885546875,98.18807782897991L256.85123893229166,24.696439785616718L256.9728524088542,131.18902249421393L257.15405338541666,3.1456684470176413L257.275504296875,109.21428061915294L257.2759772135417,79.94128211694104" style="fill: none;" fill="none"></path></g></g></g></g></g></g><g transform="translate(63, 177)" clip-path="url(#clip_1)"><clipPath id="clip_1"><rect width="266" height="23"></rect></clipPath><g><g><line x1="0" y1="0" x2="0" y2="5" style="visibility: inherit;" fill="rgb(0, 0, 0)" stroke="rgb(204, 204, 204)" stroke-width="1px"></line><line x1="29.557291666666664" y1="0" x2="29.557291666666664" y2="5" style="visibility: inherit;" fill="rgb(0, 0, 0)" stroke="rgb(204, 204, 204)" stroke-width="1px"></line><line x1="59.11458333333333" y1="0" x2="59.11458333333333" y2="5" style="visibility: inherit;" fill="rgb(0, 0, 0)" stroke="rgb(204, 204, 204)" stroke-width="1px"></line><line x1="88.671875" y1="0" x2="88.671875" y2="5" style="visibility: inherit;" fill="rgb(0, 0, 0)" stroke="rgb(204, 204, 204)" stroke-width="1px"></line><line x1="118.22916666666666" y1="0" x2="118.22916666666666" y2="5" style="visibility: inherit;" fill="rgb(0, 0, 0)" stroke="rgb(204, 204, 204)" stroke-width="1px"></line><line x1="147.78645833333334" y1="0" x2="147.78645833333334" y2="5" style="visibility: inherit;" fill="rgb(0, 0, 0)" stroke="rgb(204, 204, 204)" stroke-width="1px"></line><line x1="177.34375" y1="0" x2="177.34375" y2="5" style="visibility: inherit;" fill="rgb(0, 0, 0)" stroke="rgb(204, 204, 204)" stroke-width="1px"></line><line x1="206.90104166666666" y1="0" x2="206.90104166666666" y2="5" style="visibility: inherit;" fill="rgb(0, 0, 0)" stroke="rgb(204, 204, 204)" stroke-width="1px"></line><line x1="236.45833333333331" y1="0" x2="236.45833333333331" y2="5" style="visibility: inherit;" fill="rgb(0, 0, 0)" stroke="rgb(204, 204, 204)" stroke-width="1px"></line><line x1="266.015625" y1="0" x2="266.015625" y2="5" style="visibility: inherit;" fill="rgb(0, 0, 0)" stroke="rgb(204, 204, 204)" stroke-width="1px"></line></g><g transform="translate(0, 8)"><text x="0" y="0" dx="0em" dy="0.95em" style="text-anchor: middle; visibility: hidden; font-family: &quot;Helvetica Neue&quot;, sans-serif; font-size: 12px; font-weight: 200;" fill="rgb(50, 49, 63)" stroke="none" stroke-width="1px">-2M</text><text x="29.557291666666664" y="0" dx="0em" dy="0.95em" style="text-anchor: middle; visibility: inherit; font-family: &quot;Helvetica Neue&quot;, sans-serif; font-size: 12px; font-weight: 200;" fill="rgb(50, 49, 63)" stroke="none" stroke-width="1px">0</text><text x="59.11458333333333" y="0" dx="0em" dy="0.95em" style="text-anchor: middle; visibility: inherit; font-family: &quot;Helvetica Neue&quot;, sans-serif; font-size: 12px; font-weight: 200;" fill="rgb(50, 49, 63)" stroke="none" stroke-width="1px">2M</text><text x="88.671875" y="0" dx="0em" dy="0.95em" style="text-anchor: middle; visibility: inherit; font-family: &quot;Helvetica Neue&quot;, sans-serif; font-size: 12px; font-weight: 200;" fill="rgb(50, 49, 63)" stroke="none" stroke-width="1px">4M</text><text x="118.22916666666666" y="0" dx="0em" dy="0.95em" style="text-anchor: middle; visibility: inherit; font-family: &quot;Helvetica Neue&quot;, sans-serif; font-size: 12px; font-weight: 200;" fill="rgb(50, 49, 63)" stroke="none" stroke-width="1px">6M</text><text x="147.78645833333334" y="0" dx="0em" dy="0.95em" style="text-anchor: middle; visibility: inherit; font-family: &quot;Helvetica Neue&quot;, sans-serif; font-size: 12px; font-weight: 200;" fill="rgb(50, 49, 63)" stroke="none" stroke-width="1px">8M</text><text x="177.34375" y="0" dx="0em" dy="0.95em" style="text-anchor: middle; visibility: inherit; font-family: &quot;Helvetica Neue&quot;, sans-serif; font-size: 12px; font-weight: 200;" fill="rgb(50, 49, 63)" stroke="none" stroke-width="1px">10M</text><text x="206.90104166666666" y="0" dx="0em" dy="0.95em" style="text-anchor: middle; visibility: inherit; font-family: &quot;Helvetica Neue&quot;, sans-serif; font-size: 12px; font-weight: 200;" fill="rgb(50, 49, 63)" stroke="none" stroke-width="1px">12M</text><text x="236.45833333333331" y="0" dx="0em" dy="0.95em" style="text-anchor: middle; visibility: inherit; font-family: &quot;Helvetica Neue&quot;, sans-serif; font-size: 12px; font-weight: 200;" fill="rgb(50, 49, 63)" stroke="none" stroke-width="1px">14M</text><text x="266.015625" y="0" dx="0em" dy="0.95em" style="text-anchor: middle; visibility: hidden; font-family: &quot;Helvetica Neue&quot;, sans-serif; font-size: 12px; font-weight: 200;" fill="rgb(50, 49, 63)" stroke="none" stroke-width="1px">16M</text></g><line x1="0" y1="0" x2="266.015625" y2="0" fill="rgb(0, 0, 0)" stroke="rgb(204, 204, 204)" stroke-width="1px"></line></g></g></g></g></svg>