<svg viewBox="0 0 330 200" xmlns="http://www.w3.org/2000/svg"><g><g><g><g><g><line x1="74.78125" y1="177" x2="69.78125" y2="177" style="visibility: inherit;" fill="rgb(0, 0, 0)" stroke="rgb(204, 204, 204)" stroke-width="1px"></line><line x1="74.78125" y1="159.3" x2="69.78125" y2="159.3" style="visibility: inherit;" fill="rgb(0, 0, 0)" stroke="rgb(204, 204, 204)" stroke-width="1px"></line><line x1="74.78125" y1="141.6" x2="69.78125" y2="141.6" style="visibility: inherit;" fill="rgb(0, 0, 0)" stroke="rgb(204, 204, 204)" stroke-width="1px"></line><line x1="74.78125" y1="123.89999999999999" x2="69.78125" y2="123.89999999999999" style="visibility: inherit;" fill="rgb(0, 0, 0)" stroke="rgb(204, 204, 204)" stroke-width="1px"></line><line x1="74.78125" y1="106.2" x2="69.78125" y2="106.2" style="visibility: inherit;" fill="rgb(0, 0, 0)" stroke="rgb(204, 204, 204)" stroke-width="1px"></line><line x1="74.78125" y1="88.5" x2="69.78125" y2="88.5" style="visibility: inherit;" fill="rgb(0, 0, 0)" stroke="rgb(204, 204, 204)" stroke-width="1px"></line><line x1="74.78125" y1="70.79999999999998" x2="69.78125" y2="70.79999999999998" style="visibility: inherit;" fill="rgb(0, 0, 0)" stroke="rgb(204, 204, 204)" stroke-width="1px"></line><line x1="74.78125" y1="53.10000000000001" x2="69.78125" y2="53.10000000000001" style="visibility: inherit;" fill="rgb(0, 0, 0)" stroke="rgb(204, 204, 204)" stroke-width="1px"></line><line x1="74.78125" y1="35.400000000000006" x2="69.78125" y2="35.400000000000006" style="visibility: inherit;" fill="rgb(0, 0, 0)" stroke="rgb(204, 204, 204)" stroke-width="1px"></line><line x1="74.78125" y1="17.69999999999999" x2="69.78125" y2="17.69999999999999" style="visibility: inherit;" fill="rgb(0, 0, 0)" stroke="rgb(204, 204, 204)" stroke-width="1px"></line><line x1="74.78125" y1="0" x2="69.78125" y2="0" style="visibility: inherit;" fill="rgb(0, 0, 0)" stroke="rgb(204, 204, 204)" stroke-width="1px"></line></g><g transform="translate(64.78125, 0)"><text x="0" y="177" dx="0em" dy="0.3em" style="text-anchor: end; visibility: hidden; font-family: &quot;Helvetica Neue&quot;, sans-serif; font-size: 12px; font-weight: 200;" fill="rgb(50, 49, 63)" stroke="none" stroke-width="1px">-2e-4</text><text x="0" y="159.3" dx="0em" dy="0.3em" style="text-anchor: end; visibility: inherit; font-family: &quot;Helvetica Neue&quot;, sans-serif; font-size: 12px; font-weight: 200;" fill="rgb(50, 49, 63)" stroke="none" stroke-width="1px">0</text><text x="0" y="141.6" dx="0em" dy="0.3em" style="text-anchor: end; visibility: hidden; font-family: &quot;Helvetica Neue&quot;, sans-serif; font-size: 12px; font-weight: 200;" fill="rgb(50, 49, 63)" stroke="none" stroke-width="1px">2e-4</text><text x="0" y="123.89999999999999" dx="0em" dy="0.3em" style="text-anchor: end; visibility: inherit; font-family: &quot;Helvetica Neue&quot;, sans-serif; font-size: 12px; font-weight: 200;" fill="rgb(50, 49, 63)" stroke="none" stroke-width="1px">4e-4</text><text x="0" y="106.2" dx="0em" dy="0.3em" style="text-anchor: end; visibility: hidden; font-family: &quot;Helvetica Neue&quot;, sans-serif; font-size: 12px; font-weight: 200;" fill="rgb(50, 49, 63)" stroke="none" stroke-width="1px">6e-4</text><text x="0" y="88.5" dx="0em" dy="0.3em" style="text-anchor: end; visibility: inherit; font-family: &quot;Helvetica Neue&quot;, sans-serif; font-size: 12px; font-weight: 200;" fill="rgb(50, 49, 63)" stroke="none" stroke-width="1px">8e-4</text><text x="0" y="70.79999999999998" dx="0em" dy="0.3em" style="text-anchor: end; visibility: hidden; font-family: &quot;Helvetica Neue&quot;, sans-serif; font-size: 12px; font-weight: 200;" fill="rgb(50, 49, 63)" stroke="none" stroke-width="1px">1e-3</text><text x="0" y="53.10000000000001" dx="0em" dy="0.3em" style="text-anchor: end; visibility: inherit; font-family: &quot;Helvetica Neue&quot;, sans-serif; font-size: 12px; font-weight: 200;" fill="rgb(50, 49, 63)" stroke="none" stroke-width="1px">1.2e-3</text><text x="0" y="35.400000000000006" dx="0em" dy="0.3em" style="text-anchor: end; visibility: hidden; font-family: &quot;Helvetica Neue&quot;, sans-serif; font-size: 12px; font-weight: 200;" fill="rgb(50, 49, 63)" stroke="none" stroke-width="1px">1.4e-3</text><text x="0" y="17.69999999999999" dx="0em" dy="0.3em" style="text-anchor: end; visibility: inherit; font-family: &quot;Helvetica Neue&quot;, sans-serif; font-size: 12px; font-weight: 200;" fill="rgb(50, 49, 63)" stroke="none" stroke-width="1px">1.6e-3</text><text x="0" y="0" dx="0em" dy="0.3em" style="text-anchor: end; visibility: hidden; font-family: &quot;Helvetica Neue&quot;, sans-serif; font-size: 12px; font-weight: 200;" fill="rgb(50, 49, 63)" stroke="none" stroke-width="1px">1.8e-3</text></g><line x1="74.78125" y1="0" x2="74.78125" y2="177" fill="rgb(0, 0, 0)" stroke="rgb(204, 204, 204)" stroke-width="1px"></line></g></g><g transform="translate(74, 0)" clip-path="url(#clip_0)"><clipPath id="clip_0"><rect width="255" height="177"></rect></clipPath><g><g><g><line x1="0" y1="0" x2="0" y2="177" fill="rgb(0, 0, 0)" stroke="rgb(60, 60, 60)" stroke-width="1px" opacity="0.25"></line><line x1="28.357638888888886" y1="0" x2="28.357638888888886" y2="177" fill="rgb(0, 0, 0)" stroke="rgb(60, 60, 60)" stroke-width="1px" opacity="0.25"></line><line x1="56.71527777777777" y1="0" x2="56.71527777777777" y2="177" fill="rgb(0, 0, 0)" stroke="rgb(60, 60, 60)" stroke-width="1px" opacity="0.25"></line><line x1="85.07291666666666" y1="0" x2="85.07291666666666" y2="177" fill="rgb(0, 0, 0)" stroke="rgb(60, 60, 60)" stroke-width="1px" opacity="0.25"></line><line x1="113.43055555555554" y1="0" x2="113.43055555555554" y2="177" fill="rgb(0, 0, 0)" stroke="rgb(60, 60, 60)" stroke-width="1px" opacity="0.25"></line><line x1="141.78819444444446" y1="0" x2="141.78819444444446" y2="177" fill="rgb(0, 0, 0)" stroke="rgb(60, 60, 60)" stroke-width="1px" opacity="0.25"></line><line x1="170.14583333333331" y1="0" x2="170.14583333333331" y2="177" fill="rgb(0, 0, 0)" stroke="rgb(60, 60, 60)" stroke-width="1px" opacity="0.25"></line><line x1="198.50347222222223" y1="0" x2="198.50347222222223" y2="177" fill="rgb(0, 0, 0)" stroke="rgb(60, 60, 60)" stroke-width="1px" opacity="0.25"></line><line x1="226.8611111111111" y1="0" x2="226.8611111111111" y2="177" fill="rgb(0, 0, 0)" stroke="rgb(60, 60, 60)" stroke-width="1px" opacity="0.25"></line><line x1="255.21875" y1="0" x2="255.21875" y2="177" fill="rgb(0, 0, 0)" stroke="rgb(60, 60, 60)" stroke-width="1px" opacity="0.25"></line></g><g><line x1="0" y1="177" x2="255.21875" y2="177" fill="rgb(0, 0, 0)" stroke="rgb(60, 60, 60)" stroke-width="1px" opacity="0.25"></line><line x1="0" y1="159.3" x2="255.21875" y2="159.3" fill="rgb(0, 0, 0)" stroke="rgb(60, 60, 60)" stroke-width="1px" opacity="0.25"></line><line x1="0" y1="141.6" x2="255.21875" y2="141.6" fill="rgb(0, 0, 0)" stroke="rgb(60, 60, 60)" stroke-width="1px" opacity="0.25"></line><line x1="0" y1="123.89999999999999" x2="255.21875" y2="123.89999999999999" fill="rgb(0, 0, 0)" stroke="rgb(60, 60, 60)" stroke-width="1px" opacity="0.25"></line><line x1="0" y1="106.2" x2="255.21875" y2="106.2" fill="rgb(0, 0, 0)" stroke="rgb(60, 60, 60)" stroke-width="1px" opacity="0.25"></line><line x1="0" y1="88.5" x2="255.21875" y2="88.5" fill="rgb(0, 0, 0)" stroke="rgb(60, 60, 60)" stroke-width="1px" opacity="0.25"></line><line x1="0" y1="70.79999999999998" x2="255.21875" y2="70.79999999999998" fill="rgb(0, 0, 0)" stroke="rgb(60, 60, 60)" stroke-width="1px" opacity="0.25"></line><line x1="0" y1="53.10000000000001" x2="255.21875" y2="53.10000000000001" fill="rgb(0, 0, 0)" stroke="rgb(60, 60, 60)" stroke-width="1px" opacity="0.25"></line><line x1="0" y1="35.400000000000006" x2="255.21875" y2="35.400000000000006" fill="rgb(0, 0, 0)" stroke="rgb(60, 60, 60)" stroke-width="1px" opacity="0.25"></line><line x1="0" y1="17.69999999999999" x2="255.21875" y2="17.69999999999999" fill="rgb(0, 0, 0)" stroke="rgb(60, 60, 60)" stroke-width="1px" opacity="0.25"></line><line x1="0" y1="0" x2="255.21875" y2="0" fill="rgb(0, 0, 0)" stroke="rgb(60, 60, 60)" stroke-width="1px" opacity="0.25"></line></g></g></g><g><g><line x1="0" y1="159.3" x2="255.21875" y2="159.3" fill="rgb(0, 0, 0)" stroke="rgb(153, 153, 153)" stroke-width="1.5px"></line></g></g><g><g><line x1="28.357638888888886" y1="0" x2="28.357638888888886" y2="177" fill="rgb(0, 0, 0)" stroke="rgb(153, 153, 153)" stroke-width="1.5px"></line></g></g><g><g><g><g><g><path stroke="rgb(255, 112, 67)" stroke-width="2px" d="M32.25202179513889,-47.30075579126964L32.483221625,7.525083350006867L32.60065060763889,48.17702879756496L32.89133058506945,55.197997035984585L33.23858405208333,95.06901996144352L33.41442977083333,105.38274705996399L33.414883493055555,123.06158554542235L33.472832328125,133.70324279281732L33.52926402951389,135.40294584151295L33.704032157986106,119.62527917675058L33.705109748263894,97.66116834513737L33.8792681875,109.22608629624024L33.995477791666666,121.58842788036691L34.22744327777777,133.02445652259925L34.343496914930554,131.89684972034038L34.460004274305554,139.88113828531868L34.86704982291667,142.1208000365569L35.04105229513889,139.98023695114207L35.04152019618055,137.8598572393958L35.448551565972224,129.60387536140496L35.563541791666665,140.7372841231953L35.621036904513886,133.77620679260966L35.738777821180555,135.85006833207675L35.854987425347225,92.16867999312785L36.20346027083333,96.03210192239804L36.435879479166665,115.59641945646854L36.78466425868055,128.69452765710233L36.842301159722226,-68.01309832918966L36.958822697916666,10.851217652059574L37.075188269097225,68.67254229174004L37.24950267534722,104.26155289089898L37.596912109375005,29.66144458367461L37.77152427083333,58.46603686561252L37.829941006944445,94.02902265658L37.830238762152774,22.198879488747906L37.88682643055555,69.29639909901572L37.946448366319444,94.40368261831433L37.94660433333333,119.32398397995168L38.00425541319444,-668.2347044827206L38.758398461805555,-90.30620797276299L38.93423000173611,6.537997048545066L39.806113967013886,66.84828014534199L40.09602828819445,97.47924306417677L40.096482010416665,99.42141230004012L40.56132042708333,121.61104661551715L40.85092281423611,120.73245694714285L40.90918358333333,131.068987010709L40.90933955034722,73.83901498737427L41.14144682465278,106.5924972055412L41.837952972222226,21.696025831434497L42.361349913194445,47.62372910991067L42.361647668402775,82.07945259648787L42.53672773090278,111.50794540943313L42.82664205208333,129.26924059551004L43.11686830729167,133.89382079022533L43.11793171875,134.888349004188L43.52496308854167,87.36234646098991L43.6408749375,108.13332553887363L43.987972437500005,124.04883168449865L44.22070357986111,131.70331739908505L44.57055177083333,140.5256924809392L44.686917342013885,141.11534946962541L44.74349083159722,145.948859491912L45.03554615451389,140.6955109780833L45.03584390972222,143.5207498103953L45.38309737673611,141.69197296803995L45.73203812326389,96.59333138335231L45.790440680555555,87.58804075956182L45.905289118055556,98.11850504505911L46.37225435763889,117.76402952246926L46.42868605902778,128.10603444933201L46.4299054375,132.11946155158762L46.89352447569444,141.71998135932114L46.951473310763895,140.7793231868251L47.06890229340278,93.91320290169143L47.30041405729167,113.75595580352149L47.591235822916666,128.71900859275547L47.88236952256944,134.48524456617344L47.882681456597226,50.52790102196997L48.11417904166667,25.527258323517515L48.230090890625,68.04021941375709L49.04369990798612,97.864900277455L49.101662921875,121.48514398650786L49.33422391840278,132.31312611734296L49.800437680555554,129.24049593378484L50.32261524305556,134.41283862369045L50.49678786111111,135.38935411066882L50.84465101736111,140.0651108398455L51.020638524305554,147.22957187875485L51.07752394791667,140.5979907396529L51.19465517534722,137.9126684605591L51.542206397569444,145.77681255640292L51.601076855902775,150.24870061772089L52.06453992708333,137.63854295315306L52.06607123958334,-93.6155373014393L52.35567362673611,4.490279499285407L52.413480673611105,-26.041157250125423L52.414388118055555,43.9063384884621L52.70416065104167,88.53600457529548L52.763484831597225,93.15605097281752L53.0523215625,114.89365113672713L53.576640126736116,111.7214541512741L53.808151890625,123.70519396054824L53.92420552777777,137.30973172189957L54.2732880625,141.73814275173362L54.27374178472222,139.21523823049043L54.331392864583336,143.84068578283842L54.85555546180556,137.5561192082292L55.3191745,140.4356212546195L55.43477441493055,147.21400661649295L55.842883375,139.3389509780563L55.899924765625,131.69219302524334L56.073629482638886,140.10992426431824L56.42255605034722,138.359454154803L56.65558494791667,145.93074527715953L56.83035307638889,145.67126082696578L56.94549926909722,147.82454192055445L57.17913785590277,140.41134063342992L57.23647700173611,141.52008097001317L57.23694490277778,139.17645319532767L57.29504970486111,146.73785882770764L57.41171303125,150.3271355885748L58.10926841145833,152.74097591957354L58.51448489236111,121.45118295478987L58.51600202604166,136.38847971237902L58.68879929861111,133.65376114393968L59.271066697916666,141.4497311020945L59.561590708333334,146.35365998966478L60.02550750173611,145.99118889237948L60.19921221875,150.3370498553476L60.72323302777778,151.97252452306535L60.723984505208335,146.6062154257424L60.78118186284723,126.13573798152072L61.13026439756945,84.92429354078925L61.24617624652778,99.05123999046077L61.303515392361106,119.95175062527085L61.652597927083335,127.18975806404174L61.76941722048611,139.85545988193263L62.001836428819445,143.0962651862261L62.69954777604167,131.61868516911534L62.81514769097222,139.09066343940617L62.81561559201389,146.59406738674977L62.930449850694444,139.9844505310399L62.93151326215278,135.210498239316L63.16363471527778,143.54948641193488L63.39635167881944,147.74203477627808L64.20905325173611,151.81355445217292L64.44086277083333,153.29663349983835L64.55738430902778,150.31334822877363L64.90555939930555,152.78026192679545L65.02222272569445,149.2781690225378L65.31335642534722,152.9694900505288L65.31441983680556,151.23676980037968L65.37222688368055,122.18817393256042L65.72085569618056,132.6010033634035L65.83598771006945,126.32411089578699L65.89456041319444,137.90755341407598L66.47484277777778,132.97195524140673L66.70787167534723,139.43306784886647L67.28907566319444,143.4376067813645L67.404675578125,140.25023375558692L68.15957010416666,145.85365497462465L68.16064769444445,149.36660830937754L68.62487642187499,153.21365422756668L68.91615190972222,154.49570435907242L69.0901685607639,150.4974518164388L69.43803171701389,144.14052349419433L69.55439728819444,149.29181039664266L69.61265805729167,152.92743783192222L69.84460936458332,148.9763787401904L70.01907973784722,147.07078547868795L70.01923570486112,151.37193515098895L70.07840391840277,153.8740788033164L70.31097909374999,153.20130955917818L70.36816227256944,154.8535799683876L70.54355426909721,154.63581309002296L70.59983000347222,152.01793914214483L70.7172589861111,153.3697414127221L70.832391,153.87765400633586L70.83331262326388,154.8202889720431L70.83361037847223,156.02134168668982L71.00808075173612,156.86767894760433L71.3554901857639,153.17625713738448L71.41420467708333,144.37330261766255L71.47140203472222,74.66511223375402L71.70504062152779,104.05078010081915L71.70533837673612,25.717908724887195L71.93775758506945,74.37492742623718L72.57600296354167,100.29251967823535L72.75153674826389,121.82315468252506L72.86621503993057,129.2642104335401L72.9825806111111,140.33255412183587L72.98395595659723,143.7446713299912L73.04235851388889,145.1425383398469L73.15658308333333,28.05388084565314L73.44818468402778,76.2448131993638L73.62127971180556,103.7067396530551L73.85582574305556,122.68147700947355L74.31975671527779,136.99151315638738L74.66929297222222,113.06497843537073L74.725880640625,130.981309408386L74.84299768923611,88.03901026930777L74.95936326041667,113.90279228879396L75.36487749652777,102.61116291703438L75.42465539930556,124.90998027881213L75.53934786979167,137.35207666666756L75.713194375,145.76353036845438L75.94622327256945,150.62780835848037L76.41031021180555,152.48869641275195L76.58584399652777,153.91794351746452L77.39976494791667,155.26713060278763L77.51566261805556,136.54953883978544L78.21262248784721,144.85082075349374L78.44533945138889,149.88752465861108L78.73633136284721,153.2113270554961L78.79473392013888,155.24208356600184L78.91048980208335,156.02671546265103L79.0253240607639,156.8668405789286L79.02715312847222,154.5314422620289L79.08525793055556,154.94293339247136L79.60743549305556,144.75938037533837L80.24629056076388,149.023012557597L80.24690025,152.66522644093018L80.652570453125,148.49396544014053L80.82641695833334,151.1340880870993L81.00165298784722,149.00351176342107L81.11679918055555,152.57149590424015L81.29324040972223,150.1025427604154L81.34951614409722,150.76949382435424L81.69875464583333,152.67469968508004L81.81557393923612,153.62905378829902L81.98837121180554,154.38942869783415L82.10594198263888,151.60141675193162L82.8614603767361,142.70895178481186L83.44113305208334,144.04131087263687L83.67447388368055,149.71140151176206L83.6755372951389,152.99449206466397L83.79113721006945,151.28041215535205L83.849695734375,148.66361356182088L84.08197315451389,145.97642924067137L84.31286105034722,150.03062439272065L85.01088433159723,152.89848076759944L85.01179177604166,146.94151521929882L85.12800138020833,147.27394469107148L85.18519873784722,144.5899484217537L85.24253788368055,150.29439737694418L85.59147863020833,152.696936195215L85.592839796875,152.12347261452308L85.707688234375,151.4262739440582L85.94071713194445,141.3445612667222L85.99943162326389,139.7888756568879L86.81106978472222,146.68613244300627L86.98552597916667,148.59928465687713L87.15969859722223,151.0397830606471L87.45189570833334,153.9610841382949L87.68400298263889,153.00237278035576L88.26490921527778,150.83547731508435L88.2652069704861,152.0276271913951L88.38172850868055,154.82457605263966L88.49807990104166,150.81435119419154L89.31032775173611,149.9556181082797L89.36980789930556,151.92695794296128L89.42700525694445,154.75194698350558L89.65865880902777,156.0564641692421L90.29781163194444,149.86359305921812L90.70409152430555,151.39561237886235L90.76310377083333,152.76498731035016L91.285749234375,150.0782965529257L91.57580534375,150.18397869638707L91.63498773611111,153.01693221780727L91.69339029340277,154.13643521273244L91.86786066666667,154.45922786792977L92.27367265798611,126.43425071286552L92.56496232465277,136.9536582804828L92.85564230208333,136.19326496973167L93.02858136284723,143.1164073180165L93.43623660069444,147.95021679756059L93.43637838888888,152.3004409511718L93.61116069618056,121.36733328972878L93.7850072013889,124.84424981996193L94.42447195833334,138.3349435843217L94.54083752951388,145.53588005319938L94.71346465625001,150.36108515319054L95.120666171875,152.3893792062671L95.23732949826389,141.05375476538106L95.29588802256944,148.1014706426206L95.29619995659722,151.1736380897301L95.4114879375,154.30046024466915L95.4116439045139,154.49404912579485L95.41209762673611,154.150273132374L95.47081211805555,154.09307424908695L95.643609390625,140.719673722069L95.75996078298611,146.84350657557164L95.87754573263888,148.71496784310898L95.93488487847223,149.8076235295103L96.28337190277777,150.9608047683272L96.34132073784723,151.95120959415885L96.457374375,152.32511414426895L96.45859375347223,154.414091700023L96.574647390625,-187.27075596409696L96.9804735607639,-53.32121942580591L97.85295303645833,28.917561261883066L97.96886488541668,79.68165944194504L98.02604806423612,109.40454883678309L98.14195991319444,126.34839016797275L98.2589351736111,137.59506874609147L98.31657207465277,137.41105610139687L98.54960097222222,145.24525471621598L99.07254419097222,150.82924216087264L99.30405595486111,150.64516330876327L99.82668723958334,153.8971244860536L99.82684320659722,155.23512898372303L100.35055208159721,154.34782824743988L100.81554646527778,154.35595948975475L100.87243188888888,155.79920570798154L101.3380217829861,151.4890055943407L101.74597477604166,152.0784267317207L101.97642312847222,154.319523640089L102.03559134201389,154.73389707382503L102.09460358854167,145.2930753375276L102.3840641875,150.33542183269157L102.55959797222222,152.81166881766632L102.79171942534721,154.09432225716438L102.96587786458333,150.69724361118944L103.95350353298612,150.15797658749207L104.01023298958334,146.48889746626543L104.41757629340277,151.54555333195617L104.47553930729167,140.64090626782396L104.76636107291667,146.85299934948753L104.76728269618056,150.61716198853216L105.11530181944444,153.24566103090018L105.23043383333334,145.92157877750947L105.46438435416667,149.36656264714534L105.57937457986111,149.93638042357628L105.69603790625,152.71830118554814L105.81134006597222,146.8041821573126L105.92906680381945,150.71305659762714L105.987625328125,152.94045759104736L106.04436896354167,151.93343202366123L106.04482268576389,144.14895791036972L106.33550266319445,146.76825038480598L106.33564445138889,147.10249604190435L106.51027079166667,150.3749134172311L106.62663636284722,151.7643648530062L106.74237806597223,154.77111697563066L106.74284596701389,155.85554667835635L106.79941945659722,152.67453878334845L107.03351176562501,154.88363784958383L107.09100687847221,145.44160327077896L107.26593097395833,140.40217604292587L107.49789646006944,147.39410175465008L107.67221086631945,151.2162328941383L107.84591558333332,153.88476557494863L107.90372263020834,155.62415389961706L107.90386441840278,156.7732637090968L107.96304681076388,155.7277617465059L108.02129340104166,156.4266601022382L108.48477065104166,153.5759551725566L108.54378289756946,153.3616734542245L108.83339946354167,154.37446201826805L108.83385318576389,155.9026639629672L108.83400915277778,155.94818140944773L109.00877728125,156.20512189199144L109.12406526215277,156.5864745717899L109.64655475868055,155.97258925369448L109.99563729340277,154.97711063248695L110.22866619097223,156.67375459020369L110.46185105555556,157.5447841377701L110.5769972482639,151.68913075581224L110.9247044375,153.01491230296642L110.92517233854167,154.94717502736296L110.92592381597221,155.51989174024482L111.21522844791666,153.47185686514882L111.27380115104167,152.85281176479634L111.56432516145833,151.8667781751688L111.68189593229167,154.63374272255592L112.31998534375,156.48803318124038L112.49400199479167,151.44371765220868L112.78391631597222,153.968576571082L112.84369421875,147.08038043272714L112.95852847743056,151.8846092810576L112.95945010069444,153.9557398503613L113.59752533333332,154.8226540796206L114.52706037847221,156.21572779700477L114.529031234375,155.23101429140758L114.70167253993056,153.121372961328L114.81910152256945,154.3875493002726L114.93501337152777,153.15368379813737L115.39893016493055,154.20255603963162L115.51590542534721,154.91345596246887L115.63317844097222,155.74458102246956L116.03778523263888,155.1804859542887L116.50414078298611,156.58251664025477L116.79466479340277,156.91720338629256L117.14329360590278,152.84090755110705L117.143747328125,153.15072448252434L117.7243416267361,151.2413238397122L117.72495131597222,141.9548047283444L117.95646307986111,148.54117794582493L118.01380222569443,150.06407792577536L118.13062151909722,152.080803280488L118.18796066493056,153.7540805378133L118.24773856770834,155.3590987295017L118.42205297395833,156.36667170421674L118.53719916666667,149.4256822260813L118.71243519618056,147.40406538935486L118.82772317708334,151.56409760067294L118.88643766840278,152.5623551288632L119.06106400868055,154.4059840505112L119.52482483506944,156.3076944335092L119.69974893055556,153.9118735932675L120.0470165763889,154.52364368451455L120.04868967708335,154.54816537489955L120.16336796875,153.32901118906818L120.39777221180556,151.82791722959595L120.62973769791667,153.51743178949476L121.03676906770833,154.8667422412125L121.616455921875,151.65626640654207L121.73402669270834,152.99305239435796L121.85009450868056,149.72523388988552L122.19825542013888,152.18320216620936L122.37303772743056,155.00359365520032L122.3733354826389,153.43842651969874L122.54658647743057,153.61262479266225L122.66173267013889,155.09714383071795L122.89582497916666,154.39587855063962L123.47549765451389,154.82420401727572L123.70852655208333,155.11380739115495L124.05837474305555,154.66341094342692L124.11541613368055,152.9667919248497L124.81175213541667,151.61818343846355L124.928429640625,113.30269109676541L125.21879768402778,129.33044103539052L125.33638263368056,139.0647095789726L125.68440175694444,143.3776249256975L125.97461383333334,147.20453553374043L126.09005778125001,143.98473547836556L126.09204281597222,146.24094506936257L126.1492401736111,151.19444146504608L126.44037387326388,153.1784883262265L126.67263711458334,153.84665081090907L127.13655390798611,153.21291489533888L127.19465871006945,138.02974773135668L127.48579240972222,145.09591599385703L127.8339675,27.80589002351917L128.29972753993056,78.66399402810086L128.47251063368054,102.53034272701004L128.76287867708334,123.28893321938295L129.2283267829861,135.46061748672665L129.28735320833331,144.17826457039197L129.40279715625,146.3054215056336L129.63567008680556,149.98665373891936L129.63582605381944,139.52766058226138L129.6937748888889,144.70496020315693L130.15908120659722,150.02841250827927L130.21657631944444,148.70521496747017L130.6225442777778,151.64825800319213L130.85602689756945,154.635775646218L131.66797699305556,156.33063812746806L132.13387882118056,145.4911289325197L132.13403478819444,150.38983980705262L132.2500884253472,153.7532810536698L132.25038618055555,155.42185774158452L132.65621235069443,156.96436661609795L133.4702892690972,157.55164520253268L133.47119671354164,144.32696386278695L133.5279403489583,150.25209512717194L133.52855003819445,152.23017357484918L133.5286918263889,152.8858200750892L133.992778765625,153.7655824113833L134.86525824131945,155.784125083324L135.27092844444445,156.00022778699173L135.272445578125,155.32234741839414L135.3293310017361,155.40741545872106L135.38790370486112,156.4362567252596L135.79402763020835,153.48226527911845L136.14204675347221,154.07487191056273L136.49081735416667,156.01615627596735L136.49112928819443,150.13743150929523L136.60763664756945,152.92526023915568L136.66620935069446,155.24405116053475L137.76988865625,155.89762745760058L137.88548857118056,156.74226074850634L138.05964701041665,157.22221299039572L138.46820969270834,156.92496583802102L138.52601673958335,155.71710190546594L138.87494330729166,148.77611514372876L138.9910111232639,152.37229341419987L139.16440390625,139.45018619867574L140.55876318923612,138.232655424572L140.67436310416667,142.88538414083519L140.73354549652777,147.1993568520156L140.79225998784722,149.12681198570746L140.9077039357639,148.52838650400113L140.9659647048611,151.23170076718543L141.0236016059028,152.5164188204174L141.43125684375,151.6827455708778L141.66397380729168,153.55313532744543L142.47714328125,155.00788509296353L142.53402870486113,155.22679816703604L142.5354040503472,156.45515001664842L142.76629194618053,152.9850757636566L142.7667456684028,155.44476211012932L142.82577209375,156.09664924528582L142.94213766493056,152.700702660445L143.05665998958335,147.08705789591625L143.57975917534725,148.41299005151058L143.87120480902777,151.846423328489L143.8713465972222,150.09704944442004L143.98816589062503,142.8076861321571L144.56724305555554,149.00170907743995L144.56799453298612,151.55032947238573L144.68359444791668,152.37395648763584L144.85806482118056,155.09285346417587L144.9161696232639,156.37796858170904L145.2077570451389,157.01440725773335L145.38177369618055,157.71670465494682L145.4973736111111,155.78936113985316L145.6152563159722,151.57771627357266L145.7892729670139,153.23964345607368L146.31174828472223,151.89952890687672L146.36863370833333,153.0384812682053L146.36924339756945,150.79049336421073L146.77552328993056,152.3357577842984L146.89326420659722,152.70105808579444L147.29831054166667,151.66766654192938L147.35627355555556,154.5727288472238L147.4148320798611,153.02993968856782L148.63487695659722,-28.15630150403109L148.81041074131946,12.359822254963802L149.97266275,65.15113161243161L150.14575777777776,101.7007258468462L151.1332274791667,124.02231648102922L151.1930195607639,132.1829656883444L151.36656831076388,142.6131937531292L151.54103868402777,140.97526946333255L151.7742093697917,143.08747360424616L151.8310947934028,147.85808045422783L151.832314171875,151.9942164953358L152.0629043125,154.8522208067028L152.0642796579861,156.6084819069538L152.29654289930556,157.0742455675941L152.35434994618055,152.67388330077142L152.93646137847222,154.44724689808507L153.1089467170139,155.48724656341426L153.2269853888889,154.51393502143713L153.515992265625,156.20333998438946L153.9809724704861,155.85959584355544L154.33021097222223,155.40824846844862L154.38801801909722,155.76106148428454L154.67762040625,154.89369529742243L154.8520907795139,155.82523255426344L155.027014875,151.29050879702288L155.25882439409722,143.72169107970973L155.7254918784722,142.9925226749668L155.78253326909723,145.43389034295282L156.18850122743055,148.0770809320825L156.1903302951389,144.96477525923024L156.305022765625,145.95399218957178L156.7695492482639,150.5326134224958L156.82948311805555,150.86443560977654L156.88560288541666,154.10809602838026L157.23423169791667,150.67824523617801L157.46818221875,149.53761848876053L157.58393810069447,151.80240994603162L157.64082352430557,147.73104883018755L157.70089918229166,150.310190923199L158.22399836805556,153.69397683203664L158.62874694791668,155.21217331394143L158.62982453819444,155.36242610808054L158.97845335069442,152.81651914654614L159.03563652951388,154.83360287818454L159.03746559722222,156.3178689178094L159.15200210069443,155.51314575028692L159.21040465798612,147.70137529318646L159.38609440972223,151.65785554627828L159.44374548958334,147.5522013096545L159.5591894375,150.62481504013056L159.676462453125,147.91021827297885L160.0830542795139,152.11080748713593L160.19757660416667,147.72779933790687L160.19865419444446,149.74067901399366L160.37311038888888,152.39866422022035L160.60431021875,154.8974112496437L160.60477811979166,154.5955332602873L160.72173920138889,155.56247096268368L161.24393094270835,156.55300909685045L161.41930876041667,156.4849754579628L161.41946472743055,155.59369470688577L161.5342989861111,156.89919704409178L161.71013052604167,157.3381250768805L162.05830561631944,157.19182934752968L162.05846158333333,155.26650547661163L162.23171257812498,154.74712127042494L162.3486736597222,156.5301710255687L162.4058710173611,129.41465045706894L162.93003361458332,141.2051130622377L163.04654097395834,146.47692053649715L163.4517574548611,150.67868071374195L164.20802732638887,151.92240448187536L164.3809805659722,151.71160646713645L164.6136975295139,152.98261472908288L164.90453347395834,155.32731915310094L165.1956671736111,154.48890970178735L165.2546794201389,106.2008081142428L165.3117208107639,126.94946070203272L165.36951367881946,138.82743620065696L165.36982561284722,146.29808023060704L165.37073305729166,149.63313454973274L165.77640326041666,149.90225106583952L165.77671519444445,152.67758779909803L166.12487610590279,152.7934946853078L166.12534400694443,152.48832268817074L166.24108571006943,153.1484987791448L166.88116015625,155.58978025985803L166.9380455798611,156.20689677778748L167.1713722326389,147.67108901130663L167.1721378888889,149.90023748182696L167.57871553645833,153.59491159170216L167.69295428472222,154.52726892187334L167.92643690451388,155.48638401844792L167.98530736284724,147.30850113570656L168.3923387326389,146.57806926849372L168.68164336458332,150.12594347543708L168.7397481666667,152.79491438772138L168.7980089357639,152.46667174514147L168.85580180381945,154.90268238021642L168.9727770642361,150.6304250145431L169.08837697916667,153.91984820406407L169.9611683888889,41.07030477518302L170.19358759722223,85.89206749807768L170.3097972013889,113.74169532882769L170.4243337048611,129.79675918694505L170.77280655034724,129.2238634724519L170.8903915,139.17664550967513L170.94682320138887,145.6560411147934L170.94818436805556,150.9721662194419L171.06454993923612,153.53099773817226L171.29651542534722,152.6208905752259L171.87695375694443,153.1405776128671L172.2853604722222,154.33748672339328L172.45784581076387,155.47348486319942L172.86518911458336,154.52352288980632L172.92329391666667,156.41226016376865L173.44532969097222,154.60061312111048L173.562148984375,155.98365738975426L174.60878689930556,156.9980469420664L174.7828035503472,156.22057789045473L175.07240593749998,152.3876463446427L175.88663882291667,152.84308648142326L176.2927627482639,155.14406649016135L176.4686084670139,153.62560796576682L176.5267132690972,155.5634142316171L176.81631565625,156.99018366554373L176.93313494965278,157.15070566589915L177.22350299305555,155.83499261047348L177.28176376215276,157.0802025139058L177.339258875,157.3098313579573L177.45607816840277,155.55945857087875L177.80318984722223,152.97580824282596L178.03575084375,151.13242041328522L178.0359068107639,152.84834902494325L178.26802826388888,153.71273202168635L178.32688454340277,155.4956957824497L178.50090119444445,156.57879659705986L178.79172296006942,156.4634441933513L179.31558780208331,154.73247780007054L179.43073399479167,156.1925000972663L179.4308757829861,156.8907321126023L179.95397496875,157.04760848888705L180.3035254045139,156.38829525073854L180.53578864583332,150.50638968208537L180.59328375868057,153.70757258798213L181.69711903125,154.40215414320178L182.10477426909725,155.51374457168487L182.2206719392361,155.84186739217267L182.45171580208333,154.58718373365474L182.8014222048611,155.1152972887082L182.91777359722224,156.4462906128084L182.9185392534722,157.55108491749561L183.03276382291665,156.25013996613504L183.20799985243056,155.33540857515845L183.38125084722222,156.54812497752593L184.13797444097224,156.8558994184776L184.42804472916666,157.57595479837076L184.83477834375,157.25788665287394L185.18295343402778,157.79408578807835L185.24060451388888,158.16660360319673L185.3571118732639,158.49566519825024L185.47302372222222,157.62986057927952L185.76537680034724,157.72273691988016L185.82271594618055,157.45706116824718L185.823623390625,156.14698919584183L185.8800550920139,156.46221603466222L185.99642066319444,153.80506389675583L185.9967184184028,152.0077127631111L186.05468143229166,139.8419987027334L186.0555888767361,145.0116017507223L186.34581513194445,149.72450115482548L187.33237738888891,153.45843707750808L187.62487225520832,155.6859212083671L187.74047217013887,155.4496710825855L188.0891009826389,155.98592702648708L188.20485686458332,157.21634154179938L188.49461521875,156.8403833317039L188.72825380555557,132.5009541963653L189.07566323958332,140.0500330427149L189.250445546875,147.647249939349L189.3086921371528,138.8500607284776L189.4843818888889,146.81803221638404L189.59891839236113,151.65080083575057L190.12323695659722,154.57775151276726L190.18026416840277,156.23815290831843L190.41329306597223,157.008531384464L190.52904894791666,157.6292621210427L191.05199216666665,158.0495689058709L191.053055578125,158.41525365024629L191.16743611458335,157.7386905628417L191.51804996180556,157.57310576908787L191.6333521215278,158.00435102748497L191.6906912673611,156.99766596211614L191.74864010243056,157.8793669078642L191.98137124479166,154.03592233792807L192.33075153472222,154.09418226457856L192.79422878472224,154.46919446168044L192.85278730902778,69.26951859438539L192.85430444270833,102.46922542070958L192.96915288020836,114.48529052272431L193.3764961840278,131.78154765384176L193.66625453819444,140.8981035813816L194.01610272916668,146.60411899592557L194.48048742361112,151.2269280874649L194.65372423958334,154.0064786438L194.77040174479166,153.45821288983944L194.82880430208334,153.55630833941967L195.00221126388888,155.01358392031392L195.99044662152778,156.0130580816406L196.745965015625,154.46026800389564L196.9201234548611,156.3546436215529L197.03709871527778,136.8790016766877L197.15330831944445,143.8493331914469L197.26859630034724,148.55651096311584L197.38511783854165,152.50576982084925L197.67517394791668,151.68898374400584L197.73510781770833,154.58603673707526L197.79153951909723,155.22052489943238L197.84964432118053,156.13028685378478L197.90942222395833,154.94911892686102L198.02441244965277,156.40548512776576L198.14108995486112,143.58797245644521L198.66448689583333,129.86602441658L198.7209185972222,140.08862900712273L198.722889453125,144.8900979570722L199.07000113194445,149.11281670531883L199.07061082118054,152.63120082513012L199.18772786979167,144.64922113972838L199.53590296006945,144.0652087856604L199.59278838368056,149.52748204029663L199.76694682291668,152.9289121669632L199.94248060763888,154.52178381120856L200.11588756944445,149.5379997840742L200.34846274479168,43.577251455335016L200.69815496875,89.60481422134981L200.87140596354166,115.35451957400815L201.0458621579861,131.740712626532L201.046018125,142.33135914847279L201.27828136631945,149.02553971317627L201.57018072222223,152.20379454369828L201.68548288194444,152.8759329679288L201.86040697743056,154.4732892782958L201.9183558125,155.92302217961503L202.49909189930554,149.2950463869091L202.6153015034722,152.78446758943122L202.84757892361114,153.16337719120725L203.02280077430555,154.46809953117824L203.8356583142361,156.25171296640593L203.892855671875,157.42390514722092L204.06838945659723,157.36634146583313L204.59133267534722,157.93681732496947L204.7642717361111,157.8420620727497L205.17069341666667,148.782572656059L205.172522484375,151.39984689062237L205.63629748958334,153.21648619222645L205.8699360763889,153.61190535758132L206.04273334895834,140.4134226726264L206.6237813697917,138.59484832620555L206.62514253645833,143.56690394615288L206.7408984184028,148.91348516052295L206.85710802256943,151.98140765157677L206.97392731597222,148.36656260403336L207.14824172222222,147.7585158948032L207.2052831128472,151.187340988184L207.32118078298612,152.807703246174L207.72913377604166,153.82437081137536L207.78739454513888,155.37074009675717L208.07593352083333,155.65776289278358L208.13435025694446,155.9941674713771L208.42654736805557,155.29551470271707L208.48374472569444,153.43838207058474L209.23802956249997,155.1349309645351L209.4134215590278,154.6598127858731L210.51786652083334,156.25734482348233L210.6327007795139,152.57926308075218L211.1565656215278,154.48209080018836L211.33056809375,150.89137036908113L211.5061018784722,151.58497247557764L211.56298730208331,151.52841573516366L211.62185776041667,151.98637389681576L211.73745767534723,153.92666090240027L212.0860864878472,151.00081773383883L212.26146430555556,152.78378976864667L212.49388351388887,153.48703016577315L212.55076893749998,152.7192238626691L212.6668225746528,152.89203516790178L212.842356359375,153.62271870358543L212.89878806076388,153.0059441249059L212.9565951076389,146.6188965405255L212.95872193055555,150.8075624292207L213.0740240902778,154.16831821546714L213.13166099131945,154.968442514503L213.24818252951388,155.43532454367445L213.24924594097223,156.72619459349383L213.30719477604165,156.55586230192515L213.77096978125,154.17178779786423L213.82846489409724,153.04375680093122L213.82938651736112,153.8396413163122L214.003091234375,153.60224846262224L214.00370092361112,154.9611748470866L214.06164975868057,153.75883385932653L214.1767959513889,155.14243782095156L214.58367135416665,152.83415902347542L214.70186599305555,152.88533900610966L214.87602443229167,153.2476399091162L214.99040496875,151.9087870993356L215.04866573784724,154.16949862240264L215.1648753420139,155.95568711707833L215.92008180208333,156.08941700966236L216.09439620833334,121.35247063963757L216.269178515625,134.45865107502232L216.27039789409724,143.86728805322903L216.73340724305555,137.71766984551635L216.79226352256944,146.21987057471742L217.54748416145833,146.67715953834784L218.07088110243055,137.5149378724273L219.17563799826388,144.40675187803532L219.40713558333334,148.08663721982597L219.52257953125,151.01241590996653L219.98833957118055,154.0520712702518L220.27977102604166,151.51806197378215L220.51051713368057,142.93350633455844L220.51234620138888,145.8155551609449L220.62688270486112,145.41902763296977L220.85914594618055,150.22986547963643L221.26755266145832,153.46821593296903L221.6145083732639,155.39680408518433L222.02261733333333,5.132384358530743L222.25350522916665,61.80630347129306L222.3707924236111,83.32416749527515L222.60260194270833,111.67543518329035L222.66084853298614,130.1035593944747L222.77705813715278,141.53965198415693L223.06728439236113,147.80631879207803L223.47539335243056,149.43160174614638L223.82371023090278,152.52083761200532L224.1131708298611,155.21511797445118L224.22938043402777,154.95373381054952L224.40324111805555,152.4111332600028L224.461955609375,152.79212496881976L224.46225336458332,153.93707801938885L224.46317498784722,151.6486783144449L225.16073036805554,153.80175646864092L225.79911753472223,155.7368274856096L225.97207077430556,129.4173268604121L226.38032152256943,141.05928946038415L226.38093121180555,135.94369106430756L226.78583575868055,144.9624274472475L226.96168147743055,150.30502986975694L227.19410068576389,152.98568918378513L227.59930298784724,149.7209344452356L228.35604076041665,-77.02219507600464L228.8192060763889,16.835998717349526L228.93754250347223,73.32295566071053L228.9939742048611,93.08973247334498L228.99519358333333,119.38524521764218L229.1104815642361,134.16999436785656L229.5759296701389,142.2191242446806L229.75055601041666,143.03544239644387L230.03970467534722,148.14950669940234L230.040016609375,152.3092773938056L230.44704797916665,146.64069642810904L230.67962315451388,150.33400810299332L230.91127670659722,146.52111387543687L231.02718855555557,151.546633422847L231.14385188194444,139.39042266531314L231.2033320295139,147.28277840664356L231.26067117534723,149.8673921991604L231.72505586979167,151.27915620610344L231.7259633142361,154.4683183388663L231.78452183854165,155.57283686815907L232.07504584895833,156.49756935005874L232.24829684374998,156.88314969059232L232.36542807118056,156.89905097610256L232.4220015607639,152.24755082584414L232.77230347395835,154.87394372771328L232.88683997743055,156.19176854886493L233.23623444618056,149.86177668480335L233.29341762500002,93.98140955486602L233.41009513020833,117.96556842864348L233.64312402777776,131.45335237185105L233.70046317361113,142.06141842758223L233.9915968732639,148.54842968686512L234.04970167534722,146.50399890727473L234.16697469097224,149.07764591919232L234.3394600295139,151.30546229526036L235.21087609375,153.66028727338187L235.21209547222222,155.65982482401253L235.44437289236112,156.44315442044257L235.50232172743057,156.9789431310951L236.1416305173611,156.44351489305575L236.37373779166666,157.15241432619612L236.374801203125,156.9405724763067L236.43123290451388,157.63624280289105L236.43184259375,157.39614186632608L236.838278453125,157.49065011891668L236.95570743576388,157.53335233724744L237.12819277430555,155.62199353397676L237.12986587499998,150.79713351702603L237.59425056944443,153.84274626416553L237.76917466493055,154.92927650352829L237.82727946701388,156.48597789633473L237.94211372569444,153.51776836108695L237.94256744791664,155.45831774127626L238.00021852777778,156.35340351555377L238.23263773611112,155.87110004572358L238.46474501041666,155.82202948952937L238.69763211979168,153.68882877657788L238.93066101736113,112.04101406379776L239.33631704166666,125.02522180553815L239.80162335937501,137.89991756799677L239.9187404079861,144.18866857659424L240.03373063368056,149.292544972186L240.20788907291666,151.3746563026877L240.20987410763888,151.86381216547227L240.26797890972222,154.51986256365035L240.61630996701388,156.30118175448524L240.6166077222222,156.5818960738385L240.84811948611113,155.81419417042153L241.1384875295139,155.68735514865898L241.31280193576387,152.35276832179085L241.48772603125,154.73036085612873L242.12642513194444,156.15743495951455L242.5333005347222,146.79834976166887L242.53376843576388,150.01962705305831L242.64936835069443,153.43851320882158L242.76571974305557,153.746375026588L242.94019011631943,153.40385411761653L243.34707969791668,152.5254132017565L243.4628355798611,154.38995631037767L243.46358705729168,155.9369690617496L243.52062844791666,156.46661958781874L243.63683805208333,157.49413447838668L244.1593275486111,152.35105576902117L244.33486133333335,153.57112370464154L244.4509149704861,155.7517089851123L244.74143898090279,156.8024706322426L245.090521515625,136.06381292445806L245.14679725,141.4135051824585L245.61240132291667,148.5156588699661L246.42632227430556,151.2796019655904L246.54299977951388,153.10716393158302L246.71684628472224,155.13466158666756L246.83336782291667,156.04092362379393L246.8338215451389,157.258016682497" style="fill: none;" fill="none"></path></g></g></g></g><g opacity="0.2"><g><g><g><path stroke="rgb(255, 112, 67)" stroke-width="2px" d="M28.706877390625,-565.7856296159327L28.99708946701389,33.8337897562422L29.229820609375,-50893.65494198799L29.230572086805555,91.3785763557069L29.345420524305556,-104.54537969715892L29.403979048611113,-7395.313027721643L29.52095430902778,62.01337277954444L29.521252064236112,31.678164727706474L29.57829345486111,-36.87164460942151L30.160248920138887,31.489665504265588L30.392980062499998,70.56776137389242L30.56698253472222,27.608555509429436L30.62386795833333,53.477693990059194L30.798650265625,-1383.297365565598L30.856443133680557,123.12135465682951L31.089925753472222,-1000.0582509085536L31.14696714409722,137.6977195766056L31.37984007465278,-3032.4321514338253L31.43825681076389,-16.703278582356887L31.439164255208333,142.09031246784144L31.555076104166666,39.97280023824425L32.07801932291667,134.63139531151393L32.25202179513889,29.81252106903122L32.483221625,89.76370177762583L32.60065060763889,109.15488455859013L32.89133058506945,65.72944292631L33.23858405208333,154.8755323135236L33.41442977083333,120.8533342876006L33.414883493055555,149.5798397561128L33.472832328125,149.6657273935096L33.52926402951389,137.95250029281016L33.704032157986106,95.9587798576802L33.705109748263894,64.71500266408547L33.8792681875,126.57346304396634L33.995477791666666,140.13194014179754L34.22744327777777,150.1784994222515L34.343496914930554,130.2054395207204L34.460004274305554,151.85757111677668L34.86704982291667,145.48029266071973L35.04105229513889,136.769392324565L35.04152019618055,134.67928767269478L35.448551565972224,117.21990254656413L35.563541791666665,157.43739726414498L35.621036904513886,123.33459079738242L35.738777821180555,138.960860641161L35.854987425347225,26.646597486175608L36.20346027083333,101.82723481622524L36.435879479166665,144.9428957573371L36.78466425868055,148.34168995795773L36.842301159722226,-363.074537307769L36.958822697916666,129.14769162372687L37.075188269097225,155.4045292511699L37.24950267534722,157.64506878960384L37.596912109375005,-82.23871787711977L37.77152427083333,101.67292528850957L37.829941006944445,147.37350134302397L37.830238762152774,-85.54633526299148L37.88682643055555,139.942678514414L37.946448366319444,132.06460789726117L37.94660433333333,156.70443602240704L38.00425541319444,-1849.5727371767164L38.005006890625,-289.2454824753105L38.12107470659722,153.8574506709818L38.758398461805555,146.89512377728244L38.93423000173611,151.80430458050688L39.806113967013886,157.31370479053732L40.09602828819445,143.4256874424289L40.096482010416665,102.33466615383513L40.56132042708333,154.89549808873272L40.85092281423611,119.41457244458144L40.90918358333333,146.57378210605822L40.90933955034722,-12.005943047627824L41.14144682465278,155.72272053279158L41.837952972222226,-105.64868122972547L42.361349913194445,86.51528402762486L42.361647668402775,133.7630378263537L42.53672773090278,155.65068462885102L42.82664205208333,155.9111833746254L43.11686830729167,140.8306910822983L43.11793171875,136.380141325132L43.52496308854167,16.07334264619277L43.6408749375,139.2897941556992L43.987972437500005,147.9220909029362L44.22070357986111,143.18504597096472L44.57055177083333,153.75925510372036L44.686917342013885,141.9998349526548L44.74349083159722,153.19912452534192L45.03554615451389,132.81548820734025L45.03584390972222,147.75860805886333L45.38309737673611,138.94880770450692L45.73203812326389,28.945369006320846L45.790440680555555,74.08010482387616L45.905289118055556,113.91420147330501L46.37225435763889,147.23231623858447L46.42868605902778,143.61904183962616L46.4299054375,138.13960220497103L46.89352447569444,156.12076107092145L46.951473310763895,139.36833592808108L47.06890229340278,23.61402247399093L47.30041405729167,143.5200851562666L47.591235822916666,151.16358777660645L47.88236952256944,143.1345985263004L47.882681456597226,-75.40811429433526L48.11417904166667,-11.973705724161135L48.230090890625,131.80966104911641L49.04369990798612,142.6019215730019L49.101662921875,156.91550955008717L49.33422391840278,148.55509931359558L49.800437680555554,124.63155065844768L50.32261524305556,142.17135265854887L50.49678786111111,136.85412734113635L50.84465101736111,147.0787459336105L51.020638524305554,157.97626343711892L51.07752394791667,130.65061903099996L51.19465517534722,133.88468504191843L51.542206397569444,157.57302870016866L51.601076855902775,156.9565327096978L52.06453992708333,118.72330645630137L52.06607123958334,-440.4966576833277L52.35567362673611,151.64900470037247L52.413480673611105,-71.83831237424167L52.414388118055555,148.8275820963434L52.70416065104167,155.48050370554557L52.763484831597225,100.0861205691006L53.0523215625,147.5000513825915L53.576640126736116,106.96315867309458L53.808151890625,141.68080367445947L53.92420552777777,157.71653836392653L54.2732880625,148.38075929648477L54.27374178472222,135.4308814486256L54.331392864583336,150.77885711136042L54.85555546180556,128.12926934631543L55.3191745,144.75487432420488L55.43477441493055,157.3815846593032L55.842883375,127.52636752040127L55.899924765625,120.22205609602389L56.073629482638886,152.73652112293058L56.42255605034722,135.73374899053016L56.65558494791667,157.28768196069433L56.83035307638889,145.2820341516752L56.94549926909722,151.05446356093745L57.17913785590277,129.29153870274314L57.23647700173611,143.18319147488802L57.23694490277778,135.66101153329947L57.29504970486111,158.0799672762776L57.41171303125,155.71105072987558L58.10926841145833,156.36173641607166L58.51448489236111,74.51649350761434L58.51600202604166,158.79442484876273L58.68879929861111,129.55168329128065L59.271066697916666,153.14368603932672L59.561590708333334,153.70955332102022L60.02550750173611,145.44748224645156L60.19921221875,156.8558412997998L60.72323302777778,154.425736524642L60.723984505208335,138.55675177975792L60.78118186284723,95.43002181518823L61.13026439756945,23.10712687969209L61.24617624652778,120.24165966496804L61.303515392361106,151.30251657748596L61.652597927083335,138.04676922219807L61.76941722048611,158.85401260876898L62.001836428819445,147.9574731426663L62.69954777604167,114.40231514344924L62.81514769097222,150.29863084484242L62.81561559201389,157.84917330776517L62.930449850694444,130.07002524747514L62.93151326215278,128.04956980173012L63.16363471527778,156.0579686708632L63.39635167881944,154.03085732279288L64.20905325173611,157.9208339660152L64.44086277083333,155.5212520713365L64.55738430902778,145.83842032217655L64.90555939930555,156.48063247382817L65.02222272569445,144.0250296661514L65.31335642534722,158.5064715925153L65.31441983680556,148.637689425156L65.37222688368055,78.61528013083151L65.72085569618056,148.22024750966813L65.83598771006945,116.90877219436226L65.89456041319444,155.28271719150945L66.47484277777778,125.56855798240287L66.70787167534723,149.12473676005612L67.28907566319444,149.44441518011155L67.404675578125,135.46917421692052L68.15957010416666,154.2587868031813L68.16064769444445,154.63603831150687L68.62487642187499,158.9842231048504L68.91615190972222,156.418779556331L69.0901685607639,144.50007300248836L69.43803171701389,134.60513101082762L69.55439728819444,157.0187407503152L69.61265805729167,158.38087898484156L69.84460936458332,143.04979010259268L70.01907973784722,144.2123955864343L70.01923570486112,157.82365965944047L70.07840391840277,157.62729428180756L70.31097909374999,152.19215569297086L70.36816227256944,157.33198558220175L70.54355426909721,154.309162772476L70.59983000347222,148.09112822032768L70.7172589861111,155.39744481858799L70.832391,154.63952289675655L70.83331262326388,156.23424142060395L70.83361037847223,157.8229207586599L71.00808075173612,158.1371848389761L71.3554901857639,147.63912442205475L71.41420467708333,131.1688708380796L71.47140203472222,-29.897173342108744L71.70504062152779,148.12928190141685L71.70533837673612,-91.78139833901076L71.93775758506945,147.36045547826217L72.57600296354167,139.16890805623262L72.75153674826389,154.11910718895962L72.86621503993057,140.42579406006263L72.9825806111111,156.93506965427952L72.98395595659723,148.8628471422242L73.04235851388889,147.2393388546305L73.15658308333333,-147.57910539563744L73.44818468402778,148.5312117299298L73.62127971180556,144.89962933359203L73.85582574305556,151.14358304410126L74.31975671527779,158.4565673767582L74.66929297222222,77.17517635384573L74.725880640625,157.85580586790894L74.84299768923611,23.625561560690414L74.95936326041667,152.69846531802324L75.36487749652777,85.673718859395L75.42465539930556,158.3582063214788L75.53934786979167,156.0152212484507L75.713194375,158.3807109211346L75.94622327256945,157.92422534351937L76.41031021180555,155.28002849415935L76.58584399652777,156.06181417453337L77.39976494791667,157.29091123077234L77.51566261805556,108.47315119528211L78.21262248784721,157.30274362405618L78.44533945138889,157.44258051628714L78.73633136284721,158.1970306508236L78.79473392013888,158.28821833176045L78.91048980208335,157.20366330762482L79.0253240607639,158.12702825334492L79.02715312847222,151.02834478667938L79.08525793055556,155.56017008813507L79.60743549305556,129.4840508496389L80.24629056076388,155.418460830985L80.24690025,158.12854726592997L80.652570453125,142.23707393895603L80.82641695833334,155.09427205753747L81.00165298784722,145.80764727790375L81.11679918055555,157.92347211546877L81.29324040972223,146.39911304467824L81.34951614409722,151.7699204202625L81.69875464583333,155.53250847616874L81.81557393923612,155.06058494312748L81.98837121180554,155.52999106213684L82.10594198263888,147.41939883307788L82.8614603767361,129.3702543341322L83.44113305208334,146.03984950437444L83.67447388368055,158.21653747044985L83.6755372951389,157.91912789401687L83.79113721006945,148.7092922913842L83.849695734375,144.73841567152414L84.08197315451389,141.94565275894712L84.31286105034722,156.11191712079454L85.01088433159723,157.2002653299176L85.01179177604166,138.00606689684793L85.12800138020833,147.77258889873048L85.18519873784722,140.563954017777L85.24253788368055,158.85107080972995L85.59147863020833,156.30074442262122L85.592839796875,151.26327724348522L85.707688234375,150.38047593836092L85.94071713194445,126.22199225071819L85.99943162326389,137.4553472421365L86.81106978472222,157.0320176221838L86.98552597916667,151.46901297768346L87.15969859722223,154.7005306663021L87.45189570833334,158.34303575476662L87.68400298263889,151.56430574344705L88.26490921527778,147.58513411717723L88.2652069704861,153.81585200586125L88.38172850868055,159.01999934450652L88.49807990104166,144.7990139065194L89.31032775173611,148.66751847941197L89.36980789930556,154.8839676949836L89.42700525694445,158.98943054432203L89.65865880902777,158.0132399478469L90.29781163194444,140.57428639418214L90.70409152430555,153.69364135832876L90.76310377083333,154.81904970758188L91.285749234375,146.048260416789L91.57580534375,150.34250191157918L91.63498773611111,157.26636249993754L91.69339029340277,155.81568970512018L91.86786066666667,154.94341685072578L92.27367265798611,84.39678498026913L92.56496232465277,152.73276963190875L92.85564230208333,135.05267500360497L93.02858136284723,153.50112084044378L93.43623660069444,155.20093101687672L93.43637838888888,158.82577718158865L93.61116069618056,74.96767179756424L93.7850072013889,130.05962461531163L94.42447195833334,158.57098423086137L94.54083752951388,156.33728475651588L94.71346465625001,157.5988928031773L95.120666171875,155.431820285882L95.23732949826389,124.050318104052L95.29588802256944,158.67304445847986L95.29619995659722,155.7818892603944L95.4114879375,158.99069347707774L95.4116439045139,154.78443244748343L95.41209762673611,153.6346091422427L95.47081211805555,154.00727592415643L95.643609390625,120.65957293154207L95.75996078298611,156.02925585582562L95.87754573263888,151.52215974441498L95.93488487847223,151.4466070591123L96.28337190277777,152.6905766265525L96.34132073784723,153.43681683290635L96.457374375,152.88597096943414L96.45859375347223,157.54755803365407L96.574647390625,-699.7980274602771L96.9804735607639,147.60308538163082L97.85295303645833,152.27573229341652L97.96886488541668,155.827806712038L98.02604806423612,153.98888292904013L98.14195991319444,151.76415216475726L98.2589351736111,154.46508661326953L98.31657207465277,137.13503713435495L98.54960097222222,156.9965526384447L99.07254419097222,159.2052233278576L99.30405595486111,150.36904503059924L99.82668723958334,158.77506625198913L99.82684320659722,157.24213573022718L100.35055208159721,153.01687714301517L100.81554646527778,154.3681563532271L100.87243188888888,157.96407503532174L101.3380217829861,145.02370542387945L101.74597477604166,152.96255843779073L101.97642312847222,157.6811690026414L102.03559134201389,155.35545722442913L102.09460358854167,131.13184273308144L102.3840641875,157.8989415754375L102.55959797222222,156.52603929512844L102.79171942534721,156.01830241641147L102.96587786458333,145.60162564222702L103.95350353298612,149.34907605194604L104.01023298958334,140.98527878442547L104.41757629340277,159.1305371304923L104.47553930729167,124.28393567162567L104.76636107291667,156.17113897198288L104.76728269618056,156.2634059470991L105.11530181944444,157.18840959445225L105.23043383333334,134.93545539742337L105.46438435416667,154.5340384515992L105.57937457986111,150.79110708822265L105.69603790625,156.89118232850598L105.81134006597222,137.93300361495932L105.92906680381945,156.57636825809897L105.987625328125,156.2815590811777L106.04436896354167,150.422893672582L106.04482268576389,132.47224674043247L106.33550266319445,150.69718909646036L106.33564445138889,147.60386452755193L106.51027079166667,155.28353948022124L106.62663636284722,153.84854200666888L106.74237806597223,159.28124515956733L106.74284596701389,157.4821912324449L106.79941945659722,147.90302694083658L107.03351176562501,158.19728644893695L107.09100687847221,131.27855140257162L107.26593097395833,132.84303520114628L107.49789646006944,157.8819903222364L107.67221086631945,156.94942960337067L107.84591558333332,157.88756459616417L107.90372263020834,158.2332363866197L107.90386441840278,158.49692842331643L107.96304681076388,154.15950880261954L108.02129340104166,157.47500763583668L108.48477065104166,149.29989777803422L108.54378289756946,153.04025087672636L108.83339946354167,155.89364486433334L108.83385318576389,158.194966880016L108.83400915277778,156.0164575791685L109.00877728125,156.59053261580704L109.12406526215277,157.15850359148754L109.64655475868055,155.05176127655142L109.99563729340277,153.48389270067565L110.22866619097223,159.21872052677878L110.46185105555556,158.85132845911977L110.5769972482639,142.90565068287543L110.9247044375,155.0035846236977L110.92517233854167,157.84556911395777L110.92592381597221,156.37896680956766L111.21522844791666,150.3998045525048L111.27380115104167,151.92424411426765L111.56432516145833,150.38772779072752L111.68189593229167,158.78418954363661L112.31998534375,159.2694688692671L112.49400199479167,143.87724435866113L112.78391631597222,157.755864949392L112.84369421875,136.74808622519487L112.95852847743056,159.09095255355334L112.95945010069444,157.0624357043169L113.59752533333332,156.12302542350955L114.52706037847221,158.30533837308104L114.529031234375,153.7539440330118L114.70167253993056,149.95691096620868L114.81910152256945,156.2868138086895L114.93501337152777,151.30288554493455L115.39893016493055,155.77586440187298L115.51590542534721,155.9798058467248L115.63317844097222,156.9912686124706L116.03778523263888,154.33434335201747L116.50414078298611,158.68556266920388L116.79466479340277,157.41923350534927L117.14329360590278,146.72646379832878L117.143747328125,153.61544987965027L117.7243416267361,148.37722287549406L117.72495131597222,128.02502606129275L117.95646307986111,158.4207377720457L118.01380222569443,152.34842789570104L118.13062151909722,155.10589131255693L118.18796066493056,156.2639964238013L118.24773856770834,157.7666260170343L118.42205297395833,157.8780311662893L118.53719916666667,139.01419800887817L118.71243519618056,144.3716401342652L118.82772317708334,157.80414591765003L118.88643766840278,154.05974142114866L119.06106400868055,157.1714274329832L119.52482483506944,159.16026000800622L119.69974893055556,150.31814233290498L120.0470165763889,155.44129882138515L120.04868967708335,154.58494791047707L120.16336796875,151.50027991032113L120.39777221180556,149.57627629038763L120.62973769791667,156.05170362934297L121.03676906770833,156.89070791878913L121.616455921875,146.84055265453645L121.73402669270834,154.99823137608183L121.85009450868056,144.82350613317686L122.19825542013888,155.8701545806951L122.37303772743056,159.2341808886868L122.3733354826389,151.09067581644632L122.54658647743057,153.8739222021075L122.66173267013889,157.3239223878016L122.89582497916666,153.34398063052214L123.47549765451389,155.46669221722988L123.70852655208333,155.54821245197382L124.05837474305555,153.9878162718349L124.11541613368055,150.42186339698384L124.81175213541667,149.59527070888436L124.928429640625,55.82945258421823L125.21879768402778,153.3720659433282L125.33638263368056,153.6661123943457L125.68440175694444,149.84699794578484L125.97461383333334,152.94490144580487L126.09005778125001,139.1550353953033L126.09204281597222,149.62525945585804L126.1492401736111,158.6246860585714L126.44037387326388,156.1545586179971L126.67263711458334,154.84889453793295L127.13655390798611,152.26231102198363L127.19465871006945,115.25499698538334L127.48579240972222,155.69516838760757L127.8339675,-148.12914893198757L128.29972753993056,154.9511500349734L128.47251063368054,138.32986577537378L128.76287867708334,154.42681895794232L129.2283267829861,153.7181438877422L129.28735320833331,157.25473519588996L129.40279715625,149.49615690849606L129.63567008680556,155.50850208884805L129.63582605381944,123.83917084727437L129.6937748888889,152.4709096345003L130.15908120659722,158.0135909659628L130.21657631944444,146.72041865625653L130.6225442777778,156.06282255677507L130.85602689756945,159.1170521107568L131.66797699305556,158.87293184934316L132.13387882118056,129.23186514009723L132.13403478819444,157.73790611885198L132.2500884253472,158.7984429235956L132.25038618055555,157.9247227734566L132.65621235069443,159.27812992786806L133.4702892690972,158.4325630821848L133.47119671354164,124.48994185316843L133.5279403489583,159.1397920237494L133.52855003819445,155.19729124636507L133.5286918263889,153.86928982544924L133.992778765625,155.08522591582442L134.86525824131945,158.81193909123505L135.27092844444445,156.32438184249332L135.272445578125,154.30552686549782L135.3293310017361,155.5350175192114L135.38790370486112,157.97951862506744L135.79402763020835,149.05127810990672L136.14204675347221,154.9637818577292L136.49081735416667,158.92808282407424L136.49112928819443,141.31934435928707L136.60763664756945,157.10700333394635L136.66620935069446,158.7222375426034L137.76988865625,156.8779919031993L137.88548857118056,158.00921068486497L138.05964701041665,157.94214135322983L138.46820969270834,156.47909510945902L138.52601673958335,153.90530600663334L138.87494330729166,138.36463500112296L138.9910111232639,157.7665608199066L139.16440390625,120.0670253753895L140.55876318923612,136.4063592634164L140.67436310416667,149.86447721523L140.73354549652777,153.67031591878623L140.79225998784722,152.01799468624523L140.9077039357639,147.63074828144164L140.9659647048611,155.28667216196192L141.0236016059028,154.44349590026542L141.43125684375,150.4322356965684L141.66397380729168,156.3587199622969L142.47714328125,157.19000974124066L142.53402870486113,155.55516777814483L142.5354040503472,158.29767779106697L142.76629194618053,147.77996438416886L142.7667456684028,159.1342916298384L142.82577209375,157.0744799480206L142.94213766493056,147.60678278318375L143.05665998958335,138.66659074912315L143.57975917534725,150.4018882849021L143.87120480902777,156.99657324395668L143.8713465972222,147.4729886183166L143.98816589062503,131.87364116376267L144.56724305555554,158.29274349536428L144.56799453298612,155.37326006480436L144.68359444791668,153.60939701051103L144.85806482118056,159.17119892898592L144.9161696232639,158.30564125800885L145.2077570451389,157.9690652717698L145.38177369618055,158.77015075076707L145.4973736111111,152.89834586721264L145.6152563159722,145.26024897415192L145.7892729670139,155.73253422982526L146.31174828472223,149.88935708308128L146.36863370833333,154.74690981019813L146.36924339756945,147.41851150821896L146.77552328993056,154.65365441442992L146.89326420659722,153.24900853803848L147.29831054166667,150.1175792261318L147.35627355555556,158.93032230516548L147.4148320798611,150.71575595058385L148.63487695659722,-299.93566329292946L148.81041074131946,73.13400789345614L149.97266275,144.33809564863333L150.14575777777776,156.52511719846808L151.1332274791667,157.50470243230376L151.1930195607639,144.4239394993172L151.36656831076388,158.25853585030637L151.54103868402777,138.51838302863763L151.7742093697917,146.25577981561656L151.8310947934028,155.01399072920032L151.832314171875,158.19842055699775L152.0629043125,159.1392272737533L152.0642796579861,159.24287355733037L152.29654289930556,157.77289105855453L152.35434994618055,146.0733399005374L152.93646137847222,157.10729229405553L153.1089467170139,157.0472460614081L153.2269853888889,153.05396770847148L153.515992265625,158.73744742881792L153.9809724704861,155.3439796323044L154.33021097222223,154.7312274057884L154.38801801909722,156.29028100803845L154.67762040625,153.5926460171293L154.8520907795139,157.22253843952495L155.027014875,144.48842316116207L155.25882439409722,132.36846450373997L155.7254918784722,141.89877006785247L155.78253326909723,149.09594184493182L156.18850122743055,152.04186681577704L156.1903302951389,140.2963167499518L156.305022765625,147.43781758508413L156.7695492482639,157.40054527188187L156.82948311805555,151.36216889069766L156.88560288541666,158.97358665628582L157.23423169791667,145.5334690478747L157.46818221875,147.82667836763432L157.58393810069447,155.19959713193822L157.64082352430557,141.62400715642144L157.70089918229166,154.17890406271619L158.22399836805556,158.76965569529312L158.62874694791668,157.48946803679866L158.62982453819444,155.5878052992892L158.97845335069442,148.99765870424454L159.03563652951388,157.85922847564217L159.03746559722222,158.54426797724665L159.15200210069443,154.30606099900325L159.21040465798612,135.98371960753576L159.38609440972223,157.59257592591604L159.44374548958334,141.39371995471885L159.5591894375,155.23373563584465L159.676462453125,143.83832312225132L160.0830542795139,158.41169130837153L160.19757660416667,141.1532871140633L160.19865419444446,152.75999852812384L160.37311038888888,156.38564202956042L160.60431021875,158.64553179377873L160.60477811979166,154.14271627625277L160.72173920138889,157.01287751627825L161.24393094270835,158.03881629810058L161.41930876041667,156.38292499963137L161.41946472743055,154.25677358027025L161.5342989861111,158.85745054990076L161.71013052604167,157.99651712606357L162.05830561631944,156.9723857535035L162.05846158333333,152.37851967023454L162.23171257812498,153.96804496114493L162.3486736597222,159.20474565828437L162.4058710173611,88.74136960431933L162.93003361458332,158.89080696999082L163.04654097395834,154.38463174788632L163.4517574548611,156.98132097960917L164.20802732638887,153.78799013407553L164.3809805659722,151.39540944502806L164.6136975295139,154.88912712200255L164.90453347395834,158.84437578912804L165.1956671736111,153.23129552481697L165.2546794201389,33.76865573292599L165.3117208107639,158.07243958371765L165.36951367881946,156.64439944859333L165.36982561284722,157.50404627553218L165.37073305729166,154.6357160284213L165.77640326041666,150.3059258399997L165.77671519444445,156.8405928989858L166.12487610590279,152.96735501462246L166.12534400694443,152.03056469246513L166.24108571006943,154.13876291560592L166.88116015625,159.25170248092792L166.9380455798611,157.13257155468165L167.1713722326389,134.8673773615854L167.1721378888889,153.24396018760746L167.57871553645833,159.13692275651493L167.69295428472222,155.92580491713016L167.92643690451388,156.92505666330982L167.98530736284724,135.04167681159453L168.3923387326389,145.48242146767444L168.68164336458332,155.44775478585217L168.7397481666667,156.7983707561478L168.7980089357639,151.97430778127165L168.85580180381945,158.55669833282883L168.9727770642361,144.22203896603315L169.08837697916667,158.85398298834554L169.9611683888889,-128.20401036813854L170.19358759722223,153.1247115824197L170.3097972013889,155.51613707495272L170.4243337048611,153.8793549741211L170.77280655034724,128.3645199007122L170.8903915,154.10581856551L170.94682320138887,155.37513452247077L170.94818436805556,158.94635387641466L171.06454993923612,157.36924501626783L171.29651542534722,151.2557298308064L171.87695375694443,153.9201081693289L172.2853604722222,156.13285038918258L172.45784581076387,157.17748207290862L172.86518911458336,153.09857992971666L172.92329391666667,159.2453660747122L173.44532969097222,151.88314255712322L173.562148984375,158.05822379271996L174.60878689930556,158.5196312705346L174.7828035503472,155.05437431303727L175.07240593749998,146.6382490259246L175.88663882291667,153.5262466865941L176.2927627482639,158.59553650326853L176.4686084670139,151.347920179175L176.5267132690972,158.4701236303925L176.81631565625,159.13033781643372L176.93313494965278,157.39148866643228L177.22350299305555,153.86142302733498L177.28176376215276,158.9480173690543L177.339258875,157.6542746240346L177.45607816840277,152.93389939026093L177.80318984722223,149.10033275074676L178.03575084375,148.36733866897413L178.0359068107639,155.42224194243028L178.26802826388888,155.00930651680102L178.32688454340277,158.17014142359477L178.50090119444445,158.20344781897512L178.79172296006942,156.29041558778846L179.31558780208331,152.1360282101494L179.43073399479167,158.38253354306L179.4308757829861,157.9380801356063L179.95397496875,157.28292305331416L180.3035254045139,155.39932539351577L180.53578864583332,141.68353132910562L180.59328375868057,158.5093469468273L181.69711903125,155.4440264760313L182.10477426909725,157.1811302144095L182.2206719392361,156.33405162290438L182.45171580208333,152.70515824587784L182.8014222048611,155.9074676212884L182.91777359722224,158.4427805989588L182.9185392534722,159.2082763745264L183.03276382291665,154.29872253909417L183.20799985243056,153.9633114886936L183.38125084722222,158.36719958107716L184.13797444097224,157.31756107990515L184.42804472916666,158.6560378682105L184.83477834375,156.78078443462874L185.18295343402778,158.59838449088494L185.24060451388888,158.72538032587437L185.3571118732639,158.9892575908305L185.47302372222222,156.3311536508234L185.76537680034724,157.86205143078115L185.82271594618055,157.05854754079775L185.823623390625,154.18188123723377L185.8800550920139,156.93505629289285L185.99642066319444,149.81933568989626L185.9967184184028,149.31168606264401L186.05468143229166,121.59342761216686L186.0555888767361,152.76600632270566L186.34581513194445,156.79385026098026L187.33237738888891,159.05934096153197L187.62487225520832,159.02714740465564L187.74047217013887,155.09529589391315L188.0891009826389,156.79031094233943L188.20485686458332,159.06196331476787L188.49461521875,156.27644601656067L188.72825380555557,95.99181049335748L189.07566323958332,151.37365131223925L189.250445546875,159.0430752843002L189.3086921371528,125.65427691217047L189.4843818888889,158.76998944824373L189.59891839236113,158.8999537648004L190.12323695659722,158.9681775282923L190.18026416840277,158.7287550016452L190.41329306597223,158.16409909868236L190.52904894791666,158.56035822591076L191.05199216666665,158.6800290831132L191.053055578125,158.9637807668094L191.16743611458335,156.72384593173484L191.51804996180556,157.32472857845715L191.6333521215278,158.65121891508062L191.6906912673611,155.4876383640629L191.74864010243056,159.20191832648635L191.98137124479166,148.27075548302383L192.33075153472222,154.18157215455432L192.79422878472224,155.0317127573333L192.85278730902778,-58.52999520655723L192.85430444270833,152.26878566019587L192.96915288020836,132.50938817574644L193.3764961840278,157.7259333505179L193.66625453819444,154.57293747269142L194.01610272916668,155.16314211774153L194.48048742361112,158.16114172477393L194.65372423958334,158.1758044783026L194.77040174479166,152.63581425889862L194.82880430208334,153.70345151379007L195.00221126388888,157.1994972916553L195.99044662152778,157.51226932363062L196.745965015625,152.13108288727818L196.9201234548611,159.19620704803884L197.03709871527778,107.66553875938989L197.15330831944445,154.3048304635857L197.26859630034724,155.6172776206193L197.38511783854165,158.42965810744937L197.67517394791668,150.46380462874077L197.73510781770833,158.9316162266794L197.79153951909723,156.17225714296802L197.84964432118053,157.49492978531345L197.90942222395833,153.17736703647535L198.02441244965277,158.5900344291229L198.14108995486112,124.36170344946441L198.66448689583333,109.28310235678218L198.7209185972222,155.42253589293688L198.722889453125,152.09230138199638L199.07000113194445,155.44689482768882L199.07061082118054,157.90877700484708L199.18772786979167,132.6762516116258L199.53590296006945,143.18919025455835L199.59278838368056,157.72089192225104L199.76694682291668,158.031057356963L199.94248060763888,156.91109127757665L200.11588756944445,142.0623237433727L200.34846274479168,-115.36387103777378L200.69815496875,158.646158370372L200.87140596354166,153.9790776029957L201.0458621579861,156.32000220531773L201.046018125,158.21732893138397L201.27828136631945,159.06681056023154L201.57018072222223,156.97117678948126L201.68548288194444,153.8841406042746L201.86040697743056,156.86932374384634L201.9183558125,158.09762153159392L202.49909189930554,139.3530826978502L202.6153015034722,158.0185993932144L202.84757892361114,153.73174159387128L203.02280077430555,156.42518304113474L203.8356583142361,158.92713311924746L203.892855671875,159.18219341844343L204.06838945659723,157.27999594375143L204.59133267534722,158.792531113674L204.7642717361111,157.69992919442012L205.17069341666667,135.1933385310229L205.172522484375,155.32575824246743L205.63629748958334,155.9414451446326L205.8699360763889,154.2050341056136L206.04273334895834,120.61569864519407L206.6237813697917,135.8669868065743L206.62514253645833,151.02498737607385L206.7408984184028,156.93335698207812L206.85710802256943,156.58329138815753L206.97392731597222,142.94429503271823L207.14824172222222,146.84644583095798L207.2052831128472,156.33057862825518L207.32118078298612,155.238246633159L207.72913377604166,155.34937215917745L207.78739454513888,157.69029402482994L208.07593352083333,156.08829708682316L208.13435025694446,156.4987743392674L208.42654736805557,154.24753554972705L208.48374472569444,150.65268312238624L209.23802956249997,157.67975430546068L209.4134215590278,153.9471355178801L210.51786652083334,158.65364287989615L210.6327007795139,147.062140466657L211.1565656215278,157.33633237934265L211.33056809375,145.5052897224203L211.5061018784722,152.62537563532243L211.56298730208331,151.44358062454268L211.62185776041667,152.67331113929396L211.73745767534723,156.83709141077708L212.0860864878472,146.61205298099668L212.26146430555556,155.4582478208584L212.49388351388887,154.54189076146287L212.55076893749998,151.5675144080131L212.6668225746528,153.15125212575077L212.842356359375,154.71874400711096L212.89878806076388,152.0807822568866L212.9565951076389,137.03832516395488L212.95872193055555,157.09056126226352L213.0740240902778,159.20945189483683L213.13166099131945,156.16862896305685L213.24818252951388,156.1356475874316L213.24924594097223,158.6624996682229L213.30719477604165,156.30036386457215L213.77096978125,150.59567604177283L213.82846489409724,151.35171030553175L213.82938651736112,155.0334680893837L214.003091234375,153.2461591820873L214.00370092361112,156.99956442378317L214.06164975868057,151.9553223776864L214.1767959513889,157.2178437633891L214.58367135416665,149.37174082726125L214.70186599305555,152.96210898006103L214.87602443229167,153.79109126362602L214.99040496875,149.9005078846647L215.04866573784724,157.5605659070032L215.1648753420139,158.63496985909188L215.92008180208333,156.29001184853843L216.09439620833334,69.24705108460039L216.269178515625,154.11792172809947L216.27039789409724,157.9802435205391L216.73340724305555,128.49324253394735L216.79226352256944,158.973171668519L217.54748416145833,147.36309298379348L218.07088110243055,123.77160537354649L219.17563799826388,154.74447288644734L219.40713558333334,153.606465232512L219.52257953125,155.4010839451774L219.98833957118055,158.61155431067965L220.27977102604166,147.71704802907772L220.51051713368057,130.05667287572288L220.51234620138888,150.13862840052462L220.62688270486112,144.82423634100707L220.85914594618055,157.4461222496364L221.26755266145832,158.325741612968L221.6145083732639,158.28968631350727L222.02261733333333,-220.26424523144954L222.25350522916665,146.8171821404365L222.3707924236111,115.60096353124828L222.60260194270833,154.20233671531315L222.66084853298614,157.74574571125123L222.77705813715278,158.6937908686803L223.06728439236113,157.20631900395966L223.47539335243056,151.86952617724893L223.82371023090278,157.15469141079376L224.1131708298611,159.25653851811995L224.22938043402777,154.5616575646971L224.40324111805555,148.59723243418267L224.461955609375,153.36361253204524L224.46225336458332,155.65450759524248L224.46317498784722,148.21607875702904L225.16073036805554,157.03137369993493L225.79911753472223,158.63943401106263L225.97207077430556,89.93807592261582L226.38032152256943,158.52223336034223L226.38093121180555,128.2702934701927L226.78583575868055,158.49053202165743L226.96168147743055,158.31893350352112L227.19410068576389,157.0066781548274L227.59930298784724,144.82380233741134L228.35604076041665,-417.1368893578648L228.8192060763889,157.6232894073808L228.93754250347223,158.05339107575202L228.9939742048611,122.73989769229667L228.99519358333333,158.82851433408797L229.1104815642361,156.34711809317815L229.5759296701389,154.29281905991667L229.75055601041666,144.2599196240888L230.03970467534722,155.82060315384007L230.040016609375,158.54893343541045L230.44704797916665,138.1378249795642L230.67962315451388,155.8739756153198L230.91127670659722,140.8017725341022L231.02718855555557,159.0849127439622L231.14385188194444,121.15610652901233L231.2033320295139,159.12131201863923L231.26067117534723,153.74431288793568L231.72505586979167,153.39680221651798L231.7259633142361,159.25206153801065L231.78452183854165,157.2296146620982L232.07504584895833,157.88466807290825L232.24829684374998,157.46152020139272L232.36542807118056,156.92290290436796L232.4220015607639,145.27030060045655L232.77230347395835,158.81353308051695L232.88683997743055,158.1685057805924L233.23623444618056,140.36678888871103L233.29341762500002,10.160858859960001L233.41009513020833,153.9418067393097L233.64312402777776,151.68502828666243L233.70046317361113,157.97351751117895L233.9915968732639,158.27894657578946L234.04970167534722,143.43735273788917L234.16697469097224,152.9381164370687L234.3394600295139,154.64718685936242L235.21087609375,157.19252474056412L235.21209547222222,158.65913114995857L235.44437289236112,157.61814881508764L235.50232172743057,157.78262619707385L236.1416305173611,155.64037253599673L236.37373779166666,158.21576347590673L236.374801203125,156.6228097014726L236.43123290451388,158.67974829276756L236.43184259375,157.03599046147866L236.838278453125,157.6324124978026L236.95570743576388,157.59740566474358L237.12819277430555,152.7549553290708L237.12986587499998,143.5598434915999L237.59425056944443,158.41116538487478L237.76917466493055,156.55907186257247L237.82727946701388,158.82102998554438L237.94211372569444,149.06545405821527L237.94256744791664,158.36914181156027L238.00021852777778,157.69603217697005L238.23263773611112,155.14764484097833L238.46474501041666,155.748423655238L238.69763211979168,150.48902770715068L238.93066101736113,49.56929199462756L239.33631704166666,144.50153341814877L239.80162335937501,157.2119612116847L239.9187404079861,153.6217950894905L240.03373063368056,156.94835956557364L240.20788907291666,154.4978232984402L240.20987410763888,152.59754595964915L240.26797890972222,158.50393816091747L240.61630996701388,158.97316054073764L240.6166077222222,157.00296755286837L240.84811948611113,154.66264131529607L241.1384875295139,155.4970966160152L241.31280193576387,147.35088808148868L241.48772603125,158.29674965763553L242.12642513194444,158.29804611459332L242.5333005347222,132.7597219649004L242.53376843576388,154.8515429901425L242.64936835069443,158.56684244246645L242.76571974305557,154.20816775323766L242.94019011631943,152.89007275415935L243.34707969791668,151.20775182796643L243.4628355798611,157.18677097330948L243.46358705729168,158.25748818880749L243.52062844791666,157.26109537692247L243.63683805208333,159.03540681423857L244.1593275486111,144.63643770497293L244.33486133333335,155.40122560807214L244.4509149704861,159.0225869058184L244.74143898090279,158.37861310293812L245.090521515625,104.95582636278122L245.14679725,149.43804356945913L245.61240132291667,159.16888940122755L246.42632227430556,155.42551660902683L246.54299977951388,155.84850688057196L246.71684628472224,158.1759080692944L246.83336782291667,157.40031667948352L246.8338215451389,159.08365627055156" style="fill: none;" fill="none"></path></g></g></g></g></g></g><g transform="translate(74, 177)" clip-path="url(#clip_1)"><clipPath id="clip_1"><rect width="255" height="23"></rect></clipPath><g><g><line x1="0" y1="0" x2="0" y2="5" style="visibility: inherit;" fill="rgb(0, 0, 0)" stroke="rgb(204, 204, 204)" stroke-width="1px"></line><line x1="28.357638888888886" y1="0" x2="28.357638888888886" y2="5" style="visibility: inherit;" fill="rgb(0, 0, 0)" stroke="rgb(204, 204, 204)" stroke-width="1px"></line><line x1="56.71527777777777" y1="0" x2="56.71527777777777" y2="5" style="visibility: inherit;" fill="rgb(0, 0, 0)" stroke="rgb(204, 204, 204)" stroke-width="1px"></line><line x1="85.07291666666666" y1="0" x2="85.07291666666666" y2="5" style="visibility: inherit;" fill="rgb(0, 0, 0)" stroke="rgb(204, 204, 204)" stroke-width="1px"></line><line x1="113.43055555555554" y1="0" x2="113.43055555555554" y2="5" style="visibility: inherit;" fill="rgb(0, 0, 0)" stroke="rgb(204, 204, 204)" stroke-width="1px"></line><line x1="141.78819444444446" y1="0" x2="141.78819444444446" y2="5" style="visibility: inherit;" fill="rgb(0, 0, 0)" stroke="rgb(204, 204, 204)" stroke-width="1px"></line><line x1="170.14583333333331" y1="0" x2="170.14583333333331" y2="5" style="visibility: inherit;" fill="rgb(0, 0, 0)" stroke="rgb(204, 204, 204)" stroke-width="1px"></line><line x1="198.50347222222223" y1="0" x2="198.50347222222223" y2="5" style="visibility: inherit;" fill="rgb(0, 0, 0)" stroke="rgb(204, 204, 204)" stroke-width="1px"></line><line x1="226.8611111111111" y1="0" x2="226.8611111111111" y2="5" style="visibility: inherit;" fill="rgb(0, 0, 0)" stroke="rgb(204, 204, 204)" stroke-width="1px"></line><line x1="255.21875" y1="0" x2="255.21875" y2="5" style="visibility: inherit;" fill="rgb(0, 0, 0)" stroke="rgb(204, 204, 204)" stroke-width="1px"></line></g><g transform="translate(0, 8)"><text x="0" y="0" dx="0em" dy="0.95em" style="text-anchor: middle; visibility: hidden; font-family: &quot;Helvetica Neue&quot;, sans-serif; font-size: 12px; font-weight: 200;" fill="rgb(50, 49, 63)" stroke="none" stroke-width="1px">-2M</text><text x="28.357638888888886" y="0" dx="0em" dy="0.95em" style="text-anchor: middle; visibility: inherit; font-family: &quot;Helvetica Neue&quot;, sans-serif; font-size: 12px; font-weight: 200;" fill="rgb(50, 49, 63)" stroke="none" stroke-width="1px">0</text><text x="56.71527777777777" y="0" dx="0em" dy="0.95em" style="text-anchor: middle; visibility: inherit; font-family: &quot;Helvetica Neue&quot;, sans-serif; font-size: 12px; font-weight: 200;" fill="rgb(50, 49, 63)" stroke="none" stroke-width="1px">2M</text><text x="85.07291666666666" y="0" dx="0em" dy="0.95em" style="text-anchor: middle; visibility: inherit; font-family: &quot;Helvetica Neue&quot;, sans-serif; font-size: 12px; font-weight: 200;" fill="rgb(50, 49, 63)" stroke="none" stroke-width="1px">4M</text><text x="113.43055555555554" y="0" dx="0em" dy="0.95em" style="text-anchor: middle; visibility: inherit; font-family: &quot;Helvetica Neue&quot;, sans-serif; font-size: 12px; font-weight: 200;" fill="rgb(50, 49, 63)" stroke="none" stroke-width="1px">6M</text><text x="141.78819444444446" y="0" dx="0em" dy="0.95em" style="text-anchor: middle; visibility: inherit; font-family: &quot;Helvetica Neue&quot;, sans-serif; font-size: 12px; font-weight: 200;" fill="rgb(50, 49, 63)" stroke="none" stroke-width="1px">8M</text><text x="170.14583333333331" y="0" dx="0em" dy="0.95em" style="text-anchor: middle; visibility: inherit; font-family: &quot;Helvetica Neue&quot;, sans-serif; font-size: 12px; font-weight: 200;" fill="rgb(50, 49, 63)" stroke="none" stroke-width="1px">10M</text><text x="198.50347222222223" y="0" dx="0em" dy="0.95em" style="text-anchor: middle; visibility: inherit; font-family: &quot;Helvetica Neue&quot;, sans-serif; font-size: 12px; font-weight: 200;" fill="rgb(50, 49, 63)" stroke="none" stroke-width="1px">12M</text><text x="226.8611111111111" y="0" dx="0em" dy="0.95em" style="text-anchor: middle; visibility: inherit; font-family: &quot;Helvetica Neue&quot;, sans-serif; font-size: 12px; font-weight: 200;" fill="rgb(50, 49, 63)" stroke="none" stroke-width="1px">14M</text><text x="255.21875" y="0" dx="0em" dy="0.95em" style="text-anchor: middle; visibility: hidden; font-family: &quot;Helvetica Neue&quot;, sans-serif; font-size: 12px; font-weight: 200;" fill="rgb(50, 49, 63)" stroke="none" stroke-width="1px">16M</text></g><line x1="0" y1="0" x2="255.21875" y2="0" fill="rgb(0, 0, 0)" stroke="rgb(204, 204, 204)" stroke-width="1px"></line></g></g></g></g></svg>