<svg viewBox="0 0 330 200" xmlns="http://www.w3.org/2000/svg"><g><g><g><g><g><line x1="63.984375" y1="177" x2="58.984375" y2="177" style="visibility: inherit;" fill="rgb(0, 0, 0)" stroke="rgb(204, 204, 204)" stroke-width="1px"></line><line x1="63.984375" y1="154.875" x2="58.984375" y2="154.875" style="visibility: inherit;" fill="rgb(0, 0, 0)" stroke="rgb(204, 204, 204)" stroke-width="1px"></line><line x1="63.984375" y1="132.75" x2="58.984375" y2="132.75" style="visibility: inherit;" fill="rgb(0, 0, 0)" stroke="rgb(204, 204, 204)" stroke-width="1px"></line><line x1="63.984375" y1="110.62499999999999" x2="58.984375" y2="110.62499999999999" style="visibility: inherit;" fill="rgb(0, 0, 0)" stroke="rgb(204, 204, 204)" stroke-width="1px"></line><line x1="63.984375" y1="88.49999999999999" x2="58.984375" y2="88.49999999999999" style="visibility: inherit;" fill="rgb(0, 0, 0)" stroke="rgb(204, 204, 204)" stroke-width="1px"></line><line x1="63.984375" y1="66.375" x2="58.984375" y2="66.375" style="visibility: inherit;" fill="rgb(0, 0, 0)" stroke="rgb(204, 204, 204)" stroke-width="1px"></line><line x1="63.984375" y1="44.25" x2="58.984375" y2="44.25" style="visibility: inherit;" fill="rgb(0, 0, 0)" stroke="rgb(204, 204, 204)" stroke-width="1px"></line><line x1="63.984375" y1="22.125" x2="58.984375" y2="22.125" style="visibility: inherit;" fill="rgb(0, 0, 0)" stroke="rgb(204, 204, 204)" stroke-width="1px"></line><line x1="63.984375" y1="0" x2="58.984375" y2="0" style="visibility: inherit;" fill="rgb(0, 0, 0)" stroke="rgb(204, 204, 204)" stroke-width="1px"></line></g><g transform="translate(53.984375, 0)"><text x="0" y="177" dx="0em" dy="0.3em" style="text-anchor: end; visibility: hidden; font-family: &quot;Helvetica Neue&quot;, sans-serif; font-size: 12px; font-weight: 200;" fill="rgb(50, 49, 63)" stroke="none" stroke-width="1px">-0.05</text><text x="0" y="154.875" dx="0em" dy="0.3em" style="text-anchor: end; visibility: inherit; font-family: &quot;Helvetica Neue&quot;, sans-serif; font-size: 12px; font-weight: 200;" fill="rgb(50, 49, 63)" stroke="none" stroke-width="1px">0</text><text x="0" y="132.75" dx="0em" dy="0.3em" style="text-anchor: end; visibility: hidden; font-family: &quot;Helvetica Neue&quot;, sans-serif; font-size: 12px; font-weight: 200;" fill="rgb(50, 49, 63)" stroke="none" stroke-width="1px">0.05</text><text x="0" y="110.62499999999999" dx="0em" dy="0.3em" style="text-anchor: end; visibility: inherit; font-family: &quot;Helvetica Neue&quot;, sans-serif; font-size: 12px; font-weight: 200;" fill="rgb(50, 49, 63)" stroke="none" stroke-width="1px">0.1</text><text x="0" y="88.49999999999999" dx="0em" dy="0.3em" style="text-anchor: end; visibility: hidden; font-family: &quot;Helvetica Neue&quot;, sans-serif; font-size: 12px; font-weight: 200;" fill="rgb(50, 49, 63)" stroke="none" stroke-width="1px">0.15</text><text x="0" y="66.375" dx="0em" dy="0.3em" style="text-anchor: end; visibility: inherit; font-family: &quot;Helvetica Neue&quot;, sans-serif; font-size: 12px; font-weight: 200;" fill="rgb(50, 49, 63)" stroke="none" stroke-width="1px">0.2</text><text x="0" y="44.25" dx="0em" dy="0.3em" style="text-anchor: end; visibility: hidden; font-family: &quot;Helvetica Neue&quot;, sans-serif; font-size: 12px; font-weight: 200;" fill="rgb(50, 49, 63)" stroke="none" stroke-width="1px">0.25</text><text x="0" y="22.125" dx="0em" dy="0.3em" style="text-anchor: end; visibility: inherit; font-family: &quot;Helvetica Neue&quot;, sans-serif; font-size: 12px; font-weight: 200;" fill="rgb(50, 49, 63)" stroke="none" stroke-width="1px">0.3</text><text x="0" y="0" dx="0em" dy="0.3em" style="text-anchor: end; visibility: hidden; font-family: &quot;Helvetica Neue&quot;, sans-serif; font-size: 12px; font-weight: 200;" fill="rgb(50, 49, 63)" stroke="none" stroke-width="1px">0.35</text></g><line x1="63.984375" y1="0" x2="63.984375" y2="177" fill="rgb(0, 0, 0)" stroke="rgb(204, 204, 204)" stroke-width="1px"></line></g></g><g transform="translate(63, 0)" clip-path="url(#clip_0)"><clipPath id="clip_0"><rect width="266" height="177"></rect></clipPath><g><g><g><line x1="0" y1="0" x2="0" y2="177" fill="rgb(0, 0, 0)" stroke="rgb(60, 60, 60)" stroke-width="1px" opacity="0.25"></line><line x1="29.557291666666664" y1="0" x2="29.557291666666664" y2="177" fill="rgb(0, 0, 0)" stroke="rgb(60, 60, 60)" stroke-width="1px" opacity="0.25"></line><line x1="59.11458333333333" y1="0" x2="59.11458333333333" y2="177" fill="rgb(0, 0, 0)" stroke="rgb(60, 60, 60)" stroke-width="1px" opacity="0.25"></line><line x1="88.671875" y1="0" x2="88.671875" y2="177" fill="rgb(0, 0, 0)" stroke="rgb(60, 60, 60)" stroke-width="1px" opacity="0.25"></line><line x1="118.22916666666666" y1="0" x2="118.22916666666666" y2="177" fill="rgb(0, 0, 0)" stroke="rgb(60, 60, 60)" stroke-width="1px" opacity="0.25"></line><line x1="147.78645833333334" y1="0" x2="147.78645833333334" y2="177" fill="rgb(0, 0, 0)" stroke="rgb(60, 60, 60)" stroke-width="1px" opacity="0.25"></line><line x1="177.34375" y1="0" x2="177.34375" y2="177" fill="rgb(0, 0, 0)" stroke="rgb(60, 60, 60)" stroke-width="1px" opacity="0.25"></line><line x1="206.90104166666666" y1="0" x2="206.90104166666666" y2="177" fill="rgb(0, 0, 0)" stroke="rgb(60, 60, 60)" stroke-width="1px" opacity="0.25"></line><line x1="236.45833333333331" y1="0" x2="236.45833333333331" y2="177" fill="rgb(0, 0, 0)" stroke="rgb(60, 60, 60)" stroke-width="1px" opacity="0.25"></line><line x1="266.015625" y1="0" x2="266.015625" y2="177" fill="rgb(0, 0, 0)" stroke="rgb(60, 60, 60)" stroke-width="1px" opacity="0.25"></line></g><g><line x1="0" y1="177" x2="266.015625" y2="177" fill="rgb(0, 0, 0)" stroke="rgb(60, 60, 60)" stroke-width="1px" opacity="0.25"></line><line x1="0" y1="154.875" x2="266.015625" y2="154.875" fill="rgb(0, 0, 0)" stroke="rgb(60, 60, 60)" stroke-width="1px" opacity="0.25"></line><line x1="0" y1="132.75" x2="266.015625" y2="132.75" fill="rgb(0, 0, 0)" stroke="rgb(60, 60, 60)" stroke-width="1px" opacity="0.25"></line><line x1="0" y1="110.62499999999999" x2="266.015625" y2="110.62499999999999" fill="rgb(0, 0, 0)" stroke="rgb(60, 60, 60)" stroke-width="1px" opacity="0.25"></line><line x1="0" y1="88.49999999999999" x2="266.015625" y2="88.49999999999999" fill="rgb(0, 0, 0)" stroke="rgb(60, 60, 60)" stroke-width="1px" opacity="0.25"></line><line x1="0" y1="66.375" x2="266.015625" y2="66.375" fill="rgb(0, 0, 0)" stroke="rgb(60, 60, 60)" stroke-width="1px" opacity="0.25"></line><line x1="0" y1="44.25" x2="266.015625" y2="44.25" fill="rgb(0, 0, 0)" stroke="rgb(60, 60, 60)" stroke-width="1px" opacity="0.25"></line><line x1="0" y1="22.125" x2="266.015625" y2="22.125" fill="rgb(0, 0, 0)" stroke="rgb(60, 60, 60)" stroke-width="1px" opacity="0.25"></line><line x1="0" y1="0" x2="266.015625" y2="0" fill="rgb(0, 0, 0)" stroke="rgb(60, 60, 60)" stroke-width="1px" opacity="0.25"></line></g></g></g><g><g><line x1="0" y1="154.875" x2="266.015625" y2="154.875" fill="rgb(0, 0, 0)" stroke="rgb(153, 153, 153)" stroke-width="1.5px"></line></g></g><g><g><line x1="29.557291666666664" y1="0" x2="29.557291666666664" y2="177" fill="rgb(0, 0, 0)" stroke="rgb(153, 153, 153)" stroke-width="1.5px"></line></g></g><g><g><g><g><g><path stroke="rgb(255, 112, 67)" stroke-width="2px" d="M29.680323893229165,45.78235774487257L29.738980338541666,105.31100388569757L29.801287109375,81.63748362972116L29.9213044921875,89.1892376895583L30.223793815104166,93.09878505120864L30.466370507812503,90.35085131823826L30.46715377604167,76.64485198643558L30.586860807291664,131.5750224115204L30.647896614583335,38.43831572930392L30.769820442708337,46.01398764491631L30.770130794270834,36.65517122538904L30.829585286458336,52.378308489015936L31.436160026041666,64.3393098739785L31.67873671875,80.6571046996781L31.860100260416665,60.7974755816886L31.919392187499998,62.39320384825473L32.1015685546875,-28.562238356410006L32.40516627604167,-27.59531025291821L32.46462076822917,2.5781397952059706L32.707345247395835,-24.031357064922474L32.76823326822917,30.569034202839674L32.7691791015625,32.26876185801271L32.889994531250004,20.105140619106606L33.435060546875,27.456422058850137L33.61642408854166,80.32488497929268L33.8574046875,77.50902282485853L33.979801432291666,38.724206288878605L34.28277845052084,35.69008028186943L34.644722265625,53.627867910212345L34.828007031249996,53.063344304154384L34.82847994791667,55.55458681108426L34.8888802734375,83.28059327124001L34.94769928385417,82.1628625282386L35.12986087239583,96.33422230934693L35.13098404947917,42.526138002527574L35.31251015625,58.802673303395196L35.4336359375,54.31503972432199L35.67541458333333,58.3767103674374L35.79637779947917,52.2051030447454L35.917813932291665,58.7084648065496L36.342079296875,70.04338126446265L36.52344283854167,68.7004340916896L36.52393053385416,54.254191391947L36.94818111979167,69.97584977509014L37.0680359375,77.17141984901859L37.127963346354164,38.79387999034583L37.25068522135417,47.421666198904234L37.37181100260417,39.992857625345636L37.735025781249995,81.8096941218986L37.977277343749996,86.45361345747659L38.34081725260416,84.37399681650719L38.40089244791667,150.0847353682659L38.52234335937499,37.06531318090887L38.64363170572917,31.216967666518173L38.825320377604164,36.73017311654982L39.1874267578125,-59.87169187927947L39.36942578125,-50.45539524951272L39.43031380208333,23.230998684926732L39.43062415364583,111.84663788376521L39.48960572916666,120.54700558124968L39.55174993489583,127.39280921512251L39.5519125,113.66897236879694L39.61200247395833,22.915314278459135L39.6127857421875,82.90211726662872L39.733763736979164,92.09080625437119L40.39804908854167,82.91491525389205L40.58131907552083,42.241981738909715L41.49008756510416,49.65163663572349L41.792266536458335,62.83118890253472L41.792739453124994,90.84038579704028L42.277242578125,78.75944552565609L42.57909641927083,27.76017170992489L42.639821875,25.463948302549085L42.639984440104165,44.159743993331176L42.881910872395835,38.13049097588609L43.60788229166667,8.7228351040539L44.15342122395833,47.10696148299317L44.15373157552083,68.41147874696932L44.336218294270836,86.20259451510837L44.638397265624995,81.9563518592258L44.9409013671875,96.37530746034025L44.942009765625,79.77648205441973L45.3662603515625,69.60464870263782L45.48707578125,83.91112168776777L45.84885703125,65.31892259209029L46.09143372395833,73.15576351457042L46.45608203125,38.302274488050955L46.57737037760416,71.54453920581292L46.636337174479166,64.86722315405815L46.940747721354164,81.3600012633503L46.94105807291667,49.052934209901125L47.30300188802083,27.616814899681827L47.66670436197917,45.5441142459147L47.72757760416666,28.49093884464699L47.84728463541666,46.19850422284961L48.33400455729167,37.6890960475323L48.392823567708334,33.39436804297671L48.39409453125,-3.566779094677514L48.87732669270833,15.69528668955482L48.93772701822917,16.229849856111485L49.06012376302083,39.09916850686852L49.3014294921875,81.11684546104541L49.604554296874994,70.04202665228529L49.90800423177083,84.7184228127532L49.90832936197917,151.65749223085243L50.149620312500005,91.4422129574537L50.270435742187495,108.09162723246929L51.118463997395835,94.46740985944102L51.1788791015625,81.47697632333178L51.42127845052083,87.45251804185234L51.90721510416667,57.841309616519936L52.45148307291667,60.81955990466709L52.63302395833333,55.44444293244621L52.99560325520834,69.11283832766973L53.17903580729167,80.50668942319372L53.238327734375,116.16066640995155L53.360414127604166,28.843587150467698L53.72266829427084,35.047882902797L53.78402923177083,47.58705845664497L54.267098828125,58.5679959397945L54.268694921875,-22.050148645553975L54.57054876302083,23.55063599079014L54.63080130208333,10.538727842147125L54.63174713541667,54.60365348152811L54.9337783203125,76.0824210127741L54.99561217447917,119.77642397615611L55.29666796875,126.65791295861183L55.84316751302084,196.98630607065547L56.0844732421875,137.80382217727296L56.20543645833333,97.02378343798036L56.56928671875,71.57874902044125L56.569759635416666,76.06839610311025L56.629849609375,79.47813786669155L57.17618658854167,121.48816699298371L57.65941875,87.71317143149463L57.779909049479166,90.34857698325686L58.2052828125,93.88620586719735L58.2647373046875,55.85677840427532L58.445790494791666,63.33177234301549L58.809478190104166,57.685585096893206L59.052365234375,62.281100866447375L59.23452682291666,37.437579594403786L59.35454420572916,73.63124277135745L59.59806673177083,79.26044780278812L59.65783157552083,65.50136415818099L59.65831927083333,89.6255143771098L59.71888216145833,92.10672880646739L59.840480859375006,112.38725314251872L60.5675458984375,112.14028192587072L60.989904817708336,62.059968054457755L60.9914861328125,61.45333876321568L61.17159348958333,40.80861319368992L61.778493359375,78.54230799162931L62.0813078125,74.4177286618027L62.56485032552083,79.44567413586815L62.745903515625,74.42923257326149L63.292092708333335,84.49345881685652L63.2928759765625,81.50662734773779L63.35249303385417,139.63109768430604L63.716343294270835,39.63463991284499L63.83715872395833,72.94257594734506L63.89692356770833,101.08562780709609L64.26077382812501,67.3998101669046L64.38253509114583,78.99425198540047L64.62478665364583,77.46163604798885L65.3520142578125,96.78890275295362L65.47250455729167,96.71285149059166L65.47299225260417,88.98471572161597L65.59268450520833,91.59684677517937L65.59379290364583,84.29878356514293L65.83573411458333,92.59549390946576L66.07829602864584,83.81564771339147L66.92537845052084,82.194436906009L67.16699453125,92.93121690346544L67.28844544270834,67.1182565199956L67.65134986979166,90.88829158291963L67.77294856770834,88.81564215150921L68.07639850260416,77.09267331556944L68.07750690104166,48.624085011461176L68.13775944010416,73.53565984510112L68.50113678385418,39.460745337860146L68.62113938802082,12.169755401168118L68.68218997395833,55.660890100570796L69.28702083333333,80.96467268656032L69.52990787760417,60.69371684903109L70.13569934895834,55.24711863108995L70.2561896484375,47.86192916577173L71.04301953125,61.35034192946621L71.04414270833334,54.252214916628986L71.52801035156249,72.85497158502484L71.83160807291667,41.34613401731815L72.01298639322917,64.28740456128698L72.37556569010415,76.25631047144283L72.49685403645833,64.4736780217573L72.5575794921875,68.93821091599969L72.79934335937499,93.59907412169997L72.98119459635417,99.59156956904306L72.98135716145833,103.2511423968266L73.04302845052084,70.33427212494554L73.285442578125,92.42191641544069L73.34504485677083,101.44301044055679L73.52785670572916,99.1020230448774L73.58651315104167,121.0807618097896L73.70890989583333,113.90519926973786L73.8289125,60.269436609915516L73.82987311197915,71.50870507488943L73.83018346354167,55.242889449180936L74.01203470052083,68.24307621728288L74.37414108072917,34.82755662924589L74.43533945312501,54.7488525892886L74.49495651041667,14.95996186647372L74.73847903645834,32.9825878084514L74.73878938802083,113.42738022749504L74.98104095052084,89.85885699000882L75.6462869140625,114.26199502218918L75.82924654947917,84.74131180923675L75.94877623697917,123.61010468278225L76.07006458333333,98.44042778476414L76.07149811197917,49.60306645908558L76.13237135416666,34.16995667504429L76.251428125,140.00192269734833L76.55536575520834,134.40410692722975L76.73578346354167,118.50413668889627L76.98025182291667,113.48029460453287L77.46380911458334,92.16554644968089L77.82813229166666,117.64621541621372L77.8871138671875,98.71270987523845L78.00918548177083,28.41955259521754L78.130473828125,71.04647682356806L78.55314309895833,32.37409382014255L78.61544986979168,53.16216737597455L78.7349943359375,56.70763289969723L78.9161953125,70.59545970285869L79.15908235677084,67.48133957877717L79.64280221354166,29.30948968228674L79.82576184895834,32.32516770063029L80.674115234375,58.6391979396235L80.79491588541667,36.284477927678296L81.52136022135416,47.320623256798655L81.76392213541666,74.40007595153816L82.06722428385416,56.33350652415851L82.12809752604166,45.23385497307356L82.248750390625,68.48781437054623L82.36844264322916,78.19267857000439L82.37034908854166,100.07528848528986L82.43091197916667,100.42376703965738L82.97517994791667,70.33838387696788L83.64106139322917,75.20843272429015L83.641696875,82.67577554000204L84.0645287109375,83.34721442885865L84.2457296875,81.86911167995733L84.42837897135418,55.70123728690504L84.54839635416666,51.928204140531776L84.73230182291667,61.184752575437884L84.79095826822916,85.0329066213254L85.15497109374999,66.29736921765112L85.27673235677084,58.131037986741674L85.45683971354165,84.9067377710141L85.57938424479165,63.041870138871516L86.36686438802083,113.76769159694186L86.971059765625,87.24287783479492L87.21427194010417,110.25665699430289L87.21538033854168,116.45614995651232L87.33587063802084,113.88032839353554L87.39690644531251,114.87077988031908L87.63901022135417,98.13718143906237L87.87966569010418,100.86449298743035L88.60721842447917,106.187527122996L88.60816425781249,50.85253620916707L88.7292900390625,23.39393980368436L88.78890709635417,72.811011958879L88.84867194010415,78.66476876065838L89.2123744140625,69.21702223733487L89.21379316406251,68.57140865752353L89.33350019531251,60.89441568451673L89.57638723958334,95.66419473840328L89.63758561197916,120.43343199486156L90.48355963541667,46.39517235871921L90.66539609374999,78.97722831065518L90.84693697916667,78.75454738852419L91.1514953125,86.81817415128373L91.39342174479167,54.25803834062947L91.99890286458333,47.756672715318985L91.99921321614583,70.69869531552362L92.12066412760417,60.85977071738462L92.2419376953125,59.914892069794064L93.08854720052084,69.02407064872821L93.15054361979166,85.95463367156889L93.21016067708334,81.66302422495309L93.45161419270833,87.29556695706619L94.11780598958333,12.82207469992025L94.54127330729166,34.290170790864124L94.60278203125,50.26756807691639L95.14753769531251,42.20502213553658L95.449864453125,54.70380787799401L95.51155052083334,48.761137883363006L95.57242376302082,64.63892862528435L95.754275,49.175810499965365L96.17725462239584,108.94561233608675L96.48086712239582,97.31133207374067L96.78384414062499,50.44403151686936L96.96409928385417,73.10068875858752L97.38900013020833,66.04201254135114L97.38914791666666,83.45836138061131L97.57132428385417,76.77058814365532L97.75252526041668,86.18137145280161L98.4190421875,80.80195792758059L98.54033053385416,78.09397488977665L98.72026054687501,90.73535621700378L99.1446884765625,100.94734492920453L99.26628717447917,137.61385468407045L99.32732298177083,120.37551294126253L99.32764811197917,103.06711162542187L99.44781328125,83.63660055348208L99.44797584635417,136.56702482669908L99.44844876302083,99.92784014921997L99.50964713541666,71.9561315094329L99.6897544921875,45.311583919220965L99.81102805989583,47.10415882640709L99.93358736979167,70.17282321914213L99.99335221354167,70.81507907428846L100.35658177083333,39.56771572302881L100.41698209635418,56.624231826490785L100.5379453125,61.72416839672724L100.53921627604167,67.63446937902927L100.6601794921875,175.2896688157568L101.08317389322917,124.47622305001315L101.9925630859375,95.51219068673548L102.113378515625,95.34963497345028L102.17298079427084,120.49240076474473L102.29379622395834,96.2262993510492L102.41572005208333,57.37680561279818L102.47579524739582,40.314236396167075L102.71868229166667,48.117335563071606L103.26374830729166,72.98210610906365L103.50505403645833,43.46170235848476L104.049794921875,60.901693366027175L104.04995748697917,47.37261401537438L104.59582154947917,57.73907683148013L105.08048723958333,57.03529677602069L105.13977916666666,58.38464120812664L105.62506555989583,63.47752520017295L106.0502767578125,85.43584892494958L106.29047408854166,83.66319992448976L106.35214537760416,87.21164237145238L106.41365410156251,103.30134705191047L106.71536015625,64.73949237159009L106.89831979166667,122.63933743084141L107.14026100260416,91.05186067250173L107.321787109375,55.66412287489652L108.35119368489583,40.73061883173037L108.410323046875,51.33044732643157L108.83489876302083,61.81068985183829L108.8953138671875,57.92952397775525L109.19843867187501,41.548337407778945L109.19939928385416,56.820952870173L109.56214114583332,60.170465617014614L109.68214375,74.97542208649733L109.92599140625,58.27538620363485L110.04584622395834,111.50147076207882L110.16744492187499,37.54937683199935L110.28762486979166,68.68918775263484L110.41033196614583,60.34053238179119L110.4713677734375,68.79176160064836L110.5305119140625,90.34366325210034L110.53098483072917,94.41076269102393L110.83396184895834,75.31326164217175L110.83410963541667,98.27167750991214L111.0161234375,67.94091813920039L111.13741178385418,93.80592032243668L111.25804986979168,67.57025176864776L111.25853756510416,48.681209335219336L111.31750436197916,33.435772370989014L111.5614998046875,72.07626823362402L111.62142721354166,122.84570398644622L111.8037513671875,68.89703535864363L112.04553001302082,79.72520836192137L112.22721868489585,83.92495562134843L112.408271875,89.29075684546625L112.4685244140625,70.13512556790826L112.46867220052083,66.7462553354473L112.53035826822916,85.71388900115316L112.5910689453125,87.49183642467395L113.07415332031249,65.65137612581573L113.13566204427084,90.36703487715316L113.4375306640625,73.3761424421143L113.43800358072917,83.08860989206264L113.43816614583334,43.14394371982354L113.62032773437501,41.95680453941782L113.74049290364583,45.41265542248226L114.28508600260417,57.97651978993021L114.64893626302083,78.10329361059426L114.89182330729167,64.21653151689864L115.13487291666667,61.61286197411356L115.25489029947917,24.94698082987867L115.61730703125001,38.33776511302233L115.6177947265625,60.821999636594285L115.61857799479166,40.15735012132157L115.92012148437499,69.21931786887784L115.98117207031251,62.66223900349699L116.28398652343749,71.21241047878122L116.40653105468749,84.62569311648046L117.07161445312501,83.13549187713524L117.2529927734375,114.51254648917859L117.55517174479166,105.13847236307826L117.61747851562501,58.58702901883342L117.73717076822918,52.919724365373966L117.73813138020833,57.14008675533563L118.4032,71.90175004910249L119.37205846354166,64.93423178858053L119.3741126953125,70.24491108695561L119.55405748697916,33.76308249974187L119.67645423177083,42.21999777581652L119.79726966145833,14.473880024113413L120.28081217447917,64.05529663271197L120.40273600260416,69.70064885798985L120.52497018229167,79.54420734574731L120.94669361979166,90.44414925503932L121.43277805989584,78.87202499764085L121.73559251302083,65.38155705009054L122.09896985677084,114.90007804944605L122.0994427734375,90.99628020295195L122.70459876302083,108.1847134923559L122.70523424479165,86.39724686119683L122.94653997395834,70.69239657445985L123.00630481770833,96.25679841756366L123.12806608072917,79.95101543140137L123.18783092447916,77.6777002148135L123.2501376953125,83.90615847005269L123.4318263671875,114.92109039526474L123.55184375,91.58612152100379L123.73449303385416,73.4233912060307L123.854658203125,69.78373568830766L123.91585657552083,37.483300617801405L124.09787037760417,52.967449767272015L124.58125032552083,57.706327386427134L124.76357447916666,31.486231456833025L125.12553307291667,79.7351812585328L125.127276953125,78.77184138978328L125.246806640625,90.31420928707601L125.49112721354166,94.15484443736601L125.73290585937501,103.81163089682178L126.1571564453125,81.17063035791826L126.7613666015625,54.785780502711006L126.8839111328125,79.29544252208129L127.00488912760416,79.53694708079848L127.36777877604166,83.9745140309975L127.54995514322917,93.93767610554966L127.55026549479166,51.75908346393747L127.73084576822917,57.216119446867964L127.85086315104166,61.19983002454893L128.09485859375,60.472398232882355L128.69905397135418,61.6304167517812L128.941941015625,57.89804559104387L129.30658932291666,75.04423316212144L129.36604381510415,58.92635335261612L130.09183789062502,69.32055165907732L130.2134513671875,106.32963662060196L130.51610325520832,138.36770525105055L130.63866256510417,108.1314967425302L131.00140442708332,76.59928793022843L131.30389375000001,28.99509603565818L131.424221484375,37.14870196155243L131.42629049479166,47.82977079493719L131.48590755208332,68.71545313085865L131.78935748697916,64.5009073632106L132.031446484375,89.20451286984353L132.51498899739582,70.6428099307589L132.57555188802084,54.99881344039274L132.87900182291668,46.644761586183506L133.24190625,-14.340764436725266L133.72736998697917,23.602779174683377L133.90746256510414,25.206724098228165L134.21011445312502,34.69501230770513L134.69525305989583,38.67392577620842L134.7567765625,69.25228997255861L134.877104296875,73.05509150734841L135.1198287760417,46.1813379091698L135.11999134114583,56.547953931252835L135.18039166666668,62.55594458744565L135.66538248697915,55.12010653952143L135.72530989583333,67.7834154494964L136.14845208333335,42.55471682717578L136.39181204427084,56.492667604507076L137.23811119791665,64.37285895885293L137.72372272135416,61.10324992383279L137.7238852864583,66.6333347895429L137.84484850260415,69.37642532817632L137.84515885416667,79.02389645714828L138.26815325520832,81.21809737169306L139.11666920572915,74.87644125988221L139.11761503906249,43.278907131970726L139.17675917968748,64.02470125962546L139.17739466145832,98.78492049010396L139.17754244791666,88.84505494613526L139.66126230468748,110.06671748268055L140.57065149739583,90.57189249221948L140.99348333333333,53.67568412556926L140.9950646484375,13.712061471549731L141.05435657552084,51.196615589742706L141.11540716145834,53.13700216298392L141.5387119140625,-14.123294953792794L141.90145377604165,46.72881440264612L142.26497890624998,73.74957287575383L142.26530403645833,61.14203930655465L142.38674016927084,64.78019203400223L142.44779075520833,58.41093506011728L143.59816054687502,49.939073548277406L143.71865084635417,71.6031376096965L143.900176953125,55.122092322907505L144.3260236328125,87.01508702421287L144.386276171875,78.54514735093176L144.7499638671875,54.348584885301946L144.87094186197916,48.541863974870864L145.05166992187497,20.511553875769152L146.50501673177084,41.73745708892642L146.62550703125,52.71298630076586L146.68719309895832,52.609130874502284L146.74839147135415,36.67176413847662L146.86871920572918,31.900262119255387L146.92944466145835,51.860181571174834L146.98951985677084,74.88122043080877L147.414420703125,43.05021747391075L147.6569826171875,40.84260202312856L148.50455273437498,24.236847930338314L148.56384466145835,75.98596439965931L148.56527819010415,78.69782342438918L148.80593365885414,97.33984835997236L148.80640657552084,97.43768373164541L148.867930078125,125.24695050400797L148.98921842447916,25.62633057643353L149.10858554687502,60.354170290883644L149.6538141276042,83.65486739322915L149.95758919270833,72.15477594879493L149.95773697916667,69.28958759395613L150.07949824218753,-9.356662823627374L150.68307291666665,28.044888899403787L150.68385618489583,23.854673383043973L150.804346484375,88.12218940103457L150.9861977213542,60.2215739062095L151.04676061197918,62.86870596830035L151.35068346354169,54.9361863137721L151.53206178385418,70.43739857384199L151.65255208333332,75.45308674340625L151.77542174479166,102.50891649031746L151.95680006510418,87.33037558379237L152.50137838541667,68.407832230225L152.5606703125,58.42077673381257L152.56130579427082,85.94840276110583L152.98477311197917,87.51715381365068L153.10749498697916,109.04709868421284L153.5296765625,101.06169849509077L153.59009166666667,105.13560768588827L153.65112747395833,57.093289158489966L154.92278561197915,154.0435316155831L155.10574524739584,79.9541739934969L156.317165625,74.16135551120568L156.49758333333332,162.1107767438038L157.52682734375,75.23883325547834L157.58914889322918,101.45951296949899L157.77003951822917,66.89661701360056L157.95189075520832,-13.425604094036174L158.1949255859375,29.379477280993626L158.25421751302085,34.68746882594783L158.2554884765625,37.04674034665322L158.49583359374998,59.20764257818635L158.4972671223958,73.56597506886824L158.73935611979167,29.013497149265447L158.79960865885417,48.1851065518359L159.40634596354167,44.22842055928109L159.58612819010418,50.32067511899113L159.70916041666666,54.89356327904963L160.01039355468748,74.0290211639029L160.49504446614583,68.19809993810786L160.85905729166666,71.36424937967858L160.91930983072916,93.08735676779985L161.221163671875,67.2373923669734L161.40301490885417,91.5384938954102L161.5853390625,47.996053090023224L161.82695514322916,59.05026709158851L162.31336471354166,58.391226825831126L162.37281920572917,107.41133944628703L162.79596139322916,95.81196247600356L162.79786783854166,59.59883931912685L162.9174123046875,17.852488342748302L163.40159029947918,57.46275660623681L163.46405963541667,52.02242621320231L163.52255351562502,62.634993854390046L163.885930859375,104.4064358372846L164.129778515625,92.35259826179498L164.25043138020834,50.880177808977066L164.30972330729168,87.27535635087008L164.3723404296875,80.73434041054912L164.91756901041668,66.84936000771445L165.33944023437502,79.56411241511775L165.34056341145833,89.25045027446909L165.70394075520832,83.41758694417575L165.76354303385418,69.29959872762738L165.76544947916668,67.64486386716592L165.88483138020834,67.47068356776373L165.94570462239582,96.80104966195901L166.12882682291666,108.8931046335845L166.188916796875,98.46233723216942L166.30924453125002,78.08866722675377L166.43147871093748,43.357847185684534L166.85527115885418,66.32296262487968L166.97463828125,82.39592188033579L166.97576145833332,81.98117314537238L167.15759791666667,96.43222228890579L167.398578515625,61.50667225245189L167.3990662109375,44.58483196451397L167.52097526041666,54.22974369915802L168.0652580078125,78.91196762914943L168.24805507812502,81.32823319670847L168.24821764322917,114.27388023026163L168.36790989583332,74.23451770953758L168.5511798828125,65.69617255993143L168.91408430989583,71.3758790878502L168.914246875,79.83841641772074L169.0948271484375,98.44089969860484L169.21673619791665,89.34466577689034L169.27635325520833,22.872217590333122L169.822690234375,31.139392533732092L169.94412636718752,50.94832613994636L170.36648528645833,50.91868385332798L171.15474869791666,26.385519305813148L171.33501861979167,33.79222945567835L171.57758053385416,69.18594551501792L171.8807201171875,78.68366138290237L172.18417005208332,61.37798612207692L172.24567877604167,166.94024724895075L172.30513326822918,114.12216100176761L172.36537102864582,98.8689795886313L172.36569615885418,107.23185085981102L172.36664199218748,95.54025340514785L172.789473828125,85.71720081828478L172.78979895833334,83.0146085337546L173.15268860677085,78.79038907979408L173.15317630208332,68.44247409638453L173.2738143880208,34.17493901215008L173.940966796875,33.479819497835706L174.00025872395832,59.83893604360344L174.24345611979166,5.804903884424704L174.24425416666668,44.71353232842321L174.6680318359375,65.46960736502193L174.78710338541666,62.20894959383597L175.03046334635417,26.173258923371975L175.09182428385418,67.55361077808163L175.51607486979168,92.11609650550973L175.817618359375,93.60553283034974L175.87818125,105.207672807808L175.93890670572918,59.83649516894535L175.99914446614585,48.61075020905801L176.12106829427083,82.22579350517077L176.24155859375,68.62560708788561L177.15127291666667,72.95992864052967L177.39352447916667,101.92272794734248L177.51465026041666,101.04376337373739L177.63403216145832,82.48952094283392L177.99724694010416,105.28465382720047L178.11980624999998,115.67353035563238L178.17862526041665,128.03699542241696L178.18004401041668,112.18587247227074L178.30133235677084,105.46161779579187L178.54311100260415,136.33656070123115L179.14810442708333,120.5872765778899L179.57378854166666,68.74703409072161L179.75357076822917,84.05590424714325L180.17814648437502,96.79792233126066L180.238709375,93.03785900662365L180.78282955729168,125.76542205670489L180.90459082031248,92.43339588677294L181.99550611979168,105.01139701119308L182.17688444010415,98.32211256153133L182.47873828125,129.699571603547L183.327416796875,125.66143970579533L183.75072154947918,101.21261076861994L183.93400631510417,101.33832683404908L183.99456920572916,82.2314662321843L184.296423046875,79.83133280482514L184.41818430989585,79.75855144087447L184.72083619791667,97.53403879239544L184.78156165364584,87.27656161209575L184.84148906250002,98.50230439705032L184.96325032552082,135.15705893905388L185.3250463541667,108.52323894185677L185.567445703125,116.00030791898284L185.56760826822918,110.32673821085521L185.80954947916666,91.643019123279L185.8708956380208,86.92050531411347L186.05227395833333,54.17327175679313L186.35539876302082,34.53791869963712L186.90142539062498,12.317449422392258L187.02144277343749,45.27392270667136L187.02159055989583,86.40446241276133L187.566819140625,106.82683148280779L187.93115709635416,67.58026585159301L188.17324609375,62.92923861549855L188.23317350260416,63.82810743633841L189.383705859375,26.598331057929613L189.80860670572918,49.03632844621157L189.92940735677084,52.20164590855964L190.170225390625,75.75327715742904L190.53472591145834,73.68512948434541L190.65599947916667,65.03978697705858L190.65679752604166,46.710028560451235L190.775854296875,110.70611826717351L190.95850358072917,98.74801140510735L191.13908385416667,107.28888092776354L191.92782018229167,112.0786306580318L192.23016171875,112.80044478299695L192.654101953125,111.73745572043941L193.01700638020833,88.26458513124875L193.07709635416666,74.66265063812786L193.1985324869792,86.28645415354045L193.3193479166667,82.6603733882205L193.62406881510418,93.79073592781401L193.68383365885418,44.31039047097789L193.6847794921875,55.243463524315516L193.74359850260416,49.4687252510391L193.86488684895832,14.09313013963714L193.86519720052084,24.936163650827496L193.9256123046875,18.6929097455006L193.92655813802082,55.70242346115478L194.22906223958336,57.73489897124509L195.25736041666667,47.70770199103677L195.56222910156248,59.42989296617225L195.68271940104165,70.3099618935711L196.04609674479167,-4.959965957157209L196.166749609375,26.591608439116214L196.468766015625,40.00772682382376L196.71228854166668,-11.621315839566535L197.07439492187498,28.610727076126523L197.2565712890625,50.871827336784236L197.31728196614586,68.77540724136591L197.50040416666667,52.39316081200933L197.61978606770833,50.284870384305066L198.16628561197916,77.00437050352656L198.22572532552084,58.52058654004432L198.46861236979166,71.68801632210075L198.589265234375,94.15462664848243L199.13433125,86.72906924239204L199.1354396484375,106.88606340260151L199.254658984375,82.08795082909371L199.62010533854166,74.86518686617913L199.74028528645835,76.46960052910747L199.80005013020832,69.92171435095848L199.86045045572916,80.51562878810154L200.1030271484375,77.58344257070297L200.46718776041666,52.709127314053006L200.95027213541667,60.554081211782716L201.01130794270833,4.661731738029232L201.0128892578125,39.92959163378376L201.13259628906252,-5.829772509391944L201.55717200520834,33.38944063350209L201.85918841145832,21.975840108183917L202.22383671875,69.591419962995L202.70786692708333,78.51531847593351L202.88843242187502,85.69221083091L203.0100458984375,60.366198425092094L203.070919140625,35.41372479474413L203.25166197916667,65.06279563740412L204.28170403645834,78.1900501718254L205.06918417968748,74.65504531086272L205.25071028645834,70.1620650948333L205.37263411458335,84.585962711945L205.49375989583334,64.21532174299647L205.61392506510418,76.518328308168L205.7353759765625,68.4165162379163L206.03770273437502,131.14992715326653L206.1001720703125,117.91910950486485L206.15899108072918,103.055914081005L206.21955397135415,83.65194476060138L206.2818607421875,91.10788842089214L206.40171555989582,98.48972382871649L206.52332903645834,118.15144155012572L207.06886796875,121.08600654057864L207.12768697916667,93.42166300029875L207.12974121093748,88.89477199263168L207.49153723958335,89.90271343557113L207.49217272135417,75.91077100198314L207.61424433593749,57.25094832754638L207.97714876302084,90.29483504832689L208.03644069010417,73.44491916740478L208.217966796875,78.3037867685827L208.40092643229167,83.95714138392641L208.58166927083334,99.04688285406849L208.8240833984375,10.86444299588453L209.188569140625,65.20578462657244L209.3691494140625,91.11843363286204L209.5509858723958,94.90765610540596L209.5511484375,100.24761418226174L209.79323743489584,95.80372237695939L210.09748541666667,101.36889040043167L210.21766536458333,96.9164293054951L210.39998951822918,123.70359183627144L210.46038984375,110.07486868368252L211.06569361979166,11.180318179527887L211.18681940104167,59.94639342817662L211.42892317708333,94.71544970187841L211.61155768229168,91.89497021504224L212.45880266927082,75.76572893362032L212.51841972656248,79.9491619336652L212.70137936197918,88.58341330844445L213.24644537760418,83.49369562601018L213.42670052083332,74.80259784421307L213.850315625,124.85595500684369L213.8522220703125,91.62370135317198L214.335616796875,60.0860029872057L214.5791393229167,61.17104991470556L214.7592466796875,100.34846160527935L215.3648755859375,39.846089963417455L215.3662943359375,62.48059053975416L215.48694720052086,54.99750442360681L215.60807298177082,17.5078112724712L215.72983424479168,16.40107408423964L215.91152291666668,35.22829523539389L215.97097740885417,64.87304573718215L216.09177805989583,73.61838069536391L216.5169892578125,65.08577313410106L216.57771471354167,53.46623446575917L216.87846015625,78.88138722945521L216.93934817708333,70.96667491536898L217.24390651041668,72.9451297977064L217.30352356770834,53.66200271001421L218.08971796875,65.62821037918901L218.27252981770835,50.87563904732809L219.42369765625,34.02360301977603L219.54338990885418,91.32553325230604L220.08941653645834,104.62552706530526L220.270780078125,107.54167230207224L220.45373971354167,72.86607347892821L220.513031640625,-18.654527992206198L220.574392578125,-15.164429819701581L220.69488287760416,32.81496295713279L221.05826022135417,67.23896640618379L221.24105729166666,79.95170085179647L221.48330885416667,55.330817225860585L221.54260078124997,54.537227254084954L221.66356399739584,67.98744798956645L221.8465236328125,61.00687666689356L221.90534264322918,93.72679127949478L221.96559518229168,109.07942029132246L221.96781197916667,109.67895067807316L222.08799192708332,84.0828767512815L222.14806712239584,174.5536780234919L222.26951803385415,111.07946515540755L222.27062643229166,65.732565954092L222.3310267578125,50.63264990136793L222.814421484375,77.22476192585093L222.87434889322918,111.56793931102133L222.87530950520835,91.1199251620494L223.0563626953125,66.6901140814139L223.05699817708333,47.62187508375129L223.11739850260417,77.12793207693505L223.23741588541668,98.2603762136603L223.66150390625,129.31581057081846L223.78469869791667,32.77712374311821L223.9662248046875,44.93971840370975L224.08544414062501,14.27990447181034L224.14616959635418,80.69055359183292L224.26729537760417,69.26413093577945L225.054450390625,62.28350223047212L225.2361390625,-10.693799180134079L225.41831542968748,-10.321643443312638L225.41958639322917,8.024008529540055L225.90218307291667,-7.70846481492751L225.96352923177085,28.085946241792243L226.75069902343748,31.819491815433622L227.29623795572917,136.14359554759608L228.44773092447917,124.52488983638253L228.689021875,102.3403446046541L228.809349609375,150.6008969913739L229.29481334635418,115.13270596389879L229.5985736328125,148.60384120330158L229.83908131510418,162.02068736126986L229.84098776041668,134.20310941023212L229.96036966145832,106.20733564306843L230.20245865885417,123.16359172960847L230.6281427734375,101.2003315252109L230.98977623697917,59.28214755428098L231.41514999999998,-4.364965386556037L231.65580546875,15.052161182542761L231.77805442708333,57.58319852386718L232.0196705078125,92.61593242516999L232.08038118489586,94.46716239768793L232.2015069661458,98.2577523825677L232.50401106770835,106.53391901034784L232.92938483072916,114.9831756301443L233.29243704427083,83.11567920730832L233.59414309895834,75.92443160883381L233.71526888020833,88.36999416155692L233.89648463541667,80.3117503333275L233.9576830078125,69.20568625975754L233.957993359375,33.80856670647327L233.95895397135416,39.8640620393125L234.68601901041666,31.795828573856824L235.35141276041668,43.69630715427044L235.53168268229166,126.97673961923863L235.95720423177082,105.53046716693846L235.95783971354166,125.2173274228958L236.37987350260414,95.27785916149543L236.56315826822916,78.76260920476871L236.80540983072916,65.25124385125608L237.2277539713542,38.791461087269624L238.016505078125,-8.325577189324491L238.49926432291667,48.488450831295125L238.62260690104168,78.08433194078272L238.68142591145835,-19.756262891785724L238.682696875,20.458508209409473L238.80286204427082,15.41130578280817L239.28800065104167,52.30873466438847L239.470014453125,79.93202848974941L239.77139537760416,82.71861342039156L239.7717205078125,87.33877597419287L240.19597109375,106.33775176207939L240.43838522135417,97.93736474872065L240.67983873697915,30.882240409615235L240.80065416666667,60.117833194114326L240.92225286458333,93.83766295953247L240.98424928385418,73.31195112731248L241.04401412760416,81.40873057345266L241.52804433593752,38.8095730525238L241.52899016927083,40.792863052009494L241.5900259765625,53.772336438845954L241.89284042968748,67.19848507079564L242.07342070312498,43.84886575003313L242.19550709635416,66.70270584827573L242.25447389322918,40.547057865893294L242.61959511718752,34.0285802178594L242.73897701822918,48.29664820391014L243.10315240885416,112.9107245114927L243.1627546875,4.224304169862506L243.2843681640625,80.9999432000214L243.52725520833332,84.71156121985281L243.58702005208335,65.72079437193968L243.89046998697916,70.19460671673835L243.95103287760415,74.78110267538202L244.07326705729167,71.0402476091288L244.25304928385415,69.79694221908464L245.161330078125,104.82046851521872L245.16260104166665,111.01542211178626L245.40470481770834,97.75099161925127L245.46510514322918,104.56325973219997L246.13145950520834,107.85654021589355L246.3733859375,102.68442014031645L246.3744943359375,82.74992237194203L246.43331334635417,66.76073996248138L246.433948828125,52.13779759420332L246.8575787109375,51.58072964259013L246.97997545572917,45.1021375233413L247.15975768229166,91.69957832448819L247.16150156249998,97.99436774374925L247.64553177083332,94.2545550377481L247.82785592447917,90.83172881670671L247.88841881510416,105.27432329844163L248.0081110677083,98.62162370616629L248.00858398437498,94.21752973577043L248.06867395833333,85.70156481075682L248.31092552083334,92.6320377183461L248.55285195312499,91.7013099278512L248.79559121093752,112.73254073399319L249.03847825520833,163.90657838426836L249.4612953125,127.83972368087058L249.9462861328125,107.59231664207985L250.06835774739582,87.31515158395415L250.18821256510418,101.48881848860051L250.36973867187498,63.331365336229L250.37180768229166,37.36678425624942L250.43237057291665,56.36896934303627L250.79543756510418,62.12819450016609L250.79574791666664,54.892168372367564L251.03705364583334,50.83495491712971L251.33970553385416,41.120636826572905L251.52139420572917,57.17468558896667L251.70371835937502,84.77606286793403L252.36943723958333,102.79961221852571L252.79352526041666,99.76959200464887L252.79401295572916,97.52072224773885L252.91450325520833,130.70841174875451L253.03577682291666,63.22004499170038L253.21762805989582,56.687799359159754L253.641730859375,53.76366457927054L253.76238372395832,67.52996217362775L253.7631669921875,59.20843711884437L253.822621484375,64.30053352350959L253.943747265625,85.13461875787358L254.4883403645833,18.64352130812992L254.6713,31.93712643338793L254.79226321614584,36.981274834594444L255.09507766927084,39.7005630560644L255.4589279296875,23.98151685165928L255.51758437499998,50.587543093368794L256.002885546875,60.87173641515102L256.85123893229166,41.31268964882091L256.9728524088542,66.85051481381294L257.15405338541666,37.36268855604669L257.275504296875,56.7924558786937L257.2759772135417,58.2081358801358" style="fill: none;" fill="none"></path></g></g></g></g><g opacity="0.2"><g><g><g><path stroke="rgb(255, 112, 67)" stroke-width="2px" d="M29.680323893229165,45.78235774487257L29.738980338541666,141.02819157019258L29.801287109375,58.9109041839838L29.9213044921875,98.07010046392679L30.223793815104166,98.20309008657932L30.466370507812503,86.54946970939636L30.46715377604167,57.04505364596844L30.586860807291664,211.6637382209301L30.647896614583335,-98.92023575305944L30.769820442708337,57.26297754049301L30.770130794270834,22.701830372214317L30.829585286458336,75.87744976580143L31.436160026041666,82.24175720661879L31.67873671875,105.1018286794424L31.860100260416665,31.031376153230667L31.919392187499998,64.78567081689835L32.1015685546875,-164.95691236853605L32.161806315104165,1.9370790123939514L32.40516627604167,-44.44465582072738L32.46462076822917,47.83555689454079L32.707345247395835,-63.94414302706721L32.76823326822917,112.46782445535064L32.7691791015625,34.81831978261471L32.889994531250004,1.8598528504371643L33.435060546875,38.48329196870327L33.61642408854166,159.6273539001122L33.8574046875,73.28523679822683L33.979801432291666,-19.452958971261978L34.28277845052084,31.13889406621456L34.644722265625,80.53453943878412L34.828007031249996,52.21655908226967L34.82847994791667,59.29145007580519L34.8888802734375,124.86959965154529L34.94769928385417,80.4862664937973L35.12986087239583,117.59126137197018L35.13098404947917,-38.18598707020283L35.31251015625,83.21747600287199L35.4336359375,47.583589397370815L35.67541458333333,64.46921630948782L35.79637779947917,42.94769208133221L35.917813932291665,68.46350743621588L36.342079296875,87.0457559376955L36.52344283854167,66.68601333349943L36.52393053385416,32.5848273485899L36.94818111979167,93.55833734571934L37.0680359375,87.96477495878935L37.127963346354164,-18.772429794073105L37.25068522135417,60.36334551125765L37.37181100260417,28.849644765257835L37.735025781249995,144.53494886588305L37.977277343749996,93.4194924607873L38.34081725260416,81.2545718550682L38.40089244791667,248.6508431956172L38.52234335937499,-132.46382009983068L38.64363170572917,22.44444939494133L38.825320377604164,44.99998129159212L39.1874267578125,-204.77448937296873L39.36942578125,-36.33095030486584L39.43031380208333,133.76058958657086L39.43062415364583,244.77009668201208L39.48960572916666,133.59755712747574L39.55174993489583,137.66151466593146L39.5519125,93.08321709930897L39.61200247395833,-113.21517285704618L39.6127857421875,172.88232174888253L39.733763736979164,105.8738397359848L40.39804908854167,69.15107875317335L40.58131907552083,-18.767418533563614L41.49008756510416,60.76611898094416L41.792266536458335,82.60051730275154L41.792739453124994,132.8541811387986L42.277242578125,60.638035118579865L42.57909641927083,-48.7387390136719L42.639821875,22.019613191485405L42.639984440104165,72.2034375295043L42.881910872395835,29.086611449718475L43.60788229166667,-35.388648703694344L44.15342122395833,104.68315105140209L44.15373157552083,100.3682546429336L44.336218294270836,112.88926816731691L44.638397265624995,75.58698787540197L44.9409013671875,118.00374086201191L44.942009765625,54.878243945539L45.3662603515625,54.346898674964905L45.48707578125,105.37083116546273L45.84885703125,37.430623948574066L46.09143372395833,84.91102489829063L46.45608203125,-13.977959051728249L46.57737037760416,121.40793628245592L46.636337174479166,54.85124907642603L46.940747721354164,106.09916842728853L46.94105807291667,0.5923336297273636L47.30300188802083,-4.537364065647125L47.66670436197917,72.43506326526403L47.72757760416666,2.9111757427453995L47.84728463541666,72.7598522901535L48.33400455729167,24.92498378455639L48.392823567708334,26.952276036143303L48.39409453125,-59.00849980115893L48.87732669270833,44.58838536590338L48.93772701822917,17.03169460594654L49.06012376302083,73.4031464830041L49.3014294921875,144.14336089231074L49.604554296874994,53.42979843914509L49.90800423177083,106.73301705345511L49.90832936197917,252.06609635800123L50.149620312500005,1.1192940473556519L50.270435742187495,133.0657486449927L51.118463997395835,74.03108379989862L51.1788791015625,61.9913260191679L51.42127845052083,96.4158306196332L51.90721510416667,13.424496978521347L52.45148307291667,65.28693533688784L52.63302395833333,47.381767474114895L52.99560325520834,89.61543142050505L53.17903580729167,97.59746606647968L53.238327734375,169.64163189008832L53.360414127604166,-102.13203173875814L53.72266829427084,44.35432653129101L53.78402923177083,66.39582178741693L54.267098828125,75.03940216451883L54.268694921875,-142.9773655235768L54.57054876302083,91.9518129453063L54.63080130208333,-8.979134380817413L54.63174713541667,120.70104194059968L54.9337783203125,108.30057230964303L54.99561217447917,185.31742842122912L55.29666796875,136.98014643229544L55.84316751302084,302.4788957387209L56.0844732421875,49.03009633719921L56.20543645833333,35.85372532904148L56.56928671875,33.411197394132614L56.569759635416666,82.80286672711372L56.629849609375,84.5927505120635L57.17618658854167,184.50321068242192L57.65941875,37.050678089261055L57.779909049479166,94.30168531090021L58.2052828125,99.19264919310808L58.2647373046875,-1.187362790107727L58.445790494791666,74.54426325112581L58.809478190104166,49.21630422770977L59.052365234375,69.17437452077866L59.23452682291666,0.17229768633842468L59.35454420572916,127.92173753678799L59.59806673177083,87.7042553499341L59.65783157552083,44.86273869127035L59.65831927083333,125.81173970550299L59.71888216145833,95.82855045050383L59.840480859375006,142.80803964659572L60.5675458984375,111.76982510089874L60.989904817708336,-13.060502752661705L60.9914861328125,60.543394826352596L61.17159348958333,9.841524839401245L61.778493359375,135.14285018853843L62.0813078125,68.23085966706276L62.56485032552083,86.98759234696627L62.745903515625,66.90457022935152L63.292092708333335,99.58979818224907L63.2928759765625,77.02638014405966L63.35249303385417,226.81780318915844L63.716343294270835,-110.36004674434668L63.83715872395833,122.9044799990952L63.89692356770833,143.30020559672266L64.26077382812501,16.871083706617355L64.38253509114583,96.3859147131443L64.62478665364583,75.16271214187145L65.3520142578125,125.77980281040072L65.47250455729167,96.59877459704876L65.47299225260417,77.39251206815243L65.59268450520833,95.51504335552454L65.59379290364583,73.35168875008821L65.83573411458333,105.04055942595005L66.07829602864584,70.64587841928005L66.92537845052084,79.76262069493532L67.16699453125,109.0363868996501L67.28844544270834,28.39881594479084L67.65134986979166,126.5433441773057L67.77294856770834,85.70666800439358L68.07639850260416,59.50822006165981L68.07750690104166,5.921202555298805L68.13775944010416,110.90302209556103L68.50113678385418,-11.65162642300129L68.62113938802082,-28.76672950387001L68.68218997395833,120.89759214967489L69.28702083333333,118.9203465655446L69.52990787760417,30.287283092737198L70.13569934895834,47.07722130417824L70.2561896484375,36.78414496779442L71.04301953125,81.58296107500792L71.04414270833334,43.6050243973732L71.52801035156249,100.75910658761859L71.83160807291667,-5.917122334241867L72.01298639322917,98.69931037724018L72.37556569010415,94.2096693366766L72.49685403645833,46.799729347229004L72.5575794921875,75.63501025736332L72.79934335937499,130.5903689302504L72.98119459635417,108.5803127400577L72.98135716145833,108.74050163850188L73.04302845052084,20.958966717123985L73.285442578125,125.55338285118341L73.34504485677083,114.97465147823095L73.52785670572916,95.59054195135832L73.58651315104167,154.04886995715788L73.70890989583333,103.14185545966029L73.8289125,-20.184207379817963L73.82987311197915,88.36760777235031L73.83018346354167,30.84416601061821L74.01203470052083,87.74335636943579L74.37414108072917,-15.295722752809525L74.43533945312501,84.63079652935266L74.49495651041667,-44.72337421774867L74.73847903645834,60.016526721417904L74.73878938802083,234.0945688560605L74.98104095052084,54.506072133779526L75.6462869140625,150.86670207045972L75.82924654947917,40.46028698980808L75.94877623697917,181.91329399310052L76.07006458333333,60.68591243773699L76.07149811197917,-23.652975529432297L76.13237135416666,11.02029199898243L76.251428125,298.74987173080444L76.55536575520834,126.00738327205181L76.73578346354167,94.6541813313961L76.98025182291667,105.94453147798777L77.46380911458334,60.193424217402935L77.82813229166666,155.867218866013L77.8871138671875,70.31245156377554L78.00918548177083,-77.02018332481387L78.130473828125,134.98686316609383L78.55314309895833,-25.63448068499565L78.61544986979168,84.34427770972252L78.7349943359375,62.02583118528128L78.9161953125,91.42719990760088L79.15908235677084,62.810159392654896L79.64280221354166,-27.948285162448883L79.82576184895834,36.8486847281456L80.674115234375,98.11024329811335L80.79491588541667,2.752397909760475L81.52136022135416,63.87484125047922L81.76392213541666,115.01925499364734L82.06722428385416,29.233652383089066L82.12809752604166,28.584377646446228L82.248750390625,103.36875346675515L82.36844264322916,92.74997486919165L82.37034908854166,132.89920335821807L82.43091197916667,100.94648487120867L82.97517994791667,25.210309132933617L83.64106139322917,82.51350599527359L83.641696875,93.87678976356983L84.0645287109375,84.35437276214361L84.2457296875,79.65195755660534L84.42837897135418,16.44942569732666L84.54839635416666,46.26865442097187L84.73230182291667,75.06957522779703L84.79095826822916,120.8051376901567L85.15497109374999,38.1940631121397L85.27673235677084,45.88154114037752L85.45683971354165,125.07028744742274L85.57938424479165,30.244568690657616L86.36686438802083,189.85642378404737L86.971059765625,47.45565719157457L87.21427194010417,144.7773257335648L87.21538033854168,125.75538939982653L87.33587063802084,110.01659604907036L87.39690644531251,116.35645711049438L87.63901022135417,73.03678377717733L87.87966569010418,104.9554603099823L88.60721842447917,114.17207832634449L88.60816425781249,-32.14995016157627L88.7292900390625,-17.79395480453968L88.78890709635417,146.93662019167095L88.84867194010415,87.44540396332741L89.2123744140625,55.04540245234966L89.21379316406251,67.60298828780651L89.33350019531251,49.37892622500658L89.57638723958334,147.81886331923306L89.63758561197916,157.58728787954897L90.48355963541667,-64.6622170954943L90.66539609374999,127.85031223855913L90.84693697916667,78.4205260053277L91.1514953125,98.91361429542303L91.39342174479167,5.417834624648094L91.99890286458333,38.00462427735329L91.99921321614583,105.11172921583056L92.12066412760417,46.101383820176125L92.2419376953125,58.49757409840822L93.08854720052084,82.68783851712942L93.15054361979166,111.35047820582986L93.21016067708334,75.22561005502939L93.45161419270833,95.74438105523586L94.11780598958333,-98.8881636857987L94.54127330729166,66.49231492727995L94.60278203125,74.2336640059948L95.14753769531251,30.111203223466873L95.449864453125,73.45198649168015L95.51155052083334,39.84713289141655L95.57242376302082,88.45561473816633L95.754275,25.981133311986923L96.17725462239584,198.60031509026885L96.48086712239582,79.85991168022156L96.78384414062499,-19.856919318437576L96.96409928385417,107.0856746211648L97.38900013020833,55.45399821549654L97.38914791666666,109.58288463950157L97.57132428385417,66.73892828822136L97.75252526041668,100.29754641652107L98.4190421875,72.73283763974905L98.54033053385416,74.03200033307076L98.72026054687501,109.6974282078445L99.1446884765625,116.26532799750566L99.26628717447917,192.6136193163693L99.32732298177083,94.51800032705069L99.32764811197917,77.10450965166092L99.44781328125,54.490833945572376L99.44797584635417,215.96266123652458L99.44844876302083,44.96906313300133L99.50964713541666,29.998568549752235L99.6897544921875,5.344762533903122L99.81102805989583,49.79302118718624L99.93358736979167,104.7758198082447L99.99335221354167,71.77846285700798L100.35658177083333,-7.303329303860664L100.41698209635418,82.20900598168373L100.5379453125,69.37407325208187L100.53921627604167,76.49992085248232L100.6601794921875,336.7724679708481L101.08317389322917,48.256054401397705L101.9925630859375,52.066142141819L102.113378515625,95.10580140352249L102.17298079427084,158.20654945168644L102.29379622395834,59.82714723050594L102.41572005208333,-0.8974349945783615L102.47579524739582,14.720382571220398L102.71868229166667,59.8219843134284L103.26374830729166,110.27926192805171L103.50505403645833,-0.8189032673835754L104.049794921875,87.0616798773408L104.04995748697917,27.07899498939514L104.59582154947917,73.28877105563879L105.08048723958333,55.979626692831516L105.13977916666666,60.40865785628557L105.62506555989583,71.11685118824244L106.0502767578125,118.37333451211452L106.29047408854166,81.00422642379999L106.35214537760416,92.53430604189634L106.41365410156251,127.43590407259762L106.71536015625,6.896710351109505L106.89831979166667,209.4891050197184L107.14026100260416,43.67064553499222L107.321787109375,2.5825161784887314L108.35119368489583,18.330362766981125L108.410323046875,67.23019006848335L108.83489876302083,77.53105363994837L108.8953138671875,52.107775166630745L109.19843867187501,16.976557552814484L109.19939928385416,79.7298760637641L109.56214114583332,65.19473473727703L109.68214375,97.18285679072142L109.92599140625,33.225332379341125L110.04584622395834,191.3405975997448L110.16744492187499,-73.37876406311992L110.28762486979166,115.39890413358808L110.41033196614583,47.81754932552576L110.4713677734375,81.4686054289341L110.5305119140625,122.67151572927833L110.53098483072917,100.51141184940934L110.83396184895834,46.66701006889343L110.83410963541667,132.70930131152272L111.0161234375,22.444779083132744L111.13741178385418,132.6034235972911L111.25804986979168,28.21674893796444L111.25853756510416,20.347645685076714L111.31750436197916,10.567616924643517L111.5614998046875,130.03701202757657L111.62142721354166,198.9998576156795L111.8037513671875,-12.025967583060265L112.04553001302082,95.96746786683798L112.22721868489585,90.22457651048899L112.408271875,97.33945868164301L112.4685244140625,41.401678651571274L112.46867220052083,61.66294998675585L112.53035826822916,114.16533949971199L112.5910689453125,90.15875755995512L113.07415332031249,32.89068567752838L113.13566204427084,127.44052300415933L113.4375306640625,47.88980378955603L113.43800358072917,97.65731106698513L113.43816614583334,-16.773055538535118L113.62032773437501,40.17609576880932L113.74049290364583,50.596431747078896L114.28508600260417,76.82231634110212L114.64893626302083,108.2934543415904L114.89182330729167,43.38638837635517L115.13487291666667,57.70735765993595L115.25489029947917,-30.051840886473656L115.61730703125001,58.423941537737846L115.6177947265625,94.54835142195225L115.61857799479166,9.160375848412514L115.92012148437499,112.8122694902122L115.98117207031251,52.82662070542574L116.28398652343749,84.03766769170761L116.40653105468749,104.74561707302928L117.07161445312501,80.90019001811743L117.2529927734375,161.57812840724364L117.55517174479166,91.07736117392778L117.61747851562501,-11.240135997533798L117.73717076822918,44.418767385184765L117.73813138020833,63.47063034027815L118.4032,94.04424498975277L119.37205846354166,54.482954397797585L119.3741126953125,78.21093003451824L119.55405748697916,-20.95966038107872L119.67645423177083,54.90537068992853L119.79726966145833,-27.14529660344124L120.28081217447917,138.42742154560983L120.40273600260416,78.16867719590664L120.52497018229167,94.30954507738352L120.94669361979166,106.79406211897731L121.43277805989584,61.51383861154318L121.73559251302083,45.145855128765106L122.09896985677084,189.17785954847932L122.0994427734375,55.14058343321085L122.70459876302083,133.96736342646182L122.70523424479165,53.716046914458275L122.94653997395834,47.13512114435434L123.00630481770833,134.6034011822194L123.12806608072917,55.492340952157974L123.18783092447916,74.26772738993168L123.2501376953125,93.24884585291147L123.4318263671875,161.44348828308284L123.55184375,56.58366820961237L123.73449303385416,46.17929573357105L123.854658203125,64.32425241172314L123.91585657552083,-10.967351987957954L124.09787037760417,76.19367349147797L124.58125032552083,64.8146438151598L124.76357447916666,-7.843912437558174L125.12553307291667,152.1086059610825L125.127276953125,77.32683158665895L125.246806640625,107.62776113301516L125.49112721354166,99.91579716280103L125.73290585937501,118.29681058600545L126.1571564453125,47.20912954956293L126.7613666015625,15.208505719900131L126.8839111328125,116.05993555113673L127.00488912760416,79.89920391887426L127.36777877604166,90.63086445629597L127.54995514322917,108.8824192173779L127.55026549479166,-11.508805498480797L127.73084576822917,65.4016734212637L127.85086315104166,67.17539589107037L128.09485859375,59.3812505453825L128.69905397135418,63.36744453012943L128.941941015625,52.299488849937916L129.30658932291666,100.7635145187378L129.36604381510415,34.749533638358116L130.09183789062502,84.91184911876917L130.2134513671875,161.84326406288892L130.51610325520832,186.42480819672346L130.63866256510417,62.77718397974968L131.00140442708332,29.30097471177578L131.30389375000001,-42.411191806197166L131.424221484375,49.37911085039377L131.42629049479166,63.85137404501438L131.48590755208332,100.04397663474083L131.78935748697916,58.179088711738586L132.031446484375,126.25992112979293L132.51498899739582,42.80025552213192L132.57555188802084,31.53281870484352L132.87900182291668,34.11368380486965L133.24190625,-105.81905347108847L133.72736998697917,80.5180945917964L133.90746256510414,27.612641483545303L134.21011445312502,48.927444621920586L134.69525305989583,44.642295978963375L134.7567765625,115.11983626708388L134.877104296875,78.75929380953312L135.1198287760417,5.8707075119018555L135.11999134114583,72.0978779643774L135.18039166666668,71.5679305717349L135.66538248697915,43.966349467635155L135.72530989583333,86.77837881445885L136.14845208333335,4.711668893694878L136.39181204427084,77.399593770504L137.23811119791665,76.1931459903717L137.72372272135416,56.198836371302605L137.7238852864583,74.92846208810806L137.84484850260415,73.49106113612652L137.84515885416667,93.49510315060616L138.26815325520832,84.50939874351025L139.11666920572915,65.36395709216595L139.11761503906249,-4.117394059896469L139.17675917968748,95.1433924511075L139.17739466145832,150.92524933582172L139.17754244791666,73.93525663018227L139.66126230468748,141.89921128749847L140.57065149739583,61.3296550065279L140.99348333333333,-1.6686284244060516L140.9950646484375,-46.23337250947955L141.05435657552084,107.42344676703215L141.11540716145834,56.047582022845745L141.5387119140625,-115.0137406289578L141.90145377604165,138.0069784373045L142.26497890624998,114.28071058541536L142.26530403645833,42.23073895275593L142.38674016927084,70.23742112517357L142.44779075520833,48.857049599289894L143.59816054687502,37.23128128051758L143.71865084635417,104.09923370182514L143.900176953125,30.400524392724037L144.3260236328125,134.85457907617092L144.386276171875,65.8402378410101L144.7499638671875,18.053741186857224L144.87094186197916,39.83178260922432L145.05166992187497,-21.533911272883415L146.50501673177084,73.57631190866232L146.62550703125,69.17628011852503L146.68719309895832,52.453347735106945L146.74839147135415,12.765714034438133L146.86871920572918,24.743009090423584L146.92944466145835,81.80006074905396L146.98951985677084,109.41277872025967L147.414420703125,-4.696286961436272L147.6569826171875,37.5311788469553L148.50455273437498,-0.6717832088470459L148.56384466145835,153.6096391036408L148.56527819010415,82.76561196148396L148.80593365885414,125.30288576334715L148.80640657552084,97.584436789155L148.867930078125,166.96085066255182L148.98921842447916,-123.80459931492811L149.10858554687502,112.44592986255884L149.6538141276042,118.60591304674745L149.95758919270833,54.90463878214359L149.95773697916667,64.99180506169796L150.07949824218753,-127.32603845000273L150.68307291666665,84.14721648395061L150.68385618489583,17.569350108504295L150.804346484375,184.52346342802048L150.9861977213542,18.3706506639719L151.04676061197918,66.83940406143665L151.35068346354169,43.03740683197975L151.53206178385418,93.68921696394682L151.65255208333332,82.97661899775267L151.77542174479166,143.09266111068428L151.95680006510418,64.56256422400475L152.50137838541667,40.024017199873924L152.5606703125,43.440193489193916L152.56130579427082,127.2398418020457L152.98477311197917,89.87028039246798L153.10749498697916,141.3420159900561L153.5296765625,89.08359821140766L153.59009166666667,111.24647147208452L153.65112747395833,-14.97018863260746L155.10574524739584,-31.179862439632416L156.317165625,65.47212778776884L156.49758333333332,294.03490859270096L157.52682734375,-55.0690819770098L157.58914889322918,140.79053254052997L157.77003951822917,15.052273079752922L157.95189075520832,-133.9089357554913L158.1949255859375,93.58709934353828L158.25421751302085,42.64945614337921L158.2554884765625,40.585647627711296L158.49583359374998,92.44899592548609L158.4972671223958,95.10347380489111L158.73935611979167,-37.81521973013878L158.79960865885417,76.94252065569162L159.40634596354167,38.293391570448875L159.58612819010418,59.459056958556175L159.70916041666666,61.75289551913738L160.01039355468748,102.7322079911828L160.49504446614583,59.4517180994153L160.85905729166666,76.11347354203463L160.91930983072916,125.67201784998178L161.221163671875,28.46244576573372L161.40301490885417,127.99014618806541L161.5853390625,-17.31760811805725L161.82695514322916,75.63158809393644L162.31336471354166,57.40266642719507L162.37281920572917,180.9415083769709L162.79596139322916,78.41289702057838L162.79786783854166,5.27915458381176L162.9174123046875,-44.767038121819525L163.40159029947918,116.87815900146961L163.46405963541667,43.86193062365055L163.52255351562502,78.55384531617165L163.885930859375,167.06359881162643L164.129778515625,74.27184189856052L164.25043138020834,-11.328452870249748L164.30972330729168,141.86812416370958L164.3723404296875,70.92281650006771L164.91756901041668,46.02188940346241L165.33944023437502,98.6362410262227L165.34056341145833,103.77995706349611L165.70394075520832,74.66829194873571L165.76354303385418,48.12261640280485L165.76544947916668,65.16276157647371L165.88483138020834,67.20941311866045L165.94570462239582,140.79659880325198L166.12882682291666,127.03118709102273L166.188916796875,82.81618613004684L166.30924453125002,47.528162218630314L166.43147871093748,-8.738382875919342L166.85527115885418,100.77063578367233L166.97463828125,106.50536076352L166.97576145833332,81.35905004292727L167.15759791666667,118.10879600420594L167.398578515625,9.118347197771072L167.3990662109375,19.20207153260708L167.52097526041666,68.6971113011241L168.0652580078125,115.93530352413654L168.24805507812502,84.95263154804707L168.24821764322917,163.69235078059137L168.36790989583332,14.175473928451538L168.5511798828125,52.888654835522175L168.91408430989583,79.89543887972832L168.914246875,92.53222241252661L169.0948271484375,126.34462461993098L169.21673619791665,75.70031489431858L169.27635325520833,-76.83645468950274L169.822690234375,43.540154948830605L169.94412636718752,80.66172654926777L170.36648528645833,50.8742204234004L171.15474869791666,-10.41422751545906L171.33501861979167,44.90229468047619L171.57758053385416,122.27651960402727L171.8807201171875,92.9302351847291L172.18417005208332,35.419473230838776L172.24567877604167,325.28363893926144L172.30513326822918,34.89503163099289L172.36537102864582,75.9892074689269L172.36569615885418,119.77615776658058L172.36664199218748,78.00285722315311L172.789473828125,70.98262193799019L172.78979895833334,78.96072010695934L173.15268860677085,72.4540598988533L173.15317630208332,52.92060162127018L173.2738143880208,-17.226363614201546L173.940966796875,32.437140226364136L174.00025872395832,99.3776108622551L174.24345611979166,-75.24614435434344L174.24425416666668,103.076474994421L174.6680318359375,96.60371991991997L174.78710338541666,57.31796293705702L175.03046334635417,-27.880277082324028L175.09182428385418,129.6241385601461L175.51607486979168,128.9598250966519L175.817618359375,95.83968731760979L175.87818125,122.6108827739954L175.93890670572918,-8.220271289348602L175.99914446614585,31.772132769227028L176.12106829427083,132.64835844933987L176.24155859375,48.22532746195793L177.15127291666667,79.46141096949577L177.39352447916667,145.36692690756172L177.51465026041666,99.72531651332974L177.63403216145832,54.65815729647875L177.99724694010416,139.4773531537503L178.11980624999998,131.25684514828026L178.17862526041665,146.58219302259386L178.18004401041668,88.40918804705143L178.30133235677084,95.37523578107357L178.54311100260415,182.64897505939007L179.14810442708333,96.96335039287806L179.57378854166666,-9.013329640030861L179.75357076822917,107.01920948177576L180.17814648437502,115.9109494574368L180.238709375,87.3977640196681L180.78282955729168,174.85676663182676L180.90459082031248,42.43535663187504L181.99550611979168,123.87839869782329L182.17688444010415,88.28818588703871L182.47873828125,176.76576016657054L183.327416796875,119.60424185916781L183.75072154947918,64.53936736285686L183.93400631510417,101.5269009321928L183.99456920572916,53.57117532938719L184.296423046875,76.23113266378641L184.41818430989585,79.64937939494848L184.72083619791667,124.19726981967688L184.78156165364584,71.8903458416462L184.84148906250002,115.3409185744822L184.96325032552082,190.13919075205922L185.3250463541667,68.57250894606113L185.567445703125,127.21591138467193L185.56760826822918,101.81638364866376L185.80954947916666,63.61744049191475L185.8708956380208,79.83673460036516L186.05227395833333,5.052421420812607L186.35539876302082,5.084889113903046L186.90142539062498,-21.01325449347496L187.02144277343749,94.70863263309002L187.02159055989583,148.1002719718963L187.566819140625,137.4603850878775L187.93115709635416,8.710417404770851L188.17324609375,55.95269776135683L188.23317350260416,65.17641066759825L189.383705859375,-29.24633350968361L189.80860670572918,82.69332452863455L189.92940735677084,56.949622102081776L190.170225390625,111.08072403073311L190.53472591145834,70.58290797472L190.65599947916667,52.07177321612835L190.65679752604166,19.2153909355402L190.775854296875,206.70025282725692L190.95850358072917,80.8108511120081L191.13908385416667,120.10018521174788L191.92782018229167,119.26325525343418L192.23016171875,113.88316597044468L192.654101953125,110.14297212660313L193.01700638020833,53.05527924746275L193.07709635416666,54.25974889844656L193.1985324869792,103.72215942665935L193.3193479166667,77.22125224024057L193.62406881510418,110.48627973720431L193.68383365885418,-29.910127714276314L193.6847794921875,71.64307310432196L193.74359850260416,40.806617841124535L193.86488684895832,-38.97026252746582L193.86519720052084,41.20071391761303L193.9256123046875,9.3280288875103L193.92655813802082,111.21669403463602L194.22906223958336,60.78361223638058L195.25736041666667,32.6669065207243L195.56222910156248,77.01317942887545L195.68271940104165,86.6300652846694L196.04609674479167,-117.86485773324972L196.166749609375,73.91897003352642L196.468766015625,60.131904400885105L196.71228854166668,-89.064879834652L197.07439492187498,88.95879144966602L197.2565712890625,84.2634777277708L197.31728196614586,95.63077709823847L197.50040416666667,27.819791167974472L197.61978606770833,47.12243474274874L198.16628561197916,117.08362068235874L198.22572532552084,30.794910594820976L198.46861236979166,91.43916099518538L198.589265234375,127.85454213805497L199.13433125,75.59073313325644L199.1354396484375,137.12155464291573L199.254658984375,44.890781968832016L199.62010533854166,64.03104092180729L199.74028528645835,78.87622102349997L199.80005013020832,60.09988508373499L199.86045045572916,96.40650044381618L200.1030271484375,73.18516324460506L200.46718776041666,15.397654429078102L200.95027213541667,72.32151205837727L201.01130794270833,-79.176792472601L201.0128892578125,92.83138147741556L201.13259628906252,-74.46881872415545L201.55717200520834,92.21826034784317L201.85918841145832,4.855439320206642L202.22383671875,141.0147897452116L202.70786692708333,91.9011662453413L202.88843242187502,96.45754936337471L203.0100458984375,22.377179816365242L203.070919140625,-2.0149856507778168L203.25166197916667,109.53640190139413L204.28170403645834,97.88093197345734L205.06918417968748,69.35253801941872L205.25071028645834,63.422594770789146L205.37263411458335,106.22180913761258L205.49375989583334,33.65936028957367L205.61392506510418,94.97283815592527L205.7353759765625,56.263798132538795L206.03770273437502,225.25004352629185L206.1001720703125,98.07288303226233L206.15899108072918,80.76112094521523L206.21955397135415,54.54599077999592L206.2818607421875,102.29180391132832L206.40171555989582,109.56247694045305L206.52332903645834,147.64401813223958L207.06886796875,125.48785402625799L207.12768697916667,51.92514768987894L207.12974121093748,82.10443548113108L207.49153723958335,91.41462559998035L207.49217272135417,54.922857351601124L207.61424433593749,29.261214315891266L207.97714876302084,139.86066512949765L208.03644069010417,48.17004534602165L208.217966796875,85.5920881703496L208.40092643229167,92.43717330694199L208.58166927083334,121.68149505928159L208.8240833984375,-121.40921679139143L209.188569140625,146.7177970726043L209.3691494140625,129.98740714229643L209.5509858723958,100.59148981422186L209.5511484375,108.25755129754543L209.79323743489584,89.13788466900587L210.09748541666667,109.7166424356401L210.21766536458333,90.23773766309023L210.39998951822918,163.88433563243598L210.46038984375,89.63178395479918L211.06569361979166,-137.16150757670408L211.18681940104167,133.09550630114973L211.42892317708333,146.8690341124311L211.61155768229168,87.66425098478794L212.45880266927082,51.571867011487484L212.51841972656248,86.22431143373251L212.70137936197918,101.53479037061334L213.24644537760418,75.85911910235882L213.42670052083332,61.76595117151737L213.850315625,199.93599075078964L213.8522220703125,41.77532087266445L214.335616796875,12.779455438256264L214.5791393229167,62.79862030595541L214.7592466796875,159.11457914113998L215.3648755859375,-50.90746749937537L215.3662943359375,96.4323414042592L215.48694720052086,43.772875249385834L215.60807298177082,-38.726728454232216L215.72983424479168,14.74096830189228L215.91152291666668,63.4691269621253L215.97097740885417,109.34017148986459L216.09177805989583,86.73638313263655L216.5169892578125,52.286861792206764L216.57771471354167,36.036926463246346L216.87846015625,117.00411637499928L216.93934817708333,59.094606444239616L217.24390651041668,75.91281212121248L217.30352356770834,24.737312078475952L218.08971796875,83.57752188295126L218.27252981770835,28.746782049536705L219.42369765625,8.745548978447914L219.54338990885418,177.27842860110104L220.08941653645834,124.5755177848041L220.270780078125,111.91589015722275L220.45373971354167,20.85267524421215L220.513031640625,-155.9354301989079L220.574392578125,-9.929282560944557L220.69488287760416,104.78405212238431L221.05826022135417,118.87497157976031L221.24105729166666,99.02080252021551L221.48330885416667,18.399491786956787L221.54260078124997,53.34684229642153L221.66356399739584,88.1627790927887L221.8465236328125,50.536019682884216L221.90534264322918,142.80666319839656L221.96559518229168,132.10836380906403L221.96781197916667,110.57824625819921L222.08799192708332,45.688765861094L222.14806712239584,310.2598799318075L222.26951803385415,15.868145853281021L222.27062643229166,-2.287782847881317L222.3310267578125,27.982775822281837L222.814421484375,117.11292996257544L222.87434889322918,163.08270538877696L222.87530950520835,60.44790393859148L223.0563626953125,30.045397460460663L223.05699817708333,19.019516587257385L223.11739850260417,121.38701756671071L223.23741588541668,129.95904241874814L223.66150390625,175.8989621065557L223.78469869791667,-112.03090649843222L223.9662248046875,63.18361039459705L224.08544414062501,-31.709816426038742L224.14616959635418,180.3065272718668L224.26729537760417,52.12449695169926L225.054450390625,51.8125591725111L225.2361390625,-120.15975129604345L225.41831542968748,-9.763409838080406L225.41958639322917,35.54248648881912L225.90218307291667,-31.3071748316288L225.96352923177085,81.77756282687187L226.75069902343748,37.41981017589569L227.29623795572917,292.6297511458397L228.44773092447917,107.09683126956224L228.689021875,69.06352675706148L228.809349609375,222.99172557145357L229.29481334635418,61.9304194226861L229.5985736328125,198.81054406240582L229.83908131510418,182.14595659822226L229.84098776041668,92.47674248367548L229.96036966145832,64.21367499232292L230.20245865885417,148.5979758594185L230.6281427734375,68.25544121861458L230.98977623697917,-3.5951284021139145L231.41514999999998,-99.83563479781157L231.65580546875,44.17785103619099L231.77805442708333,121.37975453585386L232.0196705078125,145.16503327712417L232.08038118489586,97.24400735646486L232.2015069661458,103.94363735988736L232.50401106770835,118.94816895201802L232.92938483072916,127.65706055983901L233.29243704427083,35.314434573054314L233.59414309895834,65.13756021112204L233.71526888020833,107.0383379906416L233.89648463541667,68.22438459098339L233.9576830078125,52.54659014940262L233.957993359375,-19.28711262345314L233.95895397135416,48.94730503857136L234.68601901041666,19.693478375673294L235.35141276041668,61.5470250248909L235.53168268229166,251.89738831669092L235.95720423177082,73.3610584884882L235.95783971354166,154.74761780683184L236.37987350260414,50.368656769394875L236.56315826822916,53.98973426967859L236.80540983072916,44.984195820987225L237.2277539713542,-0.8982130587100983L238.016505078125,-79.00113460421568L238.49926432291667,133.70949286222458L238.62260690104168,122.47815360501409L238.68142591145835,-166.5171551406384L238.682696875,80.78066486120224L238.80286204427082,7.840502142906189L239.28800065104167,107.65487798675895L239.470014453125,121.36696922779083L239.77139537760416,86.89849081635475L239.7717205078125,94.26901980489492L240.19597109375,134.83621544390917L240.43838522135417,85.33678422868252L240.67983873697915,-69.70044609904292L240.80065416666667,103.97122237086296L240.92225286458333,144.4174076076597L240.98424928385418,42.523383378982544L241.04401412760416,93.5538997426629L241.52804433593752,-25.089163228869438L241.52899016927083,43.76779805123806L241.5900259765625,73.24154651910067L241.89284042968748,87.33770801872015L242.07342070312498,8.824436768889427L242.19550709635416,100.98346599563956L242.25447389322918,1.3135858923196793L242.61959511718752,24.2508637458086L242.73897701822918,69.69875018298626L243.10315240885416,209.83183897286654L243.2843681640625,196.16340174525976L243.52725520833332,90.27898824959993L243.58702005208335,37.23464410007L243.89046998697916,76.90532523393631L243.95103287760415,81.66084661334753L244.07326705729167,65.42896500974894L244.25304928385415,67.93198413401842L245.161330078125,157.35575795941986L245.16260104166665,120.30785250663757L245.40470481770834,77.85434588044882L245.46510514322918,114.78166190162301L246.13145950520834,112.7964609414339L246.3733859375,94.92624002695084L246.3744943359375,52.84817571938038L246.43331334635417,42.77696634829044L246.433948828125,30.203384041786194L246.8575787109375,50.74512771517038L246.97997545572917,35.38424934446812L247.15975768229166,161.5957395262085L247.16150156249998,107.43655187264085L247.64553177083332,88.64483597874641L247.82785592447917,85.69748948514462L247.88841881510416,126.93821502104402L248.0081110677083,88.64257431775331L248.00858398437498,87.61138878017664L248.06867395833333,72.92761742323637L248.31092552083334,103.02774707973003L248.55285195312499,90.30521824210882L248.79559121093752,144.2793869432062L249.03847825520833,240.66763485968113L249.4612953125,73.7394416257739L249.9462861328125,77.22120608389378L250.06835774739582,56.899403996765614L250.18821256510418,122.74931884557009L250.36973867187498,6.095185607671738L250.37180768229166,-1.5800873637199402L250.43237057291665,84.87224697321653L250.79543756510418,70.76703223586082L250.79574791666664,44.038129180669785L251.03705364583334,44.74913473427296L251.33970553385416,26.549159690737724L251.52139420572917,81.2557587325573L251.70371835937502,126.17812878638506L252.36943723958333,129.83493624441326L252.79352526041666,95.2245616838336L252.79401295572916,94.14741761237383L252.91450325520833,180.489946000278L253.03577682291666,-38.012505143880844L253.21762805989582,46.88943091034889L253.641730859375,49.3774624094367L253.76238372395832,88.17940856516361L253.7631669921875,46.726149536669254L253.822621484375,71.93867813050747L253.943747265625,116.38574660941958L254.4883403645833,-81.09312486648565L254.6713,51.87753412127495L254.79226321614584,44.54749743640423L255.09507766927084,43.779495388269424L255.4589279296875,0.4029475450515747L255.51758437499998,90.4965824559331L256.002885546875,76.29802639782429L256.85123893229166,11.974119499325752L256.9728524088542,105.157252561301L257.15405338541666,-6.869050830602646L257.275504296875,85.93710686266422L257.2759772135417,60.331655882298946" style="fill: none;" fill="none"></path></g></g></g></g></g></g><g transform="translate(63, 177)" clip-path="url(#clip_1)"><clipPath id="clip_1"><rect width="266" height="23"></rect></clipPath><g><g><line x1="0" y1="0" x2="0" y2="5" style="visibility: inherit;" fill="rgb(0, 0, 0)" stroke="rgb(204, 204, 204)" stroke-width="1px"></line><line x1="29.557291666666664" y1="0" x2="29.557291666666664" y2="5" style="visibility: inherit;" fill="rgb(0, 0, 0)" stroke="rgb(204, 204, 204)" stroke-width="1px"></line><line x1="59.11458333333333" y1="0" x2="59.11458333333333" y2="5" style="visibility: inherit;" fill="rgb(0, 0, 0)" stroke="rgb(204, 204, 204)" stroke-width="1px"></line><line x1="88.671875" y1="0" x2="88.671875" y2="5" style="visibility: inherit;" fill="rgb(0, 0, 0)" stroke="rgb(204, 204, 204)" stroke-width="1px"></line><line x1="118.22916666666666" y1="0" x2="118.22916666666666" y2="5" style="visibility: inherit;" fill="rgb(0, 0, 0)" stroke="rgb(204, 204, 204)" stroke-width="1px"></line><line x1="147.78645833333334" y1="0" x2="147.78645833333334" y2="5" style="visibility: inherit;" fill="rgb(0, 0, 0)" stroke="rgb(204, 204, 204)" stroke-width="1px"></line><line x1="177.34375" y1="0" x2="177.34375" y2="5" style="visibility: inherit;" fill="rgb(0, 0, 0)" stroke="rgb(204, 204, 204)" stroke-width="1px"></line><line x1="206.90104166666666" y1="0" x2="206.90104166666666" y2="5" style="visibility: inherit;" fill="rgb(0, 0, 0)" stroke="rgb(204, 204, 204)" stroke-width="1px"></line><line x1="236.45833333333331" y1="0" x2="236.45833333333331" y2="5" style="visibility: inherit;" fill="rgb(0, 0, 0)" stroke="rgb(204, 204, 204)" stroke-width="1px"></line><line x1="266.015625" y1="0" x2="266.015625" y2="5" style="visibility: inherit;" fill="rgb(0, 0, 0)" stroke="rgb(204, 204, 204)" stroke-width="1px"></line></g><g transform="translate(0, 8)"><text x="0" y="0" dx="0em" dy="0.95em" style="text-anchor: middle; visibility: hidden; font-family: &quot;Helvetica Neue&quot;, sans-serif; font-size: 12px; font-weight: 200;" fill="rgb(50, 49, 63)" stroke="none" stroke-width="1px">-2M</text><text x="29.557291666666664" y="0" dx="0em" dy="0.95em" style="text-anchor: middle; visibility: inherit; font-family: &quot;Helvetica Neue&quot;, sans-serif; font-size: 12px; font-weight: 200;" fill="rgb(50, 49, 63)" stroke="none" stroke-width="1px">0</text><text x="59.11458333333333" y="0" dx="0em" dy="0.95em" style="text-anchor: middle; visibility: inherit; font-family: &quot;Helvetica Neue&quot;, sans-serif; font-size: 12px; font-weight: 200;" fill="rgb(50, 49, 63)" stroke="none" stroke-width="1px">2M</text><text x="88.671875" y="0" dx="0em" dy="0.95em" style="text-anchor: middle; visibility: inherit; font-family: &quot;Helvetica Neue&quot;, sans-serif; font-size: 12px; font-weight: 200;" fill="rgb(50, 49, 63)" stroke="none" stroke-width="1px">4M</text><text x="118.22916666666666" y="0" dx="0em" dy="0.95em" style="text-anchor: middle; visibility: inherit; font-family: &quot;Helvetica Neue&quot;, sans-serif; font-size: 12px; font-weight: 200;" fill="rgb(50, 49, 63)" stroke="none" stroke-width="1px">6M</text><text x="147.78645833333334" y="0" dx="0em" dy="0.95em" style="text-anchor: middle; visibility: inherit; font-family: &quot;Helvetica Neue&quot;, sans-serif; font-size: 12px; font-weight: 200;" fill="rgb(50, 49, 63)" stroke="none" stroke-width="1px">8M</text><text x="177.34375" y="0" dx="0em" dy="0.95em" style="text-anchor: middle; visibility: inherit; font-family: &quot;Helvetica Neue&quot;, sans-serif; font-size: 12px; font-weight: 200;" fill="rgb(50, 49, 63)" stroke="none" stroke-width="1px">10M</text><text x="206.90104166666666" y="0" dx="0em" dy="0.95em" style="text-anchor: middle; visibility: inherit; font-family: &quot;Helvetica Neue&quot;, sans-serif; font-size: 12px; font-weight: 200;" fill="rgb(50, 49, 63)" stroke="none" stroke-width="1px">12M</text><text x="236.45833333333331" y="0" dx="0em" dy="0.95em" style="text-anchor: middle; visibility: inherit; font-family: &quot;Helvetica Neue&quot;, sans-serif; font-size: 12px; font-weight: 200;" fill="rgb(50, 49, 63)" stroke="none" stroke-width="1px">14M</text><text x="266.015625" y="0" dx="0em" dy="0.95em" style="text-anchor: middle; visibility: hidden; font-family: &quot;Helvetica Neue&quot;, sans-serif; font-size: 12px; font-weight: 200;" fill="rgb(50, 49, 63)" stroke="none" stroke-width="1px">16M</text></g><line x1="0" y1="0" x2="266.015625" y2="0" fill="rgb(0, 0, 0)" stroke="rgb(204, 204, 204)" stroke-width="1px"></line></g></g></g></g></svg>